%
M48
M72
T01C0.02756
T02C0.03200
T03C0.12598
%
T01
X25022Y36683
X25022Y44557
X25022Y91801
X25022Y99675
X25022Y107549
X25022Y131171
X25022Y139045
X25022Y146919
X25022Y154793
X25022Y241407
X25022Y249281
X119510Y249281
X119510Y241407
X119510Y233533
X119510Y44557
X119510Y36683
T02
X96400Y56250
X86400Y51250
X91400Y36250
X76400Y51250
X66400Y51250
X61400Y36250
X56400Y51250
X46400Y46250
X46400Y36250
X46400Y61250
X46400Y71250
X56400Y81250
X66400Y81250
X76400Y81250
X86400Y81250
X96400Y76250
X96400Y101250
X86400Y101250
X76400Y111250
X76400Y121250
X66400Y121250
X66400Y131250
X66400Y141250
X66400Y161250
X56400Y161250
X46400Y171250
X46400Y181250
X56400Y191250
X66400Y191250
X76400Y191250
X86400Y191250
X96400Y191250
X106400Y191250
X116400Y191250
X116400Y161250
X106400Y161250
X96400Y161250
X86400Y161250
X76400Y161250
X86400Y131250
X96400Y131250
X106400Y131250
X116400Y131250
X116400Y101250
X106400Y101250
X66400Y101250
X66400Y111250
X46400Y111250
X46400Y101250
X46400Y121250
X46400Y131250
X46400Y141250
X61400Y211250
X56400Y226250
X66400Y226250
X76400Y226250
X81400Y211250
X86400Y226250
X96400Y231250
X106400Y231250
X106400Y251250
X96400Y251250
X86400Y256250
X76400Y256250
X66400Y256250
X56400Y256250
X46400Y246250
X46400Y236250
T03
X13211Y13061
X131321Y13061
X131321Y272904
X13211Y272904
M30
