G75*
%MOIN*%
%OFA0B0*%
%FSLAX25Y25*%
%IPPOS*%
%LPD*%
%AMOC8*
5,1,8,0,0,1.08239X$1,22.5*
%
%ADD10C,0.00300*%
%ADD11C,0.00600*%
%ADD12C,0.01000*%
%ADD13C,0.00500*%
%ADD14R,0.01500X0.07000*%
%ADD15R,0.05500X0.02000*%
%ADD16C,0.00400*%
%ADD17C,0.00800*%
D10*
X0009524Y0021335D02*
X0009524Y0024238D01*
X0010975Y0024238D01*
X0011459Y0023754D01*
X0011459Y0022786D01*
X0010975Y0022303D01*
X0009524Y0022303D01*
X0012471Y0021335D02*
X0013438Y0022303D01*
X0014406Y0021335D01*
X0014406Y0024238D01*
X0015417Y0024238D02*
X0015417Y0021335D01*
X0015417Y0022303D02*
X0016868Y0022303D01*
X0017352Y0022786D01*
X0017352Y0023754D01*
X0016868Y0024238D01*
X0015417Y0024238D01*
X0016385Y0022303D02*
X0017352Y0021335D01*
X0021310Y0021819D02*
X0021794Y0021335D01*
X0022761Y0021335D01*
X0023245Y0021819D01*
X0023245Y0022786D01*
X0022761Y0023270D01*
X0022278Y0023270D01*
X0021310Y0022786D01*
X0021310Y0024238D01*
X0023245Y0024238D01*
X0024257Y0024238D02*
X0024257Y0022303D01*
X0025224Y0021335D01*
X0026192Y0022303D01*
X0026192Y0024238D01*
X0012471Y0024238D02*
X0012471Y0021335D01*
X0012471Y0092201D02*
X0013438Y0092201D01*
X0012954Y0092201D02*
X0012954Y0095104D01*
X0012471Y0095104D02*
X0013438Y0095104D01*
X0014435Y0095104D02*
X0015886Y0095104D01*
X0016370Y0094620D01*
X0016370Y0092685D01*
X0015886Y0092201D01*
X0014435Y0092201D01*
X0014435Y0095104D01*
X0011459Y0095104D02*
X0011459Y0092201D01*
X0009524Y0092201D02*
X0009524Y0095104D01*
X0010491Y0094136D01*
X0011459Y0095104D01*
X0017381Y0095104D02*
X0018349Y0095104D01*
X0017865Y0095104D02*
X0017865Y0092201D01*
X0017381Y0092201D02*
X0018349Y0092201D01*
X0022292Y0095104D02*
X0024227Y0095104D01*
X0023260Y0095104D02*
X0023260Y0092201D01*
X0025239Y0092201D02*
X0027174Y0095104D01*
X0025239Y0095104D02*
X0027174Y0092201D01*
X0016868Y0115823D02*
X0015417Y0115823D01*
X0015417Y0118726D01*
X0016868Y0118726D01*
X0017352Y0118242D01*
X0017352Y0116307D01*
X0016868Y0115823D01*
X0014406Y0115823D02*
X0012471Y0115823D01*
X0012471Y0118726D01*
X0014406Y0118726D01*
X0013438Y0117274D02*
X0012471Y0117274D01*
X0011459Y0115823D02*
X0009524Y0115823D01*
X0009524Y0118726D01*
X0009524Y0190626D02*
X0011459Y0190626D01*
X0012471Y0190626D02*
X0012471Y0193529D01*
X0014406Y0193529D01*
X0015417Y0193529D02*
X0015417Y0190626D01*
X0016868Y0190626D01*
X0017352Y0191110D01*
X0017352Y0193045D01*
X0016868Y0193529D01*
X0015417Y0193529D01*
X0013438Y0192078D02*
X0012471Y0192078D01*
X0012471Y0190626D02*
X0014406Y0190626D01*
X0018364Y0190626D02*
X0018364Y0193529D01*
X0019815Y0193529D01*
X0020299Y0193045D01*
X0020299Y0192078D01*
X0019815Y0191594D01*
X0018364Y0191594D01*
X0021310Y0190626D02*
X0022278Y0191594D01*
X0023245Y0190626D01*
X0023245Y0193529D01*
X0024257Y0193529D02*
X0025708Y0193529D01*
X0026192Y0193045D01*
X0026192Y0192078D01*
X0025708Y0191594D01*
X0024257Y0191594D01*
X0025224Y0191594D02*
X0026192Y0190626D01*
X0024257Y0190626D02*
X0024257Y0193529D01*
X0021310Y0193529D02*
X0021310Y0190626D01*
X0009524Y0190626D02*
X0009524Y0193529D01*
X0009524Y0226059D02*
X0009524Y0228962D01*
X0010491Y0227994D01*
X0011459Y0228962D01*
X0011459Y0226059D01*
X0012471Y0226059D02*
X0013438Y0226059D01*
X0012954Y0226059D02*
X0012954Y0228962D01*
X0012471Y0228962D02*
X0013438Y0228962D01*
X0014435Y0228962D02*
X0015886Y0228962D01*
X0016370Y0228478D01*
X0016370Y0226543D01*
X0015886Y0226059D01*
X0014435Y0226059D01*
X0014435Y0228962D01*
X0017381Y0228962D02*
X0018349Y0228962D01*
X0017865Y0228962D02*
X0017865Y0226059D01*
X0017381Y0226059D02*
X0018349Y0226059D01*
X0022292Y0226059D02*
X0022292Y0228962D01*
X0023743Y0228962D01*
X0024227Y0228478D01*
X0024227Y0227511D01*
X0023743Y0227027D01*
X0022292Y0227027D01*
X0023260Y0227027D02*
X0024227Y0226059D01*
X0025239Y0226059D02*
X0027174Y0228962D01*
X0025239Y0228962D02*
X0027174Y0226059D01*
X0026650Y0271650D02*
X0026650Y0274552D01*
X0027617Y0273585D01*
X0028585Y0274552D01*
X0028585Y0271650D01*
X0029597Y0271650D02*
X0030564Y0271650D01*
X0030080Y0271650D02*
X0030080Y0274552D01*
X0029597Y0274552D02*
X0030564Y0274552D01*
X0031561Y0274552D02*
X0033012Y0274552D01*
X0033496Y0274069D01*
X0033496Y0272134D01*
X0033012Y0271650D01*
X0031561Y0271650D01*
X0031561Y0274552D01*
X0034507Y0274552D02*
X0035475Y0274552D01*
X0034991Y0274552D02*
X0034991Y0271650D01*
X0034507Y0271650D02*
X0035475Y0271650D01*
X0039418Y0271650D02*
X0041353Y0271650D01*
X0042365Y0272134D02*
X0042365Y0273101D01*
X0042848Y0273585D01*
X0043816Y0273585D01*
X0044300Y0273101D01*
X0044300Y0272134D01*
X0043816Y0271650D01*
X0042848Y0271650D01*
X0042365Y0272134D01*
X0045311Y0271650D02*
X0045311Y0273585D01*
X0046763Y0273585D01*
X0047246Y0273101D01*
X0047246Y0271650D01*
X0048258Y0272134D02*
X0048258Y0273101D01*
X0048742Y0273585D01*
X0050193Y0273585D01*
X0050193Y0271166D01*
X0049709Y0270683D01*
X0049225Y0270683D01*
X0048742Y0271650D02*
X0050193Y0271650D01*
X0051204Y0271650D02*
X0051204Y0273585D01*
X0051204Y0272617D02*
X0052172Y0273585D01*
X0052656Y0273585D01*
X0054143Y0273585D02*
X0055111Y0273585D01*
X0055595Y0273101D01*
X0055595Y0271650D01*
X0054143Y0271650D01*
X0053660Y0272134D01*
X0054143Y0272617D01*
X0055595Y0272617D01*
X0056606Y0271650D02*
X0056606Y0273585D01*
X0058057Y0273585D01*
X0058541Y0273101D01*
X0058541Y0271650D01*
X0059553Y0272134D02*
X0059553Y0273101D01*
X0060037Y0273585D01*
X0061488Y0273585D01*
X0061488Y0271166D01*
X0061004Y0270683D01*
X0060520Y0270683D01*
X0060037Y0271650D02*
X0061488Y0271650D01*
X0062499Y0272134D02*
X0062499Y0273101D01*
X0062983Y0273585D01*
X0063951Y0273585D01*
X0064434Y0273101D01*
X0064434Y0272617D01*
X0062499Y0272617D01*
X0062499Y0272134D02*
X0062983Y0271650D01*
X0063951Y0271650D01*
X0065446Y0271650D02*
X0065446Y0273585D01*
X0066413Y0273585D02*
X0066897Y0273585D01*
X0066413Y0273585D02*
X0065446Y0272617D01*
X0070848Y0271650D02*
X0072783Y0271650D01*
X0071815Y0271650D02*
X0071815Y0274552D01*
X0070848Y0273585D01*
X0073794Y0272134D02*
X0074278Y0272134D01*
X0074278Y0271650D01*
X0073794Y0271650D01*
X0073794Y0272134D01*
X0075268Y0272134D02*
X0077203Y0274069D01*
X0077203Y0272134D01*
X0076719Y0271650D01*
X0075751Y0271650D01*
X0075268Y0272134D01*
X0075268Y0274069D01*
X0075751Y0274552D01*
X0076719Y0274552D01*
X0077203Y0274069D01*
X0078214Y0272134D02*
X0078698Y0272134D01*
X0078698Y0271650D01*
X0078214Y0271650D01*
X0078214Y0272134D01*
X0079687Y0272134D02*
X0079687Y0274069D01*
X0080171Y0274552D01*
X0081139Y0274552D01*
X0081622Y0274069D01*
X0079687Y0272134D01*
X0080171Y0271650D01*
X0081139Y0271650D01*
X0081622Y0272134D01*
X0081622Y0274069D01*
X0085580Y0274552D02*
X0085580Y0271650D01*
X0087032Y0271650D01*
X0087515Y0272134D01*
X0087515Y0273101D01*
X0087032Y0273585D01*
X0085580Y0273585D01*
X0088527Y0273585D02*
X0088527Y0272134D01*
X0089011Y0271650D01*
X0090462Y0271650D01*
X0090462Y0271166D02*
X0089978Y0270683D01*
X0089494Y0270683D01*
X0090462Y0271166D02*
X0090462Y0273585D01*
X0094420Y0274552D02*
X0094420Y0271650D01*
X0094420Y0272617D02*
X0095871Y0272617D01*
X0096355Y0273101D01*
X0096355Y0274069D01*
X0095871Y0274552D01*
X0094420Y0274552D01*
X0097366Y0273585D02*
X0097850Y0273585D01*
X0097850Y0271650D01*
X0097366Y0271650D02*
X0098334Y0271650D01*
X0099331Y0271650D02*
X0099331Y0273585D01*
X0100782Y0273585D01*
X0101266Y0273101D01*
X0101266Y0271650D01*
X0102277Y0272134D02*
X0102277Y0273101D01*
X0102761Y0273585D01*
X0103729Y0273585D01*
X0104212Y0273101D01*
X0104212Y0272617D01*
X0102277Y0272617D01*
X0102277Y0272134D02*
X0102761Y0271650D01*
X0103729Y0271650D01*
X0105224Y0272134D02*
X0105708Y0272617D01*
X0107159Y0272617D01*
X0107159Y0273101D02*
X0107159Y0271650D01*
X0105708Y0271650D01*
X0105224Y0272134D01*
X0105708Y0273585D02*
X0106675Y0273585D01*
X0107159Y0273101D01*
X0108170Y0273585D02*
X0109622Y0273585D01*
X0110105Y0273101D01*
X0110105Y0272134D01*
X0109622Y0271650D01*
X0108170Y0271650D01*
X0108170Y0270683D02*
X0108170Y0273585D01*
X0111117Y0273585D02*
X0111117Y0270683D01*
X0111117Y0271650D02*
X0112568Y0271650D01*
X0113052Y0272134D01*
X0113052Y0273101D01*
X0112568Y0273585D01*
X0111117Y0273585D01*
X0114063Y0274552D02*
X0114547Y0274552D01*
X0114547Y0271650D01*
X0114063Y0271650D02*
X0115031Y0271650D01*
X0116028Y0272134D02*
X0116028Y0273101D01*
X0116511Y0273585D01*
X0117479Y0273585D01*
X0117963Y0273101D01*
X0117963Y0272617D01*
X0116028Y0272617D01*
X0116028Y0272134D02*
X0116511Y0271650D01*
X0117479Y0271650D01*
X0121921Y0271650D02*
X0123372Y0271650D01*
X0123856Y0272134D01*
X0123856Y0274069D01*
X0123372Y0274552D01*
X0121921Y0274552D01*
X0121921Y0271650D01*
X0124867Y0272134D02*
X0124867Y0273101D01*
X0125351Y0273585D01*
X0126318Y0273585D01*
X0126802Y0273101D01*
X0126802Y0272617D01*
X0124867Y0272617D01*
X0124867Y0272134D02*
X0125351Y0271650D01*
X0126318Y0271650D01*
X0127814Y0271650D02*
X0129265Y0271650D01*
X0129749Y0272134D01*
X0129265Y0272617D01*
X0128298Y0272617D01*
X0127814Y0273101D01*
X0128298Y0273585D01*
X0129749Y0273585D01*
X0130760Y0273585D02*
X0131244Y0273585D01*
X0131244Y0271650D01*
X0130760Y0271650D02*
X0131728Y0271650D01*
X0132725Y0272134D02*
X0133208Y0271650D01*
X0134660Y0271650D01*
X0134660Y0271166D02*
X0134660Y0273585D01*
X0133208Y0273585D01*
X0132725Y0273101D01*
X0132725Y0272134D01*
X0133692Y0270683D02*
X0134176Y0270683D01*
X0134660Y0271166D01*
X0135671Y0271650D02*
X0135671Y0273585D01*
X0137122Y0273585D01*
X0137606Y0273101D01*
X0137606Y0271650D01*
X0131244Y0274552D02*
X0131244Y0275036D01*
X0133012Y0221088D02*
X0132528Y0220604D01*
X0132528Y0218669D01*
X0133012Y0218185D01*
X0133980Y0218185D01*
X0134463Y0218669D01*
X0134463Y0220604D01*
X0133980Y0221088D01*
X0133012Y0221088D01*
X0135475Y0221088D02*
X0135475Y0218669D01*
X0135959Y0218185D01*
X0136926Y0218185D01*
X0137410Y0218669D01*
X0137410Y0221088D01*
X0138422Y0221088D02*
X0140356Y0221088D01*
X0139389Y0221088D02*
X0139389Y0218185D01*
X0128585Y0218185D02*
X0127618Y0218185D01*
X0128101Y0218185D02*
X0128101Y0221088D01*
X0127618Y0221088D02*
X0128585Y0221088D01*
X0126606Y0220604D02*
X0126606Y0218669D01*
X0126122Y0218185D01*
X0124671Y0218185D01*
X0124671Y0221088D01*
X0126122Y0221088D01*
X0126606Y0220604D01*
X0123674Y0221088D02*
X0122707Y0221088D01*
X0123190Y0221088D02*
X0123190Y0218185D01*
X0122707Y0218185D02*
X0123674Y0218185D01*
X0121695Y0218185D02*
X0121695Y0221088D01*
X0120728Y0220120D01*
X0119760Y0221088D01*
X0119760Y0218185D01*
X0097850Y0274552D02*
X0097850Y0275036D01*
X0060037Y0271650D02*
X0059553Y0272134D01*
X0048742Y0271650D02*
X0048258Y0272134D01*
X0039418Y0271650D02*
X0039418Y0274552D01*
X0119760Y0059671D02*
X0120728Y0058703D01*
X0121695Y0059671D01*
X0121695Y0056768D01*
X0122707Y0056768D02*
X0123674Y0056768D01*
X0123190Y0056768D02*
X0123190Y0059671D01*
X0122707Y0059671D02*
X0123674Y0059671D01*
X0124671Y0059671D02*
X0124671Y0056768D01*
X0126122Y0056768D01*
X0126606Y0057252D01*
X0126606Y0059187D01*
X0126122Y0059671D01*
X0124671Y0059671D01*
X0127618Y0059671D02*
X0128585Y0059671D01*
X0128101Y0059671D02*
X0128101Y0056768D01*
X0127618Y0056768D02*
X0128585Y0056768D01*
X0132528Y0056768D02*
X0133496Y0056768D01*
X0133012Y0056768D02*
X0133012Y0059671D01*
X0132528Y0059671D02*
X0133496Y0059671D01*
X0134493Y0059671D02*
X0136428Y0056768D01*
X0136428Y0059671D01*
X0134493Y0059671D02*
X0134493Y0056768D01*
X0119760Y0056768D02*
X0119760Y0059671D01*
D11*
X0100000Y0060500D02*
X0100000Y0061500D01*
X0099500Y0062000D01*
X0099500Y0071000D01*
X0100000Y0071500D01*
X0100000Y0072500D01*
X0099998Y0072560D01*
X0099993Y0072621D01*
X0099984Y0072680D01*
X0099971Y0072739D01*
X0099955Y0072798D01*
X0099935Y0072855D01*
X0099912Y0072910D01*
X0099885Y0072965D01*
X0099856Y0073017D01*
X0099823Y0073068D01*
X0099787Y0073117D01*
X0099749Y0073163D01*
X0099707Y0073207D01*
X0099663Y0073249D01*
X0099617Y0073287D01*
X0099568Y0073323D01*
X0099517Y0073356D01*
X0099465Y0073385D01*
X0099410Y0073412D01*
X0099355Y0073435D01*
X0099298Y0073455D01*
X0099239Y0073471D01*
X0099180Y0073484D01*
X0099121Y0073493D01*
X0099060Y0073498D01*
X0099000Y0073500D01*
X0094000Y0073500D02*
X0093940Y0073498D01*
X0093879Y0073493D01*
X0093820Y0073484D01*
X0093761Y0073471D01*
X0093702Y0073455D01*
X0093645Y0073435D01*
X0093590Y0073412D01*
X0093535Y0073385D01*
X0093483Y0073356D01*
X0093432Y0073323D01*
X0093383Y0073287D01*
X0093337Y0073249D01*
X0093293Y0073207D01*
X0093251Y0073163D01*
X0093213Y0073117D01*
X0093177Y0073068D01*
X0093144Y0073017D01*
X0093115Y0072965D01*
X0093088Y0072910D01*
X0093065Y0072855D01*
X0093045Y0072798D01*
X0093029Y0072739D01*
X0093016Y0072680D01*
X0093007Y0072621D01*
X0093002Y0072560D01*
X0093000Y0072500D01*
X0093000Y0071500D01*
X0093500Y0071000D01*
X0093500Y0062000D01*
X0093000Y0061500D01*
X0093000Y0060500D01*
X0093002Y0060440D01*
X0093007Y0060379D01*
X0093016Y0060320D01*
X0093029Y0060261D01*
X0093045Y0060202D01*
X0093065Y0060145D01*
X0093088Y0060090D01*
X0093115Y0060035D01*
X0093144Y0059983D01*
X0093177Y0059932D01*
X0093213Y0059883D01*
X0093251Y0059837D01*
X0093293Y0059793D01*
X0093337Y0059751D01*
X0093383Y0059713D01*
X0093432Y0059677D01*
X0093483Y0059644D01*
X0093535Y0059615D01*
X0093590Y0059588D01*
X0093645Y0059565D01*
X0093702Y0059545D01*
X0093761Y0059529D01*
X0093820Y0059516D01*
X0093879Y0059507D01*
X0093940Y0059502D01*
X0094000Y0059500D01*
X0091500Y0055000D02*
X0091500Y0078000D01*
X0051500Y0078000D01*
X0051500Y0070500D01*
X0051626Y0070498D01*
X0051751Y0070492D01*
X0051876Y0070482D01*
X0052001Y0070468D01*
X0052126Y0070451D01*
X0052250Y0070429D01*
X0052373Y0070404D01*
X0052495Y0070374D01*
X0052616Y0070341D01*
X0052736Y0070304D01*
X0052855Y0070264D01*
X0052972Y0070219D01*
X0053089Y0070171D01*
X0053203Y0070119D01*
X0053316Y0070064D01*
X0053427Y0070005D01*
X0053536Y0069943D01*
X0053643Y0069877D01*
X0053748Y0069808D01*
X0053851Y0069736D01*
X0053952Y0069661D01*
X0054050Y0069582D01*
X0054145Y0069500D01*
X0054238Y0069416D01*
X0054328Y0069328D01*
X0054416Y0069238D01*
X0054500Y0069145D01*
X0054582Y0069050D01*
X0054661Y0068952D01*
X0054736Y0068851D01*
X0054808Y0068748D01*
X0054877Y0068643D01*
X0054943Y0068536D01*
X0055005Y0068427D01*
X0055064Y0068316D01*
X0055119Y0068203D01*
X0055171Y0068089D01*
X0055219Y0067972D01*
X0055264Y0067855D01*
X0055304Y0067736D01*
X0055341Y0067616D01*
X0055374Y0067495D01*
X0055404Y0067373D01*
X0055429Y0067250D01*
X0055451Y0067126D01*
X0055468Y0067001D01*
X0055482Y0066876D01*
X0055492Y0066751D01*
X0055498Y0066626D01*
X0055500Y0066500D01*
X0055498Y0066374D01*
X0055492Y0066249D01*
X0055482Y0066124D01*
X0055468Y0065999D01*
X0055451Y0065874D01*
X0055429Y0065750D01*
X0055404Y0065627D01*
X0055374Y0065505D01*
X0055341Y0065384D01*
X0055304Y0065264D01*
X0055264Y0065145D01*
X0055219Y0065028D01*
X0055171Y0064911D01*
X0055119Y0064797D01*
X0055064Y0064684D01*
X0055005Y0064573D01*
X0054943Y0064464D01*
X0054877Y0064357D01*
X0054808Y0064252D01*
X0054736Y0064149D01*
X0054661Y0064048D01*
X0054582Y0063950D01*
X0054500Y0063855D01*
X0054416Y0063762D01*
X0054328Y0063672D01*
X0054238Y0063584D01*
X0054145Y0063500D01*
X0054050Y0063418D01*
X0053952Y0063339D01*
X0053851Y0063264D01*
X0053748Y0063192D01*
X0053643Y0063123D01*
X0053536Y0063057D01*
X0053427Y0062995D01*
X0053316Y0062936D01*
X0053203Y0062881D01*
X0053089Y0062829D01*
X0052972Y0062781D01*
X0052855Y0062736D01*
X0052736Y0062696D01*
X0052616Y0062659D01*
X0052495Y0062626D01*
X0052373Y0062596D01*
X0052250Y0062571D01*
X0052126Y0062549D01*
X0052001Y0062532D01*
X0051876Y0062518D01*
X0051751Y0062508D01*
X0051626Y0062502D01*
X0051500Y0062500D01*
X0051500Y0055000D01*
X0091500Y0055000D01*
X0099000Y0059500D02*
X0099060Y0059502D01*
X0099121Y0059507D01*
X0099180Y0059516D01*
X0099239Y0059529D01*
X0099298Y0059545D01*
X0099355Y0059565D01*
X0099410Y0059588D01*
X0099465Y0059615D01*
X0099517Y0059644D01*
X0099568Y0059677D01*
X0099617Y0059713D01*
X0099663Y0059751D01*
X0099707Y0059793D01*
X0099749Y0059837D01*
X0099787Y0059883D01*
X0099823Y0059932D01*
X0099856Y0059983D01*
X0099885Y0060035D01*
X0099912Y0060090D01*
X0099935Y0060145D01*
X0099955Y0060202D01*
X0099971Y0060261D01*
X0099984Y0060320D01*
X0099993Y0060379D01*
X0099998Y0060440D01*
X0100000Y0060500D01*
X0082500Y0040000D02*
X0082500Y0033000D01*
X0070500Y0033000D01*
X0070500Y0040000D01*
X0082500Y0040000D01*
X0081500Y0036500D02*
X0076000Y0036500D01*
X0076000Y0034500D01*
X0076000Y0036500D02*
X0076000Y0038500D01*
X0076000Y0036500D02*
X0074500Y0036500D01*
X0076000Y0036500D02*
X0080000Y0038500D01*
X0080000Y0034500D01*
X0076000Y0036500D01*
X0051500Y0033000D02*
X0051500Y0050000D01*
X0051498Y0050060D01*
X0051493Y0050121D01*
X0051484Y0050180D01*
X0051471Y0050239D01*
X0051455Y0050298D01*
X0051435Y0050355D01*
X0051412Y0050410D01*
X0051385Y0050465D01*
X0051356Y0050517D01*
X0051323Y0050568D01*
X0051287Y0050617D01*
X0051249Y0050663D01*
X0051207Y0050707D01*
X0051163Y0050749D01*
X0051117Y0050787D01*
X0051068Y0050823D01*
X0051017Y0050856D01*
X0050965Y0050885D01*
X0050910Y0050912D01*
X0050855Y0050935D01*
X0050798Y0050955D01*
X0050739Y0050971D01*
X0050680Y0050984D01*
X0050621Y0050993D01*
X0050560Y0050998D01*
X0050500Y0051000D01*
X0042500Y0051000D01*
X0042440Y0050998D01*
X0042379Y0050993D01*
X0042320Y0050984D01*
X0042261Y0050971D01*
X0042202Y0050955D01*
X0042145Y0050935D01*
X0042090Y0050912D01*
X0042035Y0050885D01*
X0041983Y0050856D01*
X0041932Y0050823D01*
X0041883Y0050787D01*
X0041837Y0050749D01*
X0041793Y0050707D01*
X0041751Y0050663D01*
X0041713Y0050617D01*
X0041677Y0050568D01*
X0041644Y0050517D01*
X0041615Y0050465D01*
X0041588Y0050410D01*
X0041565Y0050355D01*
X0041545Y0050298D01*
X0041529Y0050239D01*
X0041516Y0050180D01*
X0041507Y0050121D01*
X0041502Y0050060D01*
X0041500Y0050000D01*
X0041500Y0033000D01*
X0041502Y0032940D01*
X0041507Y0032879D01*
X0041516Y0032820D01*
X0041529Y0032761D01*
X0041545Y0032702D01*
X0041565Y0032645D01*
X0041588Y0032590D01*
X0041615Y0032535D01*
X0041644Y0032483D01*
X0041677Y0032432D01*
X0041713Y0032383D01*
X0041751Y0032337D01*
X0041793Y0032293D01*
X0041837Y0032251D01*
X0041883Y0032213D01*
X0041932Y0032177D01*
X0041983Y0032144D01*
X0042035Y0032115D01*
X0042090Y0032088D01*
X0042145Y0032065D01*
X0042202Y0032045D01*
X0042261Y0032029D01*
X0042320Y0032016D01*
X0042379Y0032007D01*
X0042440Y0032002D01*
X0042500Y0032000D01*
X0050500Y0032000D01*
X0050560Y0032002D01*
X0050621Y0032007D01*
X0050680Y0032016D01*
X0050739Y0032029D01*
X0050798Y0032045D01*
X0050855Y0032065D01*
X0050910Y0032088D01*
X0050965Y0032115D01*
X0051017Y0032144D01*
X0051068Y0032177D01*
X0051117Y0032213D01*
X0051163Y0032251D01*
X0051207Y0032293D01*
X0051249Y0032337D01*
X0051287Y0032383D01*
X0051323Y0032432D01*
X0051356Y0032483D01*
X0051385Y0032535D01*
X0051412Y0032590D01*
X0051435Y0032645D01*
X0051455Y0032702D01*
X0051471Y0032761D01*
X0051484Y0032820D01*
X0051493Y0032879D01*
X0051498Y0032940D01*
X0051500Y0033000D01*
X0046500Y0040000D02*
X0046500Y0040500D01*
X0046500Y0042500D02*
X0046500Y0043000D01*
X0042500Y0057000D02*
X0050500Y0057000D01*
X0050560Y0057002D01*
X0050621Y0057007D01*
X0050680Y0057016D01*
X0050739Y0057029D01*
X0050798Y0057045D01*
X0050855Y0057065D01*
X0050910Y0057088D01*
X0050965Y0057115D01*
X0051017Y0057144D01*
X0051068Y0057177D01*
X0051117Y0057213D01*
X0051163Y0057251D01*
X0051207Y0057293D01*
X0051249Y0057337D01*
X0051287Y0057383D01*
X0051323Y0057432D01*
X0051356Y0057483D01*
X0051385Y0057535D01*
X0051412Y0057590D01*
X0051435Y0057645D01*
X0051455Y0057702D01*
X0051471Y0057761D01*
X0051484Y0057820D01*
X0051493Y0057879D01*
X0051498Y0057940D01*
X0051500Y0058000D01*
X0051500Y0075000D01*
X0051498Y0075060D01*
X0051493Y0075121D01*
X0051484Y0075180D01*
X0051471Y0075239D01*
X0051455Y0075298D01*
X0051435Y0075355D01*
X0051412Y0075410D01*
X0051385Y0075465D01*
X0051356Y0075517D01*
X0051323Y0075568D01*
X0051287Y0075617D01*
X0051249Y0075663D01*
X0051207Y0075707D01*
X0051163Y0075749D01*
X0051117Y0075787D01*
X0051068Y0075823D01*
X0051017Y0075856D01*
X0050965Y0075885D01*
X0050910Y0075912D01*
X0050855Y0075935D01*
X0050798Y0075955D01*
X0050739Y0075971D01*
X0050680Y0075984D01*
X0050621Y0075993D01*
X0050560Y0075998D01*
X0050500Y0076000D01*
X0042500Y0076000D01*
X0042440Y0075998D01*
X0042379Y0075993D01*
X0042320Y0075984D01*
X0042261Y0075971D01*
X0042202Y0075955D01*
X0042145Y0075935D01*
X0042090Y0075912D01*
X0042035Y0075885D01*
X0041983Y0075856D01*
X0041932Y0075823D01*
X0041883Y0075787D01*
X0041837Y0075749D01*
X0041793Y0075707D01*
X0041751Y0075663D01*
X0041713Y0075617D01*
X0041677Y0075568D01*
X0041644Y0075517D01*
X0041615Y0075465D01*
X0041588Y0075410D01*
X0041565Y0075355D01*
X0041545Y0075298D01*
X0041529Y0075239D01*
X0041516Y0075180D01*
X0041507Y0075121D01*
X0041502Y0075060D01*
X0041500Y0075000D01*
X0041500Y0058000D01*
X0041502Y0057940D01*
X0041507Y0057879D01*
X0041516Y0057820D01*
X0041529Y0057761D01*
X0041545Y0057702D01*
X0041565Y0057645D01*
X0041588Y0057590D01*
X0041615Y0057535D01*
X0041644Y0057483D01*
X0041677Y0057432D01*
X0041713Y0057383D01*
X0041751Y0057337D01*
X0041793Y0057293D01*
X0041837Y0057251D01*
X0041883Y0057213D01*
X0041932Y0057177D01*
X0041983Y0057144D01*
X0042035Y0057115D01*
X0042090Y0057088D01*
X0042145Y0057065D01*
X0042202Y0057045D01*
X0042261Y0057029D01*
X0042320Y0057016D01*
X0042379Y0057007D01*
X0042440Y0057002D01*
X0042500Y0057000D01*
X0046500Y0065000D02*
X0046500Y0065500D01*
X0046500Y0067500D02*
X0046500Y0068000D01*
X0050500Y0098000D02*
X0051500Y0098000D01*
X0052000Y0098500D01*
X0061000Y0098500D01*
X0061500Y0098000D01*
X0062500Y0098000D01*
X0062560Y0098002D01*
X0062621Y0098007D01*
X0062680Y0098016D01*
X0062739Y0098029D01*
X0062798Y0098045D01*
X0062855Y0098065D01*
X0062910Y0098088D01*
X0062965Y0098115D01*
X0063017Y0098144D01*
X0063068Y0098177D01*
X0063117Y0098213D01*
X0063163Y0098251D01*
X0063207Y0098293D01*
X0063249Y0098337D01*
X0063287Y0098383D01*
X0063323Y0098432D01*
X0063356Y0098483D01*
X0063385Y0098535D01*
X0063412Y0098590D01*
X0063435Y0098645D01*
X0063455Y0098702D01*
X0063471Y0098761D01*
X0063484Y0098820D01*
X0063493Y0098879D01*
X0063498Y0098940D01*
X0063500Y0099000D01*
X0063500Y0104000D02*
X0063498Y0104060D01*
X0063493Y0104121D01*
X0063484Y0104180D01*
X0063471Y0104239D01*
X0063455Y0104298D01*
X0063435Y0104355D01*
X0063412Y0104410D01*
X0063385Y0104465D01*
X0063356Y0104517D01*
X0063323Y0104568D01*
X0063287Y0104617D01*
X0063249Y0104663D01*
X0063207Y0104707D01*
X0063163Y0104749D01*
X0063117Y0104787D01*
X0063068Y0104823D01*
X0063017Y0104856D01*
X0062965Y0104885D01*
X0062910Y0104912D01*
X0062855Y0104935D01*
X0062798Y0104955D01*
X0062739Y0104971D01*
X0062680Y0104984D01*
X0062621Y0104993D01*
X0062560Y0104998D01*
X0062500Y0105000D01*
X0061500Y0105000D01*
X0061000Y0104500D01*
X0052000Y0104500D01*
X0051500Y0105000D01*
X0050500Y0105000D01*
X0050440Y0104998D01*
X0050379Y0104993D01*
X0050320Y0104984D01*
X0050261Y0104971D01*
X0050202Y0104955D01*
X0050145Y0104935D01*
X0050090Y0104912D01*
X0050035Y0104885D01*
X0049983Y0104856D01*
X0049932Y0104823D01*
X0049883Y0104787D01*
X0049837Y0104749D01*
X0049793Y0104707D01*
X0049751Y0104663D01*
X0049713Y0104617D01*
X0049677Y0104568D01*
X0049644Y0104517D01*
X0049615Y0104465D01*
X0049588Y0104410D01*
X0049565Y0104355D01*
X0049545Y0104298D01*
X0049529Y0104239D01*
X0049516Y0104180D01*
X0049507Y0104121D01*
X0049502Y0104060D01*
X0049500Y0104000D01*
X0050500Y0108000D02*
X0051500Y0108000D01*
X0052000Y0108500D01*
X0061000Y0108500D01*
X0061500Y0108000D01*
X0062500Y0108000D01*
X0062560Y0108002D01*
X0062621Y0108007D01*
X0062680Y0108016D01*
X0062739Y0108029D01*
X0062798Y0108045D01*
X0062855Y0108065D01*
X0062910Y0108088D01*
X0062965Y0108115D01*
X0063017Y0108144D01*
X0063068Y0108177D01*
X0063117Y0108213D01*
X0063163Y0108251D01*
X0063207Y0108293D01*
X0063249Y0108337D01*
X0063287Y0108383D01*
X0063323Y0108432D01*
X0063356Y0108483D01*
X0063385Y0108535D01*
X0063412Y0108590D01*
X0063435Y0108645D01*
X0063455Y0108702D01*
X0063471Y0108761D01*
X0063484Y0108820D01*
X0063493Y0108879D01*
X0063498Y0108940D01*
X0063500Y0109000D01*
X0063500Y0114000D02*
X0063498Y0114060D01*
X0063493Y0114121D01*
X0063484Y0114180D01*
X0063471Y0114239D01*
X0063455Y0114298D01*
X0063435Y0114355D01*
X0063412Y0114410D01*
X0063385Y0114465D01*
X0063356Y0114517D01*
X0063323Y0114568D01*
X0063287Y0114617D01*
X0063249Y0114663D01*
X0063207Y0114707D01*
X0063163Y0114749D01*
X0063117Y0114787D01*
X0063068Y0114823D01*
X0063017Y0114856D01*
X0062965Y0114885D01*
X0062910Y0114912D01*
X0062855Y0114935D01*
X0062798Y0114955D01*
X0062739Y0114971D01*
X0062680Y0114984D01*
X0062621Y0114993D01*
X0062560Y0114998D01*
X0062500Y0115000D01*
X0061500Y0115000D01*
X0061000Y0114500D01*
X0052000Y0114500D01*
X0051500Y0115000D01*
X0050500Y0115000D01*
X0050440Y0114998D01*
X0050379Y0114993D01*
X0050320Y0114984D01*
X0050261Y0114971D01*
X0050202Y0114955D01*
X0050145Y0114935D01*
X0050090Y0114912D01*
X0050035Y0114885D01*
X0049983Y0114856D01*
X0049932Y0114823D01*
X0049883Y0114787D01*
X0049837Y0114749D01*
X0049793Y0114707D01*
X0049751Y0114663D01*
X0049713Y0114617D01*
X0049677Y0114568D01*
X0049644Y0114517D01*
X0049615Y0114465D01*
X0049588Y0114410D01*
X0049565Y0114355D01*
X0049545Y0114298D01*
X0049529Y0114239D01*
X0049516Y0114180D01*
X0049507Y0114121D01*
X0049502Y0114060D01*
X0049500Y0114000D01*
X0049500Y0109000D02*
X0049502Y0108940D01*
X0049507Y0108879D01*
X0049516Y0108820D01*
X0049529Y0108761D01*
X0049545Y0108702D01*
X0049565Y0108645D01*
X0049588Y0108590D01*
X0049615Y0108535D01*
X0049644Y0108483D01*
X0049677Y0108432D01*
X0049713Y0108383D01*
X0049751Y0108337D01*
X0049793Y0108293D01*
X0049837Y0108251D01*
X0049883Y0108213D01*
X0049932Y0108177D01*
X0049983Y0108144D01*
X0050035Y0108115D01*
X0050090Y0108088D01*
X0050145Y0108065D01*
X0050202Y0108045D01*
X0050261Y0108029D01*
X0050320Y0108016D01*
X0050379Y0108007D01*
X0050440Y0108002D01*
X0050500Y0108000D01*
X0049500Y0099000D02*
X0049502Y0098940D01*
X0049507Y0098879D01*
X0049516Y0098820D01*
X0049529Y0098761D01*
X0049545Y0098702D01*
X0049565Y0098645D01*
X0049588Y0098590D01*
X0049615Y0098535D01*
X0049644Y0098483D01*
X0049677Y0098432D01*
X0049713Y0098383D01*
X0049751Y0098337D01*
X0049793Y0098293D01*
X0049837Y0098251D01*
X0049883Y0098213D01*
X0049932Y0098177D01*
X0049983Y0098144D01*
X0050035Y0098115D01*
X0050090Y0098088D01*
X0050145Y0098065D01*
X0050202Y0098045D01*
X0050261Y0098029D01*
X0050320Y0098016D01*
X0050379Y0098007D01*
X0050440Y0098002D01*
X0050500Y0098000D01*
X0050500Y0118000D02*
X0051500Y0118000D01*
X0052000Y0118500D01*
X0061000Y0118500D01*
X0061500Y0118000D01*
X0062500Y0118000D01*
X0062560Y0118002D01*
X0062621Y0118007D01*
X0062680Y0118016D01*
X0062739Y0118029D01*
X0062798Y0118045D01*
X0062855Y0118065D01*
X0062910Y0118088D01*
X0062965Y0118115D01*
X0063017Y0118144D01*
X0063068Y0118177D01*
X0063117Y0118213D01*
X0063163Y0118251D01*
X0063207Y0118293D01*
X0063249Y0118337D01*
X0063287Y0118383D01*
X0063323Y0118432D01*
X0063356Y0118483D01*
X0063385Y0118535D01*
X0063412Y0118590D01*
X0063435Y0118645D01*
X0063455Y0118702D01*
X0063471Y0118761D01*
X0063484Y0118820D01*
X0063493Y0118879D01*
X0063498Y0118940D01*
X0063500Y0119000D01*
X0063500Y0124000D02*
X0063498Y0124060D01*
X0063493Y0124121D01*
X0063484Y0124180D01*
X0063471Y0124239D01*
X0063455Y0124298D01*
X0063435Y0124355D01*
X0063412Y0124410D01*
X0063385Y0124465D01*
X0063356Y0124517D01*
X0063323Y0124568D01*
X0063287Y0124617D01*
X0063249Y0124663D01*
X0063207Y0124707D01*
X0063163Y0124749D01*
X0063117Y0124787D01*
X0063068Y0124823D01*
X0063017Y0124856D01*
X0062965Y0124885D01*
X0062910Y0124912D01*
X0062855Y0124935D01*
X0062798Y0124955D01*
X0062739Y0124971D01*
X0062680Y0124984D01*
X0062621Y0124993D01*
X0062560Y0124998D01*
X0062500Y0125000D01*
X0061500Y0125000D01*
X0061000Y0124500D01*
X0052000Y0124500D01*
X0051500Y0125000D01*
X0050500Y0125000D01*
X0050440Y0124998D01*
X0050379Y0124993D01*
X0050320Y0124984D01*
X0050261Y0124971D01*
X0050202Y0124955D01*
X0050145Y0124935D01*
X0050090Y0124912D01*
X0050035Y0124885D01*
X0049983Y0124856D01*
X0049932Y0124823D01*
X0049883Y0124787D01*
X0049837Y0124749D01*
X0049793Y0124707D01*
X0049751Y0124663D01*
X0049713Y0124617D01*
X0049677Y0124568D01*
X0049644Y0124517D01*
X0049615Y0124465D01*
X0049588Y0124410D01*
X0049565Y0124355D01*
X0049545Y0124298D01*
X0049529Y0124239D01*
X0049516Y0124180D01*
X0049507Y0124121D01*
X0049502Y0124060D01*
X0049500Y0124000D01*
X0050500Y0128000D02*
X0051500Y0128000D01*
X0052000Y0128500D01*
X0061000Y0128500D01*
X0061500Y0128000D01*
X0062500Y0128000D01*
X0062560Y0128002D01*
X0062621Y0128007D01*
X0062680Y0128016D01*
X0062739Y0128029D01*
X0062798Y0128045D01*
X0062855Y0128065D01*
X0062910Y0128088D01*
X0062965Y0128115D01*
X0063017Y0128144D01*
X0063068Y0128177D01*
X0063117Y0128213D01*
X0063163Y0128251D01*
X0063207Y0128293D01*
X0063249Y0128337D01*
X0063287Y0128383D01*
X0063323Y0128432D01*
X0063356Y0128483D01*
X0063385Y0128535D01*
X0063412Y0128590D01*
X0063435Y0128645D01*
X0063455Y0128702D01*
X0063471Y0128761D01*
X0063484Y0128820D01*
X0063493Y0128879D01*
X0063498Y0128940D01*
X0063500Y0129000D01*
X0063500Y0134000D02*
X0063498Y0134060D01*
X0063493Y0134121D01*
X0063484Y0134180D01*
X0063471Y0134239D01*
X0063455Y0134298D01*
X0063435Y0134355D01*
X0063412Y0134410D01*
X0063385Y0134465D01*
X0063356Y0134517D01*
X0063323Y0134568D01*
X0063287Y0134617D01*
X0063249Y0134663D01*
X0063207Y0134707D01*
X0063163Y0134749D01*
X0063117Y0134787D01*
X0063068Y0134823D01*
X0063017Y0134856D01*
X0062965Y0134885D01*
X0062910Y0134912D01*
X0062855Y0134935D01*
X0062798Y0134955D01*
X0062739Y0134971D01*
X0062680Y0134984D01*
X0062621Y0134993D01*
X0062560Y0134998D01*
X0062500Y0135000D01*
X0061500Y0135000D01*
X0061000Y0134500D01*
X0052000Y0134500D01*
X0051500Y0135000D01*
X0050500Y0135000D01*
X0050440Y0134998D01*
X0050379Y0134993D01*
X0050320Y0134984D01*
X0050261Y0134971D01*
X0050202Y0134955D01*
X0050145Y0134935D01*
X0050090Y0134912D01*
X0050035Y0134885D01*
X0049983Y0134856D01*
X0049932Y0134823D01*
X0049883Y0134787D01*
X0049837Y0134749D01*
X0049793Y0134707D01*
X0049751Y0134663D01*
X0049713Y0134617D01*
X0049677Y0134568D01*
X0049644Y0134517D01*
X0049615Y0134465D01*
X0049588Y0134410D01*
X0049565Y0134355D01*
X0049545Y0134298D01*
X0049529Y0134239D01*
X0049516Y0134180D01*
X0049507Y0134121D01*
X0049502Y0134060D01*
X0049500Y0134000D01*
X0049500Y0129000D02*
X0049502Y0128940D01*
X0049507Y0128879D01*
X0049516Y0128820D01*
X0049529Y0128761D01*
X0049545Y0128702D01*
X0049565Y0128645D01*
X0049588Y0128590D01*
X0049615Y0128535D01*
X0049644Y0128483D01*
X0049677Y0128432D01*
X0049713Y0128383D01*
X0049751Y0128337D01*
X0049793Y0128293D01*
X0049837Y0128251D01*
X0049883Y0128213D01*
X0049932Y0128177D01*
X0049983Y0128144D01*
X0050035Y0128115D01*
X0050090Y0128088D01*
X0050145Y0128065D01*
X0050202Y0128045D01*
X0050261Y0128029D01*
X0050320Y0128016D01*
X0050379Y0128007D01*
X0050440Y0128002D01*
X0050500Y0128000D01*
X0049500Y0119000D02*
X0049502Y0118940D01*
X0049507Y0118879D01*
X0049516Y0118820D01*
X0049529Y0118761D01*
X0049545Y0118702D01*
X0049565Y0118645D01*
X0049588Y0118590D01*
X0049615Y0118535D01*
X0049644Y0118483D01*
X0049677Y0118432D01*
X0049713Y0118383D01*
X0049751Y0118337D01*
X0049793Y0118293D01*
X0049837Y0118251D01*
X0049883Y0118213D01*
X0049932Y0118177D01*
X0049983Y0118144D01*
X0050035Y0118115D01*
X0050090Y0118088D01*
X0050145Y0118065D01*
X0050202Y0118045D01*
X0050261Y0118029D01*
X0050320Y0118016D01*
X0050379Y0118007D01*
X0050440Y0118002D01*
X0050500Y0118000D01*
X0071500Y0125000D02*
X0071500Y0108000D01*
X0071502Y0107940D01*
X0071507Y0107879D01*
X0071516Y0107820D01*
X0071529Y0107761D01*
X0071545Y0107702D01*
X0071565Y0107645D01*
X0071588Y0107590D01*
X0071615Y0107535D01*
X0071644Y0107483D01*
X0071677Y0107432D01*
X0071713Y0107383D01*
X0071751Y0107337D01*
X0071793Y0107293D01*
X0071837Y0107251D01*
X0071883Y0107213D01*
X0071932Y0107177D01*
X0071983Y0107144D01*
X0072035Y0107115D01*
X0072090Y0107088D01*
X0072145Y0107065D01*
X0072202Y0107045D01*
X0072261Y0107029D01*
X0072320Y0107016D01*
X0072379Y0107007D01*
X0072440Y0107002D01*
X0072500Y0107000D01*
X0080500Y0107000D01*
X0080560Y0107002D01*
X0080621Y0107007D01*
X0080680Y0107016D01*
X0080739Y0107029D01*
X0080798Y0107045D01*
X0080855Y0107065D01*
X0080910Y0107088D01*
X0080965Y0107115D01*
X0081017Y0107144D01*
X0081068Y0107177D01*
X0081117Y0107213D01*
X0081163Y0107251D01*
X0081207Y0107293D01*
X0081249Y0107337D01*
X0081287Y0107383D01*
X0081323Y0107432D01*
X0081356Y0107483D01*
X0081385Y0107535D01*
X0081412Y0107590D01*
X0081435Y0107645D01*
X0081455Y0107702D01*
X0081471Y0107761D01*
X0081484Y0107820D01*
X0081493Y0107879D01*
X0081498Y0107940D01*
X0081500Y0108000D01*
X0081500Y0125000D01*
X0081498Y0125060D01*
X0081493Y0125121D01*
X0081484Y0125180D01*
X0081471Y0125239D01*
X0081455Y0125298D01*
X0081435Y0125355D01*
X0081412Y0125410D01*
X0081385Y0125465D01*
X0081356Y0125517D01*
X0081323Y0125568D01*
X0081287Y0125617D01*
X0081249Y0125663D01*
X0081207Y0125707D01*
X0081163Y0125749D01*
X0081117Y0125787D01*
X0081068Y0125823D01*
X0081017Y0125856D01*
X0080965Y0125885D01*
X0080910Y0125912D01*
X0080855Y0125935D01*
X0080798Y0125955D01*
X0080739Y0125971D01*
X0080680Y0125984D01*
X0080621Y0125993D01*
X0080560Y0125998D01*
X0080500Y0126000D01*
X0072500Y0126000D01*
X0072440Y0125998D01*
X0072379Y0125993D01*
X0072320Y0125984D01*
X0072261Y0125971D01*
X0072202Y0125955D01*
X0072145Y0125935D01*
X0072090Y0125912D01*
X0072035Y0125885D01*
X0071983Y0125856D01*
X0071932Y0125823D01*
X0071883Y0125787D01*
X0071837Y0125749D01*
X0071793Y0125707D01*
X0071751Y0125663D01*
X0071713Y0125617D01*
X0071677Y0125568D01*
X0071644Y0125517D01*
X0071615Y0125465D01*
X0071588Y0125410D01*
X0071565Y0125355D01*
X0071545Y0125298D01*
X0071529Y0125239D01*
X0071516Y0125180D01*
X0071507Y0125121D01*
X0071502Y0125060D01*
X0071500Y0125000D01*
X0076500Y0118000D02*
X0076500Y0117500D01*
X0076500Y0115500D02*
X0076500Y0115000D01*
X0081500Y0112500D02*
X0081626Y0112502D01*
X0081751Y0112508D01*
X0081876Y0112518D01*
X0082001Y0112532D01*
X0082126Y0112549D01*
X0082250Y0112571D01*
X0082373Y0112596D01*
X0082495Y0112626D01*
X0082616Y0112659D01*
X0082736Y0112696D01*
X0082855Y0112736D01*
X0082972Y0112781D01*
X0083089Y0112829D01*
X0083203Y0112881D01*
X0083316Y0112936D01*
X0083427Y0112995D01*
X0083536Y0113057D01*
X0083643Y0113123D01*
X0083748Y0113192D01*
X0083851Y0113264D01*
X0083952Y0113339D01*
X0084050Y0113418D01*
X0084145Y0113500D01*
X0084238Y0113584D01*
X0084328Y0113672D01*
X0084416Y0113762D01*
X0084500Y0113855D01*
X0084582Y0113950D01*
X0084661Y0114048D01*
X0084736Y0114149D01*
X0084808Y0114252D01*
X0084877Y0114357D01*
X0084943Y0114464D01*
X0085005Y0114573D01*
X0085064Y0114684D01*
X0085119Y0114797D01*
X0085171Y0114911D01*
X0085219Y0115028D01*
X0085264Y0115145D01*
X0085304Y0115264D01*
X0085341Y0115384D01*
X0085374Y0115505D01*
X0085404Y0115627D01*
X0085429Y0115750D01*
X0085451Y0115874D01*
X0085468Y0115999D01*
X0085482Y0116124D01*
X0085492Y0116249D01*
X0085498Y0116374D01*
X0085500Y0116500D01*
X0085498Y0116626D01*
X0085492Y0116751D01*
X0085482Y0116876D01*
X0085468Y0117001D01*
X0085451Y0117126D01*
X0085429Y0117250D01*
X0085404Y0117373D01*
X0085374Y0117495D01*
X0085341Y0117616D01*
X0085304Y0117736D01*
X0085264Y0117855D01*
X0085219Y0117972D01*
X0085171Y0118089D01*
X0085119Y0118203D01*
X0085064Y0118316D01*
X0085005Y0118427D01*
X0084943Y0118536D01*
X0084877Y0118643D01*
X0084808Y0118748D01*
X0084736Y0118851D01*
X0084661Y0118952D01*
X0084582Y0119050D01*
X0084500Y0119145D01*
X0084416Y0119238D01*
X0084328Y0119328D01*
X0084238Y0119416D01*
X0084145Y0119500D01*
X0084050Y0119582D01*
X0083952Y0119661D01*
X0083851Y0119736D01*
X0083748Y0119808D01*
X0083643Y0119877D01*
X0083536Y0119943D01*
X0083427Y0120005D01*
X0083316Y0120064D01*
X0083203Y0120119D01*
X0083089Y0120171D01*
X0082972Y0120219D01*
X0082855Y0120264D01*
X0082736Y0120304D01*
X0082616Y0120341D01*
X0082495Y0120374D01*
X0082373Y0120404D01*
X0082250Y0120429D01*
X0082126Y0120451D01*
X0082001Y0120468D01*
X0081876Y0120482D01*
X0081751Y0120492D01*
X0081626Y0120498D01*
X0081500Y0120500D01*
X0081500Y0128000D01*
X0121500Y0128000D01*
X0121500Y0105000D01*
X0081500Y0105000D01*
X0081500Y0112500D01*
X0051500Y0165000D02*
X0051500Y0172500D01*
X0051626Y0172502D01*
X0051751Y0172508D01*
X0051876Y0172518D01*
X0052001Y0172532D01*
X0052126Y0172549D01*
X0052250Y0172571D01*
X0052373Y0172596D01*
X0052495Y0172626D01*
X0052616Y0172659D01*
X0052736Y0172696D01*
X0052855Y0172736D01*
X0052972Y0172781D01*
X0053089Y0172829D01*
X0053203Y0172881D01*
X0053316Y0172936D01*
X0053427Y0172995D01*
X0053536Y0173057D01*
X0053643Y0173123D01*
X0053748Y0173192D01*
X0053851Y0173264D01*
X0053952Y0173339D01*
X0054050Y0173418D01*
X0054145Y0173500D01*
X0054238Y0173584D01*
X0054328Y0173672D01*
X0054416Y0173762D01*
X0054500Y0173855D01*
X0054582Y0173950D01*
X0054661Y0174048D01*
X0054736Y0174149D01*
X0054808Y0174252D01*
X0054877Y0174357D01*
X0054943Y0174464D01*
X0055005Y0174573D01*
X0055064Y0174684D01*
X0055119Y0174797D01*
X0055171Y0174911D01*
X0055219Y0175028D01*
X0055264Y0175145D01*
X0055304Y0175264D01*
X0055341Y0175384D01*
X0055374Y0175505D01*
X0055404Y0175627D01*
X0055429Y0175750D01*
X0055451Y0175874D01*
X0055468Y0175999D01*
X0055482Y0176124D01*
X0055492Y0176249D01*
X0055498Y0176374D01*
X0055500Y0176500D01*
X0055498Y0176626D01*
X0055492Y0176751D01*
X0055482Y0176876D01*
X0055468Y0177001D01*
X0055451Y0177126D01*
X0055429Y0177250D01*
X0055404Y0177373D01*
X0055374Y0177495D01*
X0055341Y0177616D01*
X0055304Y0177736D01*
X0055264Y0177855D01*
X0055219Y0177972D01*
X0055171Y0178089D01*
X0055119Y0178203D01*
X0055064Y0178316D01*
X0055005Y0178427D01*
X0054943Y0178536D01*
X0054877Y0178643D01*
X0054808Y0178748D01*
X0054736Y0178851D01*
X0054661Y0178952D01*
X0054582Y0179050D01*
X0054500Y0179145D01*
X0054416Y0179238D01*
X0054328Y0179328D01*
X0054238Y0179416D01*
X0054145Y0179500D01*
X0054050Y0179582D01*
X0053952Y0179661D01*
X0053851Y0179736D01*
X0053748Y0179808D01*
X0053643Y0179877D01*
X0053536Y0179943D01*
X0053427Y0180005D01*
X0053316Y0180064D01*
X0053203Y0180119D01*
X0053089Y0180171D01*
X0052972Y0180219D01*
X0052855Y0180264D01*
X0052736Y0180304D01*
X0052616Y0180341D01*
X0052495Y0180374D01*
X0052373Y0180404D01*
X0052250Y0180429D01*
X0052126Y0180451D01*
X0052001Y0180468D01*
X0051876Y0180482D01*
X0051751Y0180492D01*
X0051626Y0180498D01*
X0051500Y0180500D01*
X0051500Y0188000D01*
X0121500Y0188000D01*
X0121500Y0165000D01*
X0051500Y0165000D01*
X0050500Y0167000D02*
X0042500Y0167000D01*
X0042440Y0167002D01*
X0042379Y0167007D01*
X0042320Y0167016D01*
X0042261Y0167029D01*
X0042202Y0167045D01*
X0042145Y0167065D01*
X0042090Y0167088D01*
X0042035Y0167115D01*
X0041983Y0167144D01*
X0041932Y0167177D01*
X0041883Y0167213D01*
X0041837Y0167251D01*
X0041793Y0167293D01*
X0041751Y0167337D01*
X0041713Y0167383D01*
X0041677Y0167432D01*
X0041644Y0167483D01*
X0041615Y0167535D01*
X0041588Y0167590D01*
X0041565Y0167645D01*
X0041545Y0167702D01*
X0041529Y0167761D01*
X0041516Y0167820D01*
X0041507Y0167879D01*
X0041502Y0167940D01*
X0041500Y0168000D01*
X0041500Y0185000D01*
X0041502Y0185060D01*
X0041507Y0185121D01*
X0041516Y0185180D01*
X0041529Y0185239D01*
X0041545Y0185298D01*
X0041565Y0185355D01*
X0041588Y0185410D01*
X0041615Y0185465D01*
X0041644Y0185517D01*
X0041677Y0185568D01*
X0041713Y0185617D01*
X0041751Y0185663D01*
X0041793Y0185707D01*
X0041837Y0185749D01*
X0041883Y0185787D01*
X0041932Y0185823D01*
X0041983Y0185856D01*
X0042035Y0185885D01*
X0042090Y0185912D01*
X0042145Y0185935D01*
X0042202Y0185955D01*
X0042261Y0185971D01*
X0042320Y0185984D01*
X0042379Y0185993D01*
X0042440Y0185998D01*
X0042500Y0186000D01*
X0050500Y0186000D01*
X0050560Y0185998D01*
X0050621Y0185993D01*
X0050680Y0185984D01*
X0050739Y0185971D01*
X0050798Y0185955D01*
X0050855Y0185935D01*
X0050910Y0185912D01*
X0050965Y0185885D01*
X0051017Y0185856D01*
X0051068Y0185823D01*
X0051117Y0185787D01*
X0051163Y0185749D01*
X0051207Y0185707D01*
X0051249Y0185663D01*
X0051287Y0185617D01*
X0051323Y0185568D01*
X0051356Y0185517D01*
X0051385Y0185465D01*
X0051412Y0185410D01*
X0051435Y0185355D01*
X0051455Y0185298D01*
X0051471Y0185239D01*
X0051484Y0185180D01*
X0051493Y0185121D01*
X0051498Y0185060D01*
X0051500Y0185000D01*
X0051500Y0168000D01*
X0051498Y0167940D01*
X0051493Y0167879D01*
X0051484Y0167820D01*
X0051471Y0167761D01*
X0051455Y0167702D01*
X0051435Y0167645D01*
X0051412Y0167590D01*
X0051385Y0167535D01*
X0051356Y0167483D01*
X0051323Y0167432D01*
X0051287Y0167383D01*
X0051249Y0167337D01*
X0051207Y0167293D01*
X0051163Y0167251D01*
X0051117Y0167213D01*
X0051068Y0167177D01*
X0051017Y0167144D01*
X0050965Y0167115D01*
X0050910Y0167088D01*
X0050855Y0167065D01*
X0050798Y0167045D01*
X0050739Y0167029D01*
X0050680Y0167016D01*
X0050621Y0167007D01*
X0050560Y0167002D01*
X0050500Y0167000D01*
X0046500Y0175000D02*
X0046500Y0175500D01*
X0046500Y0177500D02*
X0046500Y0178000D01*
X0065500Y0208000D02*
X0066500Y0208000D01*
X0067000Y0208500D01*
X0076000Y0208500D01*
X0076500Y0208000D01*
X0077500Y0208000D01*
X0077560Y0208002D01*
X0077621Y0208007D01*
X0077680Y0208016D01*
X0077739Y0208029D01*
X0077798Y0208045D01*
X0077855Y0208065D01*
X0077910Y0208088D01*
X0077965Y0208115D01*
X0078017Y0208144D01*
X0078068Y0208177D01*
X0078117Y0208213D01*
X0078163Y0208251D01*
X0078207Y0208293D01*
X0078249Y0208337D01*
X0078287Y0208383D01*
X0078323Y0208432D01*
X0078356Y0208483D01*
X0078385Y0208535D01*
X0078412Y0208590D01*
X0078435Y0208645D01*
X0078455Y0208702D01*
X0078471Y0208761D01*
X0078484Y0208820D01*
X0078493Y0208879D01*
X0078498Y0208940D01*
X0078500Y0209000D01*
X0078500Y0214000D02*
X0078498Y0214060D01*
X0078493Y0214121D01*
X0078484Y0214180D01*
X0078471Y0214239D01*
X0078455Y0214298D01*
X0078435Y0214355D01*
X0078412Y0214410D01*
X0078385Y0214465D01*
X0078356Y0214517D01*
X0078323Y0214568D01*
X0078287Y0214617D01*
X0078249Y0214663D01*
X0078207Y0214707D01*
X0078163Y0214749D01*
X0078117Y0214787D01*
X0078068Y0214823D01*
X0078017Y0214856D01*
X0077965Y0214885D01*
X0077910Y0214912D01*
X0077855Y0214935D01*
X0077798Y0214955D01*
X0077739Y0214971D01*
X0077680Y0214984D01*
X0077621Y0214993D01*
X0077560Y0214998D01*
X0077500Y0215000D01*
X0076500Y0215000D01*
X0076000Y0214500D01*
X0067000Y0214500D01*
X0066500Y0215000D01*
X0065500Y0215000D01*
X0065440Y0214998D01*
X0065379Y0214993D01*
X0065320Y0214984D01*
X0065261Y0214971D01*
X0065202Y0214955D01*
X0065145Y0214935D01*
X0065090Y0214912D01*
X0065035Y0214885D01*
X0064983Y0214856D01*
X0064932Y0214823D01*
X0064883Y0214787D01*
X0064837Y0214749D01*
X0064793Y0214707D01*
X0064751Y0214663D01*
X0064713Y0214617D01*
X0064677Y0214568D01*
X0064644Y0214517D01*
X0064615Y0214465D01*
X0064588Y0214410D01*
X0064565Y0214355D01*
X0064545Y0214298D01*
X0064529Y0214239D01*
X0064516Y0214180D01*
X0064507Y0214121D01*
X0064502Y0214060D01*
X0064500Y0214000D01*
X0064500Y0209000D02*
X0064502Y0208940D01*
X0064507Y0208879D01*
X0064516Y0208820D01*
X0064529Y0208761D01*
X0064545Y0208702D01*
X0064565Y0208645D01*
X0064588Y0208590D01*
X0064615Y0208535D01*
X0064644Y0208483D01*
X0064677Y0208432D01*
X0064713Y0208383D01*
X0064751Y0208337D01*
X0064793Y0208293D01*
X0064837Y0208251D01*
X0064883Y0208213D01*
X0064932Y0208177D01*
X0064983Y0208144D01*
X0065035Y0208115D01*
X0065090Y0208088D01*
X0065145Y0208065D01*
X0065202Y0208045D01*
X0065261Y0208029D01*
X0065320Y0208016D01*
X0065379Y0208007D01*
X0065440Y0208002D01*
X0065500Y0208000D01*
X0051500Y0230000D02*
X0051500Y0237500D01*
X0051500Y0233000D02*
X0051500Y0250000D01*
X0051498Y0250060D01*
X0051493Y0250121D01*
X0051484Y0250180D01*
X0051471Y0250239D01*
X0051455Y0250298D01*
X0051435Y0250355D01*
X0051412Y0250410D01*
X0051385Y0250465D01*
X0051356Y0250517D01*
X0051323Y0250568D01*
X0051287Y0250617D01*
X0051249Y0250663D01*
X0051207Y0250707D01*
X0051163Y0250749D01*
X0051117Y0250787D01*
X0051068Y0250823D01*
X0051017Y0250856D01*
X0050965Y0250885D01*
X0050910Y0250912D01*
X0050855Y0250935D01*
X0050798Y0250955D01*
X0050739Y0250971D01*
X0050680Y0250984D01*
X0050621Y0250993D01*
X0050560Y0250998D01*
X0050500Y0251000D01*
X0042500Y0251000D01*
X0042440Y0250998D01*
X0042379Y0250993D01*
X0042320Y0250984D01*
X0042261Y0250971D01*
X0042202Y0250955D01*
X0042145Y0250935D01*
X0042090Y0250912D01*
X0042035Y0250885D01*
X0041983Y0250856D01*
X0041932Y0250823D01*
X0041883Y0250787D01*
X0041837Y0250749D01*
X0041793Y0250707D01*
X0041751Y0250663D01*
X0041713Y0250617D01*
X0041677Y0250568D01*
X0041644Y0250517D01*
X0041615Y0250465D01*
X0041588Y0250410D01*
X0041565Y0250355D01*
X0041545Y0250298D01*
X0041529Y0250239D01*
X0041516Y0250180D01*
X0041507Y0250121D01*
X0041502Y0250060D01*
X0041500Y0250000D01*
X0041500Y0233000D01*
X0041502Y0232940D01*
X0041507Y0232879D01*
X0041516Y0232820D01*
X0041529Y0232761D01*
X0041545Y0232702D01*
X0041565Y0232645D01*
X0041588Y0232590D01*
X0041615Y0232535D01*
X0041644Y0232483D01*
X0041677Y0232432D01*
X0041713Y0232383D01*
X0041751Y0232337D01*
X0041793Y0232293D01*
X0041837Y0232251D01*
X0041883Y0232213D01*
X0041932Y0232177D01*
X0041983Y0232144D01*
X0042035Y0232115D01*
X0042090Y0232088D01*
X0042145Y0232065D01*
X0042202Y0232045D01*
X0042261Y0232029D01*
X0042320Y0232016D01*
X0042379Y0232007D01*
X0042440Y0232002D01*
X0042500Y0232000D01*
X0050500Y0232000D01*
X0050560Y0232002D01*
X0050621Y0232007D01*
X0050680Y0232016D01*
X0050739Y0232029D01*
X0050798Y0232045D01*
X0050855Y0232065D01*
X0050910Y0232088D01*
X0050965Y0232115D01*
X0051017Y0232144D01*
X0051068Y0232177D01*
X0051117Y0232213D01*
X0051163Y0232251D01*
X0051207Y0232293D01*
X0051249Y0232337D01*
X0051287Y0232383D01*
X0051323Y0232432D01*
X0051356Y0232483D01*
X0051385Y0232535D01*
X0051412Y0232590D01*
X0051435Y0232645D01*
X0051455Y0232702D01*
X0051471Y0232761D01*
X0051484Y0232820D01*
X0051493Y0232879D01*
X0051498Y0232940D01*
X0051500Y0233000D01*
X0051500Y0230000D02*
X0091500Y0230000D01*
X0091500Y0253000D01*
X0051500Y0253000D01*
X0051500Y0245500D01*
X0051626Y0245498D01*
X0051751Y0245492D01*
X0051876Y0245482D01*
X0052001Y0245468D01*
X0052126Y0245451D01*
X0052250Y0245429D01*
X0052373Y0245404D01*
X0052495Y0245374D01*
X0052616Y0245341D01*
X0052736Y0245304D01*
X0052855Y0245264D01*
X0052972Y0245219D01*
X0053089Y0245171D01*
X0053203Y0245119D01*
X0053316Y0245064D01*
X0053427Y0245005D01*
X0053536Y0244943D01*
X0053643Y0244877D01*
X0053748Y0244808D01*
X0053851Y0244736D01*
X0053952Y0244661D01*
X0054050Y0244582D01*
X0054145Y0244500D01*
X0054238Y0244416D01*
X0054328Y0244328D01*
X0054416Y0244238D01*
X0054500Y0244145D01*
X0054582Y0244050D01*
X0054661Y0243952D01*
X0054736Y0243851D01*
X0054808Y0243748D01*
X0054877Y0243643D01*
X0054943Y0243536D01*
X0055005Y0243427D01*
X0055064Y0243316D01*
X0055119Y0243203D01*
X0055171Y0243089D01*
X0055219Y0242972D01*
X0055264Y0242855D01*
X0055304Y0242736D01*
X0055341Y0242616D01*
X0055374Y0242495D01*
X0055404Y0242373D01*
X0055429Y0242250D01*
X0055451Y0242126D01*
X0055468Y0242001D01*
X0055482Y0241876D01*
X0055492Y0241751D01*
X0055498Y0241626D01*
X0055500Y0241500D01*
X0055498Y0241374D01*
X0055492Y0241249D01*
X0055482Y0241124D01*
X0055468Y0240999D01*
X0055451Y0240874D01*
X0055429Y0240750D01*
X0055404Y0240627D01*
X0055374Y0240505D01*
X0055341Y0240384D01*
X0055304Y0240264D01*
X0055264Y0240145D01*
X0055219Y0240028D01*
X0055171Y0239911D01*
X0055119Y0239797D01*
X0055064Y0239684D01*
X0055005Y0239573D01*
X0054943Y0239464D01*
X0054877Y0239357D01*
X0054808Y0239252D01*
X0054736Y0239149D01*
X0054661Y0239048D01*
X0054582Y0238950D01*
X0054500Y0238855D01*
X0054416Y0238762D01*
X0054328Y0238672D01*
X0054238Y0238584D01*
X0054145Y0238500D01*
X0054050Y0238418D01*
X0053952Y0238339D01*
X0053851Y0238264D01*
X0053748Y0238192D01*
X0053643Y0238123D01*
X0053536Y0238057D01*
X0053427Y0237995D01*
X0053316Y0237936D01*
X0053203Y0237881D01*
X0053089Y0237829D01*
X0052972Y0237781D01*
X0052855Y0237736D01*
X0052736Y0237696D01*
X0052616Y0237659D01*
X0052495Y0237626D01*
X0052373Y0237596D01*
X0052250Y0237571D01*
X0052126Y0237549D01*
X0052001Y0237532D01*
X0051876Y0237518D01*
X0051751Y0237508D01*
X0051626Y0237502D01*
X0051500Y0237500D01*
X0046500Y0240000D02*
X0046500Y0240500D01*
X0046500Y0242500D02*
X0046500Y0243000D01*
X0093000Y0246500D02*
X0093500Y0246000D01*
X0093500Y0237000D01*
X0093000Y0236500D01*
X0093000Y0235500D01*
X0093002Y0235440D01*
X0093007Y0235379D01*
X0093016Y0235320D01*
X0093029Y0235261D01*
X0093045Y0235202D01*
X0093065Y0235145D01*
X0093088Y0235090D01*
X0093115Y0235035D01*
X0093144Y0234983D01*
X0093177Y0234932D01*
X0093213Y0234883D01*
X0093251Y0234837D01*
X0093293Y0234793D01*
X0093337Y0234751D01*
X0093383Y0234713D01*
X0093432Y0234677D01*
X0093483Y0234644D01*
X0093535Y0234615D01*
X0093590Y0234588D01*
X0093645Y0234565D01*
X0093702Y0234545D01*
X0093761Y0234529D01*
X0093820Y0234516D01*
X0093879Y0234507D01*
X0093940Y0234502D01*
X0094000Y0234500D01*
X0099000Y0234500D02*
X0099060Y0234502D01*
X0099121Y0234507D01*
X0099180Y0234516D01*
X0099239Y0234529D01*
X0099298Y0234545D01*
X0099355Y0234565D01*
X0099410Y0234588D01*
X0099465Y0234615D01*
X0099517Y0234644D01*
X0099568Y0234677D01*
X0099617Y0234713D01*
X0099663Y0234751D01*
X0099707Y0234793D01*
X0099749Y0234837D01*
X0099787Y0234883D01*
X0099823Y0234932D01*
X0099856Y0234983D01*
X0099885Y0235035D01*
X0099912Y0235090D01*
X0099935Y0235145D01*
X0099955Y0235202D01*
X0099971Y0235261D01*
X0099984Y0235320D01*
X0099993Y0235379D01*
X0099998Y0235440D01*
X0100000Y0235500D01*
X0100000Y0236500D01*
X0099500Y0237000D01*
X0099500Y0246000D01*
X0100000Y0246500D01*
X0100000Y0247500D01*
X0099998Y0247560D01*
X0099993Y0247621D01*
X0099984Y0247680D01*
X0099971Y0247739D01*
X0099955Y0247798D01*
X0099935Y0247855D01*
X0099912Y0247910D01*
X0099885Y0247965D01*
X0099856Y0248017D01*
X0099823Y0248068D01*
X0099787Y0248117D01*
X0099749Y0248163D01*
X0099707Y0248207D01*
X0099663Y0248249D01*
X0099617Y0248287D01*
X0099568Y0248323D01*
X0099517Y0248356D01*
X0099465Y0248385D01*
X0099410Y0248412D01*
X0099355Y0248435D01*
X0099298Y0248455D01*
X0099239Y0248471D01*
X0099180Y0248484D01*
X0099121Y0248493D01*
X0099060Y0248498D01*
X0099000Y0248500D01*
X0103000Y0247500D02*
X0103000Y0246500D01*
X0103500Y0246000D01*
X0103500Y0237000D01*
X0103000Y0236500D01*
X0103000Y0235500D01*
X0103002Y0235440D01*
X0103007Y0235379D01*
X0103016Y0235320D01*
X0103029Y0235261D01*
X0103045Y0235202D01*
X0103065Y0235145D01*
X0103088Y0235090D01*
X0103115Y0235035D01*
X0103144Y0234983D01*
X0103177Y0234932D01*
X0103213Y0234883D01*
X0103251Y0234837D01*
X0103293Y0234793D01*
X0103337Y0234751D01*
X0103383Y0234713D01*
X0103432Y0234677D01*
X0103483Y0234644D01*
X0103535Y0234615D01*
X0103590Y0234588D01*
X0103645Y0234565D01*
X0103702Y0234545D01*
X0103761Y0234529D01*
X0103820Y0234516D01*
X0103879Y0234507D01*
X0103940Y0234502D01*
X0104000Y0234500D01*
X0109000Y0234500D02*
X0109060Y0234502D01*
X0109121Y0234507D01*
X0109180Y0234516D01*
X0109239Y0234529D01*
X0109298Y0234545D01*
X0109355Y0234565D01*
X0109410Y0234588D01*
X0109465Y0234615D01*
X0109517Y0234644D01*
X0109568Y0234677D01*
X0109617Y0234713D01*
X0109663Y0234751D01*
X0109707Y0234793D01*
X0109749Y0234837D01*
X0109787Y0234883D01*
X0109823Y0234932D01*
X0109856Y0234983D01*
X0109885Y0235035D01*
X0109912Y0235090D01*
X0109935Y0235145D01*
X0109955Y0235202D01*
X0109971Y0235261D01*
X0109984Y0235320D01*
X0109993Y0235379D01*
X0109998Y0235440D01*
X0110000Y0235500D01*
X0110000Y0236500D01*
X0109500Y0237000D01*
X0109500Y0246000D01*
X0110000Y0246500D01*
X0110000Y0247500D01*
X0109998Y0247560D01*
X0109993Y0247621D01*
X0109984Y0247680D01*
X0109971Y0247739D01*
X0109955Y0247798D01*
X0109935Y0247855D01*
X0109912Y0247910D01*
X0109885Y0247965D01*
X0109856Y0248017D01*
X0109823Y0248068D01*
X0109787Y0248117D01*
X0109749Y0248163D01*
X0109707Y0248207D01*
X0109663Y0248249D01*
X0109617Y0248287D01*
X0109568Y0248323D01*
X0109517Y0248356D01*
X0109465Y0248385D01*
X0109410Y0248412D01*
X0109355Y0248435D01*
X0109298Y0248455D01*
X0109239Y0248471D01*
X0109180Y0248484D01*
X0109121Y0248493D01*
X0109060Y0248498D01*
X0109000Y0248500D01*
X0104000Y0248500D02*
X0103940Y0248498D01*
X0103879Y0248493D01*
X0103820Y0248484D01*
X0103761Y0248471D01*
X0103702Y0248455D01*
X0103645Y0248435D01*
X0103590Y0248412D01*
X0103535Y0248385D01*
X0103483Y0248356D01*
X0103432Y0248323D01*
X0103383Y0248287D01*
X0103337Y0248249D01*
X0103293Y0248207D01*
X0103251Y0248163D01*
X0103213Y0248117D01*
X0103177Y0248068D01*
X0103144Y0248017D01*
X0103115Y0247965D01*
X0103088Y0247910D01*
X0103065Y0247855D01*
X0103045Y0247798D01*
X0103029Y0247739D01*
X0103016Y0247680D01*
X0103007Y0247621D01*
X0103002Y0247560D01*
X0103000Y0247500D01*
X0094000Y0248500D02*
X0093940Y0248498D01*
X0093879Y0248493D01*
X0093820Y0248484D01*
X0093761Y0248471D01*
X0093702Y0248455D01*
X0093645Y0248435D01*
X0093590Y0248412D01*
X0093535Y0248385D01*
X0093483Y0248356D01*
X0093432Y0248323D01*
X0093383Y0248287D01*
X0093337Y0248249D01*
X0093293Y0248207D01*
X0093251Y0248163D01*
X0093213Y0248117D01*
X0093177Y0248068D01*
X0093144Y0248017D01*
X0093115Y0247965D01*
X0093088Y0247910D01*
X0093065Y0247855D01*
X0093045Y0247798D01*
X0093029Y0247739D01*
X0093016Y0247680D01*
X0093007Y0247621D01*
X0093002Y0247560D01*
X0093000Y0247500D01*
X0093000Y0246500D01*
D12*
X0049500Y0242500D02*
X0046500Y0242500D01*
X0043500Y0242500D01*
X0043500Y0240500D02*
X0046500Y0240500D01*
X0049500Y0240500D01*
X0049500Y0177500D02*
X0046500Y0177500D01*
X0043500Y0177500D01*
X0043500Y0175500D02*
X0046500Y0175500D01*
X0049500Y0175500D01*
X0073500Y0117500D02*
X0076500Y0117500D01*
X0079500Y0117500D01*
X0079500Y0115500D02*
X0076500Y0115500D01*
X0073500Y0115500D01*
X0049500Y0067500D02*
X0046500Y0067500D01*
X0043500Y0067500D01*
X0043500Y0065500D02*
X0046500Y0065500D01*
X0049500Y0065500D01*
X0049500Y0042500D02*
X0046500Y0042500D01*
X0043500Y0042500D01*
X0043500Y0040500D02*
X0046500Y0040500D01*
X0049500Y0040500D01*
D13*
X0040250Y0040356D02*
X0040250Y0037354D01*
X0040250Y0038855D02*
X0035746Y0038855D01*
X0037247Y0037354D01*
X0036497Y0035753D02*
X0035746Y0035002D01*
X0035746Y0033501D01*
X0036497Y0032750D01*
X0039499Y0032750D01*
X0040250Y0033501D01*
X0040250Y0035002D01*
X0039499Y0035753D01*
X0039499Y0057750D02*
X0036497Y0057750D01*
X0035746Y0058501D01*
X0035746Y0060002D01*
X0036497Y0060753D01*
X0036497Y0062354D02*
X0035746Y0063105D01*
X0035746Y0064606D01*
X0036497Y0065356D01*
X0037247Y0065356D01*
X0037998Y0064606D01*
X0038749Y0065356D01*
X0039499Y0065356D01*
X0040250Y0064606D01*
X0040250Y0063105D01*
X0039499Y0062354D01*
X0039499Y0060753D02*
X0040250Y0060002D01*
X0040250Y0058501D01*
X0039499Y0057750D01*
X0037998Y0063855D02*
X0037998Y0064606D01*
X0065746Y0064070D02*
X0066497Y0063319D01*
X0069499Y0063319D01*
X0070250Y0064070D01*
X0070250Y0065571D01*
X0069499Y0066322D01*
X0070250Y0067923D02*
X0067247Y0070926D01*
X0066497Y0070926D01*
X0065746Y0070175D01*
X0065746Y0068674D01*
X0066497Y0067923D01*
X0066497Y0066322D02*
X0065746Y0065571D01*
X0065746Y0064070D01*
X0065746Y0061751D02*
X0065746Y0060250D01*
X0065746Y0061001D02*
X0070250Y0061001D01*
X0070250Y0061751D02*
X0070250Y0060250D01*
X0070250Y0067923D02*
X0070250Y0070926D01*
X0071497Y0097750D02*
X0070746Y0098501D01*
X0070746Y0100002D01*
X0071497Y0100753D01*
X0071497Y0102354D02*
X0070746Y0103105D01*
X0070746Y0104606D01*
X0071497Y0105356D01*
X0072247Y0105356D01*
X0075250Y0102354D01*
X0075250Y0105356D01*
X0074499Y0100753D02*
X0075250Y0100002D01*
X0075250Y0098501D01*
X0074499Y0097750D01*
X0071497Y0097750D01*
X0095746Y0111001D02*
X0096497Y0110250D01*
X0099499Y0110250D01*
X0100250Y0111001D01*
X0100250Y0112502D01*
X0099499Y0113253D01*
X0096497Y0113253D01*
X0095746Y0112502D01*
X0095746Y0111001D01*
X0095746Y0114854D02*
X0100250Y0114854D01*
X0098749Y0114854D02*
X0095746Y0117856D01*
X0097247Y0119458D02*
X0095746Y0120959D01*
X0100250Y0120959D01*
X0100250Y0119458D02*
X0100250Y0122460D01*
X0100250Y0117856D02*
X0097998Y0115605D01*
X0136748Y0040808D02*
X0138650Y0040808D01*
X0136748Y0039540D01*
X0138650Y0039540D01*
X0138650Y0038701D02*
X0138650Y0038067D01*
X0138650Y0038384D02*
X0136748Y0038384D01*
X0136748Y0038067D02*
X0136748Y0038701D01*
X0136748Y0037227D02*
X0136748Y0036594D01*
X0136748Y0036911D02*
X0138650Y0036911D01*
X0138650Y0037227D02*
X0138650Y0036594D01*
X0138333Y0035651D02*
X0137065Y0035651D01*
X0136748Y0035335D01*
X0136748Y0034384D01*
X0138650Y0034384D01*
X0138650Y0035335D01*
X0138333Y0035651D01*
X0138650Y0033544D02*
X0138650Y0032910D01*
X0138650Y0033227D02*
X0136748Y0033227D01*
X0136748Y0032910D02*
X0136748Y0033544D01*
X0136748Y0031968D02*
X0138650Y0031968D01*
X0138650Y0030701D02*
X0136748Y0030701D01*
X0137382Y0031334D01*
X0136748Y0031968D01*
X0088356Y0026250D02*
X0085354Y0026250D01*
X0083753Y0027001D02*
X0083753Y0030003D01*
X0083002Y0030754D01*
X0080750Y0030754D01*
X0080750Y0026250D01*
X0083002Y0026250D01*
X0083753Y0027001D01*
X0085354Y0029253D02*
X0086855Y0030754D01*
X0086855Y0026250D01*
X0049750Y0164750D02*
X0049750Y0166251D01*
X0049750Y0165501D02*
X0045246Y0165501D01*
X0045246Y0166251D02*
X0045246Y0164750D01*
X0045997Y0167819D02*
X0048999Y0167819D01*
X0049750Y0168570D01*
X0049750Y0170071D01*
X0048999Y0170822D01*
X0049750Y0172423D02*
X0049750Y0175426D01*
X0049750Y0173924D02*
X0045246Y0173924D01*
X0046747Y0172423D01*
X0045997Y0170822D02*
X0045246Y0170071D01*
X0045246Y0168570D01*
X0045997Y0167819D01*
X0040250Y0168501D02*
X0040250Y0170002D01*
X0039499Y0170753D01*
X0039499Y0172354D02*
X0040250Y0173105D01*
X0040250Y0174606D01*
X0039499Y0175356D01*
X0037998Y0175356D01*
X0037247Y0174606D01*
X0037247Y0173855D01*
X0037998Y0172354D01*
X0035746Y0172354D01*
X0035746Y0175356D01*
X0036497Y0170753D02*
X0035746Y0170002D01*
X0035746Y0168501D01*
X0036497Y0167750D01*
X0039499Y0167750D01*
X0040250Y0168501D01*
X0041497Y0217750D02*
X0044499Y0217750D01*
X0045250Y0218501D01*
X0045250Y0220002D01*
X0044499Y0220753D01*
X0042998Y0222354D02*
X0042998Y0225356D01*
X0040746Y0224606D02*
X0042998Y0222354D01*
X0041497Y0220753D02*
X0040746Y0220002D01*
X0040746Y0218501D01*
X0041497Y0217750D01*
X0040746Y0224606D02*
X0045250Y0224606D01*
X0070746Y0235250D02*
X0070746Y0236751D01*
X0070746Y0236001D02*
X0075250Y0236001D01*
X0075250Y0236751D02*
X0075250Y0235250D01*
X0074499Y0238319D02*
X0075250Y0239070D01*
X0075250Y0240571D01*
X0074499Y0241322D01*
X0074499Y0242923D02*
X0075250Y0243674D01*
X0075250Y0245175D01*
X0074499Y0245926D01*
X0073749Y0245926D01*
X0072998Y0245175D01*
X0072998Y0244424D01*
X0072998Y0245175D02*
X0072247Y0245926D01*
X0071497Y0245926D01*
X0070746Y0245175D01*
X0070746Y0243674D01*
X0071497Y0242923D01*
X0071497Y0241322D02*
X0070746Y0240571D01*
X0070746Y0239070D01*
X0071497Y0238319D01*
X0074499Y0238319D01*
X0136748Y0238598D02*
X0138333Y0238598D01*
X0138650Y0238281D01*
X0138650Y0237647D01*
X0138333Y0237330D01*
X0136748Y0237330D01*
X0137065Y0236388D02*
X0136748Y0236071D01*
X0136748Y0235437D01*
X0137065Y0235120D01*
X0138333Y0235120D01*
X0138650Y0235437D01*
X0138650Y0236071D01*
X0138333Y0236388D01*
X0137065Y0236388D01*
X0136748Y0234281D02*
X0136748Y0233647D01*
X0136748Y0233964D02*
X0138650Y0233964D01*
X0138650Y0233647D02*
X0138650Y0234281D01*
X0138333Y0232705D02*
X0137065Y0232705D01*
X0136748Y0232388D01*
X0136748Y0231437D01*
X0138650Y0231437D01*
X0138650Y0232388D01*
X0138333Y0232705D01*
X0138650Y0230598D02*
X0138650Y0229964D01*
X0138650Y0230281D02*
X0136748Y0230281D01*
X0136748Y0229964D02*
X0136748Y0230598D01*
X0136748Y0229022D02*
X0138650Y0229022D01*
X0138650Y0227754D02*
X0136748Y0227754D01*
X0137382Y0228388D01*
X0136748Y0229022D01*
X0136748Y0239540D02*
X0136748Y0240808D01*
X0136748Y0240174D02*
X0138650Y0240174D01*
X0006250Y0240433D02*
X0006250Y0241384D01*
X0005933Y0241701D01*
X0004665Y0241701D01*
X0004348Y0241384D01*
X0004348Y0240433D01*
X0006250Y0240433D01*
X0006250Y0239594D02*
X0006250Y0238960D01*
X0006250Y0239277D02*
X0004348Y0239277D01*
X0004348Y0238960D02*
X0004348Y0239594D01*
X0004348Y0238018D02*
X0006250Y0238018D01*
X0006250Y0236750D02*
X0004348Y0236750D01*
X0004982Y0237384D01*
X0004348Y0238018D01*
X0004348Y0242643D02*
X0004348Y0243277D01*
X0004348Y0242960D02*
X0006250Y0242960D01*
X0006250Y0242643D02*
X0006250Y0243277D01*
X0006250Y0244116D02*
X0004348Y0244116D01*
X0004348Y0245067D01*
X0004665Y0245384D01*
X0005299Y0245384D01*
X0005616Y0245067D01*
X0005616Y0244116D01*
X0005616Y0244750D02*
X0006250Y0245384D01*
X0006250Y0246326D02*
X0004348Y0247594D01*
X0004348Y0246326D02*
X0006250Y0247594D01*
X0006250Y0179067D02*
X0005616Y0178433D01*
X0005616Y0178750D02*
X0005616Y0177799D01*
X0006250Y0177799D02*
X0004348Y0177799D01*
X0004348Y0178750D01*
X0004665Y0179067D01*
X0005299Y0179067D01*
X0005616Y0178750D01*
X0006250Y0176857D02*
X0004348Y0176857D01*
X0004348Y0175590D02*
X0006250Y0175590D01*
X0005616Y0176223D01*
X0006250Y0176857D01*
X0005299Y0174647D02*
X0005616Y0174330D01*
X0005616Y0173380D01*
X0006250Y0173380D02*
X0004348Y0173380D01*
X0004348Y0174330D01*
X0004665Y0174647D01*
X0005299Y0174647D01*
X0004665Y0172438D02*
X0004348Y0172121D01*
X0004348Y0171170D01*
X0006250Y0171170D01*
X0006250Y0172121D01*
X0005933Y0172438D01*
X0004665Y0172438D01*
X0004348Y0170228D02*
X0004348Y0168960D01*
X0006250Y0168960D01*
X0006250Y0170228D01*
X0005299Y0169594D02*
X0005299Y0168960D01*
X0006250Y0168018D02*
X0006250Y0166750D01*
X0004348Y0166750D01*
X0004665Y0132438D02*
X0004348Y0132121D01*
X0004348Y0131170D01*
X0006250Y0131170D01*
X0006250Y0132121D01*
X0005933Y0132438D01*
X0004665Y0132438D01*
X0004348Y0130228D02*
X0004348Y0128960D01*
X0006250Y0128960D01*
X0006250Y0130228D01*
X0005299Y0129594D02*
X0005299Y0128960D01*
X0006250Y0128018D02*
X0006250Y0126750D01*
X0004348Y0126750D01*
X0004348Y0072594D02*
X0006250Y0071326D01*
X0006250Y0072594D02*
X0004348Y0071326D01*
X0004348Y0070384D02*
X0004348Y0069116D01*
X0004348Y0069750D02*
X0006250Y0069750D01*
X0006250Y0068277D02*
X0006250Y0067643D01*
X0006250Y0067960D02*
X0004348Y0067960D01*
X0004348Y0067643D02*
X0004348Y0068277D01*
X0004665Y0066701D02*
X0004348Y0066384D01*
X0004348Y0065433D01*
X0006250Y0065433D01*
X0006250Y0066384D01*
X0005933Y0066701D01*
X0004665Y0066701D01*
X0004348Y0064594D02*
X0004348Y0063960D01*
X0004348Y0064277D02*
X0006250Y0064277D01*
X0006250Y0063960D02*
X0006250Y0064594D01*
X0006250Y0063018D02*
X0004348Y0063018D01*
X0004982Y0062384D01*
X0004348Y0061750D01*
X0006250Y0061750D01*
X0006250Y0037438D02*
X0005616Y0036804D01*
X0005616Y0037121D02*
X0005616Y0036170D01*
X0006250Y0036170D02*
X0004348Y0036170D01*
X0004348Y0037121D01*
X0004665Y0037438D01*
X0005299Y0037438D01*
X0005616Y0037121D01*
X0006250Y0035228D02*
X0004348Y0035228D01*
X0004348Y0033960D02*
X0006250Y0033960D01*
X0005616Y0034594D01*
X0006250Y0035228D01*
X0005299Y0033018D02*
X0005616Y0032701D01*
X0005616Y0031750D01*
X0006250Y0031750D02*
X0004348Y0031750D01*
X0004348Y0032701D01*
X0004665Y0033018D01*
X0005299Y0033018D01*
D14*
X0072750Y0036500D03*
D15*
X0067750Y0036500D03*
X0085250Y0036500D03*
D16*
X0093197Y0043800D02*
X0093197Y0045551D01*
X0093781Y0046135D01*
X0094949Y0046135D01*
X0095532Y0045551D01*
X0095532Y0043800D01*
X0095532Y0044968D02*
X0096700Y0046135D01*
X0096116Y0047391D02*
X0096700Y0047975D01*
X0096700Y0049143D01*
X0096116Y0049726D01*
X0095532Y0049726D01*
X0094949Y0049143D01*
X0094949Y0048559D01*
X0094949Y0049143D02*
X0094365Y0049726D01*
X0093781Y0049726D01*
X0093197Y0049143D01*
X0093197Y0047975D01*
X0093781Y0047391D01*
X0093197Y0043800D02*
X0096700Y0043800D01*
X0042760Y0103200D02*
X0041593Y0103200D01*
X0041009Y0103784D01*
X0041009Y0104368D01*
X0041593Y0104951D01*
X0042760Y0104951D01*
X0043344Y0104368D01*
X0043344Y0103784D01*
X0042760Y0103200D01*
X0042760Y0104951D02*
X0043344Y0105535D01*
X0043344Y0106119D01*
X0042760Y0106703D01*
X0041593Y0106703D01*
X0041009Y0106119D01*
X0041009Y0105535D01*
X0041593Y0104951D01*
X0039753Y0104951D02*
X0039753Y0106119D01*
X0039169Y0106703D01*
X0037418Y0106703D01*
X0037418Y0103200D01*
X0037418Y0104368D02*
X0039169Y0104368D01*
X0039753Y0104951D01*
X0038586Y0104368D02*
X0039753Y0103200D01*
X0039753Y0113200D02*
X0038586Y0114368D01*
X0039169Y0114368D02*
X0039753Y0114951D01*
X0039753Y0116119D01*
X0039169Y0116703D01*
X0037418Y0116703D01*
X0037418Y0113200D01*
X0037418Y0114368D02*
X0039169Y0114368D01*
X0041009Y0114951D02*
X0042760Y0114951D01*
X0043344Y0114368D01*
X0043344Y0113784D01*
X0042760Y0113200D01*
X0041593Y0113200D01*
X0041009Y0113784D01*
X0041009Y0114951D01*
X0042177Y0116119D01*
X0043344Y0116703D01*
X0042760Y0123200D02*
X0041593Y0123200D01*
X0041009Y0123784D01*
X0041009Y0124951D02*
X0042177Y0125535D01*
X0042760Y0125535D01*
X0043344Y0124951D01*
X0043344Y0123784D01*
X0042760Y0123200D01*
X0041009Y0124951D02*
X0041009Y0126703D01*
X0043344Y0126703D01*
X0039753Y0126119D02*
X0039753Y0124951D01*
X0039169Y0124368D01*
X0037418Y0124368D01*
X0038586Y0124368D02*
X0039753Y0123200D01*
X0039753Y0126119D02*
X0039169Y0126703D01*
X0037418Y0126703D01*
X0037418Y0123200D01*
X0037418Y0133200D02*
X0037418Y0136703D01*
X0039169Y0136703D01*
X0039753Y0136119D01*
X0039753Y0134951D01*
X0039169Y0134368D01*
X0037418Y0134368D01*
X0038586Y0134368D02*
X0039753Y0133200D01*
X0041009Y0134951D02*
X0043344Y0134951D01*
X0042760Y0133200D02*
X0042760Y0136703D01*
X0041009Y0134951D01*
X0048800Y0211300D02*
X0048800Y0214803D01*
X0050551Y0214803D01*
X0051135Y0214219D01*
X0051135Y0213051D01*
X0050551Y0212468D01*
X0048800Y0212468D01*
X0049968Y0212468D02*
X0051135Y0211300D01*
X0052391Y0211300D02*
X0052391Y0211884D01*
X0054726Y0214219D01*
X0054726Y0214803D01*
X0052391Y0214803D01*
X0093197Y0218800D02*
X0093197Y0220551D01*
X0093781Y0221135D01*
X0094949Y0221135D01*
X0095532Y0220551D01*
X0095532Y0218800D01*
X0095532Y0219968D02*
X0096700Y0221135D01*
X0096700Y0222391D02*
X0096700Y0224726D01*
X0096700Y0223559D02*
X0093197Y0223559D01*
X0094365Y0222391D01*
X0093197Y0218800D02*
X0096700Y0218800D01*
X0103197Y0218800D02*
X0103197Y0220551D01*
X0103781Y0221135D01*
X0104949Y0221135D01*
X0105532Y0220551D01*
X0105532Y0218800D01*
X0105532Y0219968D02*
X0106700Y0221135D01*
X0106700Y0222391D02*
X0104365Y0224726D01*
X0103781Y0224726D01*
X0103197Y0224143D01*
X0103197Y0222975D01*
X0103781Y0222391D01*
X0103197Y0218800D02*
X0106700Y0218800D01*
X0106700Y0222391D02*
X0106700Y0224726D01*
D17*
X0113311Y0226106D02*
X0113311Y0228665D01*
X0119610Y0228665D01*
X0113311Y0226106D02*
X0143232Y0226106D01*
X0143232Y0257209D01*
X0113311Y0257209D01*
X0113311Y0254650D01*
X0119610Y0254650D01*
X0031421Y0254650D02*
X0025122Y0254650D01*
X0031421Y0254650D02*
X0031421Y0257209D01*
X0001500Y0257209D01*
X0001500Y0233980D01*
X0031421Y0233980D01*
X0031421Y0236539D01*
X0025122Y0236539D01*
X0031421Y0186343D02*
X0001500Y0186343D01*
X0001500Y0163114D01*
X0031421Y0163114D01*
X0031421Y0165673D01*
X0025122Y0165673D01*
X0025122Y0160161D02*
X0031421Y0160161D01*
X0031421Y0162720D01*
X0001500Y0162720D01*
X0001500Y0123744D01*
X0031421Y0123744D01*
X0031421Y0126303D01*
X0025122Y0126303D01*
X0031421Y0087917D02*
X0031421Y0085358D01*
X0025122Y0085358D01*
X0031421Y0087917D02*
X0001500Y0087917D01*
X0001500Y0056815D01*
X0031421Y0056815D01*
X0031421Y0059374D01*
X0025122Y0059374D01*
X0025122Y0049925D02*
X0031421Y0049925D01*
X0031421Y0052484D01*
X0001500Y0052484D01*
X0001500Y0029256D01*
X0031421Y0029256D01*
X0031421Y0031815D01*
X0025122Y0031815D01*
X0025122Y0183783D02*
X0031421Y0183783D01*
X0031421Y0186343D01*
X0113311Y0052484D02*
X0113311Y0049925D01*
X0119610Y0049925D01*
X0113311Y0052484D02*
X0143232Y0052484D01*
X0143232Y0029256D01*
X0113311Y0029256D01*
X0113311Y0031815D01*
X0119610Y0031815D01*
M02*
