G75*
%MOIN*%
%OFA0B0*%
%FSLAX25Y25*%
%IPPOS*%
%LPD*%
%AMOC8*
5,1,8,0,0,1.08239X$1,22.5*
%
%ADD10C,0.13398*%
%ADD11OC8,0.05600*%
%ADD12C,0.05600*%
%ADD13C,0.07099*%
D10*
X0013497Y0013311D03*
X0082395Y0013311D03*
X0082395Y0273154D03*
X0013497Y0273154D03*
D11*
X0036686Y0251500D03*
X0036686Y0241500D03*
X0041686Y0231500D03*
X0051686Y0231500D03*
X0056686Y0241500D03*
X0056686Y0251500D03*
X0036686Y0196500D03*
X0036686Y0186500D03*
X0036686Y0176500D03*
X0031686Y0166500D03*
X0021686Y0166500D03*
X0016686Y0176500D03*
X0016686Y0186500D03*
X0016686Y0196500D03*
X0041686Y0081500D03*
X0041686Y0031500D03*
X0061686Y0031500D03*
X0061686Y0081500D03*
X0071686Y0081500D03*
X0081686Y0081500D03*
X0076686Y0136500D03*
X0066686Y0136500D03*
X0066686Y0191500D03*
X0076686Y0191500D03*
D12*
X0084286Y0181500D02*
X0089086Y0181500D01*
X0089086Y0171500D02*
X0084286Y0171500D01*
X0084286Y0161500D02*
X0089086Y0161500D01*
X0089086Y0151500D02*
X0084286Y0151500D01*
X0084286Y0126500D02*
X0089086Y0126500D01*
X0089086Y0116500D02*
X0084286Y0116500D01*
X0084286Y0106500D02*
X0089086Y0106500D01*
X0089086Y0096500D02*
X0084286Y0096500D01*
X0081486Y0071500D02*
X0076686Y0071500D01*
X0076686Y0061500D02*
X0081486Y0061500D01*
X0081486Y0051500D02*
X0076686Y0051500D01*
X0076686Y0041500D02*
X0081486Y0041500D01*
X0069086Y0021500D02*
X0064286Y0021500D01*
X0046686Y0041500D02*
X0041886Y0041500D01*
X0041886Y0051500D02*
X0046686Y0051500D01*
X0046686Y0061500D02*
X0041886Y0061500D01*
X0041886Y0071500D02*
X0046686Y0071500D01*
X0044086Y0096500D02*
X0039286Y0096500D01*
X0039286Y0106500D02*
X0044086Y0106500D01*
X0044086Y0116500D02*
X0039286Y0116500D01*
X0039286Y0126500D02*
X0044086Y0126500D01*
X0044086Y0136500D02*
X0039286Y0136500D01*
X0039286Y0146500D02*
X0044086Y0146500D01*
X0044086Y0156500D02*
X0039286Y0156500D01*
X0054286Y0151500D02*
X0059086Y0151500D01*
X0059086Y0161500D02*
X0054286Y0161500D01*
X0054286Y0171500D02*
X0059086Y0171500D01*
X0059086Y0181500D02*
X0054286Y0181500D01*
X0054286Y0126500D02*
X0059086Y0126500D01*
X0059086Y0116500D02*
X0054286Y0116500D01*
X0054286Y0106500D02*
X0059086Y0106500D01*
X0059086Y0096500D02*
X0054286Y0096500D01*
X0039086Y0021500D02*
X0034286Y0021500D01*
X0014086Y0096500D02*
X0009286Y0096500D01*
X0009286Y0106500D02*
X0014086Y0106500D01*
X0014086Y0116500D02*
X0009286Y0116500D01*
X0009286Y0126500D02*
X0014086Y0126500D01*
X0014086Y0136500D02*
X0009286Y0136500D01*
X0009286Y0146500D02*
X0014086Y0146500D01*
X0014086Y0156500D02*
X0009286Y0156500D01*
D13*
X0025308Y0214098D03*
X0025308Y0221972D03*
X0025308Y0229846D03*
X0025308Y0245594D03*
X0025308Y0253469D03*
X0070584Y0253469D03*
X0070584Y0245594D03*
X0070584Y0237720D03*
X0070584Y0221972D03*
X0070584Y0214098D03*
X0025308Y0080240D03*
X0025308Y0072366D03*
X0025308Y0064492D03*
X0025308Y0056618D03*
X0025308Y0040870D03*
X0025308Y0032996D03*
M02*
