%
M48
M72
T01C0.02756
T02C0.03200
T03C0.12598
%
T01
X25122Y36933
X25122Y44807
X25122Y64492
X25122Y72366
X25122Y80240
X25122Y131421
X25122Y139295
X25122Y147169
X25122Y155043
X25122Y170791
X25122Y178665
X25122Y241657
X25122Y249531
X119610Y249531
X119610Y241657
X119610Y233783
X119610Y44807
X119610Y36933
T02
X96500Y56500
X86500Y51500
X91500Y36500
X76500Y51500
X66500Y51500
X61500Y36500
X56500Y51500
X46500Y46500
X46500Y36500
X46500Y61500
X46500Y71500
X56500Y81500
X66500Y81500
X76500Y81500
X86500Y81500
X96500Y76500
X96500Y101500
X86500Y101500
X76500Y111500
X76500Y121500
X66500Y121500
X66500Y131500
X66500Y111500
X66500Y101500
X46500Y101500
X46500Y111500
X46500Y121500
X46500Y131500
X56500Y161500
X66500Y161500
X76500Y161500
X86500Y161500
X96500Y161500
X106500Y161500
X116500Y161500
X116500Y191500
X106500Y191500
X96500Y191500
X86500Y191500
X76500Y191500
X66500Y191500
X56500Y191500
X46500Y181500
X46500Y171500
X61500Y211500
X56500Y226500
X66500Y226500
X76500Y226500
X81500Y211500
X86500Y226500
X96500Y231500
X106500Y231500
X106500Y251500
X96500Y251500
X86500Y256500
X76500Y256500
X66500Y256500
X56500Y256500
X46500Y246500
X46500Y236500
X86500Y131500
X96500Y131500
X106500Y131500
X116500Y131500
X116500Y101500
X106500Y101500
T03
X13311Y13311
X131421Y13311
X131421Y273154
X13311Y273154
M30
