%
M48
M72
T01C0.01181
T02C0.02756
T03C0.03200
T04C0.12598
%
T01
X73686Y164500
T02
X70584Y214098
X70584Y221972
X70584Y237720
X70584Y245594
X70584Y253469
X25308Y253469
X25308Y245594
X25308Y229846
X25308Y221972
X25308Y214098
X25308Y80240
X25308Y72366
X25308Y64492
X25308Y56618
X25308Y40870
X25308Y32996
T03
X36686Y21500
X41686Y31500
X46686Y41500
X46686Y51500
X46686Y61500
X46686Y71500
X41686Y81500
X41686Y96500
X41686Y106500
X41686Y116500
X41686Y126500
X41686Y136500
X41686Y146500
X41686Y156500
X36686Y176500
X36686Y186500
X36686Y196500
X31686Y166500
X21686Y166500
X16686Y176500
X16686Y186500
X16686Y196500
X11686Y156500
X11686Y146500
X11686Y136500
X11686Y126500
X11686Y116500
X11686Y106500
X11686Y96500
X56686Y96500
X56686Y106500
X56686Y116500
X56686Y126500
X56686Y151500
X56686Y161500
X56686Y171500
X56686Y181500
X66686Y191500
X76686Y191500
X86686Y181500
X86686Y171500
X86686Y161500
X86686Y151500
X86686Y126500
X86686Y116500
X86686Y106500
X86686Y96500
X81686Y81500
X76686Y71500
X76686Y61500
X76686Y51500
X76686Y41500
X66686Y21500
X61686Y31500
X61686Y81500
X71686Y81500
X66686Y136500
X76686Y136500
X51686Y231500
X56686Y241500
X56686Y251500
X41686Y231500
X36686Y241500
X36686Y251500
T04
X13497Y13311
X82395Y13311
X82395Y273154
X13497Y273154
M30
