G75*
%MOIN*%
%OFA0B0*%
%FSLAX25Y25*%
%IPPOS*%
%LPD*%
%AMOC8*
5,1,8,0,0,1.08239X$1,22.5*
%
%ADD10C,0.00100*%
%ADD11C,0.00800*%
%ADD12C,0.00500*%
%ADD13C,0.01000*%
D10*
X0009987Y0015932D02*
X0009987Y0016933D01*
X0010487Y0017433D01*
X0010988Y0016933D01*
X0010988Y0015932D01*
X0010988Y0016683D02*
X0009987Y0016683D01*
X0009437Y0024324D02*
X0010218Y0024770D01*
X0010311Y0024613D01*
X0010408Y0024459D01*
X0010509Y0024307D01*
X0010614Y0024158D01*
X0010722Y0024011D01*
X0010833Y0023866D01*
X0010948Y0023725D01*
X0011067Y0023586D01*
X0011189Y0023451D01*
X0011314Y0023318D01*
X0011442Y0023188D01*
X0011573Y0023062D01*
X0011707Y0022938D01*
X0011844Y0022818D01*
X0011984Y0022701D01*
X0012127Y0022588D01*
X0012273Y0022478D01*
X0012421Y0022372D01*
X0012572Y0022269D01*
X0012725Y0022170D01*
X0012880Y0022075D01*
X0013038Y0021984D01*
X0013198Y0021896D01*
X0013360Y0021812D01*
X0013523Y0021732D01*
X0013689Y0021656D01*
X0013857Y0021585D01*
X0014026Y0021517D01*
X0014197Y0021453D01*
X0014369Y0021394D01*
X0014543Y0021338D01*
X0014718Y0021287D01*
X0014894Y0021240D01*
X0015071Y0021198D01*
X0015250Y0021159D01*
X0015429Y0021125D01*
X0015609Y0021095D01*
X0015789Y0021070D01*
X0015970Y0021049D01*
X0016152Y0021033D01*
X0016334Y0021020D01*
X0016516Y0021013D01*
X0016698Y0021009D01*
X0016699Y0020110D01*
X0016698Y0020109D01*
X0016494Y0020113D01*
X0016290Y0020121D01*
X0016086Y0020135D01*
X0015882Y0020153D01*
X0015679Y0020177D01*
X0015477Y0020205D01*
X0015275Y0020238D01*
X0015075Y0020276D01*
X0014875Y0020319D01*
X0014676Y0020367D01*
X0014479Y0020419D01*
X0014283Y0020477D01*
X0014088Y0020539D01*
X0013895Y0020605D01*
X0013703Y0020677D01*
X0013514Y0020753D01*
X0013326Y0020833D01*
X0013140Y0020918D01*
X0012956Y0021008D01*
X0012775Y0021101D01*
X0012596Y0021200D01*
X0012419Y0021302D01*
X0012245Y0021409D01*
X0012073Y0021520D01*
X0011904Y0021635D01*
X0011738Y0021754D01*
X0011575Y0021877D01*
X0011415Y0022004D01*
X0011258Y0022135D01*
X0011104Y0022270D01*
X0010954Y0022408D01*
X0010807Y0022550D01*
X0010663Y0022695D01*
X0010523Y0022844D01*
X0010387Y0022996D01*
X0010254Y0023152D01*
X0010126Y0023310D01*
X0010001Y0023472D01*
X0009880Y0023637D01*
X0009763Y0023804D01*
X0009650Y0023975D01*
X0009541Y0024148D01*
X0009436Y0024323D01*
X0009518Y0024370D01*
X0009621Y0024196D01*
X0009729Y0024025D01*
X0009841Y0023857D01*
X0009956Y0023691D01*
X0010076Y0023528D01*
X0010200Y0023369D01*
X0010327Y0023212D01*
X0010458Y0023058D01*
X0010593Y0022908D01*
X0010731Y0022760D01*
X0010873Y0022617D01*
X0011019Y0022476D01*
X0011167Y0022340D01*
X0011319Y0022207D01*
X0011475Y0022077D01*
X0011633Y0021952D01*
X0011794Y0021830D01*
X0011958Y0021712D01*
X0012125Y0021598D01*
X0012295Y0021489D01*
X0012467Y0021383D01*
X0012642Y0021282D01*
X0012819Y0021184D01*
X0012998Y0021092D01*
X0013180Y0021003D01*
X0013364Y0020919D01*
X0013549Y0020839D01*
X0013737Y0020764D01*
X0013926Y0020694D01*
X0014117Y0020628D01*
X0014310Y0020567D01*
X0014504Y0020510D01*
X0014699Y0020458D01*
X0014895Y0020411D01*
X0015093Y0020369D01*
X0015291Y0020331D01*
X0015491Y0020298D01*
X0015691Y0020270D01*
X0015892Y0020247D01*
X0016093Y0020229D01*
X0016294Y0020215D01*
X0016496Y0020207D01*
X0016698Y0020203D01*
X0016698Y0020297D01*
X0016499Y0020301D01*
X0016299Y0020309D01*
X0016100Y0020322D01*
X0015901Y0020341D01*
X0015702Y0020363D01*
X0015505Y0020391D01*
X0015307Y0020424D01*
X0015111Y0020461D01*
X0014916Y0020503D01*
X0014722Y0020549D01*
X0014529Y0020601D01*
X0014337Y0020657D01*
X0014147Y0020717D01*
X0013958Y0020782D01*
X0013771Y0020852D01*
X0013585Y0020926D01*
X0013402Y0021005D01*
X0013220Y0021088D01*
X0013040Y0021176D01*
X0012863Y0021267D01*
X0012688Y0021363D01*
X0012515Y0021464D01*
X0012345Y0021568D01*
X0012177Y0021677D01*
X0012012Y0021789D01*
X0011850Y0021905D01*
X0011691Y0022026D01*
X0011534Y0022150D01*
X0011381Y0022278D01*
X0011230Y0022409D01*
X0011083Y0022545D01*
X0010940Y0022683D01*
X0010799Y0022825D01*
X0010662Y0022971D01*
X0010529Y0023120D01*
X0010399Y0023272D01*
X0010273Y0023427D01*
X0010151Y0023585D01*
X0010033Y0023746D01*
X0009919Y0023909D01*
X0009808Y0024076D01*
X0009702Y0024245D01*
X0009600Y0024416D01*
X0009681Y0024463D01*
X0009782Y0024293D01*
X0009887Y0024126D01*
X0009997Y0023962D01*
X0010110Y0023800D01*
X0010227Y0023641D01*
X0010347Y0023485D01*
X0010472Y0023331D01*
X0010600Y0023181D01*
X0010732Y0023034D01*
X0010867Y0022890D01*
X0011006Y0022750D01*
X0011148Y0022613D01*
X0011293Y0022479D01*
X0011442Y0022349D01*
X0011594Y0022223D01*
X0011748Y0022100D01*
X0011906Y0021981D01*
X0012066Y0021866D01*
X0012229Y0021755D01*
X0012395Y0021648D01*
X0012563Y0021544D01*
X0012734Y0021445D01*
X0012907Y0021350D01*
X0013083Y0021260D01*
X0013260Y0021173D01*
X0013440Y0021091D01*
X0013621Y0021013D01*
X0013804Y0020940D01*
X0013989Y0020871D01*
X0014176Y0020807D01*
X0014364Y0020747D01*
X0014554Y0020691D01*
X0014744Y0020641D01*
X0014936Y0020594D01*
X0015129Y0020553D01*
X0015323Y0020516D01*
X0015518Y0020484D01*
X0015714Y0020457D01*
X0015910Y0020434D01*
X0016107Y0020416D01*
X0016304Y0020403D01*
X0016501Y0020395D01*
X0016698Y0020391D01*
X0016698Y0020485D01*
X0016503Y0020489D01*
X0016308Y0020497D01*
X0016113Y0020510D01*
X0015919Y0020528D01*
X0015725Y0020550D01*
X0015532Y0020577D01*
X0015339Y0020609D01*
X0015148Y0020645D01*
X0014957Y0020686D01*
X0014767Y0020732D01*
X0014579Y0020782D01*
X0014391Y0020837D01*
X0014205Y0020896D01*
X0014021Y0020959D01*
X0013838Y0021028D01*
X0013657Y0021100D01*
X0013478Y0021177D01*
X0013300Y0021258D01*
X0013125Y0021344D01*
X0012951Y0021433D01*
X0012780Y0021527D01*
X0012612Y0021625D01*
X0012445Y0021727D01*
X0012281Y0021833D01*
X0012120Y0021943D01*
X0011962Y0022057D01*
X0011806Y0022174D01*
X0011653Y0022296D01*
X0011503Y0022421D01*
X0011356Y0022549D01*
X0011213Y0022681D01*
X0011072Y0022817D01*
X0010935Y0022956D01*
X0010801Y0023098D01*
X0010671Y0023243D01*
X0010544Y0023391D01*
X0010421Y0023543D01*
X0010302Y0023697D01*
X0010186Y0023854D01*
X0010075Y0024014D01*
X0009967Y0024177D01*
X0009863Y0024342D01*
X0009763Y0024510D01*
X0009844Y0024556D01*
X0009943Y0024391D01*
X0010046Y0024227D01*
X0010153Y0024067D01*
X0010263Y0023909D01*
X0010377Y0023753D01*
X0010495Y0023601D01*
X0010617Y0023451D01*
X0010742Y0023305D01*
X0010871Y0023161D01*
X0011003Y0023021D01*
X0011138Y0022883D01*
X0011277Y0022749D01*
X0011419Y0022619D01*
X0011564Y0022492D01*
X0011712Y0022368D01*
X0011863Y0022249D01*
X0012017Y0022132D01*
X0012174Y0022020D01*
X0012333Y0021911D01*
X0012495Y0021807D01*
X0012660Y0021706D01*
X0012826Y0021609D01*
X0012996Y0021516D01*
X0013167Y0021428D01*
X0013340Y0021343D01*
X0013516Y0021263D01*
X0013693Y0021187D01*
X0013872Y0021115D01*
X0014053Y0021048D01*
X0014235Y0020985D01*
X0014419Y0020927D01*
X0014604Y0020873D01*
X0014790Y0020823D01*
X0014978Y0020778D01*
X0015166Y0020737D01*
X0015355Y0020701D01*
X0015546Y0020670D01*
X0015737Y0020643D01*
X0015928Y0020621D01*
X0016120Y0020604D01*
X0016313Y0020591D01*
X0016505Y0020583D01*
X0016698Y0020579D01*
X0016698Y0020673D01*
X0016508Y0020677D01*
X0016317Y0020685D01*
X0016127Y0020697D01*
X0015937Y0020715D01*
X0015748Y0020737D01*
X0015560Y0020763D01*
X0015372Y0020794D01*
X0015184Y0020830D01*
X0014998Y0020870D01*
X0014813Y0020914D01*
X0014629Y0020963D01*
X0014446Y0021017D01*
X0014264Y0021074D01*
X0014084Y0021137D01*
X0013906Y0021203D01*
X0013729Y0021274D01*
X0013554Y0021349D01*
X0013380Y0021428D01*
X0013209Y0021512D01*
X0013040Y0021599D01*
X0012873Y0021691D01*
X0012708Y0021787D01*
X0012545Y0021886D01*
X0012385Y0021990D01*
X0012228Y0022097D01*
X0012073Y0022208D01*
X0011921Y0022323D01*
X0011772Y0022441D01*
X0011626Y0022563D01*
X0011482Y0022689D01*
X0011342Y0022818D01*
X0011205Y0022950D01*
X0011071Y0023086D01*
X0010940Y0023224D01*
X0010813Y0023366D01*
X0010689Y0023511D01*
X0010569Y0023659D01*
X0010453Y0023810D01*
X0010340Y0023963D01*
X0010231Y0024119D01*
X0010125Y0024278D01*
X0010024Y0024439D01*
X0009926Y0024603D01*
X0010008Y0024650D01*
X0010104Y0024488D01*
X0010204Y0024329D01*
X0010308Y0024172D01*
X0010416Y0024017D01*
X0010528Y0023866D01*
X0010643Y0023717D01*
X0010762Y0023571D01*
X0010884Y0023428D01*
X0011010Y0023288D01*
X0011139Y0023151D01*
X0011271Y0023017D01*
X0011407Y0022886D01*
X0011545Y0022759D01*
X0011687Y0022635D01*
X0011831Y0022514D01*
X0011979Y0022397D01*
X0012129Y0022284D01*
X0012282Y0022174D01*
X0012438Y0022068D01*
X0012596Y0021966D01*
X0012756Y0021867D01*
X0012919Y0021773D01*
X0013084Y0021682D01*
X0013251Y0021596D01*
X0013420Y0021513D01*
X0013591Y0021435D01*
X0013764Y0021361D01*
X0013939Y0021291D01*
X0014116Y0021225D01*
X0014294Y0021164D01*
X0014473Y0021107D01*
X0014654Y0021054D01*
X0014836Y0021005D01*
X0015019Y0020961D01*
X0015203Y0020922D01*
X0015388Y0020887D01*
X0015573Y0020856D01*
X0015760Y0020830D01*
X0015947Y0020808D01*
X0016134Y0020791D01*
X0016322Y0020779D01*
X0016510Y0020771D01*
X0016698Y0020767D01*
X0016698Y0020861D01*
X0016512Y0020865D01*
X0016327Y0020873D01*
X0016141Y0020885D01*
X0015956Y0020902D01*
X0015771Y0020923D01*
X0015587Y0020949D01*
X0015404Y0020979D01*
X0015221Y0021014D01*
X0015039Y0021053D01*
X0014858Y0021097D01*
X0014679Y0021144D01*
X0014500Y0021197D01*
X0014323Y0021253D01*
X0014147Y0021314D01*
X0013973Y0021379D01*
X0013800Y0021448D01*
X0013629Y0021521D01*
X0013460Y0021598D01*
X0013293Y0021680D01*
X0013128Y0021765D01*
X0012965Y0021855D01*
X0012804Y0021948D01*
X0012646Y0022045D01*
X0012490Y0022146D01*
X0012336Y0022251D01*
X0012185Y0022359D01*
X0012036Y0022471D01*
X0011891Y0022587D01*
X0011748Y0022706D01*
X0011608Y0022828D01*
X0011471Y0022954D01*
X0011337Y0023083D01*
X0011207Y0023216D01*
X0011079Y0023351D01*
X0010955Y0023489D01*
X0010834Y0023631D01*
X0010717Y0023775D01*
X0010603Y0023922D01*
X0010493Y0024072D01*
X0010386Y0024224D01*
X0010284Y0024379D01*
X0010185Y0024537D01*
X0010089Y0024696D01*
X0010171Y0024743D01*
X0010265Y0024585D01*
X0010363Y0024430D01*
X0010464Y0024277D01*
X0010570Y0024126D01*
X0010679Y0023978D01*
X0010791Y0023833D01*
X0010907Y0023691D01*
X0011026Y0023551D01*
X0011149Y0023414D01*
X0011275Y0023281D01*
X0011404Y0023150D01*
X0011536Y0023022D01*
X0011671Y0022898D01*
X0011809Y0022777D01*
X0011950Y0022660D01*
X0012094Y0022546D01*
X0012241Y0022435D01*
X0012390Y0022328D01*
X0012542Y0022224D01*
X0012696Y0022125D01*
X0012852Y0022029D01*
X0013011Y0021937D01*
X0013172Y0021848D01*
X0013335Y0021764D01*
X0013500Y0021683D01*
X0013667Y0021607D01*
X0013836Y0021535D01*
X0014007Y0021466D01*
X0014179Y0021402D01*
X0014352Y0021342D01*
X0014527Y0021286D01*
X0014704Y0021235D01*
X0014881Y0021188D01*
X0015060Y0021145D01*
X0015239Y0021106D01*
X0015420Y0021072D01*
X0015601Y0021042D01*
X0015783Y0021017D01*
X0015965Y0020995D01*
X0016148Y0020979D01*
X0016331Y0020966D01*
X0016515Y0020959D01*
X0016698Y0020955D01*
X0016698Y0037008D02*
X0016698Y0036108D01*
X0016698Y0036109D02*
X0016515Y0036105D01*
X0016332Y0036098D01*
X0016149Y0036085D01*
X0015966Y0036068D01*
X0015784Y0036047D01*
X0015603Y0036022D01*
X0015422Y0035992D01*
X0015242Y0035957D01*
X0015063Y0035919D01*
X0014885Y0035876D01*
X0014708Y0035828D01*
X0014533Y0035777D01*
X0014358Y0035721D01*
X0014185Y0035661D01*
X0014014Y0035596D01*
X0013844Y0035528D01*
X0013675Y0035456D01*
X0013509Y0035379D01*
X0013345Y0035298D01*
X0013182Y0035214D01*
X0013022Y0035125D01*
X0012863Y0035033D01*
X0012707Y0034937D01*
X0012554Y0034837D01*
X0012403Y0034733D01*
X0012254Y0034626D01*
X0012108Y0034515D01*
X0011965Y0034401D01*
X0011825Y0034283D01*
X0011688Y0034162D01*
X0011553Y0034038D01*
X0011422Y0033910D01*
X0011293Y0033779D01*
X0011168Y0033645D01*
X0011047Y0033509D01*
X0010928Y0033369D01*
X0010813Y0033226D01*
X0010702Y0033081D01*
X0010594Y0032933D01*
X0010490Y0032782D01*
X0010389Y0032629D01*
X0010292Y0032474D01*
X0010199Y0032316D01*
X0010110Y0032156D01*
X0009316Y0032579D01*
X0009416Y0032759D01*
X0009520Y0032936D01*
X0009628Y0033110D01*
X0009741Y0033282D01*
X0009858Y0033450D01*
X0009979Y0033616D01*
X0010103Y0033779D01*
X0010232Y0033939D01*
X0010365Y0034096D01*
X0010501Y0034249D01*
X0010641Y0034399D01*
X0010785Y0034546D01*
X0010932Y0034689D01*
X0011083Y0034829D01*
X0011237Y0034964D01*
X0011394Y0035096D01*
X0011554Y0035224D01*
X0011718Y0035349D01*
X0011884Y0035469D01*
X0012054Y0035585D01*
X0012226Y0035697D01*
X0012400Y0035805D01*
X0012578Y0035908D01*
X0012757Y0036007D01*
X0012940Y0036102D01*
X0013124Y0036192D01*
X0013310Y0036278D01*
X0013499Y0036359D01*
X0013689Y0036436D01*
X0013882Y0036508D01*
X0014076Y0036575D01*
X0014271Y0036638D01*
X0014468Y0036696D01*
X0014666Y0036749D01*
X0014866Y0036797D01*
X0015067Y0036840D01*
X0015268Y0036878D01*
X0015471Y0036912D01*
X0015674Y0036940D01*
X0015878Y0036964D01*
X0016083Y0036983D01*
X0016287Y0036996D01*
X0016492Y0037005D01*
X0016698Y0037009D01*
X0016698Y0036915D01*
X0016495Y0036911D01*
X0016292Y0036903D01*
X0016089Y0036889D01*
X0015887Y0036871D01*
X0015686Y0036847D01*
X0015485Y0036819D01*
X0015284Y0036786D01*
X0015085Y0036748D01*
X0014887Y0036705D01*
X0014689Y0036657D01*
X0014493Y0036605D01*
X0014298Y0036548D01*
X0014105Y0036486D01*
X0013913Y0036419D01*
X0013723Y0036348D01*
X0013535Y0036273D01*
X0013349Y0036192D01*
X0013164Y0036107D01*
X0012982Y0036018D01*
X0012802Y0035924D01*
X0012624Y0035826D01*
X0012449Y0035724D01*
X0012276Y0035618D01*
X0012106Y0035507D01*
X0011938Y0035392D01*
X0011774Y0035273D01*
X0011612Y0035150D01*
X0011454Y0035024D01*
X0011298Y0034893D01*
X0011146Y0034759D01*
X0010997Y0034621D01*
X0010851Y0034480D01*
X0010709Y0034335D01*
X0010571Y0034186D01*
X0010436Y0034035D01*
X0010305Y0033880D01*
X0010178Y0033722D01*
X0010054Y0033560D01*
X0009935Y0033396D01*
X0009819Y0033229D01*
X0009708Y0033060D01*
X0009600Y0032887D01*
X0009497Y0032712D01*
X0009399Y0032535D01*
X0009482Y0032491D01*
X0009579Y0032666D01*
X0009681Y0032839D01*
X0009787Y0033009D01*
X0009897Y0033177D01*
X0010011Y0033342D01*
X0010130Y0033504D01*
X0010252Y0033664D01*
X0010378Y0033820D01*
X0010507Y0033973D01*
X0010641Y0034123D01*
X0010777Y0034270D01*
X0010918Y0034413D01*
X0011062Y0034553D01*
X0011209Y0034689D01*
X0011360Y0034822D01*
X0011513Y0034951D01*
X0011670Y0035076D01*
X0011830Y0035198D01*
X0011993Y0035315D01*
X0012158Y0035429D01*
X0012326Y0035538D01*
X0012497Y0035644D01*
X0012670Y0035745D01*
X0012846Y0035842D01*
X0013024Y0035934D01*
X0013204Y0036022D01*
X0013387Y0036106D01*
X0013571Y0036186D01*
X0013757Y0036261D01*
X0013945Y0036331D01*
X0014135Y0036397D01*
X0014326Y0036458D01*
X0014518Y0036514D01*
X0014712Y0036566D01*
X0014907Y0036613D01*
X0015103Y0036656D01*
X0015301Y0036693D01*
X0015499Y0036726D01*
X0015697Y0036754D01*
X0015897Y0036777D01*
X0016096Y0036795D01*
X0016297Y0036809D01*
X0016497Y0036817D01*
X0016698Y0036821D01*
X0016698Y0036727D01*
X0016499Y0036723D01*
X0016301Y0036715D01*
X0016103Y0036702D01*
X0015906Y0036683D01*
X0015709Y0036661D01*
X0015512Y0036633D01*
X0015317Y0036601D01*
X0015122Y0036563D01*
X0014928Y0036522D01*
X0014735Y0036475D01*
X0014543Y0036424D01*
X0014353Y0036368D01*
X0014164Y0036308D01*
X0013977Y0036243D01*
X0013791Y0036173D01*
X0013607Y0036099D01*
X0013425Y0036020D01*
X0013245Y0035937D01*
X0013066Y0035850D01*
X0012890Y0035759D01*
X0012717Y0035663D01*
X0012545Y0035563D01*
X0012377Y0035459D01*
X0012210Y0035351D01*
X0012047Y0035238D01*
X0011886Y0035122D01*
X0011728Y0035002D01*
X0011573Y0034878D01*
X0011421Y0034751D01*
X0011272Y0034620D01*
X0011127Y0034485D01*
X0010984Y0034347D01*
X0010846Y0034205D01*
X0010710Y0034060D01*
X0010578Y0033912D01*
X0010450Y0033760D01*
X0010326Y0033606D01*
X0010205Y0033449D01*
X0010088Y0033288D01*
X0009975Y0033125D01*
X0009867Y0032959D01*
X0009762Y0032791D01*
X0009661Y0032620D01*
X0009565Y0032447D01*
X0009647Y0032402D01*
X0009743Y0032574D01*
X0009842Y0032743D01*
X0009946Y0032909D01*
X0010054Y0033073D01*
X0010165Y0033234D01*
X0010281Y0033393D01*
X0010400Y0033548D01*
X0010523Y0033701D01*
X0010650Y0033850D01*
X0010780Y0033997D01*
X0010914Y0034140D01*
X0011051Y0034280D01*
X0011192Y0034417D01*
X0011335Y0034550D01*
X0011482Y0034680D01*
X0011633Y0034806D01*
X0011786Y0034928D01*
X0011942Y0035047D01*
X0012101Y0035162D01*
X0012263Y0035272D01*
X0012427Y0035379D01*
X0012594Y0035482D01*
X0012763Y0035581D01*
X0012935Y0035676D01*
X0013109Y0035766D01*
X0013285Y0035853D01*
X0013463Y0035934D01*
X0013643Y0036012D01*
X0013825Y0036085D01*
X0014008Y0036154D01*
X0014194Y0036218D01*
X0014380Y0036278D01*
X0014568Y0036333D01*
X0014758Y0036384D01*
X0014948Y0036430D01*
X0015140Y0036471D01*
X0015333Y0036508D01*
X0015526Y0036540D01*
X0015720Y0036567D01*
X0015915Y0036590D01*
X0016110Y0036608D01*
X0016306Y0036621D01*
X0016502Y0036629D01*
X0016698Y0036633D01*
X0016698Y0036539D01*
X0016504Y0036535D01*
X0016310Y0036527D01*
X0016117Y0036514D01*
X0015924Y0036496D01*
X0015732Y0036474D01*
X0015540Y0036447D01*
X0015349Y0036415D01*
X0015158Y0036379D01*
X0014969Y0036338D01*
X0014781Y0036293D01*
X0014594Y0036243D01*
X0014408Y0036188D01*
X0014223Y0036129D01*
X0014040Y0036066D01*
X0013859Y0035998D01*
X0013679Y0035925D01*
X0013501Y0035849D01*
X0013325Y0035768D01*
X0013151Y0035682D01*
X0012979Y0035593D01*
X0012809Y0035499D01*
X0012642Y0035402D01*
X0012477Y0035300D01*
X0012315Y0035194D01*
X0012155Y0035085D01*
X0011998Y0034971D01*
X0011844Y0034854D01*
X0011692Y0034733D01*
X0011544Y0034609D01*
X0011399Y0034481D01*
X0011256Y0034349D01*
X0011117Y0034214D01*
X0010982Y0034076D01*
X0010850Y0033934D01*
X0010721Y0033789D01*
X0010596Y0033641D01*
X0010474Y0033490D01*
X0010356Y0033337D01*
X0010242Y0033180D01*
X0010132Y0033021D01*
X0010026Y0032859D01*
X0009923Y0032694D01*
X0009825Y0032527D01*
X0009730Y0032358D01*
X0009813Y0032314D01*
X0009907Y0032481D01*
X0010004Y0032646D01*
X0010105Y0032809D01*
X0010210Y0032969D01*
X0010319Y0033126D01*
X0010432Y0033281D01*
X0010548Y0033433D01*
X0010668Y0033582D01*
X0010792Y0033728D01*
X0010919Y0033871D01*
X0011050Y0034011D01*
X0011184Y0034147D01*
X0011321Y0034281D01*
X0011462Y0034411D01*
X0011605Y0034538D01*
X0011752Y0034661D01*
X0011902Y0034780D01*
X0012054Y0034896D01*
X0012209Y0035008D01*
X0012367Y0035116D01*
X0012528Y0035221D01*
X0012691Y0035321D01*
X0012856Y0035418D01*
X0013023Y0035510D01*
X0013193Y0035598D01*
X0013365Y0035683D01*
X0013539Y0035763D01*
X0013715Y0035838D01*
X0013893Y0035910D01*
X0014072Y0035977D01*
X0014253Y0036040D01*
X0014435Y0036098D01*
X0014619Y0036152D01*
X0014804Y0036202D01*
X0014990Y0036246D01*
X0015177Y0036287D01*
X0015365Y0036323D01*
X0015554Y0036354D01*
X0015743Y0036381D01*
X0015933Y0036403D01*
X0016124Y0036420D01*
X0016315Y0036433D01*
X0016506Y0036441D01*
X0016698Y0036445D01*
X0016698Y0036351D01*
X0016509Y0036347D01*
X0016320Y0036339D01*
X0016131Y0036327D01*
X0015943Y0036309D01*
X0015755Y0036287D01*
X0015568Y0036261D01*
X0015381Y0036230D01*
X0015195Y0036195D01*
X0015010Y0036155D01*
X0014826Y0036110D01*
X0014644Y0036061D01*
X0014462Y0036008D01*
X0014282Y0035951D01*
X0014104Y0035889D01*
X0013926Y0035822D01*
X0013751Y0035752D01*
X0013577Y0035677D01*
X0013405Y0035598D01*
X0013236Y0035514D01*
X0013068Y0035427D01*
X0012902Y0035336D01*
X0012739Y0035240D01*
X0012578Y0035141D01*
X0012419Y0035038D01*
X0012263Y0034931D01*
X0012110Y0034820D01*
X0011959Y0034706D01*
X0011812Y0034588D01*
X0011667Y0034466D01*
X0011525Y0034341D01*
X0011386Y0034213D01*
X0011251Y0034081D01*
X0011118Y0033946D01*
X0010989Y0033808D01*
X0010863Y0033666D01*
X0010741Y0033522D01*
X0010622Y0033375D01*
X0010507Y0033225D01*
X0010396Y0033072D01*
X0010288Y0032916D01*
X0010184Y0032758D01*
X0010084Y0032598D01*
X0009988Y0032435D01*
X0009896Y0032270D01*
X0009979Y0032225D01*
X0010070Y0032389D01*
X0010165Y0032550D01*
X0010264Y0032708D01*
X0010366Y0032864D01*
X0010473Y0033018D01*
X0010583Y0033169D01*
X0010697Y0033317D01*
X0010814Y0033463D01*
X0010935Y0033605D01*
X0011059Y0033745D01*
X0011186Y0033881D01*
X0011317Y0034015D01*
X0011451Y0034145D01*
X0011588Y0034272D01*
X0011728Y0034395D01*
X0011871Y0034515D01*
X0012017Y0034632D01*
X0012166Y0034745D01*
X0012318Y0034854D01*
X0012472Y0034960D01*
X0012628Y0035062D01*
X0012787Y0035160D01*
X0012949Y0035254D01*
X0013112Y0035344D01*
X0013278Y0035431D01*
X0013446Y0035513D01*
X0013615Y0035591D01*
X0013787Y0035665D01*
X0013960Y0035734D01*
X0014135Y0035800D01*
X0014312Y0035861D01*
X0014490Y0035918D01*
X0014669Y0035971D01*
X0014849Y0036019D01*
X0015031Y0036063D01*
X0015214Y0036103D01*
X0015397Y0036138D01*
X0015581Y0036168D01*
X0015766Y0036194D01*
X0015952Y0036216D01*
X0016138Y0036233D01*
X0016324Y0036245D01*
X0016511Y0036253D01*
X0016698Y0036257D01*
X0016698Y0036163D01*
X0016513Y0036159D01*
X0016329Y0036151D01*
X0016145Y0036139D01*
X0015961Y0036122D01*
X0015778Y0036101D01*
X0015595Y0036075D01*
X0015413Y0036045D01*
X0015232Y0036010D01*
X0015052Y0035971D01*
X0014872Y0035928D01*
X0014694Y0035880D01*
X0014517Y0035828D01*
X0014341Y0035772D01*
X0014167Y0035712D01*
X0013994Y0035647D01*
X0013823Y0035578D01*
X0013654Y0035505D01*
X0013486Y0035428D01*
X0013320Y0035347D01*
X0013157Y0035261D01*
X0012995Y0035172D01*
X0012836Y0035079D01*
X0012679Y0034982D01*
X0012524Y0034882D01*
X0012372Y0034777D01*
X0012222Y0034669D01*
X0012075Y0034558D01*
X0011931Y0034443D01*
X0011790Y0034324D01*
X0011651Y0034202D01*
X0011516Y0034077D01*
X0011384Y0033948D01*
X0011254Y0033816D01*
X0011128Y0033682D01*
X0011006Y0033544D01*
X0010887Y0033403D01*
X0010771Y0033259D01*
X0010658Y0033113D01*
X0010550Y0032964D01*
X0010445Y0032812D01*
X0010343Y0032658D01*
X0010246Y0032501D01*
X0010152Y0032342D01*
X0010062Y0032181D01*
X0023207Y0034007D02*
X0022515Y0033430D01*
X0022516Y0033431D02*
X0022397Y0033568D01*
X0022276Y0033702D01*
X0022151Y0033833D01*
X0022023Y0033961D01*
X0021892Y0034085D01*
X0021758Y0034207D01*
X0021621Y0034326D01*
X0021482Y0034441D01*
X0021339Y0034552D01*
X0021194Y0034661D01*
X0021047Y0034766D01*
X0020897Y0034867D01*
X0020745Y0034964D01*
X0020590Y0035058D01*
X0020433Y0035149D01*
X0020274Y0035235D01*
X0020113Y0035318D01*
X0019950Y0035396D01*
X0019785Y0035471D01*
X0019619Y0035542D01*
X0019451Y0035609D01*
X0019281Y0035671D01*
X0019110Y0035730D01*
X0018937Y0035785D01*
X0018764Y0035835D01*
X0018589Y0035881D01*
X0018413Y0035923D01*
X0018236Y0035961D01*
X0018058Y0035994D01*
X0017879Y0036024D01*
X0017700Y0036049D01*
X0017520Y0036069D01*
X0017340Y0036086D01*
X0017160Y0036098D01*
X0016979Y0036105D01*
X0016798Y0036109D01*
X0016797Y0037008D01*
X0016798Y0037009D01*
X0017001Y0037005D01*
X0017203Y0036997D01*
X0017406Y0036983D01*
X0017608Y0036965D01*
X0017809Y0036942D01*
X0018010Y0036914D01*
X0018210Y0036881D01*
X0018410Y0036844D01*
X0018608Y0036802D01*
X0018806Y0036755D01*
X0019002Y0036703D01*
X0019196Y0036646D01*
X0019390Y0036585D01*
X0019582Y0036520D01*
X0019772Y0036449D01*
X0019961Y0036374D01*
X0020147Y0036295D01*
X0020332Y0036211D01*
X0020515Y0036123D01*
X0020695Y0036030D01*
X0020873Y0035934D01*
X0021049Y0035832D01*
X0021222Y0035727D01*
X0021393Y0035618D01*
X0021561Y0035504D01*
X0021727Y0035387D01*
X0021889Y0035265D01*
X0022049Y0035140D01*
X0022205Y0035011D01*
X0022358Y0034878D01*
X0022508Y0034741D01*
X0022655Y0034601D01*
X0022798Y0034458D01*
X0022938Y0034311D01*
X0023075Y0034161D01*
X0023207Y0034007D01*
X0023135Y0033947D01*
X0023004Y0034099D01*
X0022869Y0034247D01*
X0022731Y0034392D01*
X0022589Y0034534D01*
X0022444Y0034673D01*
X0022296Y0034808D01*
X0022144Y0034939D01*
X0021989Y0035067D01*
X0021832Y0035191D01*
X0021671Y0035311D01*
X0021508Y0035427D01*
X0021341Y0035539D01*
X0021173Y0035647D01*
X0021001Y0035752D01*
X0020827Y0035852D01*
X0020651Y0035947D01*
X0020473Y0036039D01*
X0020292Y0036126D01*
X0020109Y0036209D01*
X0019925Y0036288D01*
X0019739Y0036362D01*
X0019550Y0036431D01*
X0019361Y0036496D01*
X0019169Y0036556D01*
X0018977Y0036612D01*
X0018783Y0036663D01*
X0018588Y0036710D01*
X0018392Y0036752D01*
X0018195Y0036789D01*
X0017997Y0036821D01*
X0017798Y0036849D01*
X0017599Y0036872D01*
X0017399Y0036890D01*
X0017199Y0036903D01*
X0016998Y0036911D01*
X0016798Y0036915D01*
X0016798Y0036821D01*
X0016996Y0036817D01*
X0017194Y0036809D01*
X0017392Y0036796D01*
X0017590Y0036778D01*
X0017787Y0036755D01*
X0017983Y0036728D01*
X0018179Y0036696D01*
X0018373Y0036660D01*
X0018567Y0036618D01*
X0018760Y0036572D01*
X0018952Y0036522D01*
X0019142Y0036466D01*
X0019331Y0036407D01*
X0019519Y0036342D01*
X0019705Y0036274D01*
X0019889Y0036201D01*
X0020072Y0036123D01*
X0020252Y0036041D01*
X0020431Y0035955D01*
X0020607Y0035864D01*
X0020781Y0035770D01*
X0020953Y0035671D01*
X0021123Y0035568D01*
X0021290Y0035461D01*
X0021454Y0035350D01*
X0021615Y0035235D01*
X0021774Y0035116D01*
X0021930Y0034994D01*
X0022083Y0034868D01*
X0022233Y0034738D01*
X0022380Y0034604D01*
X0022523Y0034467D01*
X0022663Y0034327D01*
X0022800Y0034184D01*
X0022933Y0034037D01*
X0023063Y0033887D01*
X0022991Y0033827D01*
X0022862Y0033975D01*
X0022731Y0034120D01*
X0022596Y0034262D01*
X0022457Y0034400D01*
X0022315Y0034536D01*
X0022170Y0034668D01*
X0022022Y0034796D01*
X0021871Y0034921D01*
X0021717Y0035042D01*
X0021560Y0035159D01*
X0021400Y0035273D01*
X0021238Y0035382D01*
X0021073Y0035488D01*
X0020905Y0035590D01*
X0020735Y0035688D01*
X0020563Y0035781D01*
X0020389Y0035871D01*
X0020212Y0035956D01*
X0020034Y0036037D01*
X0019854Y0036114D01*
X0019671Y0036186D01*
X0019488Y0036254D01*
X0019302Y0036317D01*
X0019115Y0036376D01*
X0018927Y0036431D01*
X0018738Y0036481D01*
X0018547Y0036526D01*
X0018355Y0036567D01*
X0018163Y0036604D01*
X0017969Y0036635D01*
X0017775Y0036662D01*
X0017580Y0036684D01*
X0017385Y0036702D01*
X0017190Y0036715D01*
X0016994Y0036723D01*
X0016798Y0036727D01*
X0016798Y0036633D01*
X0016992Y0036629D01*
X0017185Y0036621D01*
X0017378Y0036608D01*
X0017571Y0036591D01*
X0017764Y0036569D01*
X0017956Y0036542D01*
X0018147Y0036511D01*
X0018337Y0036475D01*
X0018527Y0036435D01*
X0018715Y0036390D01*
X0018902Y0036340D01*
X0019088Y0036286D01*
X0019273Y0036228D01*
X0019456Y0036165D01*
X0019638Y0036098D01*
X0019818Y0036027D01*
X0019996Y0035951D01*
X0020173Y0035871D01*
X0020347Y0035787D01*
X0020519Y0035698D01*
X0020689Y0035606D01*
X0020857Y0035509D01*
X0021023Y0035408D01*
X0021186Y0035304D01*
X0021346Y0035196D01*
X0021504Y0035083D01*
X0021659Y0034967D01*
X0021812Y0034848D01*
X0021961Y0034724D01*
X0022108Y0034598D01*
X0022251Y0034467D01*
X0022391Y0034334D01*
X0022528Y0034197D01*
X0022661Y0034056D01*
X0022792Y0033913D01*
X0022918Y0033766D01*
X0022846Y0033706D01*
X0022721Y0033851D01*
X0022592Y0033993D01*
X0022460Y0034131D01*
X0022325Y0034267D01*
X0022186Y0034399D01*
X0022045Y0034528D01*
X0021900Y0034653D01*
X0021753Y0034775D01*
X0021602Y0034893D01*
X0021449Y0035008D01*
X0021293Y0035118D01*
X0021134Y0035226D01*
X0020973Y0035329D01*
X0020809Y0035428D01*
X0020643Y0035524D01*
X0020475Y0035615D01*
X0020305Y0035702D01*
X0020133Y0035786D01*
X0019958Y0035865D01*
X0019782Y0035940D01*
X0019604Y0036010D01*
X0019425Y0036077D01*
X0019244Y0036139D01*
X0019061Y0036196D01*
X0018877Y0036250D01*
X0018692Y0036299D01*
X0018506Y0036343D01*
X0018319Y0036383D01*
X0018131Y0036418D01*
X0017942Y0036449D01*
X0017752Y0036476D01*
X0017562Y0036497D01*
X0017372Y0036515D01*
X0017181Y0036527D01*
X0016989Y0036535D01*
X0016798Y0036539D01*
X0016798Y0036445D01*
X0016987Y0036441D01*
X0017176Y0036433D01*
X0017365Y0036421D01*
X0017553Y0036404D01*
X0017741Y0036382D01*
X0017928Y0036356D01*
X0018115Y0036326D01*
X0018301Y0036291D01*
X0018486Y0036251D01*
X0018670Y0036207D01*
X0018852Y0036159D01*
X0019034Y0036106D01*
X0019214Y0036049D01*
X0019393Y0035988D01*
X0019571Y0035922D01*
X0019747Y0035853D01*
X0019921Y0035779D01*
X0020093Y0035701D01*
X0020263Y0035618D01*
X0020431Y0035532D01*
X0020597Y0035442D01*
X0020761Y0035347D01*
X0020923Y0035249D01*
X0021082Y0035147D01*
X0021239Y0035041D01*
X0021393Y0034932D01*
X0021545Y0034818D01*
X0021693Y0034702D01*
X0021839Y0034581D01*
X0021982Y0034458D01*
X0022122Y0034330D01*
X0022259Y0034200D01*
X0022393Y0034066D01*
X0022523Y0033929D01*
X0022650Y0033789D01*
X0022774Y0033646D01*
X0022702Y0033586D01*
X0022579Y0033727D01*
X0022454Y0033865D01*
X0022325Y0034001D01*
X0022193Y0034133D01*
X0022058Y0034262D01*
X0021919Y0034387D01*
X0021778Y0034510D01*
X0021634Y0034629D01*
X0021487Y0034744D01*
X0021338Y0034856D01*
X0021185Y0034964D01*
X0021030Y0035069D01*
X0020873Y0035169D01*
X0020713Y0035266D01*
X0020552Y0035360D01*
X0020387Y0035449D01*
X0020221Y0035534D01*
X0020053Y0035615D01*
X0019883Y0035693D01*
X0019711Y0035766D01*
X0019537Y0035835D01*
X0019362Y0035899D01*
X0019185Y0035960D01*
X0019007Y0036016D01*
X0018828Y0036068D01*
X0018647Y0036116D01*
X0018465Y0036159D01*
X0018283Y0036198D01*
X0018099Y0036233D01*
X0017915Y0036263D01*
X0017730Y0036289D01*
X0017544Y0036310D01*
X0017358Y0036327D01*
X0017171Y0036339D01*
X0016985Y0036347D01*
X0016798Y0036351D01*
X0016798Y0036257D01*
X0016982Y0036253D01*
X0017167Y0036246D01*
X0017351Y0036233D01*
X0017535Y0036217D01*
X0017718Y0036196D01*
X0017901Y0036170D01*
X0018083Y0036140D01*
X0018264Y0036106D01*
X0018445Y0036068D01*
X0018624Y0036025D01*
X0018803Y0035978D01*
X0018980Y0035926D01*
X0019156Y0035871D01*
X0019331Y0035811D01*
X0019504Y0035747D01*
X0019675Y0035679D01*
X0019845Y0035607D01*
X0020013Y0035530D01*
X0020179Y0035450D01*
X0020343Y0035366D01*
X0020506Y0035278D01*
X0020666Y0035186D01*
X0020823Y0035090D01*
X0020979Y0034990D01*
X0021132Y0034887D01*
X0021282Y0034780D01*
X0021430Y0034670D01*
X0021575Y0034556D01*
X0021717Y0034438D01*
X0021857Y0034317D01*
X0021993Y0034193D01*
X0022127Y0034066D01*
X0022257Y0033935D01*
X0022385Y0033802D01*
X0022509Y0033665D01*
X0022629Y0033526D01*
X0022557Y0033465D01*
X0022438Y0033603D01*
X0022315Y0033738D01*
X0022190Y0033870D01*
X0022061Y0033999D01*
X0021929Y0034125D01*
X0021794Y0034247D01*
X0021656Y0034367D01*
X0021516Y0034483D01*
X0021372Y0034595D01*
X0021226Y0034704D01*
X0021078Y0034810D01*
X0020927Y0034912D01*
X0020773Y0035010D01*
X0020618Y0035105D01*
X0020460Y0035196D01*
X0020299Y0035283D01*
X0020137Y0035366D01*
X0019973Y0035445D01*
X0019807Y0035520D01*
X0019639Y0035592D01*
X0019470Y0035659D01*
X0019299Y0035722D01*
X0019127Y0035781D01*
X0018953Y0035836D01*
X0018778Y0035887D01*
X0018602Y0035934D01*
X0018424Y0035976D01*
X0018246Y0036014D01*
X0018067Y0036048D01*
X0017887Y0036077D01*
X0017707Y0036102D01*
X0017526Y0036123D01*
X0017344Y0036140D01*
X0017162Y0036152D01*
X0016980Y0036159D01*
X0016798Y0036163D01*
X0016797Y0020110D02*
X0016797Y0021010D01*
X0016798Y0021009D02*
X0016982Y0021013D01*
X0017167Y0021021D01*
X0017351Y0021033D01*
X0017534Y0021050D01*
X0017718Y0021072D01*
X0017900Y0021097D01*
X0018082Y0021128D01*
X0018263Y0021163D01*
X0018444Y0021202D01*
X0018623Y0021246D01*
X0018801Y0021294D01*
X0018978Y0021346D01*
X0019154Y0021403D01*
X0019328Y0021463D01*
X0019500Y0021529D01*
X0019671Y0021598D01*
X0019841Y0021671D01*
X0020008Y0021749D01*
X0020173Y0021831D01*
X0020337Y0021916D01*
X0020498Y0022006D01*
X0020657Y0022100D01*
X0020814Y0022197D01*
X0020968Y0022298D01*
X0021120Y0022403D01*
X0021269Y0022512D01*
X0021415Y0022624D01*
X0021559Y0022740D01*
X0021699Y0022859D01*
X0021837Y0022982D01*
X0021972Y0023108D01*
X0022104Y0023237D01*
X0022232Y0023370D01*
X0022357Y0023505D01*
X0022479Y0023644D01*
X0023166Y0023063D01*
X0023030Y0022907D01*
X0022889Y0022755D01*
X0022745Y0022606D01*
X0022598Y0022461D01*
X0022447Y0022320D01*
X0022293Y0022183D01*
X0022135Y0022049D01*
X0021974Y0021919D01*
X0021810Y0021793D01*
X0021643Y0021671D01*
X0021473Y0021553D01*
X0021300Y0021440D01*
X0021124Y0021331D01*
X0020946Y0021226D01*
X0020765Y0021125D01*
X0020582Y0021029D01*
X0020397Y0020937D01*
X0020209Y0020850D01*
X0020019Y0020768D01*
X0019828Y0020690D01*
X0019634Y0020617D01*
X0019439Y0020549D01*
X0019242Y0020485D01*
X0019044Y0020427D01*
X0018844Y0020373D01*
X0018643Y0020324D01*
X0018441Y0020280D01*
X0018238Y0020241D01*
X0018034Y0020207D01*
X0017829Y0020178D01*
X0017624Y0020154D01*
X0017418Y0020136D01*
X0017211Y0020122D01*
X0017005Y0020113D01*
X0016798Y0020109D01*
X0016798Y0020203D01*
X0017002Y0020207D01*
X0017207Y0020216D01*
X0017411Y0020229D01*
X0017614Y0020248D01*
X0017817Y0020272D01*
X0018020Y0020300D01*
X0018222Y0020334D01*
X0018422Y0020372D01*
X0018622Y0020416D01*
X0018821Y0020464D01*
X0019018Y0020517D01*
X0019215Y0020575D01*
X0019409Y0020638D01*
X0019602Y0020706D01*
X0019794Y0020778D01*
X0019983Y0020855D01*
X0020171Y0020936D01*
X0020356Y0021022D01*
X0020539Y0021113D01*
X0020721Y0021208D01*
X0020899Y0021307D01*
X0021075Y0021411D01*
X0021249Y0021519D01*
X0021420Y0021631D01*
X0021588Y0021748D01*
X0021753Y0021868D01*
X0021916Y0021993D01*
X0022075Y0022121D01*
X0022231Y0022253D01*
X0022383Y0022389D01*
X0022533Y0022529D01*
X0022678Y0022672D01*
X0022821Y0022819D01*
X0022959Y0022970D01*
X0023094Y0023123D01*
X0023023Y0023184D01*
X0022889Y0023032D01*
X0022752Y0022883D01*
X0022611Y0022738D01*
X0022467Y0022597D01*
X0022320Y0022458D01*
X0022169Y0022324D01*
X0022015Y0022193D01*
X0021857Y0022066D01*
X0021697Y0021943D01*
X0021533Y0021824D01*
X0021367Y0021709D01*
X0021198Y0021598D01*
X0021027Y0021491D01*
X0020852Y0021389D01*
X0020676Y0021290D01*
X0020497Y0021196D01*
X0020315Y0021107D01*
X0020132Y0021022D01*
X0019947Y0020941D01*
X0019759Y0020865D01*
X0019570Y0020794D01*
X0019379Y0020727D01*
X0019187Y0020665D01*
X0018993Y0020608D01*
X0018798Y0020555D01*
X0018601Y0020508D01*
X0018404Y0020465D01*
X0018205Y0020427D01*
X0018006Y0020393D01*
X0017806Y0020365D01*
X0017605Y0020342D01*
X0017404Y0020323D01*
X0017202Y0020309D01*
X0017000Y0020301D01*
X0016798Y0020297D01*
X0016798Y0020391D01*
X0016998Y0020395D01*
X0017197Y0020403D01*
X0017397Y0020417D01*
X0017596Y0020435D01*
X0017794Y0020458D01*
X0017992Y0020486D01*
X0018189Y0020519D01*
X0018385Y0020557D01*
X0018581Y0020599D01*
X0018775Y0020646D01*
X0018968Y0020698D01*
X0019159Y0020755D01*
X0019350Y0020816D01*
X0019538Y0020882D01*
X0019725Y0020953D01*
X0019910Y0021028D01*
X0020094Y0021108D01*
X0020275Y0021192D01*
X0020454Y0021280D01*
X0020631Y0021373D01*
X0020806Y0021470D01*
X0020978Y0021572D01*
X0021147Y0021677D01*
X0021315Y0021787D01*
X0021479Y0021901D01*
X0021640Y0022018D01*
X0021799Y0022140D01*
X0021954Y0022265D01*
X0022107Y0022395D01*
X0022256Y0022528D01*
X0022402Y0022664D01*
X0022544Y0022804D01*
X0022683Y0022948D01*
X0022819Y0023095D01*
X0022951Y0023245D01*
X0022879Y0023305D01*
X0022749Y0023157D01*
X0022615Y0023012D01*
X0022477Y0022870D01*
X0022336Y0022732D01*
X0022192Y0022597D01*
X0022045Y0022465D01*
X0021894Y0022338D01*
X0021740Y0022214D01*
X0021584Y0022093D01*
X0021424Y0021977D01*
X0021262Y0021865D01*
X0021097Y0021756D01*
X0020929Y0021652D01*
X0020759Y0021552D01*
X0020586Y0021456D01*
X0020411Y0021364D01*
X0020234Y0021276D01*
X0020055Y0021193D01*
X0019874Y0021115D01*
X0019691Y0021040D01*
X0019506Y0020971D01*
X0019320Y0020906D01*
X0019132Y0020845D01*
X0018942Y0020789D01*
X0018752Y0020738D01*
X0018560Y0020691D01*
X0018367Y0020649D01*
X0018173Y0020612D01*
X0017978Y0020579D01*
X0017782Y0020552D01*
X0017586Y0020529D01*
X0017390Y0020511D01*
X0017193Y0020497D01*
X0016995Y0020489D01*
X0016798Y0020485D01*
X0016798Y0020579D01*
X0016993Y0020583D01*
X0017188Y0020591D01*
X0017383Y0020604D01*
X0017577Y0020622D01*
X0017771Y0020645D01*
X0017964Y0020672D01*
X0018157Y0020704D01*
X0018348Y0020741D01*
X0018539Y0020783D01*
X0018729Y0020829D01*
X0018917Y0020879D01*
X0019104Y0020935D01*
X0019290Y0020995D01*
X0019474Y0021059D01*
X0019657Y0021128D01*
X0019838Y0021201D01*
X0020017Y0021279D01*
X0020194Y0021361D01*
X0020369Y0021448D01*
X0020541Y0021538D01*
X0020712Y0021633D01*
X0020880Y0021732D01*
X0021046Y0021835D01*
X0021209Y0021942D01*
X0021370Y0022053D01*
X0021527Y0022168D01*
X0021682Y0022287D01*
X0021834Y0022410D01*
X0021983Y0022536D01*
X0022129Y0022666D01*
X0022271Y0022799D01*
X0022410Y0022936D01*
X0022546Y0023076D01*
X0022678Y0023220D01*
X0022807Y0023366D01*
X0022735Y0023427D01*
X0022608Y0023282D01*
X0022477Y0023140D01*
X0022343Y0023002D01*
X0022206Y0022867D01*
X0022065Y0022735D01*
X0021921Y0022607D01*
X0021774Y0022482D01*
X0021624Y0022361D01*
X0021471Y0022244D01*
X0021315Y0022130D01*
X0021156Y0022020D01*
X0020995Y0021914D01*
X0020831Y0021813D01*
X0020665Y0021715D01*
X0020497Y0021621D01*
X0020326Y0021531D01*
X0020153Y0021446D01*
X0019978Y0021365D01*
X0019801Y0021288D01*
X0019623Y0021216D01*
X0019442Y0021147D01*
X0019260Y0021084D01*
X0019077Y0021025D01*
X0018892Y0020970D01*
X0018706Y0020920D01*
X0018518Y0020874D01*
X0018330Y0020833D01*
X0018140Y0020797D01*
X0017950Y0020765D01*
X0017759Y0020738D01*
X0017568Y0020716D01*
X0017376Y0020698D01*
X0017183Y0020685D01*
X0016991Y0020677D01*
X0016798Y0020673D01*
X0016798Y0020767D01*
X0016988Y0020771D01*
X0017179Y0020779D01*
X0017369Y0020792D01*
X0017558Y0020809D01*
X0017748Y0020831D01*
X0017936Y0020858D01*
X0018124Y0020889D01*
X0018311Y0020925D01*
X0018497Y0020966D01*
X0018682Y0021011D01*
X0018866Y0021060D01*
X0019049Y0021115D01*
X0019230Y0021173D01*
X0019410Y0021236D01*
X0019588Y0021303D01*
X0019765Y0021375D01*
X0019940Y0021451D01*
X0020112Y0021531D01*
X0020283Y0021615D01*
X0020452Y0021704D01*
X0020618Y0021796D01*
X0020783Y0021893D01*
X0020944Y0021993D01*
X0021104Y0022098D01*
X0021260Y0022206D01*
X0021414Y0022319D01*
X0021565Y0022435D01*
X0021714Y0022554D01*
X0021859Y0022677D01*
X0022001Y0022804D01*
X0022140Y0022934D01*
X0022276Y0023068D01*
X0022409Y0023204D01*
X0022538Y0023344D01*
X0022664Y0023488D01*
X0022592Y0023548D01*
X0022468Y0023407D01*
X0022340Y0023269D01*
X0022209Y0023134D01*
X0022075Y0023002D01*
X0021938Y0022873D01*
X0021797Y0022748D01*
X0021653Y0022626D01*
X0021507Y0022508D01*
X0021358Y0022394D01*
X0021206Y0022283D01*
X0021051Y0022176D01*
X0020894Y0022073D01*
X0020734Y0021973D01*
X0020572Y0021878D01*
X0020407Y0021786D01*
X0020241Y0021699D01*
X0020072Y0021616D01*
X0019901Y0021536D01*
X0019729Y0021461D01*
X0019554Y0021391D01*
X0019378Y0021324D01*
X0019201Y0021262D01*
X0019021Y0021204D01*
X0018841Y0021151D01*
X0018659Y0021102D01*
X0018477Y0021058D01*
X0018293Y0021018D01*
X0018108Y0020982D01*
X0017922Y0020951D01*
X0017736Y0020925D01*
X0017549Y0020903D01*
X0017362Y0020886D01*
X0017174Y0020873D01*
X0016986Y0020865D01*
X0016798Y0020861D01*
X0016798Y0020955D01*
X0016984Y0020959D01*
X0017169Y0020967D01*
X0017355Y0020979D01*
X0017540Y0020996D01*
X0017724Y0021018D01*
X0017908Y0021044D01*
X0018092Y0021075D01*
X0018274Y0021110D01*
X0018456Y0021149D01*
X0018636Y0021193D01*
X0018816Y0021242D01*
X0018994Y0021294D01*
X0019171Y0021351D01*
X0019346Y0021413D01*
X0019520Y0021478D01*
X0019692Y0021548D01*
X0019863Y0021622D01*
X0020031Y0021700D01*
X0020198Y0021783D01*
X0020362Y0021869D01*
X0020525Y0021959D01*
X0020685Y0022054D01*
X0020843Y0022152D01*
X0020998Y0022254D01*
X0021151Y0022359D01*
X0021301Y0022469D01*
X0021449Y0022582D01*
X0021593Y0022699D01*
X0021735Y0022819D01*
X0021874Y0022942D01*
X0022010Y0023069D01*
X0022142Y0023199D01*
X0022271Y0023333D01*
X0022398Y0023469D01*
X0022520Y0023609D01*
X0016698Y0056693D02*
X0016698Y0055793D01*
X0016698Y0055794D02*
X0016515Y0055790D01*
X0016332Y0055783D01*
X0016149Y0055770D01*
X0015966Y0055753D01*
X0015784Y0055732D01*
X0015603Y0055707D01*
X0015422Y0055677D01*
X0015242Y0055642D01*
X0015063Y0055604D01*
X0014885Y0055561D01*
X0014708Y0055513D01*
X0014533Y0055462D01*
X0014358Y0055406D01*
X0014185Y0055346D01*
X0014014Y0055281D01*
X0013844Y0055213D01*
X0013675Y0055141D01*
X0013509Y0055064D01*
X0013345Y0054983D01*
X0013182Y0054899D01*
X0013022Y0054810D01*
X0012863Y0054718D01*
X0012707Y0054622D01*
X0012554Y0054522D01*
X0012403Y0054418D01*
X0012254Y0054311D01*
X0012108Y0054200D01*
X0011965Y0054086D01*
X0011825Y0053968D01*
X0011688Y0053847D01*
X0011553Y0053723D01*
X0011422Y0053595D01*
X0011293Y0053464D01*
X0011168Y0053330D01*
X0011047Y0053194D01*
X0010928Y0053054D01*
X0010813Y0052911D01*
X0010702Y0052766D01*
X0010594Y0052618D01*
X0010490Y0052467D01*
X0010389Y0052314D01*
X0010292Y0052159D01*
X0010199Y0052001D01*
X0010110Y0051841D01*
X0009316Y0052264D01*
X0009416Y0052444D01*
X0009520Y0052621D01*
X0009628Y0052795D01*
X0009741Y0052967D01*
X0009858Y0053135D01*
X0009979Y0053301D01*
X0010103Y0053464D01*
X0010232Y0053624D01*
X0010365Y0053781D01*
X0010501Y0053934D01*
X0010641Y0054084D01*
X0010785Y0054231D01*
X0010932Y0054374D01*
X0011083Y0054514D01*
X0011237Y0054649D01*
X0011394Y0054781D01*
X0011554Y0054909D01*
X0011718Y0055034D01*
X0011884Y0055154D01*
X0012054Y0055270D01*
X0012226Y0055382D01*
X0012400Y0055490D01*
X0012578Y0055593D01*
X0012757Y0055692D01*
X0012940Y0055787D01*
X0013124Y0055877D01*
X0013310Y0055963D01*
X0013499Y0056044D01*
X0013689Y0056121D01*
X0013882Y0056193D01*
X0014076Y0056260D01*
X0014271Y0056323D01*
X0014468Y0056381D01*
X0014666Y0056434D01*
X0014866Y0056482D01*
X0015067Y0056525D01*
X0015268Y0056563D01*
X0015471Y0056597D01*
X0015674Y0056625D01*
X0015878Y0056649D01*
X0016083Y0056668D01*
X0016287Y0056681D01*
X0016492Y0056690D01*
X0016698Y0056694D01*
X0016698Y0056600D01*
X0016495Y0056596D01*
X0016292Y0056588D01*
X0016089Y0056574D01*
X0015887Y0056556D01*
X0015686Y0056532D01*
X0015485Y0056504D01*
X0015284Y0056471D01*
X0015085Y0056433D01*
X0014887Y0056390D01*
X0014689Y0056342D01*
X0014493Y0056290D01*
X0014298Y0056233D01*
X0014105Y0056171D01*
X0013913Y0056104D01*
X0013723Y0056033D01*
X0013535Y0055958D01*
X0013349Y0055877D01*
X0013164Y0055792D01*
X0012982Y0055703D01*
X0012802Y0055609D01*
X0012624Y0055511D01*
X0012449Y0055409D01*
X0012276Y0055303D01*
X0012106Y0055192D01*
X0011938Y0055077D01*
X0011774Y0054958D01*
X0011612Y0054835D01*
X0011454Y0054709D01*
X0011298Y0054578D01*
X0011146Y0054444D01*
X0010997Y0054306D01*
X0010851Y0054165D01*
X0010709Y0054020D01*
X0010571Y0053871D01*
X0010436Y0053720D01*
X0010305Y0053565D01*
X0010178Y0053407D01*
X0010054Y0053245D01*
X0009935Y0053081D01*
X0009819Y0052914D01*
X0009708Y0052745D01*
X0009600Y0052572D01*
X0009497Y0052397D01*
X0009399Y0052220D01*
X0009482Y0052176D01*
X0009579Y0052351D01*
X0009681Y0052524D01*
X0009787Y0052694D01*
X0009897Y0052862D01*
X0010011Y0053027D01*
X0010130Y0053189D01*
X0010252Y0053349D01*
X0010378Y0053505D01*
X0010507Y0053658D01*
X0010641Y0053808D01*
X0010777Y0053955D01*
X0010918Y0054098D01*
X0011062Y0054238D01*
X0011209Y0054374D01*
X0011360Y0054507D01*
X0011513Y0054636D01*
X0011670Y0054761D01*
X0011830Y0054883D01*
X0011993Y0055000D01*
X0012158Y0055114D01*
X0012326Y0055223D01*
X0012497Y0055329D01*
X0012670Y0055430D01*
X0012846Y0055527D01*
X0013024Y0055619D01*
X0013204Y0055707D01*
X0013387Y0055791D01*
X0013571Y0055871D01*
X0013757Y0055946D01*
X0013945Y0056016D01*
X0014135Y0056082D01*
X0014326Y0056143D01*
X0014518Y0056199D01*
X0014712Y0056251D01*
X0014907Y0056298D01*
X0015103Y0056341D01*
X0015301Y0056378D01*
X0015499Y0056411D01*
X0015697Y0056439D01*
X0015897Y0056462D01*
X0016096Y0056480D01*
X0016297Y0056494D01*
X0016497Y0056502D01*
X0016698Y0056506D01*
X0016698Y0056412D01*
X0016499Y0056408D01*
X0016301Y0056400D01*
X0016103Y0056387D01*
X0015906Y0056368D01*
X0015709Y0056346D01*
X0015512Y0056318D01*
X0015317Y0056286D01*
X0015122Y0056248D01*
X0014928Y0056207D01*
X0014735Y0056160D01*
X0014543Y0056109D01*
X0014353Y0056053D01*
X0014164Y0055993D01*
X0013977Y0055928D01*
X0013791Y0055858D01*
X0013607Y0055784D01*
X0013425Y0055705D01*
X0013245Y0055622D01*
X0013066Y0055535D01*
X0012890Y0055444D01*
X0012717Y0055348D01*
X0012545Y0055248D01*
X0012377Y0055144D01*
X0012210Y0055036D01*
X0012047Y0054923D01*
X0011886Y0054807D01*
X0011728Y0054687D01*
X0011573Y0054563D01*
X0011421Y0054436D01*
X0011272Y0054305D01*
X0011127Y0054170D01*
X0010984Y0054032D01*
X0010846Y0053890D01*
X0010710Y0053745D01*
X0010578Y0053597D01*
X0010450Y0053445D01*
X0010326Y0053291D01*
X0010205Y0053134D01*
X0010088Y0052973D01*
X0009975Y0052810D01*
X0009867Y0052644D01*
X0009762Y0052476D01*
X0009661Y0052305D01*
X0009565Y0052132D01*
X0009647Y0052087D01*
X0009743Y0052259D01*
X0009842Y0052428D01*
X0009946Y0052594D01*
X0010054Y0052758D01*
X0010165Y0052919D01*
X0010281Y0053078D01*
X0010400Y0053233D01*
X0010523Y0053386D01*
X0010650Y0053535D01*
X0010780Y0053682D01*
X0010914Y0053825D01*
X0011051Y0053965D01*
X0011192Y0054102D01*
X0011335Y0054235D01*
X0011482Y0054365D01*
X0011633Y0054491D01*
X0011786Y0054613D01*
X0011942Y0054732D01*
X0012101Y0054847D01*
X0012263Y0054957D01*
X0012427Y0055064D01*
X0012594Y0055167D01*
X0012763Y0055266D01*
X0012935Y0055361D01*
X0013109Y0055451D01*
X0013285Y0055538D01*
X0013463Y0055619D01*
X0013643Y0055697D01*
X0013825Y0055770D01*
X0014008Y0055839D01*
X0014194Y0055903D01*
X0014380Y0055963D01*
X0014568Y0056018D01*
X0014758Y0056069D01*
X0014948Y0056115D01*
X0015140Y0056156D01*
X0015333Y0056193D01*
X0015526Y0056225D01*
X0015720Y0056252D01*
X0015915Y0056275D01*
X0016110Y0056293D01*
X0016306Y0056306D01*
X0016502Y0056314D01*
X0016698Y0056318D01*
X0016698Y0056224D01*
X0016504Y0056220D01*
X0016310Y0056212D01*
X0016117Y0056199D01*
X0015924Y0056181D01*
X0015732Y0056159D01*
X0015540Y0056132D01*
X0015349Y0056100D01*
X0015158Y0056064D01*
X0014969Y0056023D01*
X0014781Y0055978D01*
X0014594Y0055928D01*
X0014408Y0055873D01*
X0014223Y0055814D01*
X0014040Y0055751D01*
X0013859Y0055683D01*
X0013679Y0055610D01*
X0013501Y0055534D01*
X0013325Y0055453D01*
X0013151Y0055367D01*
X0012979Y0055278D01*
X0012809Y0055184D01*
X0012642Y0055087D01*
X0012477Y0054985D01*
X0012315Y0054879D01*
X0012155Y0054770D01*
X0011998Y0054656D01*
X0011844Y0054539D01*
X0011692Y0054418D01*
X0011544Y0054294D01*
X0011399Y0054166D01*
X0011256Y0054034D01*
X0011117Y0053899D01*
X0010982Y0053761D01*
X0010850Y0053619D01*
X0010721Y0053474D01*
X0010596Y0053326D01*
X0010474Y0053175D01*
X0010356Y0053022D01*
X0010242Y0052865D01*
X0010132Y0052706D01*
X0010026Y0052544D01*
X0009923Y0052379D01*
X0009825Y0052212D01*
X0009730Y0052043D01*
X0009813Y0051999D01*
X0009907Y0052166D01*
X0010004Y0052331D01*
X0010105Y0052494D01*
X0010210Y0052654D01*
X0010319Y0052811D01*
X0010432Y0052966D01*
X0010548Y0053118D01*
X0010668Y0053267D01*
X0010792Y0053413D01*
X0010919Y0053556D01*
X0011050Y0053696D01*
X0011184Y0053832D01*
X0011321Y0053966D01*
X0011462Y0054096D01*
X0011605Y0054223D01*
X0011752Y0054346D01*
X0011902Y0054465D01*
X0012054Y0054581D01*
X0012209Y0054693D01*
X0012367Y0054801D01*
X0012528Y0054906D01*
X0012691Y0055006D01*
X0012856Y0055103D01*
X0013023Y0055195D01*
X0013193Y0055283D01*
X0013365Y0055368D01*
X0013539Y0055448D01*
X0013715Y0055523D01*
X0013893Y0055595D01*
X0014072Y0055662D01*
X0014253Y0055725D01*
X0014435Y0055783D01*
X0014619Y0055837D01*
X0014804Y0055887D01*
X0014990Y0055931D01*
X0015177Y0055972D01*
X0015365Y0056008D01*
X0015554Y0056039D01*
X0015743Y0056066D01*
X0015933Y0056088D01*
X0016124Y0056105D01*
X0016315Y0056118D01*
X0016506Y0056126D01*
X0016698Y0056130D01*
X0016698Y0056036D01*
X0016509Y0056032D01*
X0016320Y0056024D01*
X0016131Y0056012D01*
X0015943Y0055994D01*
X0015755Y0055972D01*
X0015568Y0055946D01*
X0015381Y0055915D01*
X0015195Y0055880D01*
X0015010Y0055840D01*
X0014826Y0055795D01*
X0014644Y0055746D01*
X0014462Y0055693D01*
X0014282Y0055636D01*
X0014104Y0055574D01*
X0013926Y0055507D01*
X0013751Y0055437D01*
X0013577Y0055362D01*
X0013405Y0055283D01*
X0013236Y0055199D01*
X0013068Y0055112D01*
X0012902Y0055021D01*
X0012739Y0054925D01*
X0012578Y0054826D01*
X0012419Y0054723D01*
X0012263Y0054616D01*
X0012110Y0054505D01*
X0011959Y0054391D01*
X0011812Y0054273D01*
X0011667Y0054151D01*
X0011525Y0054026D01*
X0011386Y0053898D01*
X0011251Y0053766D01*
X0011118Y0053631D01*
X0010989Y0053493D01*
X0010863Y0053351D01*
X0010741Y0053207D01*
X0010622Y0053060D01*
X0010507Y0052910D01*
X0010396Y0052757D01*
X0010288Y0052601D01*
X0010184Y0052443D01*
X0010084Y0052283D01*
X0009988Y0052120D01*
X0009896Y0051955D01*
X0009979Y0051910D01*
X0010070Y0052074D01*
X0010165Y0052235D01*
X0010264Y0052393D01*
X0010366Y0052549D01*
X0010473Y0052703D01*
X0010583Y0052854D01*
X0010697Y0053002D01*
X0010814Y0053148D01*
X0010935Y0053290D01*
X0011059Y0053430D01*
X0011186Y0053566D01*
X0011317Y0053700D01*
X0011451Y0053830D01*
X0011588Y0053957D01*
X0011728Y0054080D01*
X0011871Y0054200D01*
X0012017Y0054317D01*
X0012166Y0054430D01*
X0012318Y0054539D01*
X0012472Y0054645D01*
X0012628Y0054747D01*
X0012787Y0054845D01*
X0012949Y0054939D01*
X0013112Y0055029D01*
X0013278Y0055116D01*
X0013446Y0055198D01*
X0013615Y0055276D01*
X0013787Y0055350D01*
X0013960Y0055419D01*
X0014135Y0055485D01*
X0014312Y0055546D01*
X0014490Y0055603D01*
X0014669Y0055656D01*
X0014849Y0055704D01*
X0015031Y0055748D01*
X0015214Y0055788D01*
X0015397Y0055823D01*
X0015581Y0055853D01*
X0015766Y0055879D01*
X0015952Y0055901D01*
X0016138Y0055918D01*
X0016324Y0055930D01*
X0016511Y0055938D01*
X0016698Y0055942D01*
X0016698Y0055848D01*
X0016513Y0055844D01*
X0016329Y0055836D01*
X0016145Y0055824D01*
X0015961Y0055807D01*
X0015778Y0055786D01*
X0015595Y0055760D01*
X0015413Y0055730D01*
X0015232Y0055695D01*
X0015052Y0055656D01*
X0014872Y0055613D01*
X0014694Y0055565D01*
X0014517Y0055513D01*
X0014341Y0055457D01*
X0014167Y0055397D01*
X0013994Y0055332D01*
X0013823Y0055263D01*
X0013654Y0055190D01*
X0013486Y0055113D01*
X0013320Y0055032D01*
X0013157Y0054946D01*
X0012995Y0054857D01*
X0012836Y0054764D01*
X0012679Y0054667D01*
X0012524Y0054567D01*
X0012372Y0054462D01*
X0012222Y0054354D01*
X0012075Y0054243D01*
X0011931Y0054128D01*
X0011790Y0054009D01*
X0011651Y0053887D01*
X0011516Y0053762D01*
X0011384Y0053633D01*
X0011254Y0053501D01*
X0011128Y0053367D01*
X0011006Y0053229D01*
X0010887Y0053088D01*
X0010771Y0052944D01*
X0010658Y0052798D01*
X0010550Y0052649D01*
X0010445Y0052497D01*
X0010343Y0052343D01*
X0010246Y0052186D01*
X0010152Y0052027D01*
X0010062Y0051866D01*
X0009437Y0044009D02*
X0010218Y0044455D01*
X0010311Y0044298D01*
X0010408Y0044144D01*
X0010509Y0043992D01*
X0010614Y0043843D01*
X0010722Y0043696D01*
X0010833Y0043551D01*
X0010948Y0043410D01*
X0011067Y0043271D01*
X0011189Y0043136D01*
X0011314Y0043003D01*
X0011442Y0042873D01*
X0011573Y0042747D01*
X0011707Y0042623D01*
X0011844Y0042503D01*
X0011984Y0042386D01*
X0012127Y0042273D01*
X0012273Y0042163D01*
X0012421Y0042057D01*
X0012572Y0041954D01*
X0012725Y0041855D01*
X0012880Y0041760D01*
X0013038Y0041669D01*
X0013198Y0041581D01*
X0013360Y0041497D01*
X0013523Y0041417D01*
X0013689Y0041341D01*
X0013857Y0041270D01*
X0014026Y0041202D01*
X0014197Y0041138D01*
X0014369Y0041079D01*
X0014543Y0041023D01*
X0014718Y0040972D01*
X0014894Y0040925D01*
X0015071Y0040883D01*
X0015250Y0040844D01*
X0015429Y0040810D01*
X0015609Y0040780D01*
X0015789Y0040755D01*
X0015970Y0040734D01*
X0016152Y0040718D01*
X0016334Y0040705D01*
X0016516Y0040698D01*
X0016698Y0040694D01*
X0016699Y0039795D01*
X0016698Y0039794D01*
X0016494Y0039798D01*
X0016290Y0039806D01*
X0016086Y0039820D01*
X0015882Y0039838D01*
X0015679Y0039862D01*
X0015477Y0039890D01*
X0015275Y0039923D01*
X0015075Y0039961D01*
X0014875Y0040004D01*
X0014676Y0040052D01*
X0014479Y0040104D01*
X0014283Y0040162D01*
X0014088Y0040224D01*
X0013895Y0040290D01*
X0013703Y0040362D01*
X0013514Y0040438D01*
X0013326Y0040518D01*
X0013140Y0040603D01*
X0012956Y0040693D01*
X0012775Y0040786D01*
X0012596Y0040885D01*
X0012419Y0040987D01*
X0012245Y0041094D01*
X0012073Y0041205D01*
X0011904Y0041320D01*
X0011738Y0041439D01*
X0011575Y0041562D01*
X0011415Y0041689D01*
X0011258Y0041820D01*
X0011104Y0041955D01*
X0010954Y0042093D01*
X0010807Y0042235D01*
X0010663Y0042380D01*
X0010523Y0042529D01*
X0010387Y0042681D01*
X0010254Y0042837D01*
X0010126Y0042995D01*
X0010001Y0043157D01*
X0009880Y0043322D01*
X0009763Y0043489D01*
X0009650Y0043660D01*
X0009541Y0043833D01*
X0009436Y0044008D01*
X0009518Y0044055D01*
X0009621Y0043881D01*
X0009729Y0043710D01*
X0009841Y0043542D01*
X0009956Y0043376D01*
X0010076Y0043213D01*
X0010200Y0043054D01*
X0010327Y0042897D01*
X0010458Y0042743D01*
X0010593Y0042593D01*
X0010731Y0042445D01*
X0010873Y0042302D01*
X0011019Y0042161D01*
X0011167Y0042025D01*
X0011319Y0041892D01*
X0011475Y0041762D01*
X0011633Y0041637D01*
X0011794Y0041515D01*
X0011958Y0041397D01*
X0012125Y0041283D01*
X0012295Y0041174D01*
X0012467Y0041068D01*
X0012642Y0040967D01*
X0012819Y0040869D01*
X0012998Y0040777D01*
X0013180Y0040688D01*
X0013364Y0040604D01*
X0013549Y0040524D01*
X0013737Y0040449D01*
X0013926Y0040379D01*
X0014117Y0040313D01*
X0014310Y0040252D01*
X0014504Y0040195D01*
X0014699Y0040143D01*
X0014895Y0040096D01*
X0015093Y0040054D01*
X0015291Y0040016D01*
X0015491Y0039983D01*
X0015691Y0039955D01*
X0015892Y0039932D01*
X0016093Y0039914D01*
X0016294Y0039900D01*
X0016496Y0039892D01*
X0016698Y0039888D01*
X0016698Y0039982D01*
X0016499Y0039986D01*
X0016299Y0039994D01*
X0016100Y0040007D01*
X0015901Y0040026D01*
X0015702Y0040048D01*
X0015505Y0040076D01*
X0015307Y0040109D01*
X0015111Y0040146D01*
X0014916Y0040188D01*
X0014722Y0040234D01*
X0014529Y0040286D01*
X0014337Y0040342D01*
X0014147Y0040402D01*
X0013958Y0040467D01*
X0013771Y0040537D01*
X0013585Y0040611D01*
X0013402Y0040690D01*
X0013220Y0040773D01*
X0013040Y0040861D01*
X0012863Y0040952D01*
X0012688Y0041048D01*
X0012515Y0041149D01*
X0012345Y0041253D01*
X0012177Y0041362D01*
X0012012Y0041474D01*
X0011850Y0041590D01*
X0011691Y0041711D01*
X0011534Y0041835D01*
X0011381Y0041963D01*
X0011230Y0042094D01*
X0011083Y0042230D01*
X0010940Y0042368D01*
X0010799Y0042510D01*
X0010662Y0042656D01*
X0010529Y0042805D01*
X0010399Y0042957D01*
X0010273Y0043112D01*
X0010151Y0043270D01*
X0010033Y0043431D01*
X0009919Y0043594D01*
X0009808Y0043761D01*
X0009702Y0043930D01*
X0009600Y0044101D01*
X0009681Y0044148D01*
X0009782Y0043978D01*
X0009887Y0043811D01*
X0009997Y0043647D01*
X0010110Y0043485D01*
X0010227Y0043326D01*
X0010347Y0043170D01*
X0010472Y0043016D01*
X0010600Y0042866D01*
X0010732Y0042719D01*
X0010867Y0042575D01*
X0011006Y0042435D01*
X0011148Y0042298D01*
X0011293Y0042164D01*
X0011442Y0042034D01*
X0011594Y0041908D01*
X0011748Y0041785D01*
X0011906Y0041666D01*
X0012066Y0041551D01*
X0012229Y0041440D01*
X0012395Y0041333D01*
X0012563Y0041229D01*
X0012734Y0041130D01*
X0012907Y0041035D01*
X0013083Y0040945D01*
X0013260Y0040858D01*
X0013440Y0040776D01*
X0013621Y0040698D01*
X0013804Y0040625D01*
X0013989Y0040556D01*
X0014176Y0040492D01*
X0014364Y0040432D01*
X0014554Y0040376D01*
X0014744Y0040326D01*
X0014936Y0040279D01*
X0015129Y0040238D01*
X0015323Y0040201D01*
X0015518Y0040169D01*
X0015714Y0040142D01*
X0015910Y0040119D01*
X0016107Y0040101D01*
X0016304Y0040088D01*
X0016501Y0040080D01*
X0016698Y0040076D01*
X0016698Y0040170D01*
X0016503Y0040174D01*
X0016308Y0040182D01*
X0016113Y0040195D01*
X0015919Y0040213D01*
X0015725Y0040235D01*
X0015532Y0040262D01*
X0015339Y0040294D01*
X0015148Y0040330D01*
X0014957Y0040371D01*
X0014767Y0040417D01*
X0014579Y0040467D01*
X0014391Y0040522D01*
X0014205Y0040581D01*
X0014021Y0040644D01*
X0013838Y0040713D01*
X0013657Y0040785D01*
X0013478Y0040862D01*
X0013300Y0040943D01*
X0013125Y0041029D01*
X0012951Y0041118D01*
X0012780Y0041212D01*
X0012612Y0041310D01*
X0012445Y0041412D01*
X0012281Y0041518D01*
X0012120Y0041628D01*
X0011962Y0041742D01*
X0011806Y0041859D01*
X0011653Y0041981D01*
X0011503Y0042106D01*
X0011356Y0042234D01*
X0011213Y0042366D01*
X0011072Y0042502D01*
X0010935Y0042641D01*
X0010801Y0042783D01*
X0010671Y0042928D01*
X0010544Y0043076D01*
X0010421Y0043228D01*
X0010302Y0043382D01*
X0010186Y0043539D01*
X0010075Y0043699D01*
X0009967Y0043862D01*
X0009863Y0044027D01*
X0009763Y0044195D01*
X0009844Y0044241D01*
X0009943Y0044076D01*
X0010046Y0043912D01*
X0010153Y0043752D01*
X0010263Y0043594D01*
X0010377Y0043438D01*
X0010495Y0043286D01*
X0010617Y0043136D01*
X0010742Y0042990D01*
X0010871Y0042846D01*
X0011003Y0042706D01*
X0011138Y0042568D01*
X0011277Y0042434D01*
X0011419Y0042304D01*
X0011564Y0042177D01*
X0011712Y0042053D01*
X0011863Y0041934D01*
X0012017Y0041817D01*
X0012174Y0041705D01*
X0012333Y0041596D01*
X0012495Y0041492D01*
X0012660Y0041391D01*
X0012826Y0041294D01*
X0012996Y0041201D01*
X0013167Y0041113D01*
X0013340Y0041028D01*
X0013516Y0040948D01*
X0013693Y0040872D01*
X0013872Y0040800D01*
X0014053Y0040733D01*
X0014235Y0040670D01*
X0014419Y0040612D01*
X0014604Y0040558D01*
X0014790Y0040508D01*
X0014978Y0040463D01*
X0015166Y0040422D01*
X0015355Y0040386D01*
X0015546Y0040355D01*
X0015737Y0040328D01*
X0015928Y0040306D01*
X0016120Y0040289D01*
X0016313Y0040276D01*
X0016505Y0040268D01*
X0016698Y0040264D01*
X0016698Y0040358D01*
X0016508Y0040362D01*
X0016317Y0040370D01*
X0016127Y0040382D01*
X0015937Y0040400D01*
X0015748Y0040422D01*
X0015560Y0040448D01*
X0015372Y0040479D01*
X0015184Y0040515D01*
X0014998Y0040555D01*
X0014813Y0040599D01*
X0014629Y0040648D01*
X0014446Y0040702D01*
X0014264Y0040759D01*
X0014084Y0040822D01*
X0013906Y0040888D01*
X0013729Y0040959D01*
X0013554Y0041034D01*
X0013380Y0041113D01*
X0013209Y0041197D01*
X0013040Y0041284D01*
X0012873Y0041376D01*
X0012708Y0041472D01*
X0012545Y0041571D01*
X0012385Y0041675D01*
X0012228Y0041782D01*
X0012073Y0041893D01*
X0011921Y0042008D01*
X0011772Y0042126D01*
X0011626Y0042248D01*
X0011482Y0042374D01*
X0011342Y0042503D01*
X0011205Y0042635D01*
X0011071Y0042771D01*
X0010940Y0042909D01*
X0010813Y0043051D01*
X0010689Y0043196D01*
X0010569Y0043344D01*
X0010453Y0043495D01*
X0010340Y0043648D01*
X0010231Y0043804D01*
X0010125Y0043963D01*
X0010024Y0044124D01*
X0009926Y0044288D01*
X0010008Y0044335D01*
X0010104Y0044173D01*
X0010204Y0044014D01*
X0010308Y0043857D01*
X0010416Y0043702D01*
X0010528Y0043551D01*
X0010643Y0043402D01*
X0010762Y0043256D01*
X0010884Y0043113D01*
X0011010Y0042973D01*
X0011139Y0042836D01*
X0011271Y0042702D01*
X0011407Y0042571D01*
X0011545Y0042444D01*
X0011687Y0042320D01*
X0011831Y0042199D01*
X0011979Y0042082D01*
X0012129Y0041969D01*
X0012282Y0041859D01*
X0012438Y0041753D01*
X0012596Y0041651D01*
X0012756Y0041552D01*
X0012919Y0041458D01*
X0013084Y0041367D01*
X0013251Y0041281D01*
X0013420Y0041198D01*
X0013591Y0041120D01*
X0013764Y0041046D01*
X0013939Y0040976D01*
X0014116Y0040910D01*
X0014294Y0040849D01*
X0014473Y0040792D01*
X0014654Y0040739D01*
X0014836Y0040690D01*
X0015019Y0040646D01*
X0015203Y0040607D01*
X0015388Y0040572D01*
X0015573Y0040541D01*
X0015760Y0040515D01*
X0015947Y0040493D01*
X0016134Y0040476D01*
X0016322Y0040464D01*
X0016510Y0040456D01*
X0016698Y0040452D01*
X0016698Y0040546D01*
X0016512Y0040550D01*
X0016327Y0040558D01*
X0016141Y0040570D01*
X0015956Y0040587D01*
X0015771Y0040608D01*
X0015587Y0040634D01*
X0015404Y0040664D01*
X0015221Y0040699D01*
X0015039Y0040738D01*
X0014858Y0040782D01*
X0014679Y0040829D01*
X0014500Y0040882D01*
X0014323Y0040938D01*
X0014147Y0040999D01*
X0013973Y0041064D01*
X0013800Y0041133D01*
X0013629Y0041206D01*
X0013460Y0041283D01*
X0013293Y0041365D01*
X0013128Y0041450D01*
X0012965Y0041540D01*
X0012804Y0041633D01*
X0012646Y0041730D01*
X0012490Y0041831D01*
X0012336Y0041936D01*
X0012185Y0042044D01*
X0012036Y0042156D01*
X0011891Y0042272D01*
X0011748Y0042391D01*
X0011608Y0042513D01*
X0011471Y0042639D01*
X0011337Y0042768D01*
X0011207Y0042901D01*
X0011079Y0043036D01*
X0010955Y0043174D01*
X0010834Y0043316D01*
X0010717Y0043460D01*
X0010603Y0043607D01*
X0010493Y0043757D01*
X0010386Y0043909D01*
X0010284Y0044064D01*
X0010185Y0044222D01*
X0010089Y0044381D01*
X0010171Y0044428D01*
X0010265Y0044270D01*
X0010363Y0044115D01*
X0010464Y0043962D01*
X0010570Y0043811D01*
X0010679Y0043663D01*
X0010791Y0043518D01*
X0010907Y0043376D01*
X0011026Y0043236D01*
X0011149Y0043099D01*
X0011275Y0042966D01*
X0011404Y0042835D01*
X0011536Y0042707D01*
X0011671Y0042583D01*
X0011809Y0042462D01*
X0011950Y0042345D01*
X0012094Y0042231D01*
X0012241Y0042120D01*
X0012390Y0042013D01*
X0012542Y0041909D01*
X0012696Y0041810D01*
X0012852Y0041714D01*
X0013011Y0041622D01*
X0013172Y0041533D01*
X0013335Y0041449D01*
X0013500Y0041368D01*
X0013667Y0041292D01*
X0013836Y0041220D01*
X0014007Y0041151D01*
X0014179Y0041087D01*
X0014352Y0041027D01*
X0014527Y0040971D01*
X0014704Y0040920D01*
X0014881Y0040873D01*
X0015060Y0040830D01*
X0015239Y0040791D01*
X0015420Y0040757D01*
X0015601Y0040727D01*
X0015783Y0040702D01*
X0015965Y0040680D01*
X0016148Y0040664D01*
X0016331Y0040651D01*
X0016515Y0040644D01*
X0016698Y0040640D01*
X0016797Y0039795D02*
X0016797Y0040695D01*
X0016798Y0040694D02*
X0016982Y0040698D01*
X0017167Y0040706D01*
X0017351Y0040718D01*
X0017534Y0040735D01*
X0017718Y0040757D01*
X0017900Y0040782D01*
X0018082Y0040813D01*
X0018263Y0040848D01*
X0018444Y0040887D01*
X0018623Y0040931D01*
X0018801Y0040979D01*
X0018978Y0041031D01*
X0019154Y0041088D01*
X0019328Y0041148D01*
X0019500Y0041214D01*
X0019671Y0041283D01*
X0019841Y0041356D01*
X0020008Y0041434D01*
X0020173Y0041516D01*
X0020337Y0041601D01*
X0020498Y0041691D01*
X0020657Y0041785D01*
X0020814Y0041882D01*
X0020968Y0041983D01*
X0021120Y0042088D01*
X0021269Y0042197D01*
X0021415Y0042309D01*
X0021559Y0042425D01*
X0021699Y0042544D01*
X0021837Y0042667D01*
X0021972Y0042793D01*
X0022104Y0042922D01*
X0022232Y0043055D01*
X0022357Y0043190D01*
X0022479Y0043329D01*
X0023166Y0042748D01*
X0023030Y0042592D01*
X0022889Y0042440D01*
X0022745Y0042291D01*
X0022598Y0042146D01*
X0022447Y0042005D01*
X0022293Y0041868D01*
X0022135Y0041734D01*
X0021974Y0041604D01*
X0021810Y0041478D01*
X0021643Y0041356D01*
X0021473Y0041238D01*
X0021300Y0041125D01*
X0021124Y0041016D01*
X0020946Y0040911D01*
X0020765Y0040810D01*
X0020582Y0040714D01*
X0020397Y0040622D01*
X0020209Y0040535D01*
X0020019Y0040453D01*
X0019828Y0040375D01*
X0019634Y0040302D01*
X0019439Y0040234D01*
X0019242Y0040170D01*
X0019044Y0040112D01*
X0018844Y0040058D01*
X0018643Y0040009D01*
X0018441Y0039965D01*
X0018238Y0039926D01*
X0018034Y0039892D01*
X0017829Y0039863D01*
X0017624Y0039839D01*
X0017418Y0039821D01*
X0017211Y0039807D01*
X0017005Y0039798D01*
X0016798Y0039794D01*
X0016798Y0039888D01*
X0017002Y0039892D01*
X0017207Y0039901D01*
X0017411Y0039914D01*
X0017614Y0039933D01*
X0017817Y0039957D01*
X0018020Y0039985D01*
X0018222Y0040019D01*
X0018422Y0040057D01*
X0018622Y0040101D01*
X0018821Y0040149D01*
X0019018Y0040202D01*
X0019215Y0040260D01*
X0019409Y0040323D01*
X0019602Y0040391D01*
X0019794Y0040463D01*
X0019983Y0040540D01*
X0020171Y0040621D01*
X0020356Y0040707D01*
X0020539Y0040798D01*
X0020721Y0040893D01*
X0020899Y0040992D01*
X0021075Y0041096D01*
X0021249Y0041204D01*
X0021420Y0041316D01*
X0021588Y0041433D01*
X0021753Y0041553D01*
X0021916Y0041678D01*
X0022075Y0041806D01*
X0022231Y0041938D01*
X0022383Y0042074D01*
X0022533Y0042214D01*
X0022678Y0042357D01*
X0022821Y0042504D01*
X0022959Y0042655D01*
X0023094Y0042808D01*
X0023023Y0042869D01*
X0022889Y0042717D01*
X0022752Y0042568D01*
X0022611Y0042423D01*
X0022467Y0042282D01*
X0022320Y0042143D01*
X0022169Y0042009D01*
X0022015Y0041878D01*
X0021857Y0041751D01*
X0021697Y0041628D01*
X0021533Y0041509D01*
X0021367Y0041394D01*
X0021198Y0041283D01*
X0021027Y0041176D01*
X0020852Y0041074D01*
X0020676Y0040975D01*
X0020497Y0040881D01*
X0020315Y0040792D01*
X0020132Y0040707D01*
X0019947Y0040626D01*
X0019759Y0040550D01*
X0019570Y0040479D01*
X0019379Y0040412D01*
X0019187Y0040350D01*
X0018993Y0040293D01*
X0018798Y0040240D01*
X0018601Y0040193D01*
X0018404Y0040150D01*
X0018205Y0040112D01*
X0018006Y0040078D01*
X0017806Y0040050D01*
X0017605Y0040027D01*
X0017404Y0040008D01*
X0017202Y0039994D01*
X0017000Y0039986D01*
X0016798Y0039982D01*
X0016798Y0040076D01*
X0016998Y0040080D01*
X0017197Y0040088D01*
X0017397Y0040102D01*
X0017596Y0040120D01*
X0017794Y0040143D01*
X0017992Y0040171D01*
X0018189Y0040204D01*
X0018385Y0040242D01*
X0018581Y0040284D01*
X0018775Y0040331D01*
X0018968Y0040383D01*
X0019159Y0040440D01*
X0019350Y0040501D01*
X0019538Y0040567D01*
X0019725Y0040638D01*
X0019910Y0040713D01*
X0020094Y0040793D01*
X0020275Y0040877D01*
X0020454Y0040965D01*
X0020631Y0041058D01*
X0020806Y0041155D01*
X0020978Y0041257D01*
X0021147Y0041362D01*
X0021315Y0041472D01*
X0021479Y0041586D01*
X0021640Y0041703D01*
X0021799Y0041825D01*
X0021954Y0041950D01*
X0022107Y0042080D01*
X0022256Y0042213D01*
X0022402Y0042349D01*
X0022544Y0042489D01*
X0022683Y0042633D01*
X0022819Y0042780D01*
X0022951Y0042930D01*
X0022879Y0042990D01*
X0022749Y0042842D01*
X0022615Y0042697D01*
X0022477Y0042555D01*
X0022336Y0042417D01*
X0022192Y0042282D01*
X0022045Y0042150D01*
X0021894Y0042023D01*
X0021740Y0041899D01*
X0021584Y0041778D01*
X0021424Y0041662D01*
X0021262Y0041550D01*
X0021097Y0041441D01*
X0020929Y0041337D01*
X0020759Y0041237D01*
X0020586Y0041141D01*
X0020411Y0041049D01*
X0020234Y0040961D01*
X0020055Y0040878D01*
X0019874Y0040800D01*
X0019691Y0040725D01*
X0019506Y0040656D01*
X0019320Y0040591D01*
X0019132Y0040530D01*
X0018942Y0040474D01*
X0018752Y0040423D01*
X0018560Y0040376D01*
X0018367Y0040334D01*
X0018173Y0040297D01*
X0017978Y0040264D01*
X0017782Y0040237D01*
X0017586Y0040214D01*
X0017390Y0040196D01*
X0017193Y0040182D01*
X0016995Y0040174D01*
X0016798Y0040170D01*
X0016798Y0040264D01*
X0016993Y0040268D01*
X0017188Y0040276D01*
X0017383Y0040289D01*
X0017577Y0040307D01*
X0017771Y0040330D01*
X0017964Y0040357D01*
X0018157Y0040389D01*
X0018348Y0040426D01*
X0018539Y0040468D01*
X0018729Y0040514D01*
X0018917Y0040564D01*
X0019104Y0040620D01*
X0019290Y0040680D01*
X0019474Y0040744D01*
X0019657Y0040813D01*
X0019838Y0040886D01*
X0020017Y0040964D01*
X0020194Y0041046D01*
X0020369Y0041133D01*
X0020541Y0041223D01*
X0020712Y0041318D01*
X0020880Y0041417D01*
X0021046Y0041520D01*
X0021209Y0041627D01*
X0021370Y0041738D01*
X0021527Y0041853D01*
X0021682Y0041972D01*
X0021834Y0042095D01*
X0021983Y0042221D01*
X0022129Y0042351D01*
X0022271Y0042484D01*
X0022410Y0042621D01*
X0022546Y0042761D01*
X0022678Y0042905D01*
X0022807Y0043051D01*
X0022735Y0043112D01*
X0022608Y0042967D01*
X0022477Y0042825D01*
X0022343Y0042687D01*
X0022206Y0042552D01*
X0022065Y0042420D01*
X0021921Y0042292D01*
X0021774Y0042167D01*
X0021624Y0042046D01*
X0021471Y0041929D01*
X0021315Y0041815D01*
X0021156Y0041705D01*
X0020995Y0041599D01*
X0020831Y0041498D01*
X0020665Y0041400D01*
X0020497Y0041306D01*
X0020326Y0041216D01*
X0020153Y0041131D01*
X0019978Y0041050D01*
X0019801Y0040973D01*
X0019623Y0040901D01*
X0019442Y0040832D01*
X0019260Y0040769D01*
X0019077Y0040710D01*
X0018892Y0040655D01*
X0018706Y0040605D01*
X0018518Y0040559D01*
X0018330Y0040518D01*
X0018140Y0040482D01*
X0017950Y0040450D01*
X0017759Y0040423D01*
X0017568Y0040401D01*
X0017376Y0040383D01*
X0017183Y0040370D01*
X0016991Y0040362D01*
X0016798Y0040358D01*
X0016798Y0040452D01*
X0016988Y0040456D01*
X0017179Y0040464D01*
X0017369Y0040477D01*
X0017558Y0040494D01*
X0017748Y0040516D01*
X0017936Y0040543D01*
X0018124Y0040574D01*
X0018311Y0040610D01*
X0018497Y0040651D01*
X0018682Y0040696D01*
X0018866Y0040745D01*
X0019049Y0040800D01*
X0019230Y0040858D01*
X0019410Y0040921D01*
X0019588Y0040988D01*
X0019765Y0041060D01*
X0019940Y0041136D01*
X0020112Y0041216D01*
X0020283Y0041300D01*
X0020452Y0041389D01*
X0020618Y0041481D01*
X0020783Y0041578D01*
X0020944Y0041678D01*
X0021104Y0041783D01*
X0021260Y0041891D01*
X0021414Y0042004D01*
X0021565Y0042120D01*
X0021714Y0042239D01*
X0021859Y0042362D01*
X0022001Y0042489D01*
X0022140Y0042619D01*
X0022276Y0042753D01*
X0022409Y0042889D01*
X0022538Y0043029D01*
X0022664Y0043173D01*
X0022592Y0043233D01*
X0022468Y0043092D01*
X0022340Y0042954D01*
X0022209Y0042819D01*
X0022075Y0042687D01*
X0021938Y0042558D01*
X0021797Y0042433D01*
X0021653Y0042311D01*
X0021507Y0042193D01*
X0021358Y0042079D01*
X0021206Y0041968D01*
X0021051Y0041861D01*
X0020894Y0041758D01*
X0020734Y0041658D01*
X0020572Y0041563D01*
X0020407Y0041471D01*
X0020241Y0041384D01*
X0020072Y0041301D01*
X0019901Y0041221D01*
X0019729Y0041146D01*
X0019554Y0041076D01*
X0019378Y0041009D01*
X0019201Y0040947D01*
X0019021Y0040889D01*
X0018841Y0040836D01*
X0018659Y0040787D01*
X0018477Y0040743D01*
X0018293Y0040703D01*
X0018108Y0040667D01*
X0017922Y0040636D01*
X0017736Y0040610D01*
X0017549Y0040588D01*
X0017362Y0040571D01*
X0017174Y0040558D01*
X0016986Y0040550D01*
X0016798Y0040546D01*
X0016798Y0040640D01*
X0016984Y0040644D01*
X0017169Y0040652D01*
X0017355Y0040664D01*
X0017540Y0040681D01*
X0017724Y0040703D01*
X0017908Y0040729D01*
X0018092Y0040760D01*
X0018274Y0040795D01*
X0018456Y0040834D01*
X0018636Y0040878D01*
X0018816Y0040927D01*
X0018994Y0040979D01*
X0019171Y0041036D01*
X0019346Y0041098D01*
X0019520Y0041163D01*
X0019692Y0041233D01*
X0019863Y0041307D01*
X0020031Y0041385D01*
X0020198Y0041468D01*
X0020362Y0041554D01*
X0020525Y0041644D01*
X0020685Y0041739D01*
X0020843Y0041837D01*
X0020998Y0041939D01*
X0021151Y0042044D01*
X0021301Y0042154D01*
X0021449Y0042267D01*
X0021593Y0042384D01*
X0021735Y0042504D01*
X0021874Y0042627D01*
X0022010Y0042754D01*
X0022142Y0042884D01*
X0022271Y0043018D01*
X0022398Y0043154D01*
X0022520Y0043294D01*
X0023207Y0053692D02*
X0022515Y0053115D01*
X0022516Y0053116D02*
X0022397Y0053253D01*
X0022276Y0053387D01*
X0022151Y0053518D01*
X0022023Y0053646D01*
X0021892Y0053770D01*
X0021758Y0053892D01*
X0021621Y0054011D01*
X0021482Y0054126D01*
X0021339Y0054237D01*
X0021194Y0054346D01*
X0021047Y0054451D01*
X0020897Y0054552D01*
X0020745Y0054649D01*
X0020590Y0054743D01*
X0020433Y0054834D01*
X0020274Y0054920D01*
X0020113Y0055003D01*
X0019950Y0055081D01*
X0019785Y0055156D01*
X0019619Y0055227D01*
X0019451Y0055294D01*
X0019281Y0055356D01*
X0019110Y0055415D01*
X0018937Y0055470D01*
X0018764Y0055520D01*
X0018589Y0055566D01*
X0018413Y0055608D01*
X0018236Y0055646D01*
X0018058Y0055679D01*
X0017879Y0055709D01*
X0017700Y0055734D01*
X0017520Y0055754D01*
X0017340Y0055771D01*
X0017160Y0055783D01*
X0016979Y0055790D01*
X0016798Y0055794D01*
X0016797Y0056693D01*
X0016798Y0056694D01*
X0017001Y0056690D01*
X0017203Y0056682D01*
X0017406Y0056668D01*
X0017608Y0056650D01*
X0017809Y0056627D01*
X0018010Y0056599D01*
X0018210Y0056566D01*
X0018410Y0056529D01*
X0018608Y0056487D01*
X0018806Y0056440D01*
X0019002Y0056388D01*
X0019196Y0056331D01*
X0019390Y0056270D01*
X0019582Y0056205D01*
X0019772Y0056134D01*
X0019961Y0056059D01*
X0020147Y0055980D01*
X0020332Y0055896D01*
X0020515Y0055808D01*
X0020695Y0055715D01*
X0020873Y0055619D01*
X0021049Y0055517D01*
X0021222Y0055412D01*
X0021393Y0055303D01*
X0021561Y0055189D01*
X0021727Y0055072D01*
X0021889Y0054950D01*
X0022049Y0054825D01*
X0022205Y0054696D01*
X0022358Y0054563D01*
X0022508Y0054426D01*
X0022655Y0054286D01*
X0022798Y0054143D01*
X0022938Y0053996D01*
X0023075Y0053846D01*
X0023207Y0053692D01*
X0023135Y0053632D01*
X0023004Y0053784D01*
X0022869Y0053932D01*
X0022731Y0054077D01*
X0022589Y0054219D01*
X0022444Y0054358D01*
X0022296Y0054493D01*
X0022144Y0054624D01*
X0021989Y0054752D01*
X0021832Y0054876D01*
X0021671Y0054996D01*
X0021508Y0055112D01*
X0021341Y0055224D01*
X0021173Y0055332D01*
X0021001Y0055437D01*
X0020827Y0055537D01*
X0020651Y0055632D01*
X0020473Y0055724D01*
X0020292Y0055811D01*
X0020109Y0055894D01*
X0019925Y0055973D01*
X0019739Y0056047D01*
X0019550Y0056116D01*
X0019361Y0056181D01*
X0019169Y0056241D01*
X0018977Y0056297D01*
X0018783Y0056348D01*
X0018588Y0056395D01*
X0018392Y0056437D01*
X0018195Y0056474D01*
X0017997Y0056506D01*
X0017798Y0056534D01*
X0017599Y0056557D01*
X0017399Y0056575D01*
X0017199Y0056588D01*
X0016998Y0056596D01*
X0016798Y0056600D01*
X0016798Y0056506D01*
X0016996Y0056502D01*
X0017194Y0056494D01*
X0017392Y0056481D01*
X0017590Y0056463D01*
X0017787Y0056440D01*
X0017983Y0056413D01*
X0018179Y0056381D01*
X0018373Y0056345D01*
X0018567Y0056303D01*
X0018760Y0056257D01*
X0018952Y0056207D01*
X0019142Y0056151D01*
X0019331Y0056092D01*
X0019519Y0056027D01*
X0019705Y0055959D01*
X0019889Y0055886D01*
X0020072Y0055808D01*
X0020252Y0055726D01*
X0020431Y0055640D01*
X0020607Y0055549D01*
X0020781Y0055455D01*
X0020953Y0055356D01*
X0021123Y0055253D01*
X0021290Y0055146D01*
X0021454Y0055035D01*
X0021615Y0054920D01*
X0021774Y0054801D01*
X0021930Y0054679D01*
X0022083Y0054553D01*
X0022233Y0054423D01*
X0022380Y0054289D01*
X0022523Y0054152D01*
X0022663Y0054012D01*
X0022800Y0053869D01*
X0022933Y0053722D01*
X0023063Y0053572D01*
X0022991Y0053512D01*
X0022862Y0053660D01*
X0022731Y0053805D01*
X0022596Y0053947D01*
X0022457Y0054085D01*
X0022315Y0054221D01*
X0022170Y0054353D01*
X0022022Y0054481D01*
X0021871Y0054606D01*
X0021717Y0054727D01*
X0021560Y0054844D01*
X0021400Y0054958D01*
X0021238Y0055067D01*
X0021073Y0055173D01*
X0020905Y0055275D01*
X0020735Y0055373D01*
X0020563Y0055466D01*
X0020389Y0055556D01*
X0020212Y0055641D01*
X0020034Y0055722D01*
X0019854Y0055799D01*
X0019671Y0055871D01*
X0019488Y0055939D01*
X0019302Y0056002D01*
X0019115Y0056061D01*
X0018927Y0056116D01*
X0018738Y0056166D01*
X0018547Y0056211D01*
X0018355Y0056252D01*
X0018163Y0056289D01*
X0017969Y0056320D01*
X0017775Y0056347D01*
X0017580Y0056369D01*
X0017385Y0056387D01*
X0017190Y0056400D01*
X0016994Y0056408D01*
X0016798Y0056412D01*
X0016798Y0056318D01*
X0016992Y0056314D01*
X0017185Y0056306D01*
X0017378Y0056293D01*
X0017571Y0056276D01*
X0017764Y0056254D01*
X0017956Y0056227D01*
X0018147Y0056196D01*
X0018337Y0056160D01*
X0018527Y0056120D01*
X0018715Y0056075D01*
X0018902Y0056025D01*
X0019088Y0055971D01*
X0019273Y0055913D01*
X0019456Y0055850D01*
X0019638Y0055783D01*
X0019818Y0055712D01*
X0019996Y0055636D01*
X0020173Y0055556D01*
X0020347Y0055472D01*
X0020519Y0055383D01*
X0020689Y0055291D01*
X0020857Y0055194D01*
X0021023Y0055093D01*
X0021186Y0054989D01*
X0021346Y0054881D01*
X0021504Y0054768D01*
X0021659Y0054652D01*
X0021812Y0054533D01*
X0021961Y0054409D01*
X0022108Y0054283D01*
X0022251Y0054152D01*
X0022391Y0054019D01*
X0022528Y0053882D01*
X0022661Y0053741D01*
X0022792Y0053598D01*
X0022918Y0053451D01*
X0022846Y0053391D01*
X0022721Y0053536D01*
X0022592Y0053678D01*
X0022460Y0053816D01*
X0022325Y0053952D01*
X0022186Y0054084D01*
X0022045Y0054213D01*
X0021900Y0054338D01*
X0021753Y0054460D01*
X0021602Y0054578D01*
X0021449Y0054693D01*
X0021293Y0054803D01*
X0021134Y0054911D01*
X0020973Y0055014D01*
X0020809Y0055113D01*
X0020643Y0055209D01*
X0020475Y0055300D01*
X0020305Y0055387D01*
X0020133Y0055471D01*
X0019958Y0055550D01*
X0019782Y0055625D01*
X0019604Y0055695D01*
X0019425Y0055762D01*
X0019244Y0055824D01*
X0019061Y0055881D01*
X0018877Y0055935D01*
X0018692Y0055984D01*
X0018506Y0056028D01*
X0018319Y0056068D01*
X0018131Y0056103D01*
X0017942Y0056134D01*
X0017752Y0056161D01*
X0017562Y0056182D01*
X0017372Y0056200D01*
X0017181Y0056212D01*
X0016989Y0056220D01*
X0016798Y0056224D01*
X0016798Y0056130D01*
X0016987Y0056126D01*
X0017176Y0056118D01*
X0017365Y0056106D01*
X0017553Y0056089D01*
X0017741Y0056067D01*
X0017928Y0056041D01*
X0018115Y0056011D01*
X0018301Y0055976D01*
X0018486Y0055936D01*
X0018670Y0055892D01*
X0018852Y0055844D01*
X0019034Y0055791D01*
X0019214Y0055734D01*
X0019393Y0055673D01*
X0019571Y0055607D01*
X0019747Y0055538D01*
X0019921Y0055464D01*
X0020093Y0055386D01*
X0020263Y0055303D01*
X0020431Y0055217D01*
X0020597Y0055127D01*
X0020761Y0055032D01*
X0020923Y0054934D01*
X0021082Y0054832D01*
X0021239Y0054726D01*
X0021393Y0054617D01*
X0021545Y0054503D01*
X0021693Y0054387D01*
X0021839Y0054266D01*
X0021982Y0054143D01*
X0022122Y0054015D01*
X0022259Y0053885D01*
X0022393Y0053751D01*
X0022523Y0053614D01*
X0022650Y0053474D01*
X0022774Y0053331D01*
X0022702Y0053271D01*
X0022579Y0053412D01*
X0022454Y0053550D01*
X0022325Y0053686D01*
X0022193Y0053818D01*
X0022058Y0053947D01*
X0021919Y0054072D01*
X0021778Y0054195D01*
X0021634Y0054314D01*
X0021487Y0054429D01*
X0021338Y0054541D01*
X0021185Y0054649D01*
X0021030Y0054754D01*
X0020873Y0054854D01*
X0020713Y0054951D01*
X0020552Y0055045D01*
X0020387Y0055134D01*
X0020221Y0055219D01*
X0020053Y0055300D01*
X0019883Y0055378D01*
X0019711Y0055451D01*
X0019537Y0055520D01*
X0019362Y0055584D01*
X0019185Y0055645D01*
X0019007Y0055701D01*
X0018828Y0055753D01*
X0018647Y0055801D01*
X0018465Y0055844D01*
X0018283Y0055883D01*
X0018099Y0055918D01*
X0017915Y0055948D01*
X0017730Y0055974D01*
X0017544Y0055995D01*
X0017358Y0056012D01*
X0017171Y0056024D01*
X0016985Y0056032D01*
X0016798Y0056036D01*
X0016798Y0055942D01*
X0016982Y0055938D01*
X0017167Y0055931D01*
X0017351Y0055918D01*
X0017535Y0055902D01*
X0017718Y0055881D01*
X0017901Y0055855D01*
X0018083Y0055825D01*
X0018264Y0055791D01*
X0018445Y0055753D01*
X0018624Y0055710D01*
X0018803Y0055663D01*
X0018980Y0055611D01*
X0019156Y0055556D01*
X0019331Y0055496D01*
X0019504Y0055432D01*
X0019675Y0055364D01*
X0019845Y0055292D01*
X0020013Y0055215D01*
X0020179Y0055135D01*
X0020343Y0055051D01*
X0020506Y0054963D01*
X0020666Y0054871D01*
X0020823Y0054775D01*
X0020979Y0054675D01*
X0021132Y0054572D01*
X0021282Y0054465D01*
X0021430Y0054355D01*
X0021575Y0054241D01*
X0021717Y0054123D01*
X0021857Y0054002D01*
X0021993Y0053878D01*
X0022127Y0053751D01*
X0022257Y0053620D01*
X0022385Y0053487D01*
X0022509Y0053350D01*
X0022629Y0053211D01*
X0022557Y0053150D01*
X0022438Y0053288D01*
X0022315Y0053423D01*
X0022190Y0053555D01*
X0022061Y0053684D01*
X0021929Y0053810D01*
X0021794Y0053932D01*
X0021656Y0054052D01*
X0021516Y0054168D01*
X0021372Y0054280D01*
X0021226Y0054389D01*
X0021078Y0054495D01*
X0020927Y0054597D01*
X0020773Y0054695D01*
X0020618Y0054790D01*
X0020460Y0054881D01*
X0020299Y0054968D01*
X0020137Y0055051D01*
X0019973Y0055130D01*
X0019807Y0055205D01*
X0019639Y0055277D01*
X0019470Y0055344D01*
X0019299Y0055407D01*
X0019127Y0055466D01*
X0018953Y0055521D01*
X0018778Y0055572D01*
X0018602Y0055619D01*
X0018424Y0055661D01*
X0018246Y0055699D01*
X0018067Y0055733D01*
X0017887Y0055762D01*
X0017707Y0055787D01*
X0017526Y0055808D01*
X0017344Y0055825D01*
X0017162Y0055837D01*
X0016980Y0055844D01*
X0016798Y0055848D01*
X0016698Y0076378D02*
X0016698Y0075478D01*
X0016698Y0075479D02*
X0016515Y0075475D01*
X0016332Y0075468D01*
X0016149Y0075455D01*
X0015966Y0075438D01*
X0015784Y0075417D01*
X0015603Y0075392D01*
X0015422Y0075362D01*
X0015242Y0075327D01*
X0015063Y0075289D01*
X0014885Y0075246D01*
X0014708Y0075198D01*
X0014533Y0075147D01*
X0014358Y0075091D01*
X0014185Y0075031D01*
X0014014Y0074966D01*
X0013844Y0074898D01*
X0013675Y0074826D01*
X0013509Y0074749D01*
X0013345Y0074668D01*
X0013182Y0074584D01*
X0013022Y0074495D01*
X0012863Y0074403D01*
X0012707Y0074307D01*
X0012554Y0074207D01*
X0012403Y0074103D01*
X0012254Y0073996D01*
X0012108Y0073885D01*
X0011965Y0073771D01*
X0011825Y0073653D01*
X0011688Y0073532D01*
X0011553Y0073408D01*
X0011422Y0073280D01*
X0011293Y0073149D01*
X0011168Y0073015D01*
X0011047Y0072879D01*
X0010928Y0072739D01*
X0010813Y0072596D01*
X0010702Y0072451D01*
X0010594Y0072303D01*
X0010490Y0072152D01*
X0010389Y0071999D01*
X0010292Y0071844D01*
X0010199Y0071686D01*
X0010110Y0071526D01*
X0009316Y0071949D01*
X0009416Y0072129D01*
X0009520Y0072306D01*
X0009628Y0072480D01*
X0009741Y0072652D01*
X0009858Y0072820D01*
X0009979Y0072986D01*
X0010103Y0073149D01*
X0010232Y0073309D01*
X0010365Y0073466D01*
X0010501Y0073619D01*
X0010641Y0073769D01*
X0010785Y0073916D01*
X0010932Y0074059D01*
X0011083Y0074199D01*
X0011237Y0074334D01*
X0011394Y0074466D01*
X0011554Y0074594D01*
X0011718Y0074719D01*
X0011884Y0074839D01*
X0012054Y0074955D01*
X0012226Y0075067D01*
X0012400Y0075175D01*
X0012578Y0075278D01*
X0012757Y0075377D01*
X0012940Y0075472D01*
X0013124Y0075562D01*
X0013310Y0075648D01*
X0013499Y0075729D01*
X0013689Y0075806D01*
X0013882Y0075878D01*
X0014076Y0075945D01*
X0014271Y0076008D01*
X0014468Y0076066D01*
X0014666Y0076119D01*
X0014866Y0076167D01*
X0015067Y0076210D01*
X0015268Y0076248D01*
X0015471Y0076282D01*
X0015674Y0076310D01*
X0015878Y0076334D01*
X0016083Y0076353D01*
X0016287Y0076366D01*
X0016492Y0076375D01*
X0016698Y0076379D01*
X0016698Y0076285D01*
X0016495Y0076281D01*
X0016292Y0076273D01*
X0016089Y0076259D01*
X0015887Y0076241D01*
X0015686Y0076217D01*
X0015485Y0076189D01*
X0015284Y0076156D01*
X0015085Y0076118D01*
X0014887Y0076075D01*
X0014689Y0076027D01*
X0014493Y0075975D01*
X0014298Y0075918D01*
X0014105Y0075856D01*
X0013913Y0075789D01*
X0013723Y0075718D01*
X0013535Y0075643D01*
X0013349Y0075562D01*
X0013164Y0075477D01*
X0012982Y0075388D01*
X0012802Y0075294D01*
X0012624Y0075196D01*
X0012449Y0075094D01*
X0012276Y0074988D01*
X0012106Y0074877D01*
X0011938Y0074762D01*
X0011774Y0074643D01*
X0011612Y0074520D01*
X0011454Y0074394D01*
X0011298Y0074263D01*
X0011146Y0074129D01*
X0010997Y0073991D01*
X0010851Y0073850D01*
X0010709Y0073705D01*
X0010571Y0073556D01*
X0010436Y0073405D01*
X0010305Y0073250D01*
X0010178Y0073092D01*
X0010054Y0072930D01*
X0009935Y0072766D01*
X0009819Y0072599D01*
X0009708Y0072430D01*
X0009600Y0072257D01*
X0009497Y0072082D01*
X0009399Y0071905D01*
X0009482Y0071861D01*
X0009579Y0072036D01*
X0009681Y0072209D01*
X0009787Y0072379D01*
X0009897Y0072547D01*
X0010011Y0072712D01*
X0010130Y0072874D01*
X0010252Y0073034D01*
X0010378Y0073190D01*
X0010507Y0073343D01*
X0010641Y0073493D01*
X0010777Y0073640D01*
X0010918Y0073783D01*
X0011062Y0073923D01*
X0011209Y0074059D01*
X0011360Y0074192D01*
X0011513Y0074321D01*
X0011670Y0074446D01*
X0011830Y0074568D01*
X0011993Y0074685D01*
X0012158Y0074799D01*
X0012326Y0074908D01*
X0012497Y0075014D01*
X0012670Y0075115D01*
X0012846Y0075212D01*
X0013024Y0075304D01*
X0013204Y0075392D01*
X0013387Y0075476D01*
X0013571Y0075556D01*
X0013757Y0075631D01*
X0013945Y0075701D01*
X0014135Y0075767D01*
X0014326Y0075828D01*
X0014518Y0075884D01*
X0014712Y0075936D01*
X0014907Y0075983D01*
X0015103Y0076026D01*
X0015301Y0076063D01*
X0015499Y0076096D01*
X0015697Y0076124D01*
X0015897Y0076147D01*
X0016096Y0076165D01*
X0016297Y0076179D01*
X0016497Y0076187D01*
X0016698Y0076191D01*
X0016698Y0076097D01*
X0016499Y0076093D01*
X0016301Y0076085D01*
X0016103Y0076072D01*
X0015906Y0076053D01*
X0015709Y0076031D01*
X0015512Y0076003D01*
X0015317Y0075971D01*
X0015122Y0075933D01*
X0014928Y0075892D01*
X0014735Y0075845D01*
X0014543Y0075794D01*
X0014353Y0075738D01*
X0014164Y0075678D01*
X0013977Y0075613D01*
X0013791Y0075543D01*
X0013607Y0075469D01*
X0013425Y0075390D01*
X0013245Y0075307D01*
X0013066Y0075220D01*
X0012890Y0075129D01*
X0012717Y0075033D01*
X0012545Y0074933D01*
X0012377Y0074829D01*
X0012210Y0074721D01*
X0012047Y0074608D01*
X0011886Y0074492D01*
X0011728Y0074372D01*
X0011573Y0074248D01*
X0011421Y0074121D01*
X0011272Y0073990D01*
X0011127Y0073855D01*
X0010984Y0073717D01*
X0010846Y0073575D01*
X0010710Y0073430D01*
X0010578Y0073282D01*
X0010450Y0073130D01*
X0010326Y0072976D01*
X0010205Y0072819D01*
X0010088Y0072658D01*
X0009975Y0072495D01*
X0009867Y0072329D01*
X0009762Y0072161D01*
X0009661Y0071990D01*
X0009565Y0071817D01*
X0009647Y0071772D01*
X0009743Y0071944D01*
X0009842Y0072113D01*
X0009946Y0072279D01*
X0010054Y0072443D01*
X0010165Y0072604D01*
X0010281Y0072763D01*
X0010400Y0072918D01*
X0010523Y0073071D01*
X0010650Y0073220D01*
X0010780Y0073367D01*
X0010914Y0073510D01*
X0011051Y0073650D01*
X0011192Y0073787D01*
X0011335Y0073920D01*
X0011482Y0074050D01*
X0011633Y0074176D01*
X0011786Y0074298D01*
X0011942Y0074417D01*
X0012101Y0074532D01*
X0012263Y0074642D01*
X0012427Y0074749D01*
X0012594Y0074852D01*
X0012763Y0074951D01*
X0012935Y0075046D01*
X0013109Y0075136D01*
X0013285Y0075223D01*
X0013463Y0075304D01*
X0013643Y0075382D01*
X0013825Y0075455D01*
X0014008Y0075524D01*
X0014194Y0075588D01*
X0014380Y0075648D01*
X0014568Y0075703D01*
X0014758Y0075754D01*
X0014948Y0075800D01*
X0015140Y0075841D01*
X0015333Y0075878D01*
X0015526Y0075910D01*
X0015720Y0075937D01*
X0015915Y0075960D01*
X0016110Y0075978D01*
X0016306Y0075991D01*
X0016502Y0075999D01*
X0016698Y0076003D01*
X0016698Y0075909D01*
X0016504Y0075905D01*
X0016310Y0075897D01*
X0016117Y0075884D01*
X0015924Y0075866D01*
X0015732Y0075844D01*
X0015540Y0075817D01*
X0015349Y0075785D01*
X0015158Y0075749D01*
X0014969Y0075708D01*
X0014781Y0075663D01*
X0014594Y0075613D01*
X0014408Y0075558D01*
X0014223Y0075499D01*
X0014040Y0075436D01*
X0013859Y0075368D01*
X0013679Y0075295D01*
X0013501Y0075219D01*
X0013325Y0075138D01*
X0013151Y0075052D01*
X0012979Y0074963D01*
X0012809Y0074869D01*
X0012642Y0074772D01*
X0012477Y0074670D01*
X0012315Y0074564D01*
X0012155Y0074455D01*
X0011998Y0074341D01*
X0011844Y0074224D01*
X0011692Y0074103D01*
X0011544Y0073979D01*
X0011399Y0073851D01*
X0011256Y0073719D01*
X0011117Y0073584D01*
X0010982Y0073446D01*
X0010850Y0073304D01*
X0010721Y0073159D01*
X0010596Y0073011D01*
X0010474Y0072860D01*
X0010356Y0072707D01*
X0010242Y0072550D01*
X0010132Y0072391D01*
X0010026Y0072229D01*
X0009923Y0072064D01*
X0009825Y0071897D01*
X0009730Y0071728D01*
X0009813Y0071684D01*
X0009907Y0071851D01*
X0010004Y0072016D01*
X0010105Y0072179D01*
X0010210Y0072339D01*
X0010319Y0072496D01*
X0010432Y0072651D01*
X0010548Y0072803D01*
X0010668Y0072952D01*
X0010792Y0073098D01*
X0010919Y0073241D01*
X0011050Y0073381D01*
X0011184Y0073517D01*
X0011321Y0073651D01*
X0011462Y0073781D01*
X0011605Y0073908D01*
X0011752Y0074031D01*
X0011902Y0074150D01*
X0012054Y0074266D01*
X0012209Y0074378D01*
X0012367Y0074486D01*
X0012528Y0074591D01*
X0012691Y0074691D01*
X0012856Y0074788D01*
X0013023Y0074880D01*
X0013193Y0074968D01*
X0013365Y0075053D01*
X0013539Y0075133D01*
X0013715Y0075208D01*
X0013893Y0075280D01*
X0014072Y0075347D01*
X0014253Y0075410D01*
X0014435Y0075468D01*
X0014619Y0075522D01*
X0014804Y0075572D01*
X0014990Y0075616D01*
X0015177Y0075657D01*
X0015365Y0075693D01*
X0015554Y0075724D01*
X0015743Y0075751D01*
X0015933Y0075773D01*
X0016124Y0075790D01*
X0016315Y0075803D01*
X0016506Y0075811D01*
X0016698Y0075815D01*
X0016698Y0075721D01*
X0016509Y0075717D01*
X0016320Y0075709D01*
X0016131Y0075697D01*
X0015943Y0075679D01*
X0015755Y0075657D01*
X0015568Y0075631D01*
X0015381Y0075600D01*
X0015195Y0075565D01*
X0015010Y0075525D01*
X0014826Y0075480D01*
X0014644Y0075431D01*
X0014462Y0075378D01*
X0014282Y0075321D01*
X0014104Y0075259D01*
X0013926Y0075192D01*
X0013751Y0075122D01*
X0013577Y0075047D01*
X0013405Y0074968D01*
X0013236Y0074884D01*
X0013068Y0074797D01*
X0012902Y0074706D01*
X0012739Y0074610D01*
X0012578Y0074511D01*
X0012419Y0074408D01*
X0012263Y0074301D01*
X0012110Y0074190D01*
X0011959Y0074076D01*
X0011812Y0073958D01*
X0011667Y0073836D01*
X0011525Y0073711D01*
X0011386Y0073583D01*
X0011251Y0073451D01*
X0011118Y0073316D01*
X0010989Y0073178D01*
X0010863Y0073036D01*
X0010741Y0072892D01*
X0010622Y0072745D01*
X0010507Y0072595D01*
X0010396Y0072442D01*
X0010288Y0072286D01*
X0010184Y0072128D01*
X0010084Y0071968D01*
X0009988Y0071805D01*
X0009896Y0071640D01*
X0009979Y0071595D01*
X0010070Y0071759D01*
X0010165Y0071920D01*
X0010264Y0072078D01*
X0010366Y0072234D01*
X0010473Y0072388D01*
X0010583Y0072539D01*
X0010697Y0072687D01*
X0010814Y0072833D01*
X0010935Y0072975D01*
X0011059Y0073115D01*
X0011186Y0073251D01*
X0011317Y0073385D01*
X0011451Y0073515D01*
X0011588Y0073642D01*
X0011728Y0073765D01*
X0011871Y0073885D01*
X0012017Y0074002D01*
X0012166Y0074115D01*
X0012318Y0074224D01*
X0012472Y0074330D01*
X0012628Y0074432D01*
X0012787Y0074530D01*
X0012949Y0074624D01*
X0013112Y0074714D01*
X0013278Y0074801D01*
X0013446Y0074883D01*
X0013615Y0074961D01*
X0013787Y0075035D01*
X0013960Y0075104D01*
X0014135Y0075170D01*
X0014312Y0075231D01*
X0014490Y0075288D01*
X0014669Y0075341D01*
X0014849Y0075389D01*
X0015031Y0075433D01*
X0015214Y0075473D01*
X0015397Y0075508D01*
X0015581Y0075538D01*
X0015766Y0075564D01*
X0015952Y0075586D01*
X0016138Y0075603D01*
X0016324Y0075615D01*
X0016511Y0075623D01*
X0016698Y0075627D01*
X0016698Y0075533D01*
X0016513Y0075529D01*
X0016329Y0075521D01*
X0016145Y0075509D01*
X0015961Y0075492D01*
X0015778Y0075471D01*
X0015595Y0075445D01*
X0015413Y0075415D01*
X0015232Y0075380D01*
X0015052Y0075341D01*
X0014872Y0075298D01*
X0014694Y0075250D01*
X0014517Y0075198D01*
X0014341Y0075142D01*
X0014167Y0075082D01*
X0013994Y0075017D01*
X0013823Y0074948D01*
X0013654Y0074875D01*
X0013486Y0074798D01*
X0013320Y0074717D01*
X0013157Y0074631D01*
X0012995Y0074542D01*
X0012836Y0074449D01*
X0012679Y0074352D01*
X0012524Y0074252D01*
X0012372Y0074147D01*
X0012222Y0074039D01*
X0012075Y0073928D01*
X0011931Y0073813D01*
X0011790Y0073694D01*
X0011651Y0073572D01*
X0011516Y0073447D01*
X0011384Y0073318D01*
X0011254Y0073186D01*
X0011128Y0073052D01*
X0011006Y0072914D01*
X0010887Y0072773D01*
X0010771Y0072629D01*
X0010658Y0072483D01*
X0010550Y0072334D01*
X0010445Y0072182D01*
X0010343Y0072028D01*
X0010246Y0071871D01*
X0010152Y0071712D01*
X0010062Y0071551D01*
X0009437Y0063694D02*
X0010218Y0064140D01*
X0010311Y0063983D01*
X0010408Y0063829D01*
X0010509Y0063677D01*
X0010614Y0063528D01*
X0010722Y0063381D01*
X0010833Y0063236D01*
X0010948Y0063095D01*
X0011067Y0062956D01*
X0011189Y0062821D01*
X0011314Y0062688D01*
X0011442Y0062558D01*
X0011573Y0062432D01*
X0011707Y0062308D01*
X0011844Y0062188D01*
X0011984Y0062071D01*
X0012127Y0061958D01*
X0012273Y0061848D01*
X0012421Y0061742D01*
X0012572Y0061639D01*
X0012725Y0061540D01*
X0012880Y0061445D01*
X0013038Y0061354D01*
X0013198Y0061266D01*
X0013360Y0061182D01*
X0013523Y0061102D01*
X0013689Y0061026D01*
X0013857Y0060955D01*
X0014026Y0060887D01*
X0014197Y0060823D01*
X0014369Y0060764D01*
X0014543Y0060708D01*
X0014718Y0060657D01*
X0014894Y0060610D01*
X0015071Y0060568D01*
X0015250Y0060529D01*
X0015429Y0060495D01*
X0015609Y0060465D01*
X0015789Y0060440D01*
X0015970Y0060419D01*
X0016152Y0060403D01*
X0016334Y0060390D01*
X0016516Y0060383D01*
X0016698Y0060379D01*
X0016699Y0059480D01*
X0016698Y0059479D01*
X0016494Y0059483D01*
X0016290Y0059491D01*
X0016086Y0059505D01*
X0015882Y0059523D01*
X0015679Y0059547D01*
X0015477Y0059575D01*
X0015275Y0059608D01*
X0015075Y0059646D01*
X0014875Y0059689D01*
X0014676Y0059737D01*
X0014479Y0059789D01*
X0014283Y0059847D01*
X0014088Y0059909D01*
X0013895Y0059975D01*
X0013703Y0060047D01*
X0013514Y0060123D01*
X0013326Y0060203D01*
X0013140Y0060288D01*
X0012956Y0060378D01*
X0012775Y0060471D01*
X0012596Y0060570D01*
X0012419Y0060672D01*
X0012245Y0060779D01*
X0012073Y0060890D01*
X0011904Y0061005D01*
X0011738Y0061124D01*
X0011575Y0061247D01*
X0011415Y0061374D01*
X0011258Y0061505D01*
X0011104Y0061640D01*
X0010954Y0061778D01*
X0010807Y0061920D01*
X0010663Y0062065D01*
X0010523Y0062214D01*
X0010387Y0062366D01*
X0010254Y0062522D01*
X0010126Y0062680D01*
X0010001Y0062842D01*
X0009880Y0063007D01*
X0009763Y0063174D01*
X0009650Y0063345D01*
X0009541Y0063518D01*
X0009436Y0063693D01*
X0009518Y0063740D01*
X0009621Y0063566D01*
X0009729Y0063395D01*
X0009841Y0063227D01*
X0009956Y0063061D01*
X0010076Y0062898D01*
X0010200Y0062739D01*
X0010327Y0062582D01*
X0010458Y0062428D01*
X0010593Y0062278D01*
X0010731Y0062130D01*
X0010873Y0061987D01*
X0011019Y0061846D01*
X0011167Y0061710D01*
X0011319Y0061577D01*
X0011475Y0061447D01*
X0011633Y0061322D01*
X0011794Y0061200D01*
X0011958Y0061082D01*
X0012125Y0060968D01*
X0012295Y0060859D01*
X0012467Y0060753D01*
X0012642Y0060652D01*
X0012819Y0060554D01*
X0012998Y0060462D01*
X0013180Y0060373D01*
X0013364Y0060289D01*
X0013549Y0060209D01*
X0013737Y0060134D01*
X0013926Y0060064D01*
X0014117Y0059998D01*
X0014310Y0059937D01*
X0014504Y0059880D01*
X0014699Y0059828D01*
X0014895Y0059781D01*
X0015093Y0059739D01*
X0015291Y0059701D01*
X0015491Y0059668D01*
X0015691Y0059640D01*
X0015892Y0059617D01*
X0016093Y0059599D01*
X0016294Y0059585D01*
X0016496Y0059577D01*
X0016698Y0059573D01*
X0016698Y0059667D01*
X0016499Y0059671D01*
X0016299Y0059679D01*
X0016100Y0059692D01*
X0015901Y0059711D01*
X0015702Y0059733D01*
X0015505Y0059761D01*
X0015307Y0059794D01*
X0015111Y0059831D01*
X0014916Y0059873D01*
X0014722Y0059919D01*
X0014529Y0059971D01*
X0014337Y0060027D01*
X0014147Y0060087D01*
X0013958Y0060152D01*
X0013771Y0060222D01*
X0013585Y0060296D01*
X0013402Y0060375D01*
X0013220Y0060458D01*
X0013040Y0060546D01*
X0012863Y0060637D01*
X0012688Y0060733D01*
X0012515Y0060834D01*
X0012345Y0060938D01*
X0012177Y0061047D01*
X0012012Y0061159D01*
X0011850Y0061275D01*
X0011691Y0061396D01*
X0011534Y0061520D01*
X0011381Y0061648D01*
X0011230Y0061779D01*
X0011083Y0061915D01*
X0010940Y0062053D01*
X0010799Y0062195D01*
X0010662Y0062341D01*
X0010529Y0062490D01*
X0010399Y0062642D01*
X0010273Y0062797D01*
X0010151Y0062955D01*
X0010033Y0063116D01*
X0009919Y0063279D01*
X0009808Y0063446D01*
X0009702Y0063615D01*
X0009600Y0063786D01*
X0009681Y0063833D01*
X0009782Y0063663D01*
X0009887Y0063496D01*
X0009997Y0063332D01*
X0010110Y0063170D01*
X0010227Y0063011D01*
X0010347Y0062855D01*
X0010472Y0062701D01*
X0010600Y0062551D01*
X0010732Y0062404D01*
X0010867Y0062260D01*
X0011006Y0062120D01*
X0011148Y0061983D01*
X0011293Y0061849D01*
X0011442Y0061719D01*
X0011594Y0061593D01*
X0011748Y0061470D01*
X0011906Y0061351D01*
X0012066Y0061236D01*
X0012229Y0061125D01*
X0012395Y0061018D01*
X0012563Y0060914D01*
X0012734Y0060815D01*
X0012907Y0060720D01*
X0013083Y0060630D01*
X0013260Y0060543D01*
X0013440Y0060461D01*
X0013621Y0060383D01*
X0013804Y0060310D01*
X0013989Y0060241D01*
X0014176Y0060177D01*
X0014364Y0060117D01*
X0014554Y0060061D01*
X0014744Y0060011D01*
X0014936Y0059964D01*
X0015129Y0059923D01*
X0015323Y0059886D01*
X0015518Y0059854D01*
X0015714Y0059827D01*
X0015910Y0059804D01*
X0016107Y0059786D01*
X0016304Y0059773D01*
X0016501Y0059765D01*
X0016698Y0059761D01*
X0016698Y0059855D01*
X0016503Y0059859D01*
X0016308Y0059867D01*
X0016113Y0059880D01*
X0015919Y0059898D01*
X0015725Y0059920D01*
X0015532Y0059947D01*
X0015339Y0059979D01*
X0015148Y0060015D01*
X0014957Y0060056D01*
X0014767Y0060102D01*
X0014579Y0060152D01*
X0014391Y0060207D01*
X0014205Y0060266D01*
X0014021Y0060329D01*
X0013838Y0060398D01*
X0013657Y0060470D01*
X0013478Y0060547D01*
X0013300Y0060628D01*
X0013125Y0060714D01*
X0012951Y0060803D01*
X0012780Y0060897D01*
X0012612Y0060995D01*
X0012445Y0061097D01*
X0012281Y0061203D01*
X0012120Y0061313D01*
X0011962Y0061427D01*
X0011806Y0061544D01*
X0011653Y0061666D01*
X0011503Y0061791D01*
X0011356Y0061919D01*
X0011213Y0062051D01*
X0011072Y0062187D01*
X0010935Y0062326D01*
X0010801Y0062468D01*
X0010671Y0062613D01*
X0010544Y0062761D01*
X0010421Y0062913D01*
X0010302Y0063067D01*
X0010186Y0063224D01*
X0010075Y0063384D01*
X0009967Y0063547D01*
X0009863Y0063712D01*
X0009763Y0063880D01*
X0009844Y0063926D01*
X0009943Y0063761D01*
X0010046Y0063597D01*
X0010153Y0063437D01*
X0010263Y0063279D01*
X0010377Y0063123D01*
X0010495Y0062971D01*
X0010617Y0062821D01*
X0010742Y0062675D01*
X0010871Y0062531D01*
X0011003Y0062391D01*
X0011138Y0062253D01*
X0011277Y0062119D01*
X0011419Y0061989D01*
X0011564Y0061862D01*
X0011712Y0061738D01*
X0011863Y0061619D01*
X0012017Y0061502D01*
X0012174Y0061390D01*
X0012333Y0061281D01*
X0012495Y0061177D01*
X0012660Y0061076D01*
X0012826Y0060979D01*
X0012996Y0060886D01*
X0013167Y0060798D01*
X0013340Y0060713D01*
X0013516Y0060633D01*
X0013693Y0060557D01*
X0013872Y0060485D01*
X0014053Y0060418D01*
X0014235Y0060355D01*
X0014419Y0060297D01*
X0014604Y0060243D01*
X0014790Y0060193D01*
X0014978Y0060148D01*
X0015166Y0060107D01*
X0015355Y0060071D01*
X0015546Y0060040D01*
X0015737Y0060013D01*
X0015928Y0059991D01*
X0016120Y0059974D01*
X0016313Y0059961D01*
X0016505Y0059953D01*
X0016698Y0059949D01*
X0016698Y0060043D01*
X0016508Y0060047D01*
X0016317Y0060055D01*
X0016127Y0060067D01*
X0015937Y0060085D01*
X0015748Y0060107D01*
X0015560Y0060133D01*
X0015372Y0060164D01*
X0015184Y0060200D01*
X0014998Y0060240D01*
X0014813Y0060284D01*
X0014629Y0060333D01*
X0014446Y0060387D01*
X0014264Y0060444D01*
X0014084Y0060507D01*
X0013906Y0060573D01*
X0013729Y0060644D01*
X0013554Y0060719D01*
X0013380Y0060798D01*
X0013209Y0060882D01*
X0013040Y0060969D01*
X0012873Y0061061D01*
X0012708Y0061157D01*
X0012545Y0061256D01*
X0012385Y0061360D01*
X0012228Y0061467D01*
X0012073Y0061578D01*
X0011921Y0061693D01*
X0011772Y0061811D01*
X0011626Y0061933D01*
X0011482Y0062059D01*
X0011342Y0062188D01*
X0011205Y0062320D01*
X0011071Y0062456D01*
X0010940Y0062594D01*
X0010813Y0062736D01*
X0010689Y0062881D01*
X0010569Y0063029D01*
X0010453Y0063180D01*
X0010340Y0063333D01*
X0010231Y0063489D01*
X0010125Y0063648D01*
X0010024Y0063809D01*
X0009926Y0063973D01*
X0010008Y0064020D01*
X0010104Y0063858D01*
X0010204Y0063699D01*
X0010308Y0063542D01*
X0010416Y0063387D01*
X0010528Y0063236D01*
X0010643Y0063087D01*
X0010762Y0062941D01*
X0010884Y0062798D01*
X0011010Y0062658D01*
X0011139Y0062521D01*
X0011271Y0062387D01*
X0011407Y0062256D01*
X0011545Y0062129D01*
X0011687Y0062005D01*
X0011831Y0061884D01*
X0011979Y0061767D01*
X0012129Y0061654D01*
X0012282Y0061544D01*
X0012438Y0061438D01*
X0012596Y0061336D01*
X0012756Y0061237D01*
X0012919Y0061143D01*
X0013084Y0061052D01*
X0013251Y0060966D01*
X0013420Y0060883D01*
X0013591Y0060805D01*
X0013764Y0060731D01*
X0013939Y0060661D01*
X0014116Y0060595D01*
X0014294Y0060534D01*
X0014473Y0060477D01*
X0014654Y0060424D01*
X0014836Y0060375D01*
X0015019Y0060331D01*
X0015203Y0060292D01*
X0015388Y0060257D01*
X0015573Y0060226D01*
X0015760Y0060200D01*
X0015947Y0060178D01*
X0016134Y0060161D01*
X0016322Y0060149D01*
X0016510Y0060141D01*
X0016698Y0060137D01*
X0016698Y0060231D01*
X0016512Y0060235D01*
X0016327Y0060243D01*
X0016141Y0060255D01*
X0015956Y0060272D01*
X0015771Y0060293D01*
X0015587Y0060319D01*
X0015404Y0060349D01*
X0015221Y0060384D01*
X0015039Y0060423D01*
X0014858Y0060467D01*
X0014679Y0060514D01*
X0014500Y0060567D01*
X0014323Y0060623D01*
X0014147Y0060684D01*
X0013973Y0060749D01*
X0013800Y0060818D01*
X0013629Y0060891D01*
X0013460Y0060968D01*
X0013293Y0061050D01*
X0013128Y0061135D01*
X0012965Y0061225D01*
X0012804Y0061318D01*
X0012646Y0061415D01*
X0012490Y0061516D01*
X0012336Y0061621D01*
X0012185Y0061729D01*
X0012036Y0061841D01*
X0011891Y0061957D01*
X0011748Y0062076D01*
X0011608Y0062198D01*
X0011471Y0062324D01*
X0011337Y0062453D01*
X0011207Y0062586D01*
X0011079Y0062721D01*
X0010955Y0062859D01*
X0010834Y0063001D01*
X0010717Y0063145D01*
X0010603Y0063292D01*
X0010493Y0063442D01*
X0010386Y0063594D01*
X0010284Y0063749D01*
X0010185Y0063907D01*
X0010089Y0064066D01*
X0010171Y0064113D01*
X0010265Y0063955D01*
X0010363Y0063800D01*
X0010464Y0063647D01*
X0010570Y0063496D01*
X0010679Y0063348D01*
X0010791Y0063203D01*
X0010907Y0063061D01*
X0011026Y0062921D01*
X0011149Y0062784D01*
X0011275Y0062651D01*
X0011404Y0062520D01*
X0011536Y0062392D01*
X0011671Y0062268D01*
X0011809Y0062147D01*
X0011950Y0062030D01*
X0012094Y0061916D01*
X0012241Y0061805D01*
X0012390Y0061698D01*
X0012542Y0061594D01*
X0012696Y0061495D01*
X0012852Y0061399D01*
X0013011Y0061307D01*
X0013172Y0061218D01*
X0013335Y0061134D01*
X0013500Y0061053D01*
X0013667Y0060977D01*
X0013836Y0060905D01*
X0014007Y0060836D01*
X0014179Y0060772D01*
X0014352Y0060712D01*
X0014527Y0060656D01*
X0014704Y0060605D01*
X0014881Y0060558D01*
X0015060Y0060515D01*
X0015239Y0060476D01*
X0015420Y0060442D01*
X0015601Y0060412D01*
X0015783Y0060387D01*
X0015965Y0060365D01*
X0016148Y0060349D01*
X0016331Y0060336D01*
X0016515Y0060329D01*
X0016698Y0060325D01*
X0016797Y0059480D02*
X0016797Y0060380D01*
X0016798Y0060379D02*
X0016982Y0060383D01*
X0017167Y0060391D01*
X0017351Y0060403D01*
X0017534Y0060420D01*
X0017718Y0060442D01*
X0017900Y0060467D01*
X0018082Y0060498D01*
X0018263Y0060533D01*
X0018444Y0060572D01*
X0018623Y0060616D01*
X0018801Y0060664D01*
X0018978Y0060716D01*
X0019154Y0060773D01*
X0019328Y0060833D01*
X0019500Y0060899D01*
X0019671Y0060968D01*
X0019841Y0061041D01*
X0020008Y0061119D01*
X0020173Y0061201D01*
X0020337Y0061286D01*
X0020498Y0061376D01*
X0020657Y0061470D01*
X0020814Y0061567D01*
X0020968Y0061668D01*
X0021120Y0061773D01*
X0021269Y0061882D01*
X0021415Y0061994D01*
X0021559Y0062110D01*
X0021699Y0062229D01*
X0021837Y0062352D01*
X0021972Y0062478D01*
X0022104Y0062607D01*
X0022232Y0062740D01*
X0022357Y0062875D01*
X0022479Y0063014D01*
X0023166Y0062433D01*
X0023030Y0062277D01*
X0022889Y0062125D01*
X0022745Y0061976D01*
X0022598Y0061831D01*
X0022447Y0061690D01*
X0022293Y0061553D01*
X0022135Y0061419D01*
X0021974Y0061289D01*
X0021810Y0061163D01*
X0021643Y0061041D01*
X0021473Y0060923D01*
X0021300Y0060810D01*
X0021124Y0060701D01*
X0020946Y0060596D01*
X0020765Y0060495D01*
X0020582Y0060399D01*
X0020397Y0060307D01*
X0020209Y0060220D01*
X0020019Y0060138D01*
X0019828Y0060060D01*
X0019634Y0059987D01*
X0019439Y0059919D01*
X0019242Y0059855D01*
X0019044Y0059797D01*
X0018844Y0059743D01*
X0018643Y0059694D01*
X0018441Y0059650D01*
X0018238Y0059611D01*
X0018034Y0059577D01*
X0017829Y0059548D01*
X0017624Y0059524D01*
X0017418Y0059506D01*
X0017211Y0059492D01*
X0017005Y0059483D01*
X0016798Y0059479D01*
X0016798Y0059573D01*
X0017002Y0059577D01*
X0017207Y0059586D01*
X0017411Y0059599D01*
X0017614Y0059618D01*
X0017817Y0059642D01*
X0018020Y0059670D01*
X0018222Y0059704D01*
X0018422Y0059742D01*
X0018622Y0059786D01*
X0018821Y0059834D01*
X0019018Y0059887D01*
X0019215Y0059945D01*
X0019409Y0060008D01*
X0019602Y0060076D01*
X0019794Y0060148D01*
X0019983Y0060225D01*
X0020171Y0060306D01*
X0020356Y0060392D01*
X0020539Y0060483D01*
X0020721Y0060578D01*
X0020899Y0060677D01*
X0021075Y0060781D01*
X0021249Y0060889D01*
X0021420Y0061001D01*
X0021588Y0061118D01*
X0021753Y0061238D01*
X0021916Y0061363D01*
X0022075Y0061491D01*
X0022231Y0061623D01*
X0022383Y0061759D01*
X0022533Y0061899D01*
X0022678Y0062042D01*
X0022821Y0062189D01*
X0022959Y0062340D01*
X0023094Y0062493D01*
X0023023Y0062554D01*
X0022889Y0062402D01*
X0022752Y0062253D01*
X0022611Y0062108D01*
X0022467Y0061967D01*
X0022320Y0061828D01*
X0022169Y0061694D01*
X0022015Y0061563D01*
X0021857Y0061436D01*
X0021697Y0061313D01*
X0021533Y0061194D01*
X0021367Y0061079D01*
X0021198Y0060968D01*
X0021027Y0060861D01*
X0020852Y0060759D01*
X0020676Y0060660D01*
X0020497Y0060566D01*
X0020315Y0060477D01*
X0020132Y0060392D01*
X0019947Y0060311D01*
X0019759Y0060235D01*
X0019570Y0060164D01*
X0019379Y0060097D01*
X0019187Y0060035D01*
X0018993Y0059978D01*
X0018798Y0059925D01*
X0018601Y0059878D01*
X0018404Y0059835D01*
X0018205Y0059797D01*
X0018006Y0059763D01*
X0017806Y0059735D01*
X0017605Y0059712D01*
X0017404Y0059693D01*
X0017202Y0059679D01*
X0017000Y0059671D01*
X0016798Y0059667D01*
X0016798Y0059761D01*
X0016998Y0059765D01*
X0017197Y0059773D01*
X0017397Y0059787D01*
X0017596Y0059805D01*
X0017794Y0059828D01*
X0017992Y0059856D01*
X0018189Y0059889D01*
X0018385Y0059927D01*
X0018581Y0059969D01*
X0018775Y0060016D01*
X0018968Y0060068D01*
X0019159Y0060125D01*
X0019350Y0060186D01*
X0019538Y0060252D01*
X0019725Y0060323D01*
X0019910Y0060398D01*
X0020094Y0060478D01*
X0020275Y0060562D01*
X0020454Y0060650D01*
X0020631Y0060743D01*
X0020806Y0060840D01*
X0020978Y0060942D01*
X0021147Y0061047D01*
X0021315Y0061157D01*
X0021479Y0061271D01*
X0021640Y0061388D01*
X0021799Y0061510D01*
X0021954Y0061635D01*
X0022107Y0061765D01*
X0022256Y0061898D01*
X0022402Y0062034D01*
X0022544Y0062174D01*
X0022683Y0062318D01*
X0022819Y0062465D01*
X0022951Y0062615D01*
X0022879Y0062675D01*
X0022749Y0062527D01*
X0022615Y0062382D01*
X0022477Y0062240D01*
X0022336Y0062102D01*
X0022192Y0061967D01*
X0022045Y0061835D01*
X0021894Y0061708D01*
X0021740Y0061584D01*
X0021584Y0061463D01*
X0021424Y0061347D01*
X0021262Y0061235D01*
X0021097Y0061126D01*
X0020929Y0061022D01*
X0020759Y0060922D01*
X0020586Y0060826D01*
X0020411Y0060734D01*
X0020234Y0060646D01*
X0020055Y0060563D01*
X0019874Y0060485D01*
X0019691Y0060410D01*
X0019506Y0060341D01*
X0019320Y0060276D01*
X0019132Y0060215D01*
X0018942Y0060159D01*
X0018752Y0060108D01*
X0018560Y0060061D01*
X0018367Y0060019D01*
X0018173Y0059982D01*
X0017978Y0059949D01*
X0017782Y0059922D01*
X0017586Y0059899D01*
X0017390Y0059881D01*
X0017193Y0059867D01*
X0016995Y0059859D01*
X0016798Y0059855D01*
X0016798Y0059949D01*
X0016993Y0059953D01*
X0017188Y0059961D01*
X0017383Y0059974D01*
X0017577Y0059992D01*
X0017771Y0060015D01*
X0017964Y0060042D01*
X0018157Y0060074D01*
X0018348Y0060111D01*
X0018539Y0060153D01*
X0018729Y0060199D01*
X0018917Y0060249D01*
X0019104Y0060305D01*
X0019290Y0060365D01*
X0019474Y0060429D01*
X0019657Y0060498D01*
X0019838Y0060571D01*
X0020017Y0060649D01*
X0020194Y0060731D01*
X0020369Y0060818D01*
X0020541Y0060908D01*
X0020712Y0061003D01*
X0020880Y0061102D01*
X0021046Y0061205D01*
X0021209Y0061312D01*
X0021370Y0061423D01*
X0021527Y0061538D01*
X0021682Y0061657D01*
X0021834Y0061780D01*
X0021983Y0061906D01*
X0022129Y0062036D01*
X0022271Y0062169D01*
X0022410Y0062306D01*
X0022546Y0062446D01*
X0022678Y0062590D01*
X0022807Y0062736D01*
X0022735Y0062797D01*
X0022608Y0062652D01*
X0022477Y0062510D01*
X0022343Y0062372D01*
X0022206Y0062237D01*
X0022065Y0062105D01*
X0021921Y0061977D01*
X0021774Y0061852D01*
X0021624Y0061731D01*
X0021471Y0061614D01*
X0021315Y0061500D01*
X0021156Y0061390D01*
X0020995Y0061284D01*
X0020831Y0061183D01*
X0020665Y0061085D01*
X0020497Y0060991D01*
X0020326Y0060901D01*
X0020153Y0060816D01*
X0019978Y0060735D01*
X0019801Y0060658D01*
X0019623Y0060586D01*
X0019442Y0060517D01*
X0019260Y0060454D01*
X0019077Y0060395D01*
X0018892Y0060340D01*
X0018706Y0060290D01*
X0018518Y0060244D01*
X0018330Y0060203D01*
X0018140Y0060167D01*
X0017950Y0060135D01*
X0017759Y0060108D01*
X0017568Y0060086D01*
X0017376Y0060068D01*
X0017183Y0060055D01*
X0016991Y0060047D01*
X0016798Y0060043D01*
X0016798Y0060137D01*
X0016988Y0060141D01*
X0017179Y0060149D01*
X0017369Y0060162D01*
X0017558Y0060179D01*
X0017748Y0060201D01*
X0017936Y0060228D01*
X0018124Y0060259D01*
X0018311Y0060295D01*
X0018497Y0060336D01*
X0018682Y0060381D01*
X0018866Y0060430D01*
X0019049Y0060485D01*
X0019230Y0060543D01*
X0019410Y0060606D01*
X0019588Y0060673D01*
X0019765Y0060745D01*
X0019940Y0060821D01*
X0020112Y0060901D01*
X0020283Y0060985D01*
X0020452Y0061074D01*
X0020618Y0061166D01*
X0020783Y0061263D01*
X0020944Y0061363D01*
X0021104Y0061468D01*
X0021260Y0061576D01*
X0021414Y0061689D01*
X0021565Y0061805D01*
X0021714Y0061924D01*
X0021859Y0062047D01*
X0022001Y0062174D01*
X0022140Y0062304D01*
X0022276Y0062438D01*
X0022409Y0062574D01*
X0022538Y0062714D01*
X0022664Y0062858D01*
X0022592Y0062918D01*
X0022468Y0062777D01*
X0022340Y0062639D01*
X0022209Y0062504D01*
X0022075Y0062372D01*
X0021938Y0062243D01*
X0021797Y0062118D01*
X0021653Y0061996D01*
X0021507Y0061878D01*
X0021358Y0061764D01*
X0021206Y0061653D01*
X0021051Y0061546D01*
X0020894Y0061443D01*
X0020734Y0061343D01*
X0020572Y0061248D01*
X0020407Y0061156D01*
X0020241Y0061069D01*
X0020072Y0060986D01*
X0019901Y0060906D01*
X0019729Y0060831D01*
X0019554Y0060761D01*
X0019378Y0060694D01*
X0019201Y0060632D01*
X0019021Y0060574D01*
X0018841Y0060521D01*
X0018659Y0060472D01*
X0018477Y0060428D01*
X0018293Y0060388D01*
X0018108Y0060352D01*
X0017922Y0060321D01*
X0017736Y0060295D01*
X0017549Y0060273D01*
X0017362Y0060256D01*
X0017174Y0060243D01*
X0016986Y0060235D01*
X0016798Y0060231D01*
X0016798Y0060325D01*
X0016984Y0060329D01*
X0017169Y0060337D01*
X0017355Y0060349D01*
X0017540Y0060366D01*
X0017724Y0060388D01*
X0017908Y0060414D01*
X0018092Y0060445D01*
X0018274Y0060480D01*
X0018456Y0060519D01*
X0018636Y0060563D01*
X0018816Y0060612D01*
X0018994Y0060664D01*
X0019171Y0060721D01*
X0019346Y0060783D01*
X0019520Y0060848D01*
X0019692Y0060918D01*
X0019863Y0060992D01*
X0020031Y0061070D01*
X0020198Y0061153D01*
X0020362Y0061239D01*
X0020525Y0061329D01*
X0020685Y0061424D01*
X0020843Y0061522D01*
X0020998Y0061624D01*
X0021151Y0061729D01*
X0021301Y0061839D01*
X0021449Y0061952D01*
X0021593Y0062069D01*
X0021735Y0062189D01*
X0021874Y0062312D01*
X0022010Y0062439D01*
X0022142Y0062569D01*
X0022271Y0062703D01*
X0022398Y0062839D01*
X0022520Y0062979D01*
X0023207Y0073377D02*
X0022515Y0072800D01*
X0022516Y0072801D02*
X0022397Y0072938D01*
X0022276Y0073072D01*
X0022151Y0073203D01*
X0022023Y0073331D01*
X0021892Y0073455D01*
X0021758Y0073577D01*
X0021621Y0073696D01*
X0021482Y0073811D01*
X0021339Y0073922D01*
X0021194Y0074031D01*
X0021047Y0074136D01*
X0020897Y0074237D01*
X0020745Y0074334D01*
X0020590Y0074428D01*
X0020433Y0074519D01*
X0020274Y0074605D01*
X0020113Y0074688D01*
X0019950Y0074766D01*
X0019785Y0074841D01*
X0019619Y0074912D01*
X0019451Y0074979D01*
X0019281Y0075041D01*
X0019110Y0075100D01*
X0018937Y0075155D01*
X0018764Y0075205D01*
X0018589Y0075251D01*
X0018413Y0075293D01*
X0018236Y0075331D01*
X0018058Y0075364D01*
X0017879Y0075394D01*
X0017700Y0075419D01*
X0017520Y0075439D01*
X0017340Y0075456D01*
X0017160Y0075468D01*
X0016979Y0075475D01*
X0016798Y0075479D01*
X0016797Y0076378D01*
X0016798Y0076379D01*
X0017001Y0076375D01*
X0017203Y0076367D01*
X0017406Y0076353D01*
X0017608Y0076335D01*
X0017809Y0076312D01*
X0018010Y0076284D01*
X0018210Y0076251D01*
X0018410Y0076214D01*
X0018608Y0076172D01*
X0018806Y0076125D01*
X0019002Y0076073D01*
X0019196Y0076016D01*
X0019390Y0075955D01*
X0019582Y0075890D01*
X0019772Y0075819D01*
X0019961Y0075744D01*
X0020147Y0075665D01*
X0020332Y0075581D01*
X0020515Y0075493D01*
X0020695Y0075400D01*
X0020873Y0075304D01*
X0021049Y0075202D01*
X0021222Y0075097D01*
X0021393Y0074988D01*
X0021561Y0074874D01*
X0021727Y0074757D01*
X0021889Y0074635D01*
X0022049Y0074510D01*
X0022205Y0074381D01*
X0022358Y0074248D01*
X0022508Y0074111D01*
X0022655Y0073971D01*
X0022798Y0073828D01*
X0022938Y0073681D01*
X0023075Y0073531D01*
X0023207Y0073377D01*
X0023135Y0073317D01*
X0023004Y0073469D01*
X0022869Y0073617D01*
X0022731Y0073762D01*
X0022589Y0073904D01*
X0022444Y0074043D01*
X0022296Y0074178D01*
X0022144Y0074309D01*
X0021989Y0074437D01*
X0021832Y0074561D01*
X0021671Y0074681D01*
X0021508Y0074797D01*
X0021341Y0074909D01*
X0021173Y0075017D01*
X0021001Y0075122D01*
X0020827Y0075222D01*
X0020651Y0075317D01*
X0020473Y0075409D01*
X0020292Y0075496D01*
X0020109Y0075579D01*
X0019925Y0075658D01*
X0019739Y0075732D01*
X0019550Y0075801D01*
X0019361Y0075866D01*
X0019169Y0075926D01*
X0018977Y0075982D01*
X0018783Y0076033D01*
X0018588Y0076080D01*
X0018392Y0076122D01*
X0018195Y0076159D01*
X0017997Y0076191D01*
X0017798Y0076219D01*
X0017599Y0076242D01*
X0017399Y0076260D01*
X0017199Y0076273D01*
X0016998Y0076281D01*
X0016798Y0076285D01*
X0016798Y0076191D01*
X0016996Y0076187D01*
X0017194Y0076179D01*
X0017392Y0076166D01*
X0017590Y0076148D01*
X0017787Y0076125D01*
X0017983Y0076098D01*
X0018179Y0076066D01*
X0018373Y0076030D01*
X0018567Y0075988D01*
X0018760Y0075942D01*
X0018952Y0075892D01*
X0019142Y0075836D01*
X0019331Y0075777D01*
X0019519Y0075712D01*
X0019705Y0075644D01*
X0019889Y0075571D01*
X0020072Y0075493D01*
X0020252Y0075411D01*
X0020431Y0075325D01*
X0020607Y0075234D01*
X0020781Y0075140D01*
X0020953Y0075041D01*
X0021123Y0074938D01*
X0021290Y0074831D01*
X0021454Y0074720D01*
X0021615Y0074605D01*
X0021774Y0074486D01*
X0021930Y0074364D01*
X0022083Y0074238D01*
X0022233Y0074108D01*
X0022380Y0073974D01*
X0022523Y0073837D01*
X0022663Y0073697D01*
X0022800Y0073554D01*
X0022933Y0073407D01*
X0023063Y0073257D01*
X0022991Y0073197D01*
X0022862Y0073345D01*
X0022731Y0073490D01*
X0022596Y0073632D01*
X0022457Y0073770D01*
X0022315Y0073906D01*
X0022170Y0074038D01*
X0022022Y0074166D01*
X0021871Y0074291D01*
X0021717Y0074412D01*
X0021560Y0074529D01*
X0021400Y0074643D01*
X0021238Y0074752D01*
X0021073Y0074858D01*
X0020905Y0074960D01*
X0020735Y0075058D01*
X0020563Y0075151D01*
X0020389Y0075241D01*
X0020212Y0075326D01*
X0020034Y0075407D01*
X0019854Y0075484D01*
X0019671Y0075556D01*
X0019488Y0075624D01*
X0019302Y0075687D01*
X0019115Y0075746D01*
X0018927Y0075801D01*
X0018738Y0075851D01*
X0018547Y0075896D01*
X0018355Y0075937D01*
X0018163Y0075974D01*
X0017969Y0076005D01*
X0017775Y0076032D01*
X0017580Y0076054D01*
X0017385Y0076072D01*
X0017190Y0076085D01*
X0016994Y0076093D01*
X0016798Y0076097D01*
X0016798Y0076003D01*
X0016992Y0075999D01*
X0017185Y0075991D01*
X0017378Y0075978D01*
X0017571Y0075961D01*
X0017764Y0075939D01*
X0017956Y0075912D01*
X0018147Y0075881D01*
X0018337Y0075845D01*
X0018527Y0075805D01*
X0018715Y0075760D01*
X0018902Y0075710D01*
X0019088Y0075656D01*
X0019273Y0075598D01*
X0019456Y0075535D01*
X0019638Y0075468D01*
X0019818Y0075397D01*
X0019996Y0075321D01*
X0020173Y0075241D01*
X0020347Y0075157D01*
X0020519Y0075068D01*
X0020689Y0074976D01*
X0020857Y0074879D01*
X0021023Y0074778D01*
X0021186Y0074674D01*
X0021346Y0074566D01*
X0021504Y0074453D01*
X0021659Y0074337D01*
X0021812Y0074218D01*
X0021961Y0074094D01*
X0022108Y0073968D01*
X0022251Y0073837D01*
X0022391Y0073704D01*
X0022528Y0073567D01*
X0022661Y0073426D01*
X0022792Y0073283D01*
X0022918Y0073136D01*
X0022846Y0073076D01*
X0022721Y0073221D01*
X0022592Y0073363D01*
X0022460Y0073501D01*
X0022325Y0073637D01*
X0022186Y0073769D01*
X0022045Y0073898D01*
X0021900Y0074023D01*
X0021753Y0074145D01*
X0021602Y0074263D01*
X0021449Y0074378D01*
X0021293Y0074488D01*
X0021134Y0074596D01*
X0020973Y0074699D01*
X0020809Y0074798D01*
X0020643Y0074894D01*
X0020475Y0074985D01*
X0020305Y0075072D01*
X0020133Y0075156D01*
X0019958Y0075235D01*
X0019782Y0075310D01*
X0019604Y0075380D01*
X0019425Y0075447D01*
X0019244Y0075509D01*
X0019061Y0075566D01*
X0018877Y0075620D01*
X0018692Y0075669D01*
X0018506Y0075713D01*
X0018319Y0075753D01*
X0018131Y0075788D01*
X0017942Y0075819D01*
X0017752Y0075846D01*
X0017562Y0075867D01*
X0017372Y0075885D01*
X0017181Y0075897D01*
X0016989Y0075905D01*
X0016798Y0075909D01*
X0016798Y0075815D01*
X0016987Y0075811D01*
X0017176Y0075803D01*
X0017365Y0075791D01*
X0017553Y0075774D01*
X0017741Y0075752D01*
X0017928Y0075726D01*
X0018115Y0075696D01*
X0018301Y0075661D01*
X0018486Y0075621D01*
X0018670Y0075577D01*
X0018852Y0075529D01*
X0019034Y0075476D01*
X0019214Y0075419D01*
X0019393Y0075358D01*
X0019571Y0075292D01*
X0019747Y0075223D01*
X0019921Y0075149D01*
X0020093Y0075071D01*
X0020263Y0074988D01*
X0020431Y0074902D01*
X0020597Y0074812D01*
X0020761Y0074717D01*
X0020923Y0074619D01*
X0021082Y0074517D01*
X0021239Y0074411D01*
X0021393Y0074302D01*
X0021545Y0074188D01*
X0021693Y0074072D01*
X0021839Y0073951D01*
X0021982Y0073828D01*
X0022122Y0073700D01*
X0022259Y0073570D01*
X0022393Y0073436D01*
X0022523Y0073299D01*
X0022650Y0073159D01*
X0022774Y0073016D01*
X0022702Y0072956D01*
X0022579Y0073097D01*
X0022454Y0073235D01*
X0022325Y0073371D01*
X0022193Y0073503D01*
X0022058Y0073632D01*
X0021919Y0073757D01*
X0021778Y0073880D01*
X0021634Y0073999D01*
X0021487Y0074114D01*
X0021338Y0074226D01*
X0021185Y0074334D01*
X0021030Y0074439D01*
X0020873Y0074539D01*
X0020713Y0074636D01*
X0020552Y0074730D01*
X0020387Y0074819D01*
X0020221Y0074904D01*
X0020053Y0074985D01*
X0019883Y0075063D01*
X0019711Y0075136D01*
X0019537Y0075205D01*
X0019362Y0075269D01*
X0019185Y0075330D01*
X0019007Y0075386D01*
X0018828Y0075438D01*
X0018647Y0075486D01*
X0018465Y0075529D01*
X0018283Y0075568D01*
X0018099Y0075603D01*
X0017915Y0075633D01*
X0017730Y0075659D01*
X0017544Y0075680D01*
X0017358Y0075697D01*
X0017171Y0075709D01*
X0016985Y0075717D01*
X0016798Y0075721D01*
X0016798Y0075627D01*
X0016982Y0075623D01*
X0017167Y0075616D01*
X0017351Y0075603D01*
X0017535Y0075587D01*
X0017718Y0075566D01*
X0017901Y0075540D01*
X0018083Y0075510D01*
X0018264Y0075476D01*
X0018445Y0075438D01*
X0018624Y0075395D01*
X0018803Y0075348D01*
X0018980Y0075296D01*
X0019156Y0075241D01*
X0019331Y0075181D01*
X0019504Y0075117D01*
X0019675Y0075049D01*
X0019845Y0074977D01*
X0020013Y0074900D01*
X0020179Y0074820D01*
X0020343Y0074736D01*
X0020506Y0074648D01*
X0020666Y0074556D01*
X0020823Y0074460D01*
X0020979Y0074360D01*
X0021132Y0074257D01*
X0021282Y0074150D01*
X0021430Y0074040D01*
X0021575Y0073926D01*
X0021717Y0073808D01*
X0021857Y0073687D01*
X0021993Y0073563D01*
X0022127Y0073436D01*
X0022257Y0073305D01*
X0022385Y0073172D01*
X0022509Y0073035D01*
X0022629Y0072896D01*
X0022557Y0072835D01*
X0022438Y0072973D01*
X0022315Y0073108D01*
X0022190Y0073240D01*
X0022061Y0073369D01*
X0021929Y0073495D01*
X0021794Y0073617D01*
X0021656Y0073737D01*
X0021516Y0073853D01*
X0021372Y0073965D01*
X0021226Y0074074D01*
X0021078Y0074180D01*
X0020927Y0074282D01*
X0020773Y0074380D01*
X0020618Y0074475D01*
X0020460Y0074566D01*
X0020299Y0074653D01*
X0020137Y0074736D01*
X0019973Y0074815D01*
X0019807Y0074890D01*
X0019639Y0074962D01*
X0019470Y0075029D01*
X0019299Y0075092D01*
X0019127Y0075151D01*
X0018953Y0075206D01*
X0018778Y0075257D01*
X0018602Y0075304D01*
X0018424Y0075346D01*
X0018246Y0075384D01*
X0018067Y0075418D01*
X0017887Y0075447D01*
X0017707Y0075472D01*
X0017526Y0075493D01*
X0017344Y0075510D01*
X0017162Y0075522D01*
X0016980Y0075529D01*
X0016798Y0075533D01*
X0033176Y0073614D02*
X0033176Y0072113D01*
X0033927Y0072113D01*
X0034177Y0072363D01*
X0034177Y0073364D01*
X0033927Y0073614D01*
X0033176Y0073614D01*
X0034649Y0073364D02*
X0034649Y0072363D01*
X0034899Y0072113D01*
X0035400Y0072113D01*
X0035650Y0072363D01*
X0036122Y0072864D02*
X0037123Y0072864D01*
X0036623Y0073364D02*
X0036623Y0072363D01*
X0035650Y0073364D02*
X0035400Y0073614D01*
X0034899Y0073614D01*
X0034649Y0073364D01*
D11*
X0027575Y0067732D02*
X0027575Y0052181D01*
X0029543Y0052181D01*
X0029543Y0044307D01*
X0027575Y0044307D01*
X0027575Y0028756D01*
X0045291Y0028756D01*
X0045291Y0067732D01*
X0027575Y0067732D01*
D12*
X0014371Y0059396D02*
X0013103Y0059396D01*
X0013737Y0059396D02*
X0013737Y0057494D01*
X0012161Y0057811D02*
X0012161Y0059396D01*
X0010893Y0059396D02*
X0010893Y0057811D01*
X0011210Y0057494D01*
X0011844Y0057494D01*
X0012161Y0057811D01*
X0009951Y0057811D02*
X0009951Y0059079D01*
X0009634Y0059396D01*
X0009000Y0059396D01*
X0008683Y0059079D01*
X0008683Y0057811D01*
X0009000Y0057494D01*
X0009634Y0057494D01*
X0009951Y0057811D01*
X0010156Y0039711D02*
X0010790Y0039711D01*
X0010473Y0039711D02*
X0010473Y0037809D01*
X0010156Y0037809D02*
X0010790Y0037809D01*
X0011630Y0037809D02*
X0011630Y0039711D01*
X0012897Y0037809D01*
X0012897Y0039711D01*
X0013103Y0077179D02*
X0013103Y0079081D01*
X0014054Y0079081D01*
X0014371Y0078764D01*
X0014371Y0078130D01*
X0014054Y0077813D01*
X0013103Y0077813D01*
X0013737Y0077813D02*
X0014371Y0077179D01*
X0012161Y0077179D02*
X0012161Y0079081D01*
X0011527Y0077813D02*
X0012161Y0077179D01*
X0011527Y0077813D02*
X0010893Y0077179D01*
X0010893Y0079081D01*
X0009951Y0078764D02*
X0009951Y0078130D01*
X0009634Y0077813D01*
X0008683Y0077813D01*
X0008683Y0077179D02*
X0008683Y0079081D01*
X0009634Y0079081D01*
X0009951Y0078764D01*
X0036998Y0027052D02*
X0036681Y0026735D01*
X0036681Y0025784D01*
X0038583Y0025784D01*
X0038583Y0026735D01*
X0038266Y0027052D01*
X0036998Y0027052D01*
X0036681Y0024842D02*
X0036681Y0023574D01*
X0038583Y0023574D01*
X0038583Y0024842D01*
X0037632Y0024208D02*
X0037632Y0023574D01*
X0038583Y0022632D02*
X0038583Y0021364D01*
X0036681Y0021364D01*
D13*
X0022948Y0023459D02*
X0022948Y0025259D01*
X0022948Y0031659D02*
X0022948Y0033659D01*
X0022948Y0043144D02*
X0022948Y0044944D01*
X0022948Y0051344D02*
X0022948Y0053344D01*
X0022948Y0062829D02*
X0022948Y0064629D01*
X0022948Y0071029D02*
X0022948Y0073029D01*
M02*
