G75*
%MOIN*%
%OFA0B0*%
%FSLAX25Y25*%
%IPPOS*%
%LPD*%
%AMOC8*
5,1,8,0,0,1.08239X$1,22.5*
%
%ADD10C,0.00000*%
D10*
X0001686Y0001500D02*
X0001686Y0284965D01*
X0094206Y0284965D01*
X0094206Y0001500D01*
X0001686Y0001500D01*
X0007198Y0013311D02*
X0007200Y0013469D01*
X0007206Y0013627D01*
X0007216Y0013785D01*
X0007230Y0013943D01*
X0007248Y0014100D01*
X0007269Y0014257D01*
X0007295Y0014413D01*
X0007325Y0014569D01*
X0007358Y0014724D01*
X0007396Y0014877D01*
X0007437Y0015030D01*
X0007482Y0015182D01*
X0007531Y0015333D01*
X0007584Y0015482D01*
X0007640Y0015630D01*
X0007700Y0015776D01*
X0007764Y0015921D01*
X0007832Y0016064D01*
X0007903Y0016206D01*
X0007977Y0016346D01*
X0008055Y0016483D01*
X0008137Y0016619D01*
X0008221Y0016753D01*
X0008310Y0016884D01*
X0008401Y0017013D01*
X0008496Y0017140D01*
X0008593Y0017265D01*
X0008694Y0017387D01*
X0008798Y0017506D01*
X0008905Y0017623D01*
X0009015Y0017737D01*
X0009128Y0017848D01*
X0009243Y0017957D01*
X0009361Y0018062D01*
X0009482Y0018164D01*
X0009605Y0018264D01*
X0009731Y0018360D01*
X0009859Y0018453D01*
X0009989Y0018543D01*
X0010122Y0018629D01*
X0010257Y0018713D01*
X0010393Y0018792D01*
X0010532Y0018869D01*
X0010673Y0018941D01*
X0010815Y0019011D01*
X0010959Y0019076D01*
X0011105Y0019138D01*
X0011252Y0019196D01*
X0011401Y0019251D01*
X0011551Y0019302D01*
X0011702Y0019349D01*
X0011854Y0019392D01*
X0012007Y0019431D01*
X0012162Y0019467D01*
X0012317Y0019498D01*
X0012473Y0019526D01*
X0012629Y0019550D01*
X0012786Y0019570D01*
X0012944Y0019586D01*
X0013101Y0019598D01*
X0013260Y0019606D01*
X0013418Y0019610D01*
X0013576Y0019610D01*
X0013734Y0019606D01*
X0013893Y0019598D01*
X0014050Y0019586D01*
X0014208Y0019570D01*
X0014365Y0019550D01*
X0014521Y0019526D01*
X0014677Y0019498D01*
X0014832Y0019467D01*
X0014987Y0019431D01*
X0015140Y0019392D01*
X0015292Y0019349D01*
X0015443Y0019302D01*
X0015593Y0019251D01*
X0015742Y0019196D01*
X0015889Y0019138D01*
X0016035Y0019076D01*
X0016179Y0019011D01*
X0016321Y0018941D01*
X0016462Y0018869D01*
X0016601Y0018792D01*
X0016737Y0018713D01*
X0016872Y0018629D01*
X0017005Y0018543D01*
X0017135Y0018453D01*
X0017263Y0018360D01*
X0017389Y0018264D01*
X0017512Y0018164D01*
X0017633Y0018062D01*
X0017751Y0017957D01*
X0017866Y0017848D01*
X0017979Y0017737D01*
X0018089Y0017623D01*
X0018196Y0017506D01*
X0018300Y0017387D01*
X0018401Y0017265D01*
X0018498Y0017140D01*
X0018593Y0017013D01*
X0018684Y0016884D01*
X0018773Y0016753D01*
X0018857Y0016619D01*
X0018939Y0016483D01*
X0019017Y0016346D01*
X0019091Y0016206D01*
X0019162Y0016064D01*
X0019230Y0015921D01*
X0019294Y0015776D01*
X0019354Y0015630D01*
X0019410Y0015482D01*
X0019463Y0015333D01*
X0019512Y0015182D01*
X0019557Y0015030D01*
X0019598Y0014877D01*
X0019636Y0014724D01*
X0019669Y0014569D01*
X0019699Y0014413D01*
X0019725Y0014257D01*
X0019746Y0014100D01*
X0019764Y0013943D01*
X0019778Y0013785D01*
X0019788Y0013627D01*
X0019794Y0013469D01*
X0019796Y0013311D01*
X0019794Y0013153D01*
X0019788Y0012995D01*
X0019778Y0012837D01*
X0019764Y0012679D01*
X0019746Y0012522D01*
X0019725Y0012365D01*
X0019699Y0012209D01*
X0019669Y0012053D01*
X0019636Y0011898D01*
X0019598Y0011745D01*
X0019557Y0011592D01*
X0019512Y0011440D01*
X0019463Y0011289D01*
X0019410Y0011140D01*
X0019354Y0010992D01*
X0019294Y0010846D01*
X0019230Y0010701D01*
X0019162Y0010558D01*
X0019091Y0010416D01*
X0019017Y0010276D01*
X0018939Y0010139D01*
X0018857Y0010003D01*
X0018773Y0009869D01*
X0018684Y0009738D01*
X0018593Y0009609D01*
X0018498Y0009482D01*
X0018401Y0009357D01*
X0018300Y0009235D01*
X0018196Y0009116D01*
X0018089Y0008999D01*
X0017979Y0008885D01*
X0017866Y0008774D01*
X0017751Y0008665D01*
X0017633Y0008560D01*
X0017512Y0008458D01*
X0017389Y0008358D01*
X0017263Y0008262D01*
X0017135Y0008169D01*
X0017005Y0008079D01*
X0016872Y0007993D01*
X0016737Y0007909D01*
X0016601Y0007830D01*
X0016462Y0007753D01*
X0016321Y0007681D01*
X0016179Y0007611D01*
X0016035Y0007546D01*
X0015889Y0007484D01*
X0015742Y0007426D01*
X0015593Y0007371D01*
X0015443Y0007320D01*
X0015292Y0007273D01*
X0015140Y0007230D01*
X0014987Y0007191D01*
X0014832Y0007155D01*
X0014677Y0007124D01*
X0014521Y0007096D01*
X0014365Y0007072D01*
X0014208Y0007052D01*
X0014050Y0007036D01*
X0013893Y0007024D01*
X0013734Y0007016D01*
X0013576Y0007012D01*
X0013418Y0007012D01*
X0013260Y0007016D01*
X0013101Y0007024D01*
X0012944Y0007036D01*
X0012786Y0007052D01*
X0012629Y0007072D01*
X0012473Y0007096D01*
X0012317Y0007124D01*
X0012162Y0007155D01*
X0012007Y0007191D01*
X0011854Y0007230D01*
X0011702Y0007273D01*
X0011551Y0007320D01*
X0011401Y0007371D01*
X0011252Y0007426D01*
X0011105Y0007484D01*
X0010959Y0007546D01*
X0010815Y0007611D01*
X0010673Y0007681D01*
X0010532Y0007753D01*
X0010393Y0007830D01*
X0010257Y0007909D01*
X0010122Y0007993D01*
X0009989Y0008079D01*
X0009859Y0008169D01*
X0009731Y0008262D01*
X0009605Y0008358D01*
X0009482Y0008458D01*
X0009361Y0008560D01*
X0009243Y0008665D01*
X0009128Y0008774D01*
X0009015Y0008885D01*
X0008905Y0008999D01*
X0008798Y0009116D01*
X0008694Y0009235D01*
X0008593Y0009357D01*
X0008496Y0009482D01*
X0008401Y0009609D01*
X0008310Y0009738D01*
X0008221Y0009869D01*
X0008137Y0010003D01*
X0008055Y0010139D01*
X0007977Y0010276D01*
X0007903Y0010416D01*
X0007832Y0010558D01*
X0007764Y0010701D01*
X0007700Y0010846D01*
X0007640Y0010992D01*
X0007584Y0011140D01*
X0007531Y0011289D01*
X0007482Y0011440D01*
X0007437Y0011592D01*
X0007396Y0011745D01*
X0007358Y0011898D01*
X0007325Y0012053D01*
X0007295Y0012209D01*
X0007269Y0012365D01*
X0007248Y0012522D01*
X0007230Y0012679D01*
X0007216Y0012837D01*
X0007206Y0012995D01*
X0007200Y0013153D01*
X0007198Y0013311D01*
X0076096Y0013311D02*
X0076098Y0013469D01*
X0076104Y0013627D01*
X0076114Y0013785D01*
X0076128Y0013943D01*
X0076146Y0014100D01*
X0076167Y0014257D01*
X0076193Y0014413D01*
X0076223Y0014569D01*
X0076256Y0014724D01*
X0076294Y0014877D01*
X0076335Y0015030D01*
X0076380Y0015182D01*
X0076429Y0015333D01*
X0076482Y0015482D01*
X0076538Y0015630D01*
X0076598Y0015776D01*
X0076662Y0015921D01*
X0076730Y0016064D01*
X0076801Y0016206D01*
X0076875Y0016346D01*
X0076953Y0016483D01*
X0077035Y0016619D01*
X0077119Y0016753D01*
X0077208Y0016884D01*
X0077299Y0017013D01*
X0077394Y0017140D01*
X0077491Y0017265D01*
X0077592Y0017387D01*
X0077696Y0017506D01*
X0077803Y0017623D01*
X0077913Y0017737D01*
X0078026Y0017848D01*
X0078141Y0017957D01*
X0078259Y0018062D01*
X0078380Y0018164D01*
X0078503Y0018264D01*
X0078629Y0018360D01*
X0078757Y0018453D01*
X0078887Y0018543D01*
X0079020Y0018629D01*
X0079155Y0018713D01*
X0079291Y0018792D01*
X0079430Y0018869D01*
X0079571Y0018941D01*
X0079713Y0019011D01*
X0079857Y0019076D01*
X0080003Y0019138D01*
X0080150Y0019196D01*
X0080299Y0019251D01*
X0080449Y0019302D01*
X0080600Y0019349D01*
X0080752Y0019392D01*
X0080905Y0019431D01*
X0081060Y0019467D01*
X0081215Y0019498D01*
X0081371Y0019526D01*
X0081527Y0019550D01*
X0081684Y0019570D01*
X0081842Y0019586D01*
X0081999Y0019598D01*
X0082158Y0019606D01*
X0082316Y0019610D01*
X0082474Y0019610D01*
X0082632Y0019606D01*
X0082791Y0019598D01*
X0082948Y0019586D01*
X0083106Y0019570D01*
X0083263Y0019550D01*
X0083419Y0019526D01*
X0083575Y0019498D01*
X0083730Y0019467D01*
X0083885Y0019431D01*
X0084038Y0019392D01*
X0084190Y0019349D01*
X0084341Y0019302D01*
X0084491Y0019251D01*
X0084640Y0019196D01*
X0084787Y0019138D01*
X0084933Y0019076D01*
X0085077Y0019011D01*
X0085219Y0018941D01*
X0085360Y0018869D01*
X0085499Y0018792D01*
X0085635Y0018713D01*
X0085770Y0018629D01*
X0085903Y0018543D01*
X0086033Y0018453D01*
X0086161Y0018360D01*
X0086287Y0018264D01*
X0086410Y0018164D01*
X0086531Y0018062D01*
X0086649Y0017957D01*
X0086764Y0017848D01*
X0086877Y0017737D01*
X0086987Y0017623D01*
X0087094Y0017506D01*
X0087198Y0017387D01*
X0087299Y0017265D01*
X0087396Y0017140D01*
X0087491Y0017013D01*
X0087582Y0016884D01*
X0087671Y0016753D01*
X0087755Y0016619D01*
X0087837Y0016483D01*
X0087915Y0016346D01*
X0087989Y0016206D01*
X0088060Y0016064D01*
X0088128Y0015921D01*
X0088192Y0015776D01*
X0088252Y0015630D01*
X0088308Y0015482D01*
X0088361Y0015333D01*
X0088410Y0015182D01*
X0088455Y0015030D01*
X0088496Y0014877D01*
X0088534Y0014724D01*
X0088567Y0014569D01*
X0088597Y0014413D01*
X0088623Y0014257D01*
X0088644Y0014100D01*
X0088662Y0013943D01*
X0088676Y0013785D01*
X0088686Y0013627D01*
X0088692Y0013469D01*
X0088694Y0013311D01*
X0088692Y0013153D01*
X0088686Y0012995D01*
X0088676Y0012837D01*
X0088662Y0012679D01*
X0088644Y0012522D01*
X0088623Y0012365D01*
X0088597Y0012209D01*
X0088567Y0012053D01*
X0088534Y0011898D01*
X0088496Y0011745D01*
X0088455Y0011592D01*
X0088410Y0011440D01*
X0088361Y0011289D01*
X0088308Y0011140D01*
X0088252Y0010992D01*
X0088192Y0010846D01*
X0088128Y0010701D01*
X0088060Y0010558D01*
X0087989Y0010416D01*
X0087915Y0010276D01*
X0087837Y0010139D01*
X0087755Y0010003D01*
X0087671Y0009869D01*
X0087582Y0009738D01*
X0087491Y0009609D01*
X0087396Y0009482D01*
X0087299Y0009357D01*
X0087198Y0009235D01*
X0087094Y0009116D01*
X0086987Y0008999D01*
X0086877Y0008885D01*
X0086764Y0008774D01*
X0086649Y0008665D01*
X0086531Y0008560D01*
X0086410Y0008458D01*
X0086287Y0008358D01*
X0086161Y0008262D01*
X0086033Y0008169D01*
X0085903Y0008079D01*
X0085770Y0007993D01*
X0085635Y0007909D01*
X0085499Y0007830D01*
X0085360Y0007753D01*
X0085219Y0007681D01*
X0085077Y0007611D01*
X0084933Y0007546D01*
X0084787Y0007484D01*
X0084640Y0007426D01*
X0084491Y0007371D01*
X0084341Y0007320D01*
X0084190Y0007273D01*
X0084038Y0007230D01*
X0083885Y0007191D01*
X0083730Y0007155D01*
X0083575Y0007124D01*
X0083419Y0007096D01*
X0083263Y0007072D01*
X0083106Y0007052D01*
X0082948Y0007036D01*
X0082791Y0007024D01*
X0082632Y0007016D01*
X0082474Y0007012D01*
X0082316Y0007012D01*
X0082158Y0007016D01*
X0081999Y0007024D01*
X0081842Y0007036D01*
X0081684Y0007052D01*
X0081527Y0007072D01*
X0081371Y0007096D01*
X0081215Y0007124D01*
X0081060Y0007155D01*
X0080905Y0007191D01*
X0080752Y0007230D01*
X0080600Y0007273D01*
X0080449Y0007320D01*
X0080299Y0007371D01*
X0080150Y0007426D01*
X0080003Y0007484D01*
X0079857Y0007546D01*
X0079713Y0007611D01*
X0079571Y0007681D01*
X0079430Y0007753D01*
X0079291Y0007830D01*
X0079155Y0007909D01*
X0079020Y0007993D01*
X0078887Y0008079D01*
X0078757Y0008169D01*
X0078629Y0008262D01*
X0078503Y0008358D01*
X0078380Y0008458D01*
X0078259Y0008560D01*
X0078141Y0008665D01*
X0078026Y0008774D01*
X0077913Y0008885D01*
X0077803Y0008999D01*
X0077696Y0009116D01*
X0077592Y0009235D01*
X0077491Y0009357D01*
X0077394Y0009482D01*
X0077299Y0009609D01*
X0077208Y0009738D01*
X0077119Y0009869D01*
X0077035Y0010003D01*
X0076953Y0010139D01*
X0076875Y0010276D01*
X0076801Y0010416D01*
X0076730Y0010558D01*
X0076662Y0010701D01*
X0076598Y0010846D01*
X0076538Y0010992D01*
X0076482Y0011140D01*
X0076429Y0011289D01*
X0076380Y0011440D01*
X0076335Y0011592D01*
X0076294Y0011745D01*
X0076256Y0011898D01*
X0076223Y0012053D01*
X0076193Y0012209D01*
X0076167Y0012365D01*
X0076146Y0012522D01*
X0076128Y0012679D01*
X0076114Y0012837D01*
X0076104Y0012995D01*
X0076098Y0013153D01*
X0076096Y0013311D01*
X0076096Y0273154D02*
X0076098Y0273312D01*
X0076104Y0273470D01*
X0076114Y0273628D01*
X0076128Y0273786D01*
X0076146Y0273943D01*
X0076167Y0274100D01*
X0076193Y0274256D01*
X0076223Y0274412D01*
X0076256Y0274567D01*
X0076294Y0274720D01*
X0076335Y0274873D01*
X0076380Y0275025D01*
X0076429Y0275176D01*
X0076482Y0275325D01*
X0076538Y0275473D01*
X0076598Y0275619D01*
X0076662Y0275764D01*
X0076730Y0275907D01*
X0076801Y0276049D01*
X0076875Y0276189D01*
X0076953Y0276326D01*
X0077035Y0276462D01*
X0077119Y0276596D01*
X0077208Y0276727D01*
X0077299Y0276856D01*
X0077394Y0276983D01*
X0077491Y0277108D01*
X0077592Y0277230D01*
X0077696Y0277349D01*
X0077803Y0277466D01*
X0077913Y0277580D01*
X0078026Y0277691D01*
X0078141Y0277800D01*
X0078259Y0277905D01*
X0078380Y0278007D01*
X0078503Y0278107D01*
X0078629Y0278203D01*
X0078757Y0278296D01*
X0078887Y0278386D01*
X0079020Y0278472D01*
X0079155Y0278556D01*
X0079291Y0278635D01*
X0079430Y0278712D01*
X0079571Y0278784D01*
X0079713Y0278854D01*
X0079857Y0278919D01*
X0080003Y0278981D01*
X0080150Y0279039D01*
X0080299Y0279094D01*
X0080449Y0279145D01*
X0080600Y0279192D01*
X0080752Y0279235D01*
X0080905Y0279274D01*
X0081060Y0279310D01*
X0081215Y0279341D01*
X0081371Y0279369D01*
X0081527Y0279393D01*
X0081684Y0279413D01*
X0081842Y0279429D01*
X0081999Y0279441D01*
X0082158Y0279449D01*
X0082316Y0279453D01*
X0082474Y0279453D01*
X0082632Y0279449D01*
X0082791Y0279441D01*
X0082948Y0279429D01*
X0083106Y0279413D01*
X0083263Y0279393D01*
X0083419Y0279369D01*
X0083575Y0279341D01*
X0083730Y0279310D01*
X0083885Y0279274D01*
X0084038Y0279235D01*
X0084190Y0279192D01*
X0084341Y0279145D01*
X0084491Y0279094D01*
X0084640Y0279039D01*
X0084787Y0278981D01*
X0084933Y0278919D01*
X0085077Y0278854D01*
X0085219Y0278784D01*
X0085360Y0278712D01*
X0085499Y0278635D01*
X0085635Y0278556D01*
X0085770Y0278472D01*
X0085903Y0278386D01*
X0086033Y0278296D01*
X0086161Y0278203D01*
X0086287Y0278107D01*
X0086410Y0278007D01*
X0086531Y0277905D01*
X0086649Y0277800D01*
X0086764Y0277691D01*
X0086877Y0277580D01*
X0086987Y0277466D01*
X0087094Y0277349D01*
X0087198Y0277230D01*
X0087299Y0277108D01*
X0087396Y0276983D01*
X0087491Y0276856D01*
X0087582Y0276727D01*
X0087671Y0276596D01*
X0087755Y0276462D01*
X0087837Y0276326D01*
X0087915Y0276189D01*
X0087989Y0276049D01*
X0088060Y0275907D01*
X0088128Y0275764D01*
X0088192Y0275619D01*
X0088252Y0275473D01*
X0088308Y0275325D01*
X0088361Y0275176D01*
X0088410Y0275025D01*
X0088455Y0274873D01*
X0088496Y0274720D01*
X0088534Y0274567D01*
X0088567Y0274412D01*
X0088597Y0274256D01*
X0088623Y0274100D01*
X0088644Y0273943D01*
X0088662Y0273786D01*
X0088676Y0273628D01*
X0088686Y0273470D01*
X0088692Y0273312D01*
X0088694Y0273154D01*
X0088692Y0272996D01*
X0088686Y0272838D01*
X0088676Y0272680D01*
X0088662Y0272522D01*
X0088644Y0272365D01*
X0088623Y0272208D01*
X0088597Y0272052D01*
X0088567Y0271896D01*
X0088534Y0271741D01*
X0088496Y0271588D01*
X0088455Y0271435D01*
X0088410Y0271283D01*
X0088361Y0271132D01*
X0088308Y0270983D01*
X0088252Y0270835D01*
X0088192Y0270689D01*
X0088128Y0270544D01*
X0088060Y0270401D01*
X0087989Y0270259D01*
X0087915Y0270119D01*
X0087837Y0269982D01*
X0087755Y0269846D01*
X0087671Y0269712D01*
X0087582Y0269581D01*
X0087491Y0269452D01*
X0087396Y0269325D01*
X0087299Y0269200D01*
X0087198Y0269078D01*
X0087094Y0268959D01*
X0086987Y0268842D01*
X0086877Y0268728D01*
X0086764Y0268617D01*
X0086649Y0268508D01*
X0086531Y0268403D01*
X0086410Y0268301D01*
X0086287Y0268201D01*
X0086161Y0268105D01*
X0086033Y0268012D01*
X0085903Y0267922D01*
X0085770Y0267836D01*
X0085635Y0267752D01*
X0085499Y0267673D01*
X0085360Y0267596D01*
X0085219Y0267524D01*
X0085077Y0267454D01*
X0084933Y0267389D01*
X0084787Y0267327D01*
X0084640Y0267269D01*
X0084491Y0267214D01*
X0084341Y0267163D01*
X0084190Y0267116D01*
X0084038Y0267073D01*
X0083885Y0267034D01*
X0083730Y0266998D01*
X0083575Y0266967D01*
X0083419Y0266939D01*
X0083263Y0266915D01*
X0083106Y0266895D01*
X0082948Y0266879D01*
X0082791Y0266867D01*
X0082632Y0266859D01*
X0082474Y0266855D01*
X0082316Y0266855D01*
X0082158Y0266859D01*
X0081999Y0266867D01*
X0081842Y0266879D01*
X0081684Y0266895D01*
X0081527Y0266915D01*
X0081371Y0266939D01*
X0081215Y0266967D01*
X0081060Y0266998D01*
X0080905Y0267034D01*
X0080752Y0267073D01*
X0080600Y0267116D01*
X0080449Y0267163D01*
X0080299Y0267214D01*
X0080150Y0267269D01*
X0080003Y0267327D01*
X0079857Y0267389D01*
X0079713Y0267454D01*
X0079571Y0267524D01*
X0079430Y0267596D01*
X0079291Y0267673D01*
X0079155Y0267752D01*
X0079020Y0267836D01*
X0078887Y0267922D01*
X0078757Y0268012D01*
X0078629Y0268105D01*
X0078503Y0268201D01*
X0078380Y0268301D01*
X0078259Y0268403D01*
X0078141Y0268508D01*
X0078026Y0268617D01*
X0077913Y0268728D01*
X0077803Y0268842D01*
X0077696Y0268959D01*
X0077592Y0269078D01*
X0077491Y0269200D01*
X0077394Y0269325D01*
X0077299Y0269452D01*
X0077208Y0269581D01*
X0077119Y0269712D01*
X0077035Y0269846D01*
X0076953Y0269982D01*
X0076875Y0270119D01*
X0076801Y0270259D01*
X0076730Y0270401D01*
X0076662Y0270544D01*
X0076598Y0270689D01*
X0076538Y0270835D01*
X0076482Y0270983D01*
X0076429Y0271132D01*
X0076380Y0271283D01*
X0076335Y0271435D01*
X0076294Y0271588D01*
X0076256Y0271741D01*
X0076223Y0271896D01*
X0076193Y0272052D01*
X0076167Y0272208D01*
X0076146Y0272365D01*
X0076128Y0272522D01*
X0076114Y0272680D01*
X0076104Y0272838D01*
X0076098Y0272996D01*
X0076096Y0273154D01*
X0007198Y0273154D02*
X0007200Y0273312D01*
X0007206Y0273470D01*
X0007216Y0273628D01*
X0007230Y0273786D01*
X0007248Y0273943D01*
X0007269Y0274100D01*
X0007295Y0274256D01*
X0007325Y0274412D01*
X0007358Y0274567D01*
X0007396Y0274720D01*
X0007437Y0274873D01*
X0007482Y0275025D01*
X0007531Y0275176D01*
X0007584Y0275325D01*
X0007640Y0275473D01*
X0007700Y0275619D01*
X0007764Y0275764D01*
X0007832Y0275907D01*
X0007903Y0276049D01*
X0007977Y0276189D01*
X0008055Y0276326D01*
X0008137Y0276462D01*
X0008221Y0276596D01*
X0008310Y0276727D01*
X0008401Y0276856D01*
X0008496Y0276983D01*
X0008593Y0277108D01*
X0008694Y0277230D01*
X0008798Y0277349D01*
X0008905Y0277466D01*
X0009015Y0277580D01*
X0009128Y0277691D01*
X0009243Y0277800D01*
X0009361Y0277905D01*
X0009482Y0278007D01*
X0009605Y0278107D01*
X0009731Y0278203D01*
X0009859Y0278296D01*
X0009989Y0278386D01*
X0010122Y0278472D01*
X0010257Y0278556D01*
X0010393Y0278635D01*
X0010532Y0278712D01*
X0010673Y0278784D01*
X0010815Y0278854D01*
X0010959Y0278919D01*
X0011105Y0278981D01*
X0011252Y0279039D01*
X0011401Y0279094D01*
X0011551Y0279145D01*
X0011702Y0279192D01*
X0011854Y0279235D01*
X0012007Y0279274D01*
X0012162Y0279310D01*
X0012317Y0279341D01*
X0012473Y0279369D01*
X0012629Y0279393D01*
X0012786Y0279413D01*
X0012944Y0279429D01*
X0013101Y0279441D01*
X0013260Y0279449D01*
X0013418Y0279453D01*
X0013576Y0279453D01*
X0013734Y0279449D01*
X0013893Y0279441D01*
X0014050Y0279429D01*
X0014208Y0279413D01*
X0014365Y0279393D01*
X0014521Y0279369D01*
X0014677Y0279341D01*
X0014832Y0279310D01*
X0014987Y0279274D01*
X0015140Y0279235D01*
X0015292Y0279192D01*
X0015443Y0279145D01*
X0015593Y0279094D01*
X0015742Y0279039D01*
X0015889Y0278981D01*
X0016035Y0278919D01*
X0016179Y0278854D01*
X0016321Y0278784D01*
X0016462Y0278712D01*
X0016601Y0278635D01*
X0016737Y0278556D01*
X0016872Y0278472D01*
X0017005Y0278386D01*
X0017135Y0278296D01*
X0017263Y0278203D01*
X0017389Y0278107D01*
X0017512Y0278007D01*
X0017633Y0277905D01*
X0017751Y0277800D01*
X0017866Y0277691D01*
X0017979Y0277580D01*
X0018089Y0277466D01*
X0018196Y0277349D01*
X0018300Y0277230D01*
X0018401Y0277108D01*
X0018498Y0276983D01*
X0018593Y0276856D01*
X0018684Y0276727D01*
X0018773Y0276596D01*
X0018857Y0276462D01*
X0018939Y0276326D01*
X0019017Y0276189D01*
X0019091Y0276049D01*
X0019162Y0275907D01*
X0019230Y0275764D01*
X0019294Y0275619D01*
X0019354Y0275473D01*
X0019410Y0275325D01*
X0019463Y0275176D01*
X0019512Y0275025D01*
X0019557Y0274873D01*
X0019598Y0274720D01*
X0019636Y0274567D01*
X0019669Y0274412D01*
X0019699Y0274256D01*
X0019725Y0274100D01*
X0019746Y0273943D01*
X0019764Y0273786D01*
X0019778Y0273628D01*
X0019788Y0273470D01*
X0019794Y0273312D01*
X0019796Y0273154D01*
X0019794Y0272996D01*
X0019788Y0272838D01*
X0019778Y0272680D01*
X0019764Y0272522D01*
X0019746Y0272365D01*
X0019725Y0272208D01*
X0019699Y0272052D01*
X0019669Y0271896D01*
X0019636Y0271741D01*
X0019598Y0271588D01*
X0019557Y0271435D01*
X0019512Y0271283D01*
X0019463Y0271132D01*
X0019410Y0270983D01*
X0019354Y0270835D01*
X0019294Y0270689D01*
X0019230Y0270544D01*
X0019162Y0270401D01*
X0019091Y0270259D01*
X0019017Y0270119D01*
X0018939Y0269982D01*
X0018857Y0269846D01*
X0018773Y0269712D01*
X0018684Y0269581D01*
X0018593Y0269452D01*
X0018498Y0269325D01*
X0018401Y0269200D01*
X0018300Y0269078D01*
X0018196Y0268959D01*
X0018089Y0268842D01*
X0017979Y0268728D01*
X0017866Y0268617D01*
X0017751Y0268508D01*
X0017633Y0268403D01*
X0017512Y0268301D01*
X0017389Y0268201D01*
X0017263Y0268105D01*
X0017135Y0268012D01*
X0017005Y0267922D01*
X0016872Y0267836D01*
X0016737Y0267752D01*
X0016601Y0267673D01*
X0016462Y0267596D01*
X0016321Y0267524D01*
X0016179Y0267454D01*
X0016035Y0267389D01*
X0015889Y0267327D01*
X0015742Y0267269D01*
X0015593Y0267214D01*
X0015443Y0267163D01*
X0015292Y0267116D01*
X0015140Y0267073D01*
X0014987Y0267034D01*
X0014832Y0266998D01*
X0014677Y0266967D01*
X0014521Y0266939D01*
X0014365Y0266915D01*
X0014208Y0266895D01*
X0014050Y0266879D01*
X0013893Y0266867D01*
X0013734Y0266859D01*
X0013576Y0266855D01*
X0013418Y0266855D01*
X0013260Y0266859D01*
X0013101Y0266867D01*
X0012944Y0266879D01*
X0012786Y0266895D01*
X0012629Y0266915D01*
X0012473Y0266939D01*
X0012317Y0266967D01*
X0012162Y0266998D01*
X0012007Y0267034D01*
X0011854Y0267073D01*
X0011702Y0267116D01*
X0011551Y0267163D01*
X0011401Y0267214D01*
X0011252Y0267269D01*
X0011105Y0267327D01*
X0010959Y0267389D01*
X0010815Y0267454D01*
X0010673Y0267524D01*
X0010532Y0267596D01*
X0010393Y0267673D01*
X0010257Y0267752D01*
X0010122Y0267836D01*
X0009989Y0267922D01*
X0009859Y0268012D01*
X0009731Y0268105D01*
X0009605Y0268201D01*
X0009482Y0268301D01*
X0009361Y0268403D01*
X0009243Y0268508D01*
X0009128Y0268617D01*
X0009015Y0268728D01*
X0008905Y0268842D01*
X0008798Y0268959D01*
X0008694Y0269078D01*
X0008593Y0269200D01*
X0008496Y0269325D01*
X0008401Y0269452D01*
X0008310Y0269581D01*
X0008221Y0269712D01*
X0008137Y0269846D01*
X0008055Y0269982D01*
X0007977Y0270119D01*
X0007903Y0270259D01*
X0007832Y0270401D01*
X0007764Y0270544D01*
X0007700Y0270689D01*
X0007640Y0270835D01*
X0007584Y0270983D01*
X0007531Y0271132D01*
X0007482Y0271283D01*
X0007437Y0271435D01*
X0007396Y0271588D01*
X0007358Y0271741D01*
X0007325Y0271896D01*
X0007295Y0272052D01*
X0007269Y0272208D01*
X0007248Y0272365D01*
X0007230Y0272522D01*
X0007216Y0272680D01*
X0007206Y0272838D01*
X0007200Y0272996D01*
X0007198Y0273154D01*
M02*
