G75*
%MOIN*%
%OFA0B0*%
%FSLAX25Y25*%
%IPPOS*%
%LPD*%
%AMOC8*
5,1,8,0,0,1.08239X$1,22.5*
%
%ADD10C,0.00300*%
%ADD11C,0.00600*%
%ADD12C,0.01000*%
%ADD13C,0.00500*%
%ADD14R,0.01500X0.07000*%
%ADD15R,0.05500X0.02000*%
%ADD16C,0.00400*%
%ADD17C,0.00800*%
D10*
X0033634Y0031650D02*
X0033634Y0033101D01*
X0034117Y0033585D01*
X0035085Y0033585D01*
X0035568Y0033101D01*
X0035568Y0031650D01*
X0036536Y0031650D02*
X0033634Y0031650D01*
X0033634Y0034597D02*
X0036536Y0034597D01*
X0035568Y0035564D01*
X0036536Y0036531D01*
X0033634Y0036531D01*
X0033634Y0037543D02*
X0033634Y0038994D01*
X0034117Y0039478D01*
X0035085Y0039478D01*
X0035568Y0038994D01*
X0035568Y0037543D01*
X0035568Y0038511D02*
X0036536Y0039478D01*
X0036052Y0040490D02*
X0036536Y0040973D01*
X0036536Y0041941D01*
X0036052Y0042425D01*
X0035085Y0042425D01*
X0034601Y0041941D01*
X0034601Y0041457D01*
X0035085Y0040490D01*
X0033634Y0040490D01*
X0033634Y0042425D01*
X0033634Y0043436D02*
X0035568Y0043436D01*
X0036536Y0044404D01*
X0035568Y0045371D01*
X0033634Y0045371D01*
X0033634Y0037543D02*
X0036536Y0037543D01*
X0036536Y0056650D02*
X0033634Y0056650D01*
X0033634Y0058585D01*
X0033634Y0059597D02*
X0033634Y0061048D01*
X0034117Y0061531D01*
X0035085Y0061531D01*
X0035568Y0061048D01*
X0035568Y0059597D01*
X0035568Y0060564D02*
X0036536Y0061531D01*
X0036052Y0062543D02*
X0036536Y0063027D01*
X0036536Y0063994D01*
X0036052Y0064478D01*
X0034117Y0064478D01*
X0033634Y0063994D01*
X0033634Y0063027D01*
X0034117Y0062543D01*
X0036052Y0062543D01*
X0036536Y0059597D02*
X0033634Y0059597D01*
X0035085Y0057617D02*
X0035085Y0056650D01*
X0036536Y0065490D02*
X0033634Y0065490D01*
X0036536Y0067425D01*
X0033634Y0067425D01*
X0033634Y0068436D02*
X0033634Y0070371D01*
X0033634Y0069404D02*
X0036536Y0069404D01*
X0035661Y0201650D02*
X0034693Y0201650D01*
X0035177Y0201650D02*
X0035177Y0204552D01*
X0034693Y0204552D02*
X0035661Y0204552D01*
X0036658Y0204552D02*
X0038593Y0204552D01*
X0037625Y0204552D02*
X0037625Y0201650D01*
X0039604Y0201650D02*
X0041539Y0204552D01*
X0039604Y0204552D02*
X0041539Y0201650D01*
X0033682Y0202134D02*
X0033682Y0204069D01*
X0033198Y0204552D01*
X0031747Y0204552D01*
X0031747Y0201650D01*
X0033198Y0201650D01*
X0033682Y0202134D01*
X0030750Y0201650D02*
X0029782Y0201650D01*
X0030266Y0201650D02*
X0030266Y0204552D01*
X0029782Y0204552D02*
X0030750Y0204552D01*
X0028771Y0204552D02*
X0028771Y0201650D01*
X0027803Y0203585D02*
X0028771Y0204552D01*
X0027803Y0203585D02*
X0026836Y0204552D01*
X0026836Y0201650D01*
X0026836Y0261650D02*
X0026836Y0264552D01*
X0027803Y0263585D01*
X0028771Y0264552D01*
X0028771Y0261650D01*
X0029782Y0261650D02*
X0030750Y0261650D01*
X0030266Y0261650D02*
X0030266Y0264552D01*
X0029782Y0264552D02*
X0030750Y0264552D01*
X0031747Y0264552D02*
X0031747Y0261650D01*
X0033198Y0261650D01*
X0033682Y0262134D01*
X0033682Y0264069D01*
X0033198Y0264552D01*
X0031747Y0264552D01*
X0031747Y0271650D02*
X0033198Y0271650D01*
X0033682Y0272134D01*
X0033682Y0274069D01*
X0033198Y0274552D01*
X0031747Y0274552D01*
X0031747Y0271650D01*
X0030750Y0271650D02*
X0029782Y0271650D01*
X0030266Y0271650D02*
X0030266Y0274552D01*
X0029782Y0274552D02*
X0030750Y0274552D01*
X0028771Y0274552D02*
X0028771Y0271650D01*
X0027803Y0273585D02*
X0028771Y0274552D01*
X0027803Y0273585D02*
X0026836Y0274552D01*
X0026836Y0271650D01*
X0034693Y0271650D02*
X0035661Y0271650D01*
X0035177Y0271650D02*
X0035177Y0274552D01*
X0034693Y0274552D02*
X0035661Y0274552D01*
X0035661Y0264552D02*
X0034693Y0264552D01*
X0035177Y0264552D02*
X0035177Y0261650D01*
X0034693Y0261650D02*
X0035661Y0261650D01*
X0036658Y0261650D02*
X0036658Y0264552D01*
X0038109Y0264552D01*
X0038593Y0264069D01*
X0038593Y0263101D01*
X0038109Y0262617D01*
X0036658Y0262617D01*
X0037625Y0262617D02*
X0038593Y0261650D01*
X0039604Y0261650D02*
X0041539Y0264552D01*
X0039604Y0264552D02*
X0041539Y0261650D01*
X0041539Y0271650D02*
X0039604Y0271650D01*
X0039604Y0274552D01*
X0042551Y0273101D02*
X0042551Y0272134D01*
X0043034Y0271650D01*
X0044002Y0271650D01*
X0044486Y0272134D01*
X0044486Y0273101D01*
X0044002Y0273585D01*
X0043034Y0273585D01*
X0042551Y0273101D01*
X0045497Y0273585D02*
X0045497Y0271650D01*
X0045497Y0273585D02*
X0046948Y0273585D01*
X0047432Y0273101D01*
X0047432Y0271650D01*
X0048444Y0272134D02*
X0048444Y0273101D01*
X0048928Y0273585D01*
X0050379Y0273585D01*
X0050379Y0271166D01*
X0049895Y0270683D01*
X0049411Y0270683D01*
X0048928Y0271650D02*
X0050379Y0271650D01*
X0051390Y0271650D02*
X0051390Y0273585D01*
X0051390Y0272617D02*
X0052358Y0273585D01*
X0052842Y0273585D01*
X0054329Y0273585D02*
X0055297Y0273585D01*
X0055781Y0273101D01*
X0055781Y0271650D01*
X0054329Y0271650D01*
X0053846Y0272134D01*
X0054329Y0272617D01*
X0055781Y0272617D01*
X0056792Y0271650D02*
X0056792Y0273585D01*
X0058243Y0273585D01*
X0058727Y0273101D01*
X0058727Y0271650D01*
X0059739Y0272134D02*
X0059739Y0273101D01*
X0060222Y0273585D01*
X0061674Y0273585D01*
X0061674Y0271166D01*
X0061190Y0270683D01*
X0060706Y0270683D01*
X0060222Y0271650D02*
X0061674Y0271650D01*
X0062685Y0272134D02*
X0062685Y0273101D01*
X0063169Y0273585D01*
X0064137Y0273585D01*
X0064620Y0273101D01*
X0064620Y0272617D01*
X0062685Y0272617D01*
X0062685Y0272134D02*
X0063169Y0271650D01*
X0064137Y0271650D01*
X0065632Y0271650D02*
X0065632Y0273585D01*
X0066599Y0273585D02*
X0065632Y0272617D01*
X0066599Y0273585D02*
X0067083Y0273585D01*
X0066747Y0264552D02*
X0068198Y0264552D01*
X0068682Y0264069D01*
X0068682Y0262134D01*
X0068198Y0261650D01*
X0066747Y0261650D01*
X0066747Y0264552D01*
X0065750Y0264552D02*
X0064782Y0264552D01*
X0065266Y0264552D02*
X0065266Y0261650D01*
X0064782Y0261650D02*
X0065750Y0261650D01*
X0063771Y0261650D02*
X0063771Y0264552D01*
X0062803Y0263585D01*
X0061836Y0264552D01*
X0061836Y0261650D01*
X0060222Y0271650D02*
X0059739Y0272134D01*
X0069693Y0264552D02*
X0070661Y0264552D01*
X0070177Y0264552D02*
X0070177Y0261650D01*
X0069693Y0261650D02*
X0070661Y0261650D01*
X0071658Y0262134D02*
X0071658Y0264069D01*
X0072141Y0264552D01*
X0073109Y0264552D01*
X0073593Y0264069D01*
X0073593Y0262134D01*
X0073109Y0261650D01*
X0072141Y0261650D01*
X0071658Y0262134D01*
X0074604Y0262134D02*
X0075088Y0261650D01*
X0076055Y0261650D01*
X0076539Y0262134D01*
X0076539Y0264552D01*
X0077551Y0264552D02*
X0079486Y0264552D01*
X0078518Y0264552D02*
X0078518Y0261650D01*
X0078400Y0271650D02*
X0078884Y0271650D01*
X0078884Y0272134D01*
X0078400Y0272134D01*
X0078400Y0271650D01*
X0077388Y0272134D02*
X0077388Y0274069D01*
X0075454Y0272134D01*
X0075937Y0271650D01*
X0076905Y0271650D01*
X0077388Y0272134D01*
X0077388Y0274069D02*
X0076905Y0274552D01*
X0075937Y0274552D01*
X0075454Y0274069D01*
X0075454Y0272134D01*
X0074464Y0272134D02*
X0074464Y0271650D01*
X0073980Y0271650D01*
X0073980Y0272134D01*
X0074464Y0272134D01*
X0072969Y0271650D02*
X0071034Y0271650D01*
X0072001Y0271650D02*
X0072001Y0274552D01*
X0071034Y0273585D01*
X0074604Y0264552D02*
X0074604Y0262134D01*
X0080357Y0271650D02*
X0079873Y0272134D01*
X0081808Y0274069D01*
X0081808Y0272134D01*
X0081325Y0271650D01*
X0080357Y0271650D01*
X0079873Y0272134D02*
X0079873Y0274069D01*
X0080357Y0274552D01*
X0081325Y0274552D01*
X0081808Y0274069D01*
X0075557Y0204552D02*
X0075557Y0201650D01*
X0073622Y0204552D01*
X0073622Y0201650D01*
X0072625Y0201650D02*
X0071658Y0201650D01*
X0072141Y0201650D02*
X0072141Y0204552D01*
X0071658Y0204552D02*
X0072625Y0204552D01*
X0070661Y0204552D02*
X0069693Y0204552D01*
X0070177Y0204552D02*
X0070177Y0201650D01*
X0069693Y0201650D02*
X0070661Y0201650D01*
X0068682Y0202134D02*
X0068682Y0204069D01*
X0068198Y0204552D01*
X0066747Y0204552D01*
X0066747Y0201650D01*
X0068198Y0201650D01*
X0068682Y0202134D01*
X0065750Y0201650D02*
X0064782Y0201650D01*
X0065266Y0201650D02*
X0065266Y0204552D01*
X0064782Y0204552D02*
X0065750Y0204552D01*
X0063771Y0204552D02*
X0063771Y0201650D01*
X0062803Y0203585D02*
X0063771Y0204552D01*
X0062803Y0203585D02*
X0061836Y0204552D01*
X0061836Y0201650D01*
X0048928Y0271650D02*
X0048444Y0272134D01*
D11*
X0051686Y0255000D02*
X0052686Y0255000D01*
X0052746Y0254998D01*
X0052807Y0254993D01*
X0052866Y0254984D01*
X0052925Y0254971D01*
X0052984Y0254955D01*
X0053041Y0254935D01*
X0053096Y0254912D01*
X0053151Y0254885D01*
X0053203Y0254856D01*
X0053254Y0254823D01*
X0053303Y0254787D01*
X0053349Y0254749D01*
X0053393Y0254707D01*
X0053435Y0254663D01*
X0053473Y0254617D01*
X0053509Y0254568D01*
X0053542Y0254517D01*
X0053571Y0254465D01*
X0053598Y0254410D01*
X0053621Y0254355D01*
X0053641Y0254298D01*
X0053657Y0254239D01*
X0053670Y0254180D01*
X0053679Y0254121D01*
X0053684Y0254060D01*
X0053686Y0254000D01*
X0051686Y0255000D02*
X0051186Y0254500D01*
X0042186Y0254500D01*
X0041686Y0255000D01*
X0040686Y0255000D01*
X0040626Y0254998D01*
X0040565Y0254993D01*
X0040506Y0254984D01*
X0040447Y0254971D01*
X0040388Y0254955D01*
X0040331Y0254935D01*
X0040276Y0254912D01*
X0040221Y0254885D01*
X0040169Y0254856D01*
X0040118Y0254823D01*
X0040069Y0254787D01*
X0040023Y0254749D01*
X0039979Y0254707D01*
X0039937Y0254663D01*
X0039899Y0254617D01*
X0039863Y0254568D01*
X0039830Y0254517D01*
X0039801Y0254465D01*
X0039774Y0254410D01*
X0039751Y0254355D01*
X0039731Y0254298D01*
X0039715Y0254239D01*
X0039702Y0254180D01*
X0039693Y0254121D01*
X0039688Y0254060D01*
X0039686Y0254000D01*
X0039686Y0249000D02*
X0039688Y0248940D01*
X0039693Y0248879D01*
X0039702Y0248820D01*
X0039715Y0248761D01*
X0039731Y0248702D01*
X0039751Y0248645D01*
X0039774Y0248590D01*
X0039801Y0248535D01*
X0039830Y0248483D01*
X0039863Y0248432D01*
X0039899Y0248383D01*
X0039937Y0248337D01*
X0039979Y0248293D01*
X0040023Y0248251D01*
X0040069Y0248213D01*
X0040118Y0248177D01*
X0040169Y0248144D01*
X0040221Y0248115D01*
X0040276Y0248088D01*
X0040331Y0248065D01*
X0040388Y0248045D01*
X0040447Y0248029D01*
X0040506Y0248016D01*
X0040565Y0248007D01*
X0040626Y0248002D01*
X0040686Y0248000D01*
X0041686Y0248000D01*
X0042186Y0248500D01*
X0051186Y0248500D01*
X0051686Y0248000D01*
X0052686Y0248000D01*
X0052746Y0248002D01*
X0052807Y0248007D01*
X0052866Y0248016D01*
X0052925Y0248029D01*
X0052984Y0248045D01*
X0053041Y0248065D01*
X0053096Y0248088D01*
X0053151Y0248115D01*
X0053203Y0248144D01*
X0053254Y0248177D01*
X0053303Y0248213D01*
X0053349Y0248251D01*
X0053393Y0248293D01*
X0053435Y0248337D01*
X0053473Y0248383D01*
X0053509Y0248432D01*
X0053542Y0248483D01*
X0053571Y0248535D01*
X0053598Y0248590D01*
X0053621Y0248645D01*
X0053641Y0248702D01*
X0053657Y0248761D01*
X0053670Y0248820D01*
X0053679Y0248879D01*
X0053684Y0248940D01*
X0053686Y0249000D01*
X0052686Y0245000D02*
X0051686Y0245000D01*
X0051186Y0244500D01*
X0042186Y0244500D01*
X0041686Y0245000D01*
X0040686Y0245000D01*
X0040626Y0244998D01*
X0040565Y0244993D01*
X0040506Y0244984D01*
X0040447Y0244971D01*
X0040388Y0244955D01*
X0040331Y0244935D01*
X0040276Y0244912D01*
X0040221Y0244885D01*
X0040169Y0244856D01*
X0040118Y0244823D01*
X0040069Y0244787D01*
X0040023Y0244749D01*
X0039979Y0244707D01*
X0039937Y0244663D01*
X0039899Y0244617D01*
X0039863Y0244568D01*
X0039830Y0244517D01*
X0039801Y0244465D01*
X0039774Y0244410D01*
X0039751Y0244355D01*
X0039731Y0244298D01*
X0039715Y0244239D01*
X0039702Y0244180D01*
X0039693Y0244121D01*
X0039688Y0244060D01*
X0039686Y0244000D01*
X0039686Y0239000D02*
X0039688Y0238940D01*
X0039693Y0238879D01*
X0039702Y0238820D01*
X0039715Y0238761D01*
X0039731Y0238702D01*
X0039751Y0238645D01*
X0039774Y0238590D01*
X0039801Y0238535D01*
X0039830Y0238483D01*
X0039863Y0238432D01*
X0039899Y0238383D01*
X0039937Y0238337D01*
X0039979Y0238293D01*
X0040023Y0238251D01*
X0040069Y0238213D01*
X0040118Y0238177D01*
X0040169Y0238144D01*
X0040221Y0238115D01*
X0040276Y0238088D01*
X0040331Y0238065D01*
X0040388Y0238045D01*
X0040447Y0238029D01*
X0040506Y0238016D01*
X0040565Y0238007D01*
X0040626Y0238002D01*
X0040686Y0238000D01*
X0041686Y0238000D01*
X0042186Y0238500D01*
X0051186Y0238500D01*
X0051686Y0238000D01*
X0052686Y0238000D01*
X0052746Y0238002D01*
X0052807Y0238007D01*
X0052866Y0238016D01*
X0052925Y0238029D01*
X0052984Y0238045D01*
X0053041Y0238065D01*
X0053096Y0238088D01*
X0053151Y0238115D01*
X0053203Y0238144D01*
X0053254Y0238177D01*
X0053303Y0238213D01*
X0053349Y0238251D01*
X0053393Y0238293D01*
X0053435Y0238337D01*
X0053473Y0238383D01*
X0053509Y0238432D01*
X0053542Y0238483D01*
X0053571Y0238535D01*
X0053598Y0238590D01*
X0053621Y0238645D01*
X0053641Y0238702D01*
X0053657Y0238761D01*
X0053670Y0238820D01*
X0053679Y0238879D01*
X0053684Y0238940D01*
X0053686Y0239000D01*
X0055186Y0236500D02*
X0038186Y0236500D01*
X0038126Y0236498D01*
X0038065Y0236493D01*
X0038006Y0236484D01*
X0037947Y0236471D01*
X0037888Y0236455D01*
X0037831Y0236435D01*
X0037776Y0236412D01*
X0037721Y0236385D01*
X0037669Y0236356D01*
X0037618Y0236323D01*
X0037569Y0236287D01*
X0037523Y0236249D01*
X0037479Y0236207D01*
X0037437Y0236163D01*
X0037399Y0236117D01*
X0037363Y0236068D01*
X0037330Y0236017D01*
X0037301Y0235965D01*
X0037274Y0235910D01*
X0037251Y0235855D01*
X0037231Y0235798D01*
X0037215Y0235739D01*
X0037202Y0235680D01*
X0037193Y0235621D01*
X0037188Y0235560D01*
X0037186Y0235500D01*
X0037186Y0227500D01*
X0037188Y0227440D01*
X0037193Y0227379D01*
X0037202Y0227320D01*
X0037215Y0227261D01*
X0037231Y0227202D01*
X0037251Y0227145D01*
X0037274Y0227090D01*
X0037301Y0227035D01*
X0037330Y0226983D01*
X0037363Y0226932D01*
X0037399Y0226883D01*
X0037437Y0226837D01*
X0037479Y0226793D01*
X0037523Y0226751D01*
X0037569Y0226713D01*
X0037618Y0226677D01*
X0037669Y0226644D01*
X0037721Y0226615D01*
X0037776Y0226588D01*
X0037831Y0226565D01*
X0037888Y0226545D01*
X0037947Y0226529D01*
X0038006Y0226516D01*
X0038065Y0226507D01*
X0038126Y0226502D01*
X0038186Y0226500D01*
X0055186Y0226500D01*
X0055246Y0226502D01*
X0055307Y0226507D01*
X0055366Y0226516D01*
X0055425Y0226529D01*
X0055484Y0226545D01*
X0055541Y0226565D01*
X0055596Y0226588D01*
X0055651Y0226615D01*
X0055703Y0226644D01*
X0055754Y0226677D01*
X0055803Y0226713D01*
X0055849Y0226751D01*
X0055893Y0226793D01*
X0055935Y0226837D01*
X0055973Y0226883D01*
X0056009Y0226932D01*
X0056042Y0226983D01*
X0056071Y0227035D01*
X0056098Y0227090D01*
X0056121Y0227145D01*
X0056141Y0227202D01*
X0056157Y0227261D01*
X0056170Y0227320D01*
X0056179Y0227379D01*
X0056184Y0227440D01*
X0056186Y0227500D01*
X0056186Y0235500D01*
X0056184Y0235560D01*
X0056179Y0235621D01*
X0056170Y0235680D01*
X0056157Y0235739D01*
X0056141Y0235798D01*
X0056121Y0235855D01*
X0056098Y0235910D01*
X0056071Y0235965D01*
X0056042Y0236017D01*
X0056009Y0236068D01*
X0055973Y0236117D01*
X0055935Y0236163D01*
X0055893Y0236207D01*
X0055849Y0236249D01*
X0055803Y0236287D01*
X0055754Y0236323D01*
X0055703Y0236356D01*
X0055651Y0236385D01*
X0055596Y0236412D01*
X0055541Y0236435D01*
X0055484Y0236455D01*
X0055425Y0236471D01*
X0055366Y0236484D01*
X0055307Y0236493D01*
X0055246Y0236498D01*
X0055186Y0236500D01*
X0053686Y0244000D02*
X0053684Y0244060D01*
X0053679Y0244121D01*
X0053670Y0244180D01*
X0053657Y0244239D01*
X0053641Y0244298D01*
X0053621Y0244355D01*
X0053598Y0244410D01*
X0053571Y0244465D01*
X0053542Y0244517D01*
X0053509Y0244568D01*
X0053473Y0244617D01*
X0053435Y0244663D01*
X0053393Y0244707D01*
X0053349Y0244749D01*
X0053303Y0244787D01*
X0053254Y0244823D01*
X0053203Y0244856D01*
X0053151Y0244885D01*
X0053096Y0244912D01*
X0053041Y0244935D01*
X0052984Y0244955D01*
X0052925Y0244971D01*
X0052866Y0244984D01*
X0052807Y0244993D01*
X0052746Y0244998D01*
X0052686Y0245000D01*
X0048186Y0231500D02*
X0047686Y0231500D01*
X0045686Y0231500D02*
X0045186Y0231500D01*
X0032686Y0200000D02*
X0031686Y0200000D01*
X0031186Y0199500D01*
X0022186Y0199500D01*
X0021686Y0200000D01*
X0020686Y0200000D01*
X0020626Y0199998D01*
X0020565Y0199993D01*
X0020506Y0199984D01*
X0020447Y0199971D01*
X0020388Y0199955D01*
X0020331Y0199935D01*
X0020276Y0199912D01*
X0020221Y0199885D01*
X0020169Y0199856D01*
X0020118Y0199823D01*
X0020069Y0199787D01*
X0020023Y0199749D01*
X0019979Y0199707D01*
X0019937Y0199663D01*
X0019899Y0199617D01*
X0019863Y0199568D01*
X0019830Y0199517D01*
X0019801Y0199465D01*
X0019774Y0199410D01*
X0019751Y0199355D01*
X0019731Y0199298D01*
X0019715Y0199239D01*
X0019702Y0199180D01*
X0019693Y0199121D01*
X0019688Y0199060D01*
X0019686Y0199000D01*
X0019686Y0194000D02*
X0019688Y0193940D01*
X0019693Y0193879D01*
X0019702Y0193820D01*
X0019715Y0193761D01*
X0019731Y0193702D01*
X0019751Y0193645D01*
X0019774Y0193590D01*
X0019801Y0193535D01*
X0019830Y0193483D01*
X0019863Y0193432D01*
X0019899Y0193383D01*
X0019937Y0193337D01*
X0019979Y0193293D01*
X0020023Y0193251D01*
X0020069Y0193213D01*
X0020118Y0193177D01*
X0020169Y0193144D01*
X0020221Y0193115D01*
X0020276Y0193088D01*
X0020331Y0193065D01*
X0020388Y0193045D01*
X0020447Y0193029D01*
X0020506Y0193016D01*
X0020565Y0193007D01*
X0020626Y0193002D01*
X0020686Y0193000D01*
X0021686Y0193000D01*
X0022186Y0193500D01*
X0031186Y0193500D01*
X0031686Y0193000D01*
X0032686Y0193000D01*
X0032746Y0193002D01*
X0032807Y0193007D01*
X0032866Y0193016D01*
X0032925Y0193029D01*
X0032984Y0193045D01*
X0033041Y0193065D01*
X0033096Y0193088D01*
X0033151Y0193115D01*
X0033203Y0193144D01*
X0033254Y0193177D01*
X0033303Y0193213D01*
X0033349Y0193251D01*
X0033393Y0193293D01*
X0033435Y0193337D01*
X0033473Y0193383D01*
X0033509Y0193432D01*
X0033542Y0193483D01*
X0033571Y0193535D01*
X0033598Y0193590D01*
X0033621Y0193645D01*
X0033641Y0193702D01*
X0033657Y0193761D01*
X0033670Y0193820D01*
X0033679Y0193879D01*
X0033684Y0193940D01*
X0033686Y0194000D01*
X0032686Y0190000D02*
X0031686Y0190000D01*
X0031186Y0189500D01*
X0022186Y0189500D01*
X0021686Y0190000D01*
X0020686Y0190000D01*
X0020626Y0189998D01*
X0020565Y0189993D01*
X0020506Y0189984D01*
X0020447Y0189971D01*
X0020388Y0189955D01*
X0020331Y0189935D01*
X0020276Y0189912D01*
X0020221Y0189885D01*
X0020169Y0189856D01*
X0020118Y0189823D01*
X0020069Y0189787D01*
X0020023Y0189749D01*
X0019979Y0189707D01*
X0019937Y0189663D01*
X0019899Y0189617D01*
X0019863Y0189568D01*
X0019830Y0189517D01*
X0019801Y0189465D01*
X0019774Y0189410D01*
X0019751Y0189355D01*
X0019731Y0189298D01*
X0019715Y0189239D01*
X0019702Y0189180D01*
X0019693Y0189121D01*
X0019688Y0189060D01*
X0019686Y0189000D01*
X0019686Y0184000D02*
X0019688Y0183940D01*
X0019693Y0183879D01*
X0019702Y0183820D01*
X0019715Y0183761D01*
X0019731Y0183702D01*
X0019751Y0183645D01*
X0019774Y0183590D01*
X0019801Y0183535D01*
X0019830Y0183483D01*
X0019863Y0183432D01*
X0019899Y0183383D01*
X0019937Y0183337D01*
X0019979Y0183293D01*
X0020023Y0183251D01*
X0020069Y0183213D01*
X0020118Y0183177D01*
X0020169Y0183144D01*
X0020221Y0183115D01*
X0020276Y0183088D01*
X0020331Y0183065D01*
X0020388Y0183045D01*
X0020447Y0183029D01*
X0020506Y0183016D01*
X0020565Y0183007D01*
X0020626Y0183002D01*
X0020686Y0183000D01*
X0021686Y0183000D01*
X0022186Y0183500D01*
X0031186Y0183500D01*
X0031686Y0183000D01*
X0032686Y0183000D01*
X0032746Y0183002D01*
X0032807Y0183007D01*
X0032866Y0183016D01*
X0032925Y0183029D01*
X0032984Y0183045D01*
X0033041Y0183065D01*
X0033096Y0183088D01*
X0033151Y0183115D01*
X0033203Y0183144D01*
X0033254Y0183177D01*
X0033303Y0183213D01*
X0033349Y0183251D01*
X0033393Y0183293D01*
X0033435Y0183337D01*
X0033473Y0183383D01*
X0033509Y0183432D01*
X0033542Y0183483D01*
X0033571Y0183535D01*
X0033598Y0183590D01*
X0033621Y0183645D01*
X0033641Y0183702D01*
X0033657Y0183761D01*
X0033670Y0183820D01*
X0033679Y0183879D01*
X0033684Y0183940D01*
X0033686Y0184000D01*
X0033686Y0189000D02*
X0033684Y0189060D01*
X0033679Y0189121D01*
X0033670Y0189180D01*
X0033657Y0189239D01*
X0033641Y0189298D01*
X0033621Y0189355D01*
X0033598Y0189410D01*
X0033571Y0189465D01*
X0033542Y0189517D01*
X0033509Y0189568D01*
X0033473Y0189617D01*
X0033435Y0189663D01*
X0033393Y0189707D01*
X0033349Y0189749D01*
X0033303Y0189787D01*
X0033254Y0189823D01*
X0033203Y0189856D01*
X0033151Y0189885D01*
X0033096Y0189912D01*
X0033041Y0189935D01*
X0032984Y0189955D01*
X0032925Y0189971D01*
X0032866Y0189984D01*
X0032807Y0189993D01*
X0032746Y0189998D01*
X0032686Y0190000D01*
X0033686Y0199000D02*
X0033684Y0199060D01*
X0033679Y0199121D01*
X0033670Y0199180D01*
X0033657Y0199239D01*
X0033641Y0199298D01*
X0033621Y0199355D01*
X0033598Y0199410D01*
X0033571Y0199465D01*
X0033542Y0199517D01*
X0033509Y0199568D01*
X0033473Y0199617D01*
X0033435Y0199663D01*
X0033393Y0199707D01*
X0033349Y0199749D01*
X0033303Y0199787D01*
X0033254Y0199823D01*
X0033203Y0199856D01*
X0033151Y0199885D01*
X0033096Y0199912D01*
X0033041Y0199935D01*
X0032984Y0199955D01*
X0032925Y0199971D01*
X0032866Y0199984D01*
X0032807Y0199993D01*
X0032746Y0199998D01*
X0032686Y0200000D01*
X0032686Y0180000D02*
X0031686Y0180000D01*
X0031186Y0179500D01*
X0022186Y0179500D01*
X0021686Y0180000D01*
X0020686Y0180000D01*
X0020626Y0179998D01*
X0020565Y0179993D01*
X0020506Y0179984D01*
X0020447Y0179971D01*
X0020388Y0179955D01*
X0020331Y0179935D01*
X0020276Y0179912D01*
X0020221Y0179885D01*
X0020169Y0179856D01*
X0020118Y0179823D01*
X0020069Y0179787D01*
X0020023Y0179749D01*
X0019979Y0179707D01*
X0019937Y0179663D01*
X0019899Y0179617D01*
X0019863Y0179568D01*
X0019830Y0179517D01*
X0019801Y0179465D01*
X0019774Y0179410D01*
X0019751Y0179355D01*
X0019731Y0179298D01*
X0019715Y0179239D01*
X0019702Y0179180D01*
X0019693Y0179121D01*
X0019688Y0179060D01*
X0019686Y0179000D01*
X0019686Y0174000D02*
X0019688Y0173940D01*
X0019693Y0173879D01*
X0019702Y0173820D01*
X0019715Y0173761D01*
X0019731Y0173702D01*
X0019751Y0173645D01*
X0019774Y0173590D01*
X0019801Y0173535D01*
X0019830Y0173483D01*
X0019863Y0173432D01*
X0019899Y0173383D01*
X0019937Y0173337D01*
X0019979Y0173293D01*
X0020023Y0173251D01*
X0020069Y0173213D01*
X0020118Y0173177D01*
X0020169Y0173144D01*
X0020221Y0173115D01*
X0020276Y0173088D01*
X0020331Y0173065D01*
X0020388Y0173045D01*
X0020447Y0173029D01*
X0020506Y0173016D01*
X0020565Y0173007D01*
X0020626Y0173002D01*
X0020686Y0173000D01*
X0021686Y0173000D01*
X0022186Y0173500D01*
X0031186Y0173500D01*
X0031686Y0173000D01*
X0032686Y0173000D01*
X0032746Y0173002D01*
X0032807Y0173007D01*
X0032866Y0173016D01*
X0032925Y0173029D01*
X0032984Y0173045D01*
X0033041Y0173065D01*
X0033096Y0173088D01*
X0033151Y0173115D01*
X0033203Y0173144D01*
X0033254Y0173177D01*
X0033303Y0173213D01*
X0033349Y0173251D01*
X0033393Y0173293D01*
X0033435Y0173337D01*
X0033473Y0173383D01*
X0033509Y0173432D01*
X0033542Y0173483D01*
X0033571Y0173535D01*
X0033598Y0173590D01*
X0033621Y0173645D01*
X0033641Y0173702D01*
X0033657Y0173761D01*
X0033670Y0173820D01*
X0033679Y0173879D01*
X0033684Y0173940D01*
X0033686Y0174000D01*
X0035186Y0171500D02*
X0018186Y0171500D01*
X0018126Y0171498D01*
X0018065Y0171493D01*
X0018006Y0171484D01*
X0017947Y0171471D01*
X0017888Y0171455D01*
X0017831Y0171435D01*
X0017776Y0171412D01*
X0017721Y0171385D01*
X0017669Y0171356D01*
X0017618Y0171323D01*
X0017569Y0171287D01*
X0017523Y0171249D01*
X0017479Y0171207D01*
X0017437Y0171163D01*
X0017399Y0171117D01*
X0017363Y0171068D01*
X0017330Y0171017D01*
X0017301Y0170965D01*
X0017274Y0170910D01*
X0017251Y0170855D01*
X0017231Y0170798D01*
X0017215Y0170739D01*
X0017202Y0170680D01*
X0017193Y0170621D01*
X0017188Y0170560D01*
X0017186Y0170500D01*
X0017186Y0162500D01*
X0017188Y0162440D01*
X0017193Y0162379D01*
X0017202Y0162320D01*
X0017215Y0162261D01*
X0017231Y0162202D01*
X0017251Y0162145D01*
X0017274Y0162090D01*
X0017301Y0162035D01*
X0017330Y0161983D01*
X0017363Y0161932D01*
X0017399Y0161883D01*
X0017437Y0161837D01*
X0017479Y0161793D01*
X0017523Y0161751D01*
X0017569Y0161713D01*
X0017618Y0161677D01*
X0017669Y0161644D01*
X0017721Y0161615D01*
X0017776Y0161588D01*
X0017831Y0161565D01*
X0017888Y0161545D01*
X0017947Y0161529D01*
X0018006Y0161516D01*
X0018065Y0161507D01*
X0018126Y0161502D01*
X0018186Y0161500D01*
X0035186Y0161500D01*
X0035246Y0161502D01*
X0035307Y0161507D01*
X0035366Y0161516D01*
X0035425Y0161529D01*
X0035484Y0161545D01*
X0035541Y0161565D01*
X0035596Y0161588D01*
X0035651Y0161615D01*
X0035703Y0161644D01*
X0035754Y0161677D01*
X0035803Y0161713D01*
X0035849Y0161751D01*
X0035893Y0161793D01*
X0035935Y0161837D01*
X0035973Y0161883D01*
X0036009Y0161932D01*
X0036042Y0161983D01*
X0036071Y0162035D01*
X0036098Y0162090D01*
X0036121Y0162145D01*
X0036141Y0162202D01*
X0036157Y0162261D01*
X0036170Y0162320D01*
X0036179Y0162379D01*
X0036184Y0162440D01*
X0036186Y0162500D01*
X0036186Y0170500D01*
X0036184Y0170560D01*
X0036179Y0170621D01*
X0036170Y0170680D01*
X0036157Y0170739D01*
X0036141Y0170798D01*
X0036121Y0170855D01*
X0036098Y0170910D01*
X0036071Y0170965D01*
X0036042Y0171017D01*
X0036009Y0171068D01*
X0035973Y0171117D01*
X0035935Y0171163D01*
X0035893Y0171207D01*
X0035849Y0171249D01*
X0035803Y0171287D01*
X0035754Y0171323D01*
X0035703Y0171356D01*
X0035651Y0171385D01*
X0035596Y0171412D01*
X0035541Y0171435D01*
X0035484Y0171455D01*
X0035425Y0171471D01*
X0035366Y0171484D01*
X0035307Y0171493D01*
X0035246Y0171498D01*
X0035186Y0171500D01*
X0033686Y0179000D02*
X0033684Y0179060D01*
X0033679Y0179121D01*
X0033670Y0179180D01*
X0033657Y0179239D01*
X0033641Y0179298D01*
X0033621Y0179355D01*
X0033598Y0179410D01*
X0033571Y0179465D01*
X0033542Y0179517D01*
X0033509Y0179568D01*
X0033473Y0179617D01*
X0033435Y0179663D01*
X0033393Y0179707D01*
X0033349Y0179749D01*
X0033303Y0179787D01*
X0033254Y0179823D01*
X0033203Y0179856D01*
X0033151Y0179885D01*
X0033096Y0179912D01*
X0033041Y0179935D01*
X0032984Y0179955D01*
X0032925Y0179971D01*
X0032866Y0179984D01*
X0032807Y0179993D01*
X0032746Y0179998D01*
X0032686Y0180000D01*
X0028186Y0166500D02*
X0027686Y0166500D01*
X0025686Y0166500D02*
X0025186Y0166500D01*
X0022686Y0161500D02*
X0022688Y0161374D01*
X0022694Y0161249D01*
X0022704Y0161124D01*
X0022718Y0160999D01*
X0022735Y0160874D01*
X0022757Y0160750D01*
X0022782Y0160627D01*
X0022812Y0160505D01*
X0022845Y0160384D01*
X0022882Y0160264D01*
X0022922Y0160145D01*
X0022967Y0160028D01*
X0023015Y0159911D01*
X0023067Y0159797D01*
X0023122Y0159684D01*
X0023181Y0159573D01*
X0023243Y0159464D01*
X0023309Y0159357D01*
X0023378Y0159252D01*
X0023450Y0159149D01*
X0023525Y0159048D01*
X0023604Y0158950D01*
X0023686Y0158855D01*
X0023770Y0158762D01*
X0023858Y0158672D01*
X0023948Y0158584D01*
X0024041Y0158500D01*
X0024136Y0158418D01*
X0024234Y0158339D01*
X0024335Y0158264D01*
X0024438Y0158192D01*
X0024543Y0158123D01*
X0024650Y0158057D01*
X0024759Y0157995D01*
X0024870Y0157936D01*
X0024983Y0157881D01*
X0025097Y0157829D01*
X0025214Y0157781D01*
X0025331Y0157736D01*
X0025450Y0157696D01*
X0025570Y0157659D01*
X0025691Y0157626D01*
X0025813Y0157596D01*
X0025936Y0157571D01*
X0026060Y0157549D01*
X0026185Y0157532D01*
X0026310Y0157518D01*
X0026435Y0157508D01*
X0026560Y0157502D01*
X0026686Y0157500D01*
X0026812Y0157502D01*
X0026937Y0157508D01*
X0027062Y0157518D01*
X0027187Y0157532D01*
X0027312Y0157549D01*
X0027436Y0157571D01*
X0027559Y0157596D01*
X0027681Y0157626D01*
X0027802Y0157659D01*
X0027922Y0157696D01*
X0028041Y0157736D01*
X0028158Y0157781D01*
X0028275Y0157829D01*
X0028389Y0157881D01*
X0028502Y0157936D01*
X0028613Y0157995D01*
X0028722Y0158057D01*
X0028829Y0158123D01*
X0028934Y0158192D01*
X0029037Y0158264D01*
X0029138Y0158339D01*
X0029236Y0158418D01*
X0029331Y0158500D01*
X0029424Y0158584D01*
X0029514Y0158672D01*
X0029602Y0158762D01*
X0029686Y0158855D01*
X0029768Y0158950D01*
X0029847Y0159048D01*
X0029922Y0159149D01*
X0029994Y0159252D01*
X0030063Y0159357D01*
X0030129Y0159464D01*
X0030191Y0159573D01*
X0030250Y0159684D01*
X0030305Y0159797D01*
X0030357Y0159911D01*
X0030405Y0160028D01*
X0030450Y0160145D01*
X0030490Y0160264D01*
X0030527Y0160384D01*
X0030560Y0160505D01*
X0030590Y0160627D01*
X0030615Y0160750D01*
X0030637Y0160874D01*
X0030654Y0160999D01*
X0030668Y0161124D01*
X0030678Y0161249D01*
X0030684Y0161374D01*
X0030686Y0161500D01*
X0038186Y0161500D01*
X0038186Y0091500D01*
X0015186Y0091500D01*
X0015186Y0161500D01*
X0022686Y0161500D01*
X0045686Y0085000D02*
X0046686Y0085000D01*
X0047186Y0084500D01*
X0056186Y0084500D01*
X0056686Y0085000D01*
X0057686Y0085000D01*
X0057746Y0084998D01*
X0057807Y0084993D01*
X0057866Y0084984D01*
X0057925Y0084971D01*
X0057984Y0084955D01*
X0058041Y0084935D01*
X0058096Y0084912D01*
X0058151Y0084885D01*
X0058203Y0084856D01*
X0058254Y0084823D01*
X0058303Y0084787D01*
X0058349Y0084749D01*
X0058393Y0084707D01*
X0058435Y0084663D01*
X0058473Y0084617D01*
X0058509Y0084568D01*
X0058542Y0084517D01*
X0058571Y0084465D01*
X0058598Y0084410D01*
X0058621Y0084355D01*
X0058641Y0084298D01*
X0058657Y0084239D01*
X0058670Y0084180D01*
X0058679Y0084121D01*
X0058684Y0084060D01*
X0058686Y0084000D01*
X0058686Y0079000D02*
X0058684Y0078940D01*
X0058679Y0078879D01*
X0058670Y0078820D01*
X0058657Y0078761D01*
X0058641Y0078702D01*
X0058621Y0078645D01*
X0058598Y0078590D01*
X0058571Y0078535D01*
X0058542Y0078483D01*
X0058509Y0078432D01*
X0058473Y0078383D01*
X0058435Y0078337D01*
X0058393Y0078293D01*
X0058349Y0078251D01*
X0058303Y0078213D01*
X0058254Y0078177D01*
X0058203Y0078144D01*
X0058151Y0078115D01*
X0058096Y0078088D01*
X0058041Y0078065D01*
X0057984Y0078045D01*
X0057925Y0078029D01*
X0057866Y0078016D01*
X0057807Y0078007D01*
X0057746Y0078002D01*
X0057686Y0078000D01*
X0056686Y0078000D01*
X0056186Y0078500D01*
X0047186Y0078500D01*
X0046686Y0078000D01*
X0045686Y0078000D01*
X0045626Y0078002D01*
X0045565Y0078007D01*
X0045506Y0078016D01*
X0045447Y0078029D01*
X0045388Y0078045D01*
X0045331Y0078065D01*
X0045276Y0078088D01*
X0045221Y0078115D01*
X0045169Y0078144D01*
X0045118Y0078177D01*
X0045069Y0078213D01*
X0045023Y0078251D01*
X0044979Y0078293D01*
X0044937Y0078337D01*
X0044899Y0078383D01*
X0044863Y0078432D01*
X0044830Y0078483D01*
X0044801Y0078535D01*
X0044774Y0078590D01*
X0044751Y0078645D01*
X0044731Y0078702D01*
X0044715Y0078761D01*
X0044702Y0078820D01*
X0044693Y0078879D01*
X0044688Y0078940D01*
X0044686Y0079000D01*
X0044686Y0084000D02*
X0044688Y0084060D01*
X0044693Y0084121D01*
X0044702Y0084180D01*
X0044715Y0084239D01*
X0044731Y0084298D01*
X0044751Y0084355D01*
X0044774Y0084410D01*
X0044801Y0084465D01*
X0044830Y0084517D01*
X0044863Y0084568D01*
X0044899Y0084617D01*
X0044937Y0084663D01*
X0044979Y0084707D01*
X0045023Y0084749D01*
X0045069Y0084787D01*
X0045118Y0084823D01*
X0045169Y0084856D01*
X0045221Y0084885D01*
X0045276Y0084912D01*
X0045331Y0084935D01*
X0045388Y0084955D01*
X0045447Y0084971D01*
X0045506Y0084984D01*
X0045565Y0084993D01*
X0045626Y0084998D01*
X0045686Y0085000D01*
X0050186Y0076500D02*
X0057686Y0076500D01*
X0057688Y0076374D01*
X0057694Y0076249D01*
X0057704Y0076124D01*
X0057718Y0075999D01*
X0057735Y0075874D01*
X0057757Y0075750D01*
X0057782Y0075627D01*
X0057812Y0075505D01*
X0057845Y0075384D01*
X0057882Y0075264D01*
X0057922Y0075145D01*
X0057967Y0075028D01*
X0058015Y0074911D01*
X0058067Y0074797D01*
X0058122Y0074684D01*
X0058181Y0074573D01*
X0058243Y0074464D01*
X0058309Y0074357D01*
X0058378Y0074252D01*
X0058450Y0074149D01*
X0058525Y0074048D01*
X0058604Y0073950D01*
X0058686Y0073855D01*
X0058770Y0073762D01*
X0058858Y0073672D01*
X0058948Y0073584D01*
X0059041Y0073500D01*
X0059136Y0073418D01*
X0059234Y0073339D01*
X0059335Y0073264D01*
X0059438Y0073192D01*
X0059543Y0073123D01*
X0059650Y0073057D01*
X0059759Y0072995D01*
X0059870Y0072936D01*
X0059983Y0072881D01*
X0060097Y0072829D01*
X0060214Y0072781D01*
X0060331Y0072736D01*
X0060450Y0072696D01*
X0060570Y0072659D01*
X0060691Y0072626D01*
X0060813Y0072596D01*
X0060936Y0072571D01*
X0061060Y0072549D01*
X0061185Y0072532D01*
X0061310Y0072518D01*
X0061435Y0072508D01*
X0061560Y0072502D01*
X0061686Y0072500D01*
X0061812Y0072502D01*
X0061937Y0072508D01*
X0062062Y0072518D01*
X0062187Y0072532D01*
X0062312Y0072549D01*
X0062436Y0072571D01*
X0062559Y0072596D01*
X0062681Y0072626D01*
X0062802Y0072659D01*
X0062922Y0072696D01*
X0063041Y0072736D01*
X0063158Y0072781D01*
X0063275Y0072829D01*
X0063389Y0072881D01*
X0063502Y0072936D01*
X0063613Y0072995D01*
X0063722Y0073057D01*
X0063829Y0073123D01*
X0063934Y0073192D01*
X0064037Y0073264D01*
X0064138Y0073339D01*
X0064236Y0073418D01*
X0064331Y0073500D01*
X0064424Y0073584D01*
X0064514Y0073672D01*
X0064602Y0073762D01*
X0064686Y0073855D01*
X0064768Y0073950D01*
X0064847Y0074048D01*
X0064922Y0074149D01*
X0064994Y0074252D01*
X0065063Y0074357D01*
X0065129Y0074464D01*
X0065191Y0074573D01*
X0065250Y0074684D01*
X0065305Y0074797D01*
X0065357Y0074911D01*
X0065405Y0075028D01*
X0065450Y0075145D01*
X0065490Y0075264D01*
X0065527Y0075384D01*
X0065560Y0075505D01*
X0065590Y0075627D01*
X0065615Y0075750D01*
X0065637Y0075874D01*
X0065654Y0075999D01*
X0065668Y0076124D01*
X0065678Y0076249D01*
X0065684Y0076374D01*
X0065686Y0076500D01*
X0073186Y0076500D01*
X0073186Y0036500D01*
X0050186Y0036500D01*
X0050186Y0076500D01*
X0060186Y0091500D02*
X0083186Y0091500D01*
X0083186Y0131500D01*
X0075686Y0131500D01*
X0073186Y0136500D02*
X0072686Y0136500D01*
X0070686Y0136500D02*
X0070186Y0136500D01*
X0067686Y0131500D02*
X0067688Y0131374D01*
X0067694Y0131249D01*
X0067704Y0131124D01*
X0067718Y0130999D01*
X0067735Y0130874D01*
X0067757Y0130750D01*
X0067782Y0130627D01*
X0067812Y0130505D01*
X0067845Y0130384D01*
X0067882Y0130264D01*
X0067922Y0130145D01*
X0067967Y0130028D01*
X0068015Y0129911D01*
X0068067Y0129797D01*
X0068122Y0129684D01*
X0068181Y0129573D01*
X0068243Y0129464D01*
X0068309Y0129357D01*
X0068378Y0129252D01*
X0068450Y0129149D01*
X0068525Y0129048D01*
X0068604Y0128950D01*
X0068686Y0128855D01*
X0068770Y0128762D01*
X0068858Y0128672D01*
X0068948Y0128584D01*
X0069041Y0128500D01*
X0069136Y0128418D01*
X0069234Y0128339D01*
X0069335Y0128264D01*
X0069438Y0128192D01*
X0069543Y0128123D01*
X0069650Y0128057D01*
X0069759Y0127995D01*
X0069870Y0127936D01*
X0069983Y0127881D01*
X0070097Y0127829D01*
X0070214Y0127781D01*
X0070331Y0127736D01*
X0070450Y0127696D01*
X0070570Y0127659D01*
X0070691Y0127626D01*
X0070813Y0127596D01*
X0070936Y0127571D01*
X0071060Y0127549D01*
X0071185Y0127532D01*
X0071310Y0127518D01*
X0071435Y0127508D01*
X0071560Y0127502D01*
X0071686Y0127500D01*
X0071812Y0127502D01*
X0071937Y0127508D01*
X0072062Y0127518D01*
X0072187Y0127532D01*
X0072312Y0127549D01*
X0072436Y0127571D01*
X0072559Y0127596D01*
X0072681Y0127626D01*
X0072802Y0127659D01*
X0072922Y0127696D01*
X0073041Y0127736D01*
X0073158Y0127781D01*
X0073275Y0127829D01*
X0073389Y0127881D01*
X0073502Y0127936D01*
X0073613Y0127995D01*
X0073722Y0128057D01*
X0073829Y0128123D01*
X0073934Y0128192D01*
X0074037Y0128264D01*
X0074138Y0128339D01*
X0074236Y0128418D01*
X0074331Y0128500D01*
X0074424Y0128584D01*
X0074514Y0128672D01*
X0074602Y0128762D01*
X0074686Y0128855D01*
X0074768Y0128950D01*
X0074847Y0129048D01*
X0074922Y0129149D01*
X0074994Y0129252D01*
X0075063Y0129357D01*
X0075129Y0129464D01*
X0075191Y0129573D01*
X0075250Y0129684D01*
X0075305Y0129797D01*
X0075357Y0129911D01*
X0075405Y0130028D01*
X0075450Y0130145D01*
X0075490Y0130264D01*
X0075527Y0130384D01*
X0075560Y0130505D01*
X0075590Y0130627D01*
X0075615Y0130750D01*
X0075637Y0130874D01*
X0075654Y0130999D01*
X0075668Y0131124D01*
X0075678Y0131249D01*
X0075684Y0131374D01*
X0075686Y0131500D01*
X0080186Y0131500D02*
X0063186Y0131500D01*
X0063126Y0131502D01*
X0063065Y0131507D01*
X0063006Y0131516D01*
X0062947Y0131529D01*
X0062888Y0131545D01*
X0062831Y0131565D01*
X0062776Y0131588D01*
X0062721Y0131615D01*
X0062669Y0131644D01*
X0062618Y0131677D01*
X0062569Y0131713D01*
X0062523Y0131751D01*
X0062479Y0131793D01*
X0062437Y0131837D01*
X0062399Y0131883D01*
X0062363Y0131932D01*
X0062330Y0131983D01*
X0062301Y0132035D01*
X0062274Y0132090D01*
X0062251Y0132145D01*
X0062231Y0132202D01*
X0062215Y0132261D01*
X0062202Y0132320D01*
X0062193Y0132379D01*
X0062188Y0132440D01*
X0062186Y0132500D01*
X0062186Y0140500D01*
X0062188Y0140560D01*
X0062193Y0140621D01*
X0062202Y0140680D01*
X0062215Y0140739D01*
X0062231Y0140798D01*
X0062251Y0140855D01*
X0062274Y0140910D01*
X0062301Y0140965D01*
X0062330Y0141017D01*
X0062363Y0141068D01*
X0062399Y0141117D01*
X0062437Y0141163D01*
X0062479Y0141207D01*
X0062523Y0141249D01*
X0062569Y0141287D01*
X0062618Y0141323D01*
X0062669Y0141356D01*
X0062721Y0141385D01*
X0062776Y0141412D01*
X0062831Y0141435D01*
X0062888Y0141455D01*
X0062947Y0141471D01*
X0063006Y0141484D01*
X0063065Y0141493D01*
X0063126Y0141498D01*
X0063186Y0141500D01*
X0080186Y0141500D01*
X0080246Y0141498D01*
X0080307Y0141493D01*
X0080366Y0141484D01*
X0080425Y0141471D01*
X0080484Y0141455D01*
X0080541Y0141435D01*
X0080596Y0141412D01*
X0080651Y0141385D01*
X0080703Y0141356D01*
X0080754Y0141323D01*
X0080803Y0141287D01*
X0080849Y0141249D01*
X0080893Y0141207D01*
X0080935Y0141163D01*
X0080973Y0141117D01*
X0081009Y0141068D01*
X0081042Y0141017D01*
X0081071Y0140965D01*
X0081098Y0140910D01*
X0081121Y0140855D01*
X0081141Y0140798D01*
X0081157Y0140739D01*
X0081170Y0140680D01*
X0081179Y0140621D01*
X0081184Y0140560D01*
X0081186Y0140500D01*
X0081186Y0132500D01*
X0081184Y0132440D01*
X0081179Y0132379D01*
X0081170Y0132320D01*
X0081157Y0132261D01*
X0081141Y0132202D01*
X0081121Y0132145D01*
X0081098Y0132090D01*
X0081071Y0132035D01*
X0081042Y0131983D01*
X0081009Y0131932D01*
X0080973Y0131883D01*
X0080935Y0131837D01*
X0080893Y0131793D01*
X0080849Y0131751D01*
X0080803Y0131713D01*
X0080754Y0131677D01*
X0080703Y0131644D01*
X0080651Y0131615D01*
X0080596Y0131588D01*
X0080541Y0131565D01*
X0080484Y0131545D01*
X0080425Y0131529D01*
X0080366Y0131516D01*
X0080307Y0131507D01*
X0080246Y0131502D01*
X0080186Y0131500D01*
X0083186Y0146500D02*
X0060186Y0146500D01*
X0060186Y0186500D01*
X0067686Y0186500D01*
X0070186Y0191500D02*
X0070686Y0191500D01*
X0067686Y0186500D02*
X0067688Y0186374D01*
X0067694Y0186249D01*
X0067704Y0186124D01*
X0067718Y0185999D01*
X0067735Y0185874D01*
X0067757Y0185750D01*
X0067782Y0185627D01*
X0067812Y0185505D01*
X0067845Y0185384D01*
X0067882Y0185264D01*
X0067922Y0185145D01*
X0067967Y0185028D01*
X0068015Y0184911D01*
X0068067Y0184797D01*
X0068122Y0184684D01*
X0068181Y0184573D01*
X0068243Y0184464D01*
X0068309Y0184357D01*
X0068378Y0184252D01*
X0068450Y0184149D01*
X0068525Y0184048D01*
X0068604Y0183950D01*
X0068686Y0183855D01*
X0068770Y0183762D01*
X0068858Y0183672D01*
X0068948Y0183584D01*
X0069041Y0183500D01*
X0069136Y0183418D01*
X0069234Y0183339D01*
X0069335Y0183264D01*
X0069438Y0183192D01*
X0069543Y0183123D01*
X0069650Y0183057D01*
X0069759Y0182995D01*
X0069870Y0182936D01*
X0069983Y0182881D01*
X0070097Y0182829D01*
X0070214Y0182781D01*
X0070331Y0182736D01*
X0070450Y0182696D01*
X0070570Y0182659D01*
X0070691Y0182626D01*
X0070813Y0182596D01*
X0070936Y0182571D01*
X0071060Y0182549D01*
X0071185Y0182532D01*
X0071310Y0182518D01*
X0071435Y0182508D01*
X0071560Y0182502D01*
X0071686Y0182500D01*
X0071812Y0182502D01*
X0071937Y0182508D01*
X0072062Y0182518D01*
X0072187Y0182532D01*
X0072312Y0182549D01*
X0072436Y0182571D01*
X0072559Y0182596D01*
X0072681Y0182626D01*
X0072802Y0182659D01*
X0072922Y0182696D01*
X0073041Y0182736D01*
X0073158Y0182781D01*
X0073275Y0182829D01*
X0073389Y0182881D01*
X0073502Y0182936D01*
X0073613Y0182995D01*
X0073722Y0183057D01*
X0073829Y0183123D01*
X0073934Y0183192D01*
X0074037Y0183264D01*
X0074138Y0183339D01*
X0074236Y0183418D01*
X0074331Y0183500D01*
X0074424Y0183584D01*
X0074514Y0183672D01*
X0074602Y0183762D01*
X0074686Y0183855D01*
X0074768Y0183950D01*
X0074847Y0184048D01*
X0074922Y0184149D01*
X0074994Y0184252D01*
X0075063Y0184357D01*
X0075129Y0184464D01*
X0075191Y0184573D01*
X0075250Y0184684D01*
X0075305Y0184797D01*
X0075357Y0184911D01*
X0075405Y0185028D01*
X0075450Y0185145D01*
X0075490Y0185264D01*
X0075527Y0185384D01*
X0075560Y0185505D01*
X0075590Y0185627D01*
X0075615Y0185750D01*
X0075637Y0185874D01*
X0075654Y0185999D01*
X0075668Y0186124D01*
X0075678Y0186249D01*
X0075684Y0186374D01*
X0075686Y0186500D01*
X0083186Y0186500D01*
X0083186Y0146500D01*
X0080186Y0186500D02*
X0063186Y0186500D01*
X0063126Y0186502D01*
X0063065Y0186507D01*
X0063006Y0186516D01*
X0062947Y0186529D01*
X0062888Y0186545D01*
X0062831Y0186565D01*
X0062776Y0186588D01*
X0062721Y0186615D01*
X0062669Y0186644D01*
X0062618Y0186677D01*
X0062569Y0186713D01*
X0062523Y0186751D01*
X0062479Y0186793D01*
X0062437Y0186837D01*
X0062399Y0186883D01*
X0062363Y0186932D01*
X0062330Y0186983D01*
X0062301Y0187035D01*
X0062274Y0187090D01*
X0062251Y0187145D01*
X0062231Y0187202D01*
X0062215Y0187261D01*
X0062202Y0187320D01*
X0062193Y0187379D01*
X0062188Y0187440D01*
X0062186Y0187500D01*
X0062186Y0195500D01*
X0062188Y0195560D01*
X0062193Y0195621D01*
X0062202Y0195680D01*
X0062215Y0195739D01*
X0062231Y0195798D01*
X0062251Y0195855D01*
X0062274Y0195910D01*
X0062301Y0195965D01*
X0062330Y0196017D01*
X0062363Y0196068D01*
X0062399Y0196117D01*
X0062437Y0196163D01*
X0062479Y0196207D01*
X0062523Y0196249D01*
X0062569Y0196287D01*
X0062618Y0196323D01*
X0062669Y0196356D01*
X0062721Y0196385D01*
X0062776Y0196412D01*
X0062831Y0196435D01*
X0062888Y0196455D01*
X0062947Y0196471D01*
X0063006Y0196484D01*
X0063065Y0196493D01*
X0063126Y0196498D01*
X0063186Y0196500D01*
X0080186Y0196500D01*
X0080246Y0196498D01*
X0080307Y0196493D01*
X0080366Y0196484D01*
X0080425Y0196471D01*
X0080484Y0196455D01*
X0080541Y0196435D01*
X0080596Y0196412D01*
X0080651Y0196385D01*
X0080703Y0196356D01*
X0080754Y0196323D01*
X0080803Y0196287D01*
X0080849Y0196249D01*
X0080893Y0196207D01*
X0080935Y0196163D01*
X0080973Y0196117D01*
X0081009Y0196068D01*
X0081042Y0196017D01*
X0081071Y0195965D01*
X0081098Y0195910D01*
X0081121Y0195855D01*
X0081141Y0195798D01*
X0081157Y0195739D01*
X0081170Y0195680D01*
X0081179Y0195621D01*
X0081184Y0195560D01*
X0081186Y0195500D01*
X0081186Y0187500D01*
X0081184Y0187440D01*
X0081179Y0187379D01*
X0081170Y0187320D01*
X0081157Y0187261D01*
X0081141Y0187202D01*
X0081121Y0187145D01*
X0081098Y0187090D01*
X0081071Y0187035D01*
X0081042Y0186983D01*
X0081009Y0186932D01*
X0080973Y0186883D01*
X0080935Y0186837D01*
X0080893Y0186793D01*
X0080849Y0186751D01*
X0080803Y0186713D01*
X0080754Y0186677D01*
X0080703Y0186644D01*
X0080651Y0186615D01*
X0080596Y0186588D01*
X0080541Y0186565D01*
X0080484Y0186545D01*
X0080425Y0186529D01*
X0080366Y0186516D01*
X0080307Y0186507D01*
X0080246Y0186502D01*
X0080186Y0186500D01*
X0073186Y0191500D02*
X0072686Y0191500D01*
X0067686Y0131500D02*
X0060186Y0131500D01*
X0060186Y0091500D01*
X0067186Y0085500D02*
X0067186Y0077500D01*
X0067188Y0077440D01*
X0067193Y0077379D01*
X0067202Y0077320D01*
X0067215Y0077261D01*
X0067231Y0077202D01*
X0067251Y0077145D01*
X0067274Y0077090D01*
X0067301Y0077035D01*
X0067330Y0076983D01*
X0067363Y0076932D01*
X0067399Y0076883D01*
X0067437Y0076837D01*
X0067479Y0076793D01*
X0067523Y0076751D01*
X0067569Y0076713D01*
X0067618Y0076677D01*
X0067669Y0076644D01*
X0067721Y0076615D01*
X0067776Y0076588D01*
X0067831Y0076565D01*
X0067888Y0076545D01*
X0067947Y0076529D01*
X0068006Y0076516D01*
X0068065Y0076507D01*
X0068126Y0076502D01*
X0068186Y0076500D01*
X0085186Y0076500D01*
X0085246Y0076502D01*
X0085307Y0076507D01*
X0085366Y0076516D01*
X0085425Y0076529D01*
X0085484Y0076545D01*
X0085541Y0076565D01*
X0085596Y0076588D01*
X0085651Y0076615D01*
X0085703Y0076644D01*
X0085754Y0076677D01*
X0085803Y0076713D01*
X0085849Y0076751D01*
X0085893Y0076793D01*
X0085935Y0076837D01*
X0085973Y0076883D01*
X0086009Y0076932D01*
X0086042Y0076983D01*
X0086071Y0077035D01*
X0086098Y0077090D01*
X0086121Y0077145D01*
X0086141Y0077202D01*
X0086157Y0077261D01*
X0086170Y0077320D01*
X0086179Y0077379D01*
X0086184Y0077440D01*
X0086186Y0077500D01*
X0086186Y0085500D01*
X0086184Y0085560D01*
X0086179Y0085621D01*
X0086170Y0085680D01*
X0086157Y0085739D01*
X0086141Y0085798D01*
X0086121Y0085855D01*
X0086098Y0085910D01*
X0086071Y0085965D01*
X0086042Y0086017D01*
X0086009Y0086068D01*
X0085973Y0086117D01*
X0085935Y0086163D01*
X0085893Y0086207D01*
X0085849Y0086249D01*
X0085803Y0086287D01*
X0085754Y0086323D01*
X0085703Y0086356D01*
X0085651Y0086385D01*
X0085596Y0086412D01*
X0085541Y0086435D01*
X0085484Y0086455D01*
X0085425Y0086471D01*
X0085366Y0086484D01*
X0085307Y0086493D01*
X0085246Y0086498D01*
X0085186Y0086500D01*
X0068186Y0086500D01*
X0068126Y0086498D01*
X0068065Y0086493D01*
X0068006Y0086484D01*
X0067947Y0086471D01*
X0067888Y0086455D01*
X0067831Y0086435D01*
X0067776Y0086412D01*
X0067721Y0086385D01*
X0067669Y0086356D01*
X0067618Y0086323D01*
X0067569Y0086287D01*
X0067523Y0086249D01*
X0067479Y0086207D01*
X0067437Y0086163D01*
X0067399Y0086117D01*
X0067363Y0086068D01*
X0067330Y0086017D01*
X0067301Y0085965D01*
X0067274Y0085910D01*
X0067251Y0085855D01*
X0067231Y0085798D01*
X0067215Y0085739D01*
X0067202Y0085680D01*
X0067193Y0085621D01*
X0067188Y0085560D01*
X0067186Y0085500D01*
X0075186Y0081500D02*
X0075686Y0081500D01*
X0077686Y0081500D02*
X0078186Y0081500D01*
X0057686Y0035000D02*
X0056686Y0035000D01*
X0056186Y0034500D01*
X0047186Y0034500D01*
X0046686Y0035000D01*
X0045686Y0035000D01*
X0045626Y0034998D01*
X0045565Y0034993D01*
X0045506Y0034984D01*
X0045447Y0034971D01*
X0045388Y0034955D01*
X0045331Y0034935D01*
X0045276Y0034912D01*
X0045221Y0034885D01*
X0045169Y0034856D01*
X0045118Y0034823D01*
X0045069Y0034787D01*
X0045023Y0034749D01*
X0044979Y0034707D01*
X0044937Y0034663D01*
X0044899Y0034617D01*
X0044863Y0034568D01*
X0044830Y0034517D01*
X0044801Y0034465D01*
X0044774Y0034410D01*
X0044751Y0034355D01*
X0044731Y0034298D01*
X0044715Y0034239D01*
X0044702Y0034180D01*
X0044693Y0034121D01*
X0044688Y0034060D01*
X0044686Y0034000D01*
X0044686Y0029000D02*
X0044688Y0028940D01*
X0044693Y0028879D01*
X0044702Y0028820D01*
X0044715Y0028761D01*
X0044731Y0028702D01*
X0044751Y0028645D01*
X0044774Y0028590D01*
X0044801Y0028535D01*
X0044830Y0028483D01*
X0044863Y0028432D01*
X0044899Y0028383D01*
X0044937Y0028337D01*
X0044979Y0028293D01*
X0045023Y0028251D01*
X0045069Y0028213D01*
X0045118Y0028177D01*
X0045169Y0028144D01*
X0045221Y0028115D01*
X0045276Y0028088D01*
X0045331Y0028065D01*
X0045388Y0028045D01*
X0045447Y0028029D01*
X0045506Y0028016D01*
X0045565Y0028007D01*
X0045626Y0028002D01*
X0045686Y0028000D01*
X0046686Y0028000D01*
X0047186Y0028500D01*
X0056186Y0028500D01*
X0056686Y0028000D01*
X0057686Y0028000D01*
X0057746Y0028002D01*
X0057807Y0028007D01*
X0057866Y0028016D01*
X0057925Y0028029D01*
X0057984Y0028045D01*
X0058041Y0028065D01*
X0058096Y0028088D01*
X0058151Y0028115D01*
X0058203Y0028144D01*
X0058254Y0028177D01*
X0058303Y0028213D01*
X0058349Y0028251D01*
X0058393Y0028293D01*
X0058435Y0028337D01*
X0058473Y0028383D01*
X0058509Y0028432D01*
X0058542Y0028483D01*
X0058571Y0028535D01*
X0058598Y0028590D01*
X0058621Y0028645D01*
X0058641Y0028702D01*
X0058657Y0028761D01*
X0058670Y0028820D01*
X0058679Y0028879D01*
X0058684Y0028940D01*
X0058686Y0029000D01*
X0058686Y0034000D02*
X0058684Y0034060D01*
X0058679Y0034121D01*
X0058670Y0034180D01*
X0058657Y0034239D01*
X0058641Y0034298D01*
X0058621Y0034355D01*
X0058598Y0034410D01*
X0058571Y0034465D01*
X0058542Y0034517D01*
X0058509Y0034568D01*
X0058473Y0034617D01*
X0058435Y0034663D01*
X0058393Y0034707D01*
X0058349Y0034749D01*
X0058303Y0034787D01*
X0058254Y0034823D01*
X0058203Y0034856D01*
X0058151Y0034885D01*
X0058096Y0034912D01*
X0058041Y0034935D01*
X0057984Y0034955D01*
X0057925Y0034971D01*
X0057866Y0034984D01*
X0057807Y0034993D01*
X0057746Y0034998D01*
X0057686Y0035000D01*
X0057686Y0025000D02*
X0057686Y0018000D01*
X0045686Y0018000D01*
X0045686Y0025000D01*
X0057686Y0025000D01*
X0056686Y0021500D02*
X0051186Y0021500D01*
X0051186Y0019500D01*
X0051186Y0021500D02*
X0051186Y0023500D01*
X0051186Y0021500D02*
X0055186Y0023500D01*
X0055186Y0019500D01*
X0051186Y0021500D01*
X0049686Y0021500D01*
D12*
X0075686Y0078500D02*
X0075686Y0081500D01*
X0075686Y0084500D01*
X0077686Y0084500D02*
X0077686Y0081500D01*
X0077686Y0078500D01*
X0072686Y0133500D02*
X0072686Y0136500D01*
X0072686Y0139500D01*
X0070686Y0139500D02*
X0070686Y0136500D01*
X0070686Y0133500D01*
X0070686Y0188500D02*
X0070686Y0191500D01*
X0070686Y0194500D01*
X0072686Y0194500D02*
X0072686Y0191500D01*
X0072686Y0188500D01*
X0047686Y0228500D02*
X0047686Y0231500D01*
X0047686Y0234500D01*
X0045686Y0234500D02*
X0045686Y0231500D01*
X0045686Y0228500D01*
X0027686Y0169500D02*
X0027686Y0166500D01*
X0027686Y0163500D01*
X0025686Y0163500D02*
X0025686Y0166500D01*
X0025686Y0169500D01*
D13*
X0025756Y0146254D02*
X0025005Y0145503D01*
X0025005Y0142501D01*
X0025756Y0141750D01*
X0027257Y0141750D01*
X0028008Y0142501D01*
X0029609Y0141750D02*
X0032612Y0141750D01*
X0031110Y0141750D02*
X0031110Y0146254D01*
X0029609Y0144753D01*
X0028008Y0145503D02*
X0027257Y0146254D01*
X0025756Y0146254D01*
X0023437Y0146254D02*
X0021936Y0146254D01*
X0022687Y0146254D02*
X0022687Y0141750D01*
X0023437Y0141750D02*
X0021936Y0141750D01*
X0041936Y0162501D02*
X0042687Y0161750D01*
X0044188Y0161750D01*
X0044939Y0162501D01*
X0044939Y0165503D02*
X0044188Y0166254D01*
X0042687Y0166254D01*
X0041936Y0165503D01*
X0041936Y0162501D01*
X0046540Y0164002D02*
X0049542Y0164002D01*
X0048792Y0161750D02*
X0048792Y0166254D01*
X0046540Y0164002D01*
X0065936Y0171750D02*
X0067437Y0171750D01*
X0066687Y0171750D02*
X0066687Y0176254D01*
X0067437Y0176254D02*
X0065936Y0176254D01*
X0069005Y0175503D02*
X0069005Y0172501D01*
X0069756Y0171750D01*
X0071257Y0171750D01*
X0072008Y0172501D01*
X0073609Y0171750D02*
X0076612Y0174753D01*
X0076612Y0175503D01*
X0075861Y0176254D01*
X0074360Y0176254D01*
X0073609Y0175503D01*
X0072008Y0175503D02*
X0071257Y0176254D01*
X0069756Y0176254D01*
X0069005Y0175503D01*
X0073609Y0171750D02*
X0076612Y0171750D01*
X0082683Y0191750D02*
X0085685Y0191750D01*
X0086436Y0192501D01*
X0086436Y0194002D01*
X0085685Y0194753D01*
X0086436Y0196354D02*
X0083433Y0199356D01*
X0082683Y0199356D01*
X0081932Y0198606D01*
X0081932Y0197105D01*
X0082683Y0196354D01*
X0082683Y0194753D02*
X0081932Y0194002D01*
X0081932Y0192501D01*
X0082683Y0191750D01*
X0086436Y0196354D02*
X0086436Y0199356D01*
X0091580Y0212236D02*
X0092214Y0212870D01*
X0091580Y0213504D01*
X0093482Y0213504D01*
X0093482Y0214446D02*
X0093482Y0215080D01*
X0093482Y0214763D02*
X0091580Y0214763D01*
X0091580Y0214446D02*
X0091580Y0215080D01*
X0091580Y0215919D02*
X0091580Y0216870D01*
X0091897Y0217187D01*
X0093165Y0217187D01*
X0093482Y0216870D01*
X0093482Y0215919D01*
X0091580Y0215919D01*
X0091580Y0218129D02*
X0091580Y0218763D01*
X0091580Y0218446D02*
X0093482Y0218446D01*
X0093482Y0218129D02*
X0093482Y0218763D01*
X0093482Y0219602D02*
X0093482Y0220236D01*
X0093482Y0219919D02*
X0091580Y0219919D01*
X0091580Y0219602D02*
X0091580Y0220236D01*
X0091580Y0221076D02*
X0093482Y0222343D01*
X0091580Y0222343D01*
X0091580Y0221076D02*
X0093482Y0221076D01*
X0093482Y0212236D02*
X0091580Y0212236D01*
X0086234Y0237349D02*
X0084332Y0237349D01*
X0084966Y0237982D01*
X0084332Y0238616D01*
X0086234Y0238616D01*
X0086234Y0239558D02*
X0086234Y0240192D01*
X0086234Y0239875D02*
X0084332Y0239875D01*
X0084332Y0239558D02*
X0084332Y0240192D01*
X0084332Y0241032D02*
X0084332Y0241982D01*
X0084649Y0242299D01*
X0085917Y0242299D01*
X0086234Y0241982D01*
X0086234Y0241032D01*
X0084332Y0241032D01*
X0084332Y0243242D02*
X0084332Y0243875D01*
X0084332Y0243558D02*
X0086234Y0243558D01*
X0086234Y0243242D02*
X0086234Y0243875D01*
X0085917Y0244715D02*
X0086234Y0245032D01*
X0086234Y0245666D01*
X0085917Y0245983D01*
X0084649Y0245983D01*
X0084332Y0245666D01*
X0084332Y0245032D01*
X0084649Y0244715D01*
X0085917Y0244715D01*
X0085917Y0246925D02*
X0086234Y0247242D01*
X0086234Y0247875D01*
X0085917Y0248192D01*
X0084332Y0248192D01*
X0084332Y0249135D02*
X0084332Y0250402D01*
X0084332Y0249768D02*
X0086234Y0249768D01*
X0085917Y0246925D02*
X0084332Y0246925D01*
X0054335Y0220750D02*
X0051332Y0220750D01*
X0051332Y0223753D02*
X0052833Y0225254D01*
X0052833Y0220750D01*
X0049731Y0221501D02*
X0048980Y0220750D01*
X0047479Y0220750D01*
X0046728Y0221501D01*
X0046728Y0224503D01*
X0047479Y0225254D01*
X0048980Y0225254D01*
X0049731Y0224503D01*
X0082683Y0144356D02*
X0081932Y0143606D01*
X0081932Y0142105D01*
X0082683Y0141354D01*
X0082683Y0139753D02*
X0081932Y0139002D01*
X0081932Y0137501D01*
X0082683Y0136750D01*
X0085685Y0136750D01*
X0086436Y0137501D01*
X0086436Y0139002D01*
X0085685Y0139753D01*
X0085685Y0141354D02*
X0086436Y0142105D01*
X0086436Y0143606D01*
X0085685Y0144356D01*
X0084935Y0144356D01*
X0084184Y0143606D01*
X0084184Y0142855D01*
X0084184Y0143606D02*
X0083433Y0144356D01*
X0082683Y0144356D01*
X0076861Y0116254D02*
X0075360Y0116254D01*
X0074609Y0115503D01*
X0073008Y0115503D02*
X0072257Y0116254D01*
X0070756Y0116254D01*
X0070005Y0115503D01*
X0070005Y0112501D01*
X0070756Y0111750D01*
X0072257Y0111750D01*
X0073008Y0112501D01*
X0074609Y0112501D02*
X0075360Y0111750D01*
X0076861Y0111750D01*
X0077612Y0112501D01*
X0077612Y0113251D01*
X0076861Y0114002D01*
X0076110Y0114002D01*
X0076861Y0114002D02*
X0077612Y0114753D01*
X0077612Y0115503D01*
X0076861Y0116254D01*
X0068437Y0116254D02*
X0066936Y0116254D01*
X0067687Y0116254D02*
X0067687Y0111750D01*
X0068437Y0111750D02*
X0066936Y0111750D01*
X0067645Y0066254D02*
X0067645Y0061750D01*
X0066144Y0061750D02*
X0069146Y0061750D01*
X0066144Y0064753D02*
X0067645Y0066254D01*
X0064542Y0066254D02*
X0061540Y0063251D01*
X0062291Y0064002D02*
X0064542Y0061750D01*
X0061540Y0061750D02*
X0061540Y0066254D01*
X0059939Y0065503D02*
X0059939Y0062501D01*
X0059188Y0061750D01*
X0057687Y0061750D01*
X0056936Y0062501D01*
X0056936Y0065503D01*
X0057687Y0066254D01*
X0059188Y0066254D01*
X0059939Y0065503D01*
X0048041Y0016254D02*
X0046540Y0014753D01*
X0046540Y0011750D02*
X0049542Y0011750D01*
X0048041Y0011750D02*
X0048041Y0016254D01*
X0044939Y0015503D02*
X0044939Y0012501D01*
X0044188Y0011750D01*
X0041936Y0011750D01*
X0041936Y0016254D01*
X0044188Y0016254D01*
X0044939Y0015503D01*
X0011558Y0063179D02*
X0009656Y0063179D01*
X0009656Y0064447D01*
X0009656Y0065389D02*
X0009656Y0066340D01*
X0009973Y0066657D01*
X0010607Y0066657D01*
X0010924Y0066340D01*
X0010924Y0065389D01*
X0010924Y0066023D02*
X0011558Y0066657D01*
X0011241Y0067599D02*
X0011558Y0067916D01*
X0011558Y0068550D01*
X0011241Y0068867D01*
X0009973Y0068867D01*
X0009656Y0068550D01*
X0009656Y0067916D01*
X0009973Y0067599D01*
X0011241Y0067599D01*
X0011558Y0069809D02*
X0009656Y0069809D01*
X0011558Y0071077D01*
X0009656Y0071077D01*
X0009656Y0072019D02*
X0009656Y0073286D01*
X0009656Y0072653D02*
X0011558Y0072653D01*
X0011558Y0065389D02*
X0009656Y0065389D01*
X0010607Y0063813D02*
X0010607Y0063179D01*
X0004310Y0037871D02*
X0003676Y0037237D01*
X0003676Y0037554D02*
X0003676Y0036603D01*
X0004310Y0036603D02*
X0002408Y0036603D01*
X0002408Y0037554D01*
X0002725Y0037871D01*
X0003359Y0037871D01*
X0003676Y0037554D01*
X0004310Y0035661D02*
X0002408Y0035661D01*
X0002408Y0034393D02*
X0004310Y0034393D01*
X0003676Y0035027D01*
X0004310Y0035661D01*
X0003359Y0033451D02*
X0003676Y0033134D01*
X0003676Y0032183D01*
X0004310Y0032183D02*
X0002408Y0032183D01*
X0002408Y0033134D01*
X0002725Y0033451D01*
X0003359Y0033451D01*
X0009656Y0216722D02*
X0010290Y0217356D01*
X0009656Y0217990D01*
X0011558Y0217990D01*
X0011558Y0218932D02*
X0011558Y0219566D01*
X0011558Y0219249D02*
X0009656Y0219249D01*
X0009656Y0218932D02*
X0009656Y0219566D01*
X0009656Y0220406D02*
X0009656Y0221356D01*
X0009973Y0221673D01*
X0011241Y0221673D01*
X0011558Y0221356D01*
X0011558Y0220406D01*
X0009656Y0220406D01*
X0009656Y0222615D02*
X0009656Y0223249D01*
X0009656Y0222932D02*
X0011558Y0222932D01*
X0011558Y0222615D02*
X0011558Y0223249D01*
X0011558Y0224723D02*
X0009656Y0224723D01*
X0009656Y0225356D02*
X0009656Y0224089D01*
X0009656Y0226299D02*
X0011558Y0227566D01*
X0011558Y0226299D02*
X0009656Y0227566D01*
X0009656Y0216722D02*
X0011558Y0216722D01*
X0004310Y0244781D02*
X0002408Y0244781D01*
X0003042Y0245415D01*
X0002408Y0246049D01*
X0004310Y0246049D01*
X0004310Y0246991D02*
X0004310Y0247625D01*
X0004310Y0247308D02*
X0002408Y0247308D01*
X0002408Y0246991D02*
X0002408Y0247625D01*
X0002408Y0248465D02*
X0002408Y0249415D01*
X0002725Y0249732D01*
X0003993Y0249732D01*
X0004310Y0249415D01*
X0004310Y0248465D01*
X0002408Y0248465D01*
X0002408Y0250675D02*
X0002408Y0251308D01*
X0002408Y0250991D02*
X0004310Y0250991D01*
X0004310Y0250675D02*
X0004310Y0251308D01*
X0004310Y0252148D02*
X0002408Y0252148D01*
X0002408Y0253099D01*
X0002725Y0253416D01*
X0003359Y0253416D01*
X0003676Y0253099D01*
X0003676Y0252148D01*
X0003676Y0252782D02*
X0004310Y0253416D01*
X0004310Y0254358D02*
X0002408Y0255625D01*
X0002408Y0254358D02*
X0004310Y0255625D01*
X0086932Y0074356D02*
X0086932Y0071354D01*
X0089184Y0071354D01*
X0088433Y0072855D01*
X0088433Y0073606D01*
X0089184Y0074356D01*
X0090685Y0074356D01*
X0091436Y0073606D01*
X0091436Y0072105D01*
X0090685Y0071354D01*
X0090685Y0069753D02*
X0091436Y0069002D01*
X0091436Y0067501D01*
X0090685Y0066750D01*
X0087683Y0066750D01*
X0086932Y0067501D01*
X0086932Y0069002D01*
X0087683Y0069753D01*
D14*
X0047936Y0021500D03*
D15*
X0042936Y0021500D03*
X0060436Y0021500D03*
D16*
X0066886Y0031700D02*
X0066886Y0035203D01*
X0068637Y0035203D01*
X0069221Y0034619D01*
X0069221Y0033451D01*
X0068637Y0032868D01*
X0066886Y0032868D01*
X0068054Y0032868D02*
X0069221Y0031700D01*
X0070477Y0033451D02*
X0072812Y0033451D01*
X0072229Y0031700D02*
X0072229Y0035203D01*
X0070477Y0033451D01*
X0049329Y0086300D02*
X0049912Y0086884D01*
X0049912Y0088051D01*
X0049329Y0088635D01*
X0048745Y0088635D01*
X0047577Y0088051D01*
X0047577Y0089803D01*
X0049912Y0089803D01*
X0049329Y0086300D02*
X0048161Y0086300D01*
X0047577Y0086884D01*
X0046321Y0086300D02*
X0045154Y0087468D01*
X0045737Y0087468D02*
X0043986Y0087468D01*
X0043986Y0086300D02*
X0043986Y0089803D01*
X0045737Y0089803D01*
X0046321Y0089219D01*
X0046321Y0088051D01*
X0045737Y0087468D01*
X0045477Y0171700D02*
X0047812Y0174035D01*
X0047812Y0174619D01*
X0047229Y0175203D01*
X0046061Y0175203D01*
X0045477Y0174619D01*
X0044221Y0174619D02*
X0044221Y0173451D01*
X0043637Y0172868D01*
X0041886Y0172868D01*
X0043054Y0172868D02*
X0044221Y0171700D01*
X0045477Y0171700D02*
X0047812Y0171700D01*
X0044221Y0174619D02*
X0043637Y0175203D01*
X0041886Y0175203D01*
X0041886Y0171700D01*
X0041886Y0181700D02*
X0041886Y0185203D01*
X0043637Y0185203D01*
X0044221Y0184619D01*
X0044221Y0183451D01*
X0043637Y0182868D01*
X0041886Y0182868D01*
X0043054Y0182868D02*
X0044221Y0181700D01*
X0045477Y0182284D02*
X0046061Y0181700D01*
X0047229Y0181700D01*
X0047812Y0182284D01*
X0047812Y0182868D01*
X0047229Y0183451D01*
X0046645Y0183451D01*
X0047229Y0183451D02*
X0047812Y0184035D01*
X0047812Y0184619D01*
X0047229Y0185203D01*
X0046061Y0185203D01*
X0045477Y0184619D01*
X0045477Y0191700D02*
X0045477Y0192284D01*
X0047812Y0194619D01*
X0047812Y0195203D01*
X0045477Y0195203D01*
X0044221Y0194619D02*
X0044221Y0193451D01*
X0043637Y0192868D01*
X0041886Y0192868D01*
X0043054Y0192868D02*
X0044221Y0191700D01*
X0044221Y0194619D02*
X0043637Y0195203D01*
X0041886Y0195203D01*
X0041886Y0191700D01*
X0036486Y0226700D02*
X0032983Y0226700D01*
X0032983Y0228451D01*
X0033567Y0229035D01*
X0034734Y0229035D01*
X0035318Y0228451D01*
X0035318Y0226700D01*
X0035318Y0227868D02*
X0036486Y0229035D01*
X0035902Y0230291D02*
X0036486Y0230875D01*
X0036486Y0232043D01*
X0035902Y0232626D01*
X0035318Y0232626D01*
X0034734Y0232043D01*
X0034734Y0230291D01*
X0035902Y0230291D01*
X0034734Y0230291D02*
X0033567Y0231459D01*
X0032983Y0232626D01*
X0032983Y0256700D02*
X0032983Y0258451D01*
X0033567Y0259035D01*
X0034734Y0259035D01*
X0035318Y0258451D01*
X0035318Y0256700D01*
X0035318Y0257868D02*
X0036486Y0259035D01*
X0036486Y0260291D02*
X0036486Y0262626D01*
X0036486Y0261459D02*
X0032983Y0261459D01*
X0034151Y0260291D01*
X0032983Y0256700D02*
X0036486Y0256700D01*
D17*
X0001686Y0048547D02*
X0001686Y0025319D01*
X0031607Y0025319D01*
X0031607Y0027878D01*
X0025308Y0027878D01*
X0025308Y0045988D02*
X0031607Y0045988D01*
X0031607Y0048547D01*
X0001686Y0048547D01*
X0001686Y0048941D02*
X0001686Y0087917D01*
X0031607Y0087917D01*
X0031607Y0085358D01*
X0025308Y0085358D01*
X0025308Y0051500D02*
X0031607Y0051500D01*
X0031607Y0048941D01*
X0001686Y0048941D01*
X0001686Y0206421D02*
X0001686Y0237524D01*
X0031607Y0237524D01*
X0031607Y0234965D01*
X0025308Y0234965D01*
X0025308Y0240476D02*
X0031607Y0240476D01*
X0031607Y0237917D01*
X0001686Y0237917D01*
X0001686Y0261146D01*
X0031607Y0261146D01*
X0031607Y0258587D01*
X0025308Y0258587D01*
X0025308Y0208980D02*
X0031607Y0208980D01*
X0031607Y0206421D01*
X0001686Y0206421D01*
X0064284Y0206421D02*
X0064284Y0208980D01*
X0070584Y0208980D01*
X0064284Y0206421D02*
X0094206Y0206421D01*
X0094206Y0229650D01*
X0064284Y0229650D01*
X0064284Y0227091D01*
X0070584Y0227091D01*
X0070584Y0232602D02*
X0064284Y0232602D01*
X0064284Y0230043D01*
X0094206Y0230043D01*
X0094206Y0261146D01*
X0064284Y0261146D01*
X0064284Y0258587D01*
X0070584Y0258587D01*
M02*
