G75*
%MOIN*%
%OFA0B0*%
%FSLAX25Y25*%
%IPPOS*%
%LPD*%
%AMOC8*
5,1,8,0,0,1.08239X$1,22.5*
%
%ADD10C,0.00300*%
%ADD11C,0.00600*%
%ADD12C,0.01000*%
%ADD13C,0.00500*%
%ADD14R,0.01500X0.07000*%
%ADD15R,0.05500X0.02000*%
%ADD16C,0.00400*%
%ADD17C,0.00800*%
D10*
X0009424Y0060455D02*
X0009424Y0063358D01*
X0010875Y0063358D01*
X0011359Y0062874D01*
X0011359Y0061906D01*
X0010875Y0061423D01*
X0009424Y0061423D01*
X0012371Y0060455D02*
X0013338Y0061423D01*
X0014306Y0060455D01*
X0014306Y0063358D01*
X0015317Y0063358D02*
X0015317Y0060455D01*
X0015317Y0061423D02*
X0016768Y0061423D01*
X0017252Y0061906D01*
X0017252Y0062874D01*
X0016768Y0063358D01*
X0015317Y0063358D01*
X0016285Y0061423D02*
X0017252Y0060455D01*
X0021210Y0060939D02*
X0021694Y0060455D01*
X0022661Y0060455D01*
X0023145Y0060939D01*
X0023145Y0061906D01*
X0022661Y0062390D01*
X0022178Y0062390D01*
X0021210Y0061906D01*
X0021210Y0063358D01*
X0023145Y0063358D01*
X0024157Y0063358D02*
X0024157Y0061423D01*
X0025124Y0060455D01*
X0026092Y0061423D01*
X0026092Y0063358D01*
X0025139Y0072266D02*
X0027074Y0075169D01*
X0025139Y0075169D02*
X0027074Y0072266D01*
X0023160Y0072266D02*
X0023160Y0075169D01*
X0024127Y0075169D02*
X0022192Y0075169D01*
X0018249Y0075169D02*
X0017281Y0075169D01*
X0017765Y0075169D02*
X0017765Y0072266D01*
X0017281Y0072266D02*
X0018249Y0072266D01*
X0016270Y0072750D02*
X0016270Y0074685D01*
X0015786Y0075169D01*
X0014335Y0075169D01*
X0014335Y0072266D01*
X0015786Y0072266D01*
X0016270Y0072750D01*
X0013338Y0072266D02*
X0012371Y0072266D01*
X0012854Y0072266D02*
X0012854Y0075169D01*
X0012371Y0075169D02*
X0013338Y0075169D01*
X0011359Y0075169D02*
X0011359Y0072266D01*
X0009424Y0072266D02*
X0009424Y0075169D01*
X0010391Y0074201D01*
X0011359Y0075169D01*
X0012371Y0063358D02*
X0012371Y0060455D01*
X0012371Y0166754D02*
X0014306Y0166754D01*
X0015317Y0166754D02*
X0015317Y0169657D01*
X0016768Y0169657D01*
X0017252Y0169173D01*
X0017252Y0167238D01*
X0016768Y0166754D01*
X0015317Y0166754D01*
X0013338Y0168206D02*
X0012371Y0168206D01*
X0012371Y0169657D02*
X0012371Y0166754D01*
X0011359Y0166754D02*
X0009424Y0166754D01*
X0009424Y0169657D01*
X0012371Y0169657D02*
X0014306Y0169657D01*
X0014335Y0217935D02*
X0015786Y0217935D01*
X0016270Y0218419D01*
X0016270Y0220354D01*
X0015786Y0220838D01*
X0014335Y0220838D01*
X0014335Y0217935D01*
X0013338Y0217935D02*
X0012371Y0217935D01*
X0012854Y0217935D02*
X0012854Y0220838D01*
X0012371Y0220838D02*
X0013338Y0220838D01*
X0011359Y0220838D02*
X0011359Y0217935D01*
X0009424Y0217935D02*
X0009424Y0220838D01*
X0010391Y0219870D01*
X0011359Y0220838D01*
X0017281Y0220838D02*
X0018249Y0220838D01*
X0017765Y0220838D02*
X0017765Y0217935D01*
X0017281Y0217935D02*
X0018249Y0217935D01*
X0022192Y0217935D02*
X0022192Y0220838D01*
X0023643Y0220838D01*
X0024127Y0220354D01*
X0024127Y0219387D01*
X0023643Y0218903D01*
X0022192Y0218903D01*
X0023160Y0218903D02*
X0024127Y0217935D01*
X0025139Y0217935D02*
X0027074Y0220838D01*
X0025139Y0220838D02*
X0027074Y0217935D01*
X0026550Y0271400D02*
X0026550Y0274302D01*
X0027517Y0273335D01*
X0028485Y0274302D01*
X0028485Y0271400D01*
X0029497Y0271400D02*
X0030464Y0271400D01*
X0029980Y0271400D02*
X0029980Y0274302D01*
X0029497Y0274302D02*
X0030464Y0274302D01*
X0031461Y0274302D02*
X0032912Y0274302D01*
X0033396Y0273819D01*
X0033396Y0271884D01*
X0032912Y0271400D01*
X0031461Y0271400D01*
X0031461Y0274302D01*
X0034407Y0274302D02*
X0035375Y0274302D01*
X0034891Y0274302D02*
X0034891Y0271400D01*
X0034407Y0271400D02*
X0035375Y0271400D01*
X0039318Y0271400D02*
X0041253Y0271400D01*
X0042265Y0271884D02*
X0042748Y0271400D01*
X0043716Y0271400D01*
X0044200Y0271884D01*
X0044200Y0272851D01*
X0043716Y0273335D01*
X0042748Y0273335D01*
X0042265Y0272851D01*
X0042265Y0271884D01*
X0045211Y0271400D02*
X0045211Y0273335D01*
X0046663Y0273335D01*
X0047146Y0272851D01*
X0047146Y0271400D01*
X0048158Y0271884D02*
X0048642Y0271400D01*
X0050093Y0271400D01*
X0050093Y0270916D02*
X0050093Y0273335D01*
X0048642Y0273335D01*
X0048158Y0272851D01*
X0048158Y0271884D01*
X0049125Y0270433D02*
X0049609Y0270433D01*
X0050093Y0270916D01*
X0051104Y0271400D02*
X0051104Y0273335D01*
X0051104Y0272367D02*
X0052072Y0273335D01*
X0052556Y0273335D01*
X0054043Y0273335D02*
X0055011Y0273335D01*
X0055495Y0272851D01*
X0055495Y0271400D01*
X0054043Y0271400D01*
X0053560Y0271884D01*
X0054043Y0272367D01*
X0055495Y0272367D01*
X0056506Y0271400D02*
X0056506Y0273335D01*
X0057957Y0273335D01*
X0058441Y0272851D01*
X0058441Y0271400D01*
X0059453Y0271884D02*
X0059937Y0271400D01*
X0061388Y0271400D01*
X0061388Y0270916D02*
X0061388Y0273335D01*
X0059937Y0273335D01*
X0059453Y0272851D01*
X0059453Y0271884D01*
X0060420Y0270433D02*
X0060904Y0270433D01*
X0061388Y0270916D01*
X0062399Y0271884D02*
X0062399Y0272851D01*
X0062883Y0273335D01*
X0063851Y0273335D01*
X0064334Y0272851D01*
X0064334Y0272367D01*
X0062399Y0272367D01*
X0062399Y0271884D02*
X0062883Y0271400D01*
X0063851Y0271400D01*
X0065346Y0271400D02*
X0065346Y0273335D01*
X0066313Y0273335D02*
X0066797Y0273335D01*
X0066313Y0273335D02*
X0065346Y0272367D01*
X0070748Y0271400D02*
X0072683Y0271400D01*
X0071715Y0271400D02*
X0071715Y0274302D01*
X0070748Y0273335D01*
X0073694Y0271884D02*
X0073694Y0271400D01*
X0074178Y0271400D01*
X0074178Y0271884D01*
X0073694Y0271884D01*
X0075168Y0271884D02*
X0075651Y0271400D01*
X0076619Y0271400D01*
X0077103Y0271884D01*
X0077103Y0273819D01*
X0075168Y0271884D01*
X0075168Y0273819D01*
X0075651Y0274302D01*
X0076619Y0274302D01*
X0077103Y0273819D01*
X0078114Y0271884D02*
X0078114Y0271400D01*
X0078598Y0271400D01*
X0078598Y0271884D01*
X0078114Y0271884D01*
X0079587Y0271884D02*
X0080071Y0271400D01*
X0081039Y0271400D01*
X0081522Y0271884D01*
X0081522Y0273819D01*
X0079587Y0271884D01*
X0079587Y0273819D01*
X0080071Y0274302D01*
X0081039Y0274302D01*
X0081522Y0273819D01*
X0085480Y0274302D02*
X0085480Y0271400D01*
X0086932Y0271400D01*
X0087415Y0271884D01*
X0087415Y0272851D01*
X0086932Y0273335D01*
X0085480Y0273335D01*
X0088427Y0273335D02*
X0088427Y0271884D01*
X0088911Y0271400D01*
X0090362Y0271400D01*
X0090362Y0270916D02*
X0089878Y0270433D01*
X0089394Y0270433D01*
X0090362Y0270916D02*
X0090362Y0273335D01*
X0094320Y0274302D02*
X0094320Y0271400D01*
X0094320Y0272367D02*
X0095771Y0272367D01*
X0096255Y0272851D01*
X0096255Y0273819D01*
X0095771Y0274302D01*
X0094320Y0274302D01*
X0097266Y0273335D02*
X0097750Y0273335D01*
X0097750Y0271400D01*
X0097266Y0271400D02*
X0098234Y0271400D01*
X0099231Y0271400D02*
X0099231Y0273335D01*
X0100682Y0273335D01*
X0101166Y0272851D01*
X0101166Y0271400D01*
X0102177Y0271884D02*
X0102177Y0272851D01*
X0102661Y0273335D01*
X0103629Y0273335D01*
X0104112Y0272851D01*
X0104112Y0272367D01*
X0102177Y0272367D01*
X0102177Y0271884D02*
X0102661Y0271400D01*
X0103629Y0271400D01*
X0105124Y0271884D02*
X0105608Y0272367D01*
X0107059Y0272367D01*
X0107059Y0272851D02*
X0107059Y0271400D01*
X0105608Y0271400D01*
X0105124Y0271884D01*
X0105608Y0273335D02*
X0106575Y0273335D01*
X0107059Y0272851D01*
X0108070Y0273335D02*
X0109522Y0273335D01*
X0110005Y0272851D01*
X0110005Y0271884D01*
X0109522Y0271400D01*
X0108070Y0271400D01*
X0108070Y0270433D02*
X0108070Y0273335D01*
X0111017Y0273335D02*
X0111017Y0270433D01*
X0111017Y0271400D02*
X0112468Y0271400D01*
X0112952Y0271884D01*
X0112952Y0272851D01*
X0112468Y0273335D01*
X0111017Y0273335D01*
X0113963Y0274302D02*
X0114447Y0274302D01*
X0114447Y0271400D01*
X0113963Y0271400D02*
X0114931Y0271400D01*
X0115928Y0271884D02*
X0115928Y0272851D01*
X0116411Y0273335D01*
X0117379Y0273335D01*
X0117863Y0272851D01*
X0117863Y0272367D01*
X0115928Y0272367D01*
X0115928Y0271884D02*
X0116411Y0271400D01*
X0117379Y0271400D01*
X0121821Y0271400D02*
X0123272Y0271400D01*
X0123756Y0271884D01*
X0123756Y0273819D01*
X0123272Y0274302D01*
X0121821Y0274302D01*
X0121821Y0271400D01*
X0124767Y0271884D02*
X0125251Y0271400D01*
X0126218Y0271400D01*
X0126702Y0272367D02*
X0124767Y0272367D01*
X0124767Y0271884D02*
X0124767Y0272851D01*
X0125251Y0273335D01*
X0126218Y0273335D01*
X0126702Y0272851D01*
X0126702Y0272367D01*
X0127714Y0272851D02*
X0128198Y0273335D01*
X0129649Y0273335D01*
X0130660Y0273335D02*
X0131144Y0273335D01*
X0131144Y0271400D01*
X0130660Y0271400D02*
X0131628Y0271400D01*
X0132625Y0271884D02*
X0133108Y0271400D01*
X0134560Y0271400D01*
X0134560Y0270916D02*
X0134560Y0273335D01*
X0133108Y0273335D01*
X0132625Y0272851D01*
X0132625Y0271884D01*
X0133592Y0270433D02*
X0134076Y0270433D01*
X0134560Y0270916D01*
X0135571Y0271400D02*
X0135571Y0273335D01*
X0137022Y0273335D01*
X0137506Y0272851D01*
X0137506Y0271400D01*
X0131144Y0274302D02*
X0131144Y0274786D01*
X0129165Y0272367D02*
X0128198Y0272367D01*
X0127714Y0272851D01*
X0127714Y0271400D02*
X0129165Y0271400D01*
X0129649Y0271884D01*
X0129165Y0272367D01*
X0128485Y0220838D02*
X0127518Y0220838D01*
X0128001Y0220838D02*
X0128001Y0217935D01*
X0127518Y0217935D02*
X0128485Y0217935D01*
X0126506Y0218419D02*
X0126506Y0220354D01*
X0126022Y0220838D01*
X0124571Y0220838D01*
X0124571Y0217935D01*
X0126022Y0217935D01*
X0126506Y0218419D01*
X0123574Y0217935D02*
X0122607Y0217935D01*
X0123090Y0217935D02*
X0123090Y0220838D01*
X0122607Y0220838D02*
X0123574Y0220838D01*
X0121595Y0220838D02*
X0121595Y0217935D01*
X0120628Y0219870D02*
X0121595Y0220838D01*
X0120628Y0219870D02*
X0119660Y0220838D01*
X0119660Y0217935D01*
X0132428Y0218419D02*
X0132912Y0217935D01*
X0133880Y0217935D01*
X0134363Y0218419D01*
X0134363Y0220354D01*
X0133880Y0220838D01*
X0132912Y0220838D01*
X0132428Y0220354D01*
X0132428Y0218419D01*
X0135375Y0218419D02*
X0135859Y0217935D01*
X0136826Y0217935D01*
X0137310Y0218419D01*
X0137310Y0220838D01*
X0138322Y0220838D02*
X0140256Y0220838D01*
X0139289Y0220838D02*
X0139289Y0217935D01*
X0135375Y0218419D02*
X0135375Y0220838D01*
X0097750Y0274302D02*
X0097750Y0274786D01*
X0039318Y0274302D02*
X0039318Y0271400D01*
X0119660Y0063358D02*
X0120628Y0062390D01*
X0121595Y0063358D01*
X0121595Y0060455D01*
X0122607Y0060455D02*
X0123574Y0060455D01*
X0123090Y0060455D02*
X0123090Y0063358D01*
X0122607Y0063358D02*
X0123574Y0063358D01*
X0124571Y0063358D02*
X0124571Y0060455D01*
X0126022Y0060455D01*
X0126506Y0060939D01*
X0126506Y0062874D01*
X0126022Y0063358D01*
X0124571Y0063358D01*
X0127518Y0063358D02*
X0128485Y0063358D01*
X0128001Y0063358D02*
X0128001Y0060455D01*
X0127518Y0060455D02*
X0128485Y0060455D01*
X0132428Y0060455D02*
X0133396Y0060455D01*
X0132912Y0060455D02*
X0132912Y0063358D01*
X0132428Y0063358D02*
X0133396Y0063358D01*
X0134393Y0063358D02*
X0136328Y0060455D01*
X0136328Y0063358D01*
X0134393Y0063358D02*
X0134393Y0060455D01*
X0119660Y0060455D02*
X0119660Y0063358D01*
D11*
X0099900Y0061250D02*
X0099400Y0061750D01*
X0099400Y0070750D01*
X0099900Y0071250D01*
X0099900Y0072250D01*
X0099898Y0072310D01*
X0099893Y0072371D01*
X0099884Y0072430D01*
X0099871Y0072489D01*
X0099855Y0072548D01*
X0099835Y0072605D01*
X0099812Y0072660D01*
X0099785Y0072715D01*
X0099756Y0072767D01*
X0099723Y0072818D01*
X0099687Y0072867D01*
X0099649Y0072913D01*
X0099607Y0072957D01*
X0099563Y0072999D01*
X0099517Y0073037D01*
X0099468Y0073073D01*
X0099417Y0073106D01*
X0099365Y0073135D01*
X0099310Y0073162D01*
X0099255Y0073185D01*
X0099198Y0073205D01*
X0099139Y0073221D01*
X0099080Y0073234D01*
X0099021Y0073243D01*
X0098960Y0073248D01*
X0098900Y0073250D01*
X0093900Y0073250D02*
X0093840Y0073248D01*
X0093779Y0073243D01*
X0093720Y0073234D01*
X0093661Y0073221D01*
X0093602Y0073205D01*
X0093545Y0073185D01*
X0093490Y0073162D01*
X0093435Y0073135D01*
X0093383Y0073106D01*
X0093332Y0073073D01*
X0093283Y0073037D01*
X0093237Y0072999D01*
X0093193Y0072957D01*
X0093151Y0072913D01*
X0093113Y0072867D01*
X0093077Y0072818D01*
X0093044Y0072767D01*
X0093015Y0072715D01*
X0092988Y0072660D01*
X0092965Y0072605D01*
X0092945Y0072548D01*
X0092929Y0072489D01*
X0092916Y0072430D01*
X0092907Y0072371D01*
X0092902Y0072310D01*
X0092900Y0072250D01*
X0092900Y0071250D01*
X0093400Y0070750D01*
X0093400Y0061750D01*
X0092900Y0061250D01*
X0092900Y0060250D01*
X0092902Y0060190D01*
X0092907Y0060129D01*
X0092916Y0060070D01*
X0092929Y0060011D01*
X0092945Y0059952D01*
X0092965Y0059895D01*
X0092988Y0059840D01*
X0093015Y0059785D01*
X0093044Y0059733D01*
X0093077Y0059682D01*
X0093113Y0059633D01*
X0093151Y0059587D01*
X0093193Y0059543D01*
X0093237Y0059501D01*
X0093283Y0059463D01*
X0093332Y0059427D01*
X0093383Y0059394D01*
X0093435Y0059365D01*
X0093490Y0059338D01*
X0093545Y0059315D01*
X0093602Y0059295D01*
X0093661Y0059279D01*
X0093720Y0059266D01*
X0093779Y0059257D01*
X0093840Y0059252D01*
X0093900Y0059250D01*
X0091400Y0054750D02*
X0091400Y0077750D01*
X0051400Y0077750D01*
X0051400Y0070250D01*
X0051526Y0070248D01*
X0051651Y0070242D01*
X0051776Y0070232D01*
X0051901Y0070218D01*
X0052026Y0070201D01*
X0052150Y0070179D01*
X0052273Y0070154D01*
X0052395Y0070124D01*
X0052516Y0070091D01*
X0052636Y0070054D01*
X0052755Y0070014D01*
X0052872Y0069969D01*
X0052989Y0069921D01*
X0053103Y0069869D01*
X0053216Y0069814D01*
X0053327Y0069755D01*
X0053436Y0069693D01*
X0053543Y0069627D01*
X0053648Y0069558D01*
X0053751Y0069486D01*
X0053852Y0069411D01*
X0053950Y0069332D01*
X0054045Y0069250D01*
X0054138Y0069166D01*
X0054228Y0069078D01*
X0054316Y0068988D01*
X0054400Y0068895D01*
X0054482Y0068800D01*
X0054561Y0068702D01*
X0054636Y0068601D01*
X0054708Y0068498D01*
X0054777Y0068393D01*
X0054843Y0068286D01*
X0054905Y0068177D01*
X0054964Y0068066D01*
X0055019Y0067953D01*
X0055071Y0067839D01*
X0055119Y0067722D01*
X0055164Y0067605D01*
X0055204Y0067486D01*
X0055241Y0067366D01*
X0055274Y0067245D01*
X0055304Y0067123D01*
X0055329Y0067000D01*
X0055351Y0066876D01*
X0055368Y0066751D01*
X0055382Y0066626D01*
X0055392Y0066501D01*
X0055398Y0066376D01*
X0055400Y0066250D01*
X0055398Y0066124D01*
X0055392Y0065999D01*
X0055382Y0065874D01*
X0055368Y0065749D01*
X0055351Y0065624D01*
X0055329Y0065500D01*
X0055304Y0065377D01*
X0055274Y0065255D01*
X0055241Y0065134D01*
X0055204Y0065014D01*
X0055164Y0064895D01*
X0055119Y0064778D01*
X0055071Y0064661D01*
X0055019Y0064547D01*
X0054964Y0064434D01*
X0054905Y0064323D01*
X0054843Y0064214D01*
X0054777Y0064107D01*
X0054708Y0064002D01*
X0054636Y0063899D01*
X0054561Y0063798D01*
X0054482Y0063700D01*
X0054400Y0063605D01*
X0054316Y0063512D01*
X0054228Y0063422D01*
X0054138Y0063334D01*
X0054045Y0063250D01*
X0053950Y0063168D01*
X0053852Y0063089D01*
X0053751Y0063014D01*
X0053648Y0062942D01*
X0053543Y0062873D01*
X0053436Y0062807D01*
X0053327Y0062745D01*
X0053216Y0062686D01*
X0053103Y0062631D01*
X0052989Y0062579D01*
X0052872Y0062531D01*
X0052755Y0062486D01*
X0052636Y0062446D01*
X0052516Y0062409D01*
X0052395Y0062376D01*
X0052273Y0062346D01*
X0052150Y0062321D01*
X0052026Y0062299D01*
X0051901Y0062282D01*
X0051776Y0062268D01*
X0051651Y0062258D01*
X0051526Y0062252D01*
X0051400Y0062250D01*
X0051400Y0054750D01*
X0091400Y0054750D01*
X0098900Y0059250D02*
X0098960Y0059252D01*
X0099021Y0059257D01*
X0099080Y0059266D01*
X0099139Y0059279D01*
X0099198Y0059295D01*
X0099255Y0059315D01*
X0099310Y0059338D01*
X0099365Y0059365D01*
X0099417Y0059394D01*
X0099468Y0059427D01*
X0099517Y0059463D01*
X0099563Y0059501D01*
X0099607Y0059543D01*
X0099649Y0059587D01*
X0099687Y0059633D01*
X0099723Y0059682D01*
X0099756Y0059733D01*
X0099785Y0059785D01*
X0099812Y0059840D01*
X0099835Y0059895D01*
X0099855Y0059952D01*
X0099871Y0060011D01*
X0099884Y0060070D01*
X0099893Y0060129D01*
X0099898Y0060190D01*
X0099900Y0060250D01*
X0099900Y0061250D01*
X0082400Y0039750D02*
X0082400Y0032750D01*
X0070400Y0032750D01*
X0070400Y0039750D01*
X0082400Y0039750D01*
X0081400Y0036250D02*
X0075900Y0036250D01*
X0075900Y0034250D01*
X0075900Y0036250D02*
X0074400Y0036250D01*
X0075900Y0036250D02*
X0075900Y0038250D01*
X0075900Y0036250D02*
X0079900Y0038250D01*
X0079900Y0034250D01*
X0075900Y0036250D01*
X0051400Y0032750D02*
X0051400Y0049750D01*
X0051398Y0049810D01*
X0051393Y0049871D01*
X0051384Y0049930D01*
X0051371Y0049989D01*
X0051355Y0050048D01*
X0051335Y0050105D01*
X0051312Y0050160D01*
X0051285Y0050215D01*
X0051256Y0050267D01*
X0051223Y0050318D01*
X0051187Y0050367D01*
X0051149Y0050413D01*
X0051107Y0050457D01*
X0051063Y0050499D01*
X0051017Y0050537D01*
X0050968Y0050573D01*
X0050917Y0050606D01*
X0050865Y0050635D01*
X0050810Y0050662D01*
X0050755Y0050685D01*
X0050698Y0050705D01*
X0050639Y0050721D01*
X0050580Y0050734D01*
X0050521Y0050743D01*
X0050460Y0050748D01*
X0050400Y0050750D01*
X0042400Y0050750D01*
X0042340Y0050748D01*
X0042279Y0050743D01*
X0042220Y0050734D01*
X0042161Y0050721D01*
X0042102Y0050705D01*
X0042045Y0050685D01*
X0041990Y0050662D01*
X0041935Y0050635D01*
X0041883Y0050606D01*
X0041832Y0050573D01*
X0041783Y0050537D01*
X0041737Y0050499D01*
X0041693Y0050457D01*
X0041651Y0050413D01*
X0041613Y0050367D01*
X0041577Y0050318D01*
X0041544Y0050267D01*
X0041515Y0050215D01*
X0041488Y0050160D01*
X0041465Y0050105D01*
X0041445Y0050048D01*
X0041429Y0049989D01*
X0041416Y0049930D01*
X0041407Y0049871D01*
X0041402Y0049810D01*
X0041400Y0049750D01*
X0041400Y0032750D01*
X0041402Y0032690D01*
X0041407Y0032629D01*
X0041416Y0032570D01*
X0041429Y0032511D01*
X0041445Y0032452D01*
X0041465Y0032395D01*
X0041488Y0032340D01*
X0041515Y0032285D01*
X0041544Y0032233D01*
X0041577Y0032182D01*
X0041613Y0032133D01*
X0041651Y0032087D01*
X0041693Y0032043D01*
X0041737Y0032001D01*
X0041783Y0031963D01*
X0041832Y0031927D01*
X0041883Y0031894D01*
X0041935Y0031865D01*
X0041990Y0031838D01*
X0042045Y0031815D01*
X0042102Y0031795D01*
X0042161Y0031779D01*
X0042220Y0031766D01*
X0042279Y0031757D01*
X0042340Y0031752D01*
X0042400Y0031750D01*
X0050400Y0031750D01*
X0050460Y0031752D01*
X0050521Y0031757D01*
X0050580Y0031766D01*
X0050639Y0031779D01*
X0050698Y0031795D01*
X0050755Y0031815D01*
X0050810Y0031838D01*
X0050865Y0031865D01*
X0050917Y0031894D01*
X0050968Y0031927D01*
X0051017Y0031963D01*
X0051063Y0032001D01*
X0051107Y0032043D01*
X0051149Y0032087D01*
X0051187Y0032133D01*
X0051223Y0032182D01*
X0051256Y0032233D01*
X0051285Y0032285D01*
X0051312Y0032340D01*
X0051335Y0032395D01*
X0051355Y0032452D01*
X0051371Y0032511D01*
X0051384Y0032570D01*
X0051393Y0032629D01*
X0051398Y0032690D01*
X0051400Y0032750D01*
X0046400Y0039750D02*
X0046400Y0040250D01*
X0046400Y0042250D02*
X0046400Y0042750D01*
X0042400Y0056750D02*
X0050400Y0056750D01*
X0050460Y0056752D01*
X0050521Y0056757D01*
X0050580Y0056766D01*
X0050639Y0056779D01*
X0050698Y0056795D01*
X0050755Y0056815D01*
X0050810Y0056838D01*
X0050865Y0056865D01*
X0050917Y0056894D01*
X0050968Y0056927D01*
X0051017Y0056963D01*
X0051063Y0057001D01*
X0051107Y0057043D01*
X0051149Y0057087D01*
X0051187Y0057133D01*
X0051223Y0057182D01*
X0051256Y0057233D01*
X0051285Y0057285D01*
X0051312Y0057340D01*
X0051335Y0057395D01*
X0051355Y0057452D01*
X0051371Y0057511D01*
X0051384Y0057570D01*
X0051393Y0057629D01*
X0051398Y0057690D01*
X0051400Y0057750D01*
X0051400Y0074750D01*
X0051398Y0074810D01*
X0051393Y0074871D01*
X0051384Y0074930D01*
X0051371Y0074989D01*
X0051355Y0075048D01*
X0051335Y0075105D01*
X0051312Y0075160D01*
X0051285Y0075215D01*
X0051256Y0075267D01*
X0051223Y0075318D01*
X0051187Y0075367D01*
X0051149Y0075413D01*
X0051107Y0075457D01*
X0051063Y0075499D01*
X0051017Y0075537D01*
X0050968Y0075573D01*
X0050917Y0075606D01*
X0050865Y0075635D01*
X0050810Y0075662D01*
X0050755Y0075685D01*
X0050698Y0075705D01*
X0050639Y0075721D01*
X0050580Y0075734D01*
X0050521Y0075743D01*
X0050460Y0075748D01*
X0050400Y0075750D01*
X0042400Y0075750D01*
X0042340Y0075748D01*
X0042279Y0075743D01*
X0042220Y0075734D01*
X0042161Y0075721D01*
X0042102Y0075705D01*
X0042045Y0075685D01*
X0041990Y0075662D01*
X0041935Y0075635D01*
X0041883Y0075606D01*
X0041832Y0075573D01*
X0041783Y0075537D01*
X0041737Y0075499D01*
X0041693Y0075457D01*
X0041651Y0075413D01*
X0041613Y0075367D01*
X0041577Y0075318D01*
X0041544Y0075267D01*
X0041515Y0075215D01*
X0041488Y0075160D01*
X0041465Y0075105D01*
X0041445Y0075048D01*
X0041429Y0074989D01*
X0041416Y0074930D01*
X0041407Y0074871D01*
X0041402Y0074810D01*
X0041400Y0074750D01*
X0041400Y0057750D01*
X0041402Y0057690D01*
X0041407Y0057629D01*
X0041416Y0057570D01*
X0041429Y0057511D01*
X0041445Y0057452D01*
X0041465Y0057395D01*
X0041488Y0057340D01*
X0041515Y0057285D01*
X0041544Y0057233D01*
X0041577Y0057182D01*
X0041613Y0057133D01*
X0041651Y0057087D01*
X0041693Y0057043D01*
X0041737Y0057001D01*
X0041783Y0056963D01*
X0041832Y0056927D01*
X0041883Y0056894D01*
X0041935Y0056865D01*
X0041990Y0056838D01*
X0042045Y0056815D01*
X0042102Y0056795D01*
X0042161Y0056779D01*
X0042220Y0056766D01*
X0042279Y0056757D01*
X0042340Y0056752D01*
X0042400Y0056750D01*
X0046400Y0064750D02*
X0046400Y0065250D01*
X0046400Y0067250D02*
X0046400Y0067750D01*
X0050400Y0097750D02*
X0051400Y0097750D01*
X0051900Y0098250D01*
X0060900Y0098250D01*
X0061400Y0097750D01*
X0062400Y0097750D01*
X0062460Y0097752D01*
X0062521Y0097757D01*
X0062580Y0097766D01*
X0062639Y0097779D01*
X0062698Y0097795D01*
X0062755Y0097815D01*
X0062810Y0097838D01*
X0062865Y0097865D01*
X0062917Y0097894D01*
X0062968Y0097927D01*
X0063017Y0097963D01*
X0063063Y0098001D01*
X0063107Y0098043D01*
X0063149Y0098087D01*
X0063187Y0098133D01*
X0063223Y0098182D01*
X0063256Y0098233D01*
X0063285Y0098285D01*
X0063312Y0098340D01*
X0063335Y0098395D01*
X0063355Y0098452D01*
X0063371Y0098511D01*
X0063384Y0098570D01*
X0063393Y0098629D01*
X0063398Y0098690D01*
X0063400Y0098750D01*
X0063400Y0103750D02*
X0063398Y0103810D01*
X0063393Y0103871D01*
X0063384Y0103930D01*
X0063371Y0103989D01*
X0063355Y0104048D01*
X0063335Y0104105D01*
X0063312Y0104160D01*
X0063285Y0104215D01*
X0063256Y0104267D01*
X0063223Y0104318D01*
X0063187Y0104367D01*
X0063149Y0104413D01*
X0063107Y0104457D01*
X0063063Y0104499D01*
X0063017Y0104537D01*
X0062968Y0104573D01*
X0062917Y0104606D01*
X0062865Y0104635D01*
X0062810Y0104662D01*
X0062755Y0104685D01*
X0062698Y0104705D01*
X0062639Y0104721D01*
X0062580Y0104734D01*
X0062521Y0104743D01*
X0062460Y0104748D01*
X0062400Y0104750D01*
X0061400Y0104750D01*
X0060900Y0104250D01*
X0051900Y0104250D01*
X0051400Y0104750D01*
X0050400Y0104750D01*
X0050340Y0104748D01*
X0050279Y0104743D01*
X0050220Y0104734D01*
X0050161Y0104721D01*
X0050102Y0104705D01*
X0050045Y0104685D01*
X0049990Y0104662D01*
X0049935Y0104635D01*
X0049883Y0104606D01*
X0049832Y0104573D01*
X0049783Y0104537D01*
X0049737Y0104499D01*
X0049693Y0104457D01*
X0049651Y0104413D01*
X0049613Y0104367D01*
X0049577Y0104318D01*
X0049544Y0104267D01*
X0049515Y0104215D01*
X0049488Y0104160D01*
X0049465Y0104105D01*
X0049445Y0104048D01*
X0049429Y0103989D01*
X0049416Y0103930D01*
X0049407Y0103871D01*
X0049402Y0103810D01*
X0049400Y0103750D01*
X0050400Y0107750D02*
X0051400Y0107750D01*
X0051900Y0108250D01*
X0060900Y0108250D01*
X0061400Y0107750D01*
X0062400Y0107750D01*
X0062460Y0107752D01*
X0062521Y0107757D01*
X0062580Y0107766D01*
X0062639Y0107779D01*
X0062698Y0107795D01*
X0062755Y0107815D01*
X0062810Y0107838D01*
X0062865Y0107865D01*
X0062917Y0107894D01*
X0062968Y0107927D01*
X0063017Y0107963D01*
X0063063Y0108001D01*
X0063107Y0108043D01*
X0063149Y0108087D01*
X0063187Y0108133D01*
X0063223Y0108182D01*
X0063256Y0108233D01*
X0063285Y0108285D01*
X0063312Y0108340D01*
X0063335Y0108395D01*
X0063355Y0108452D01*
X0063371Y0108511D01*
X0063384Y0108570D01*
X0063393Y0108629D01*
X0063398Y0108690D01*
X0063400Y0108750D01*
X0063400Y0113750D02*
X0063398Y0113810D01*
X0063393Y0113871D01*
X0063384Y0113930D01*
X0063371Y0113989D01*
X0063355Y0114048D01*
X0063335Y0114105D01*
X0063312Y0114160D01*
X0063285Y0114215D01*
X0063256Y0114267D01*
X0063223Y0114318D01*
X0063187Y0114367D01*
X0063149Y0114413D01*
X0063107Y0114457D01*
X0063063Y0114499D01*
X0063017Y0114537D01*
X0062968Y0114573D01*
X0062917Y0114606D01*
X0062865Y0114635D01*
X0062810Y0114662D01*
X0062755Y0114685D01*
X0062698Y0114705D01*
X0062639Y0114721D01*
X0062580Y0114734D01*
X0062521Y0114743D01*
X0062460Y0114748D01*
X0062400Y0114750D01*
X0061400Y0114750D01*
X0060900Y0114250D01*
X0051900Y0114250D01*
X0051400Y0114750D01*
X0050400Y0114750D01*
X0050340Y0114748D01*
X0050279Y0114743D01*
X0050220Y0114734D01*
X0050161Y0114721D01*
X0050102Y0114705D01*
X0050045Y0114685D01*
X0049990Y0114662D01*
X0049935Y0114635D01*
X0049883Y0114606D01*
X0049832Y0114573D01*
X0049783Y0114537D01*
X0049737Y0114499D01*
X0049693Y0114457D01*
X0049651Y0114413D01*
X0049613Y0114367D01*
X0049577Y0114318D01*
X0049544Y0114267D01*
X0049515Y0114215D01*
X0049488Y0114160D01*
X0049465Y0114105D01*
X0049445Y0114048D01*
X0049429Y0113989D01*
X0049416Y0113930D01*
X0049407Y0113871D01*
X0049402Y0113810D01*
X0049400Y0113750D01*
X0049400Y0108750D02*
X0049402Y0108690D01*
X0049407Y0108629D01*
X0049416Y0108570D01*
X0049429Y0108511D01*
X0049445Y0108452D01*
X0049465Y0108395D01*
X0049488Y0108340D01*
X0049515Y0108285D01*
X0049544Y0108233D01*
X0049577Y0108182D01*
X0049613Y0108133D01*
X0049651Y0108087D01*
X0049693Y0108043D01*
X0049737Y0108001D01*
X0049783Y0107963D01*
X0049832Y0107927D01*
X0049883Y0107894D01*
X0049935Y0107865D01*
X0049990Y0107838D01*
X0050045Y0107815D01*
X0050102Y0107795D01*
X0050161Y0107779D01*
X0050220Y0107766D01*
X0050279Y0107757D01*
X0050340Y0107752D01*
X0050400Y0107750D01*
X0049400Y0098750D02*
X0049402Y0098690D01*
X0049407Y0098629D01*
X0049416Y0098570D01*
X0049429Y0098511D01*
X0049445Y0098452D01*
X0049465Y0098395D01*
X0049488Y0098340D01*
X0049515Y0098285D01*
X0049544Y0098233D01*
X0049577Y0098182D01*
X0049613Y0098133D01*
X0049651Y0098087D01*
X0049693Y0098043D01*
X0049737Y0098001D01*
X0049783Y0097963D01*
X0049832Y0097927D01*
X0049883Y0097894D01*
X0049935Y0097865D01*
X0049990Y0097838D01*
X0050045Y0097815D01*
X0050102Y0097795D01*
X0050161Y0097779D01*
X0050220Y0097766D01*
X0050279Y0097757D01*
X0050340Y0097752D01*
X0050400Y0097750D01*
X0050400Y0117750D02*
X0051400Y0117750D01*
X0051900Y0118250D01*
X0060900Y0118250D01*
X0061400Y0117750D01*
X0062400Y0117750D01*
X0062460Y0117752D01*
X0062521Y0117757D01*
X0062580Y0117766D01*
X0062639Y0117779D01*
X0062698Y0117795D01*
X0062755Y0117815D01*
X0062810Y0117838D01*
X0062865Y0117865D01*
X0062917Y0117894D01*
X0062968Y0117927D01*
X0063017Y0117963D01*
X0063063Y0118001D01*
X0063107Y0118043D01*
X0063149Y0118087D01*
X0063187Y0118133D01*
X0063223Y0118182D01*
X0063256Y0118233D01*
X0063285Y0118285D01*
X0063312Y0118340D01*
X0063335Y0118395D01*
X0063355Y0118452D01*
X0063371Y0118511D01*
X0063384Y0118570D01*
X0063393Y0118629D01*
X0063398Y0118690D01*
X0063400Y0118750D01*
X0063400Y0123750D02*
X0063398Y0123810D01*
X0063393Y0123871D01*
X0063384Y0123930D01*
X0063371Y0123989D01*
X0063355Y0124048D01*
X0063335Y0124105D01*
X0063312Y0124160D01*
X0063285Y0124215D01*
X0063256Y0124267D01*
X0063223Y0124318D01*
X0063187Y0124367D01*
X0063149Y0124413D01*
X0063107Y0124457D01*
X0063063Y0124499D01*
X0063017Y0124537D01*
X0062968Y0124573D01*
X0062917Y0124606D01*
X0062865Y0124635D01*
X0062810Y0124662D01*
X0062755Y0124685D01*
X0062698Y0124705D01*
X0062639Y0124721D01*
X0062580Y0124734D01*
X0062521Y0124743D01*
X0062460Y0124748D01*
X0062400Y0124750D01*
X0061400Y0124750D01*
X0060900Y0124250D01*
X0051900Y0124250D01*
X0051400Y0124750D01*
X0050400Y0124750D01*
X0050340Y0124748D01*
X0050279Y0124743D01*
X0050220Y0124734D01*
X0050161Y0124721D01*
X0050102Y0124705D01*
X0050045Y0124685D01*
X0049990Y0124662D01*
X0049935Y0124635D01*
X0049883Y0124606D01*
X0049832Y0124573D01*
X0049783Y0124537D01*
X0049737Y0124499D01*
X0049693Y0124457D01*
X0049651Y0124413D01*
X0049613Y0124367D01*
X0049577Y0124318D01*
X0049544Y0124267D01*
X0049515Y0124215D01*
X0049488Y0124160D01*
X0049465Y0124105D01*
X0049445Y0124048D01*
X0049429Y0123989D01*
X0049416Y0123930D01*
X0049407Y0123871D01*
X0049402Y0123810D01*
X0049400Y0123750D01*
X0050400Y0127750D02*
X0051400Y0127750D01*
X0051900Y0128250D01*
X0060900Y0128250D01*
X0061400Y0127750D01*
X0062400Y0127750D01*
X0062460Y0127752D01*
X0062521Y0127757D01*
X0062580Y0127766D01*
X0062639Y0127779D01*
X0062698Y0127795D01*
X0062755Y0127815D01*
X0062810Y0127838D01*
X0062865Y0127865D01*
X0062917Y0127894D01*
X0062968Y0127927D01*
X0063017Y0127963D01*
X0063063Y0128001D01*
X0063107Y0128043D01*
X0063149Y0128087D01*
X0063187Y0128133D01*
X0063223Y0128182D01*
X0063256Y0128233D01*
X0063285Y0128285D01*
X0063312Y0128340D01*
X0063335Y0128395D01*
X0063355Y0128452D01*
X0063371Y0128511D01*
X0063384Y0128570D01*
X0063393Y0128629D01*
X0063398Y0128690D01*
X0063400Y0128750D01*
X0063400Y0133750D02*
X0063398Y0133810D01*
X0063393Y0133871D01*
X0063384Y0133930D01*
X0063371Y0133989D01*
X0063355Y0134048D01*
X0063335Y0134105D01*
X0063312Y0134160D01*
X0063285Y0134215D01*
X0063256Y0134267D01*
X0063223Y0134318D01*
X0063187Y0134367D01*
X0063149Y0134413D01*
X0063107Y0134457D01*
X0063063Y0134499D01*
X0063017Y0134537D01*
X0062968Y0134573D01*
X0062917Y0134606D01*
X0062865Y0134635D01*
X0062810Y0134662D01*
X0062755Y0134685D01*
X0062698Y0134705D01*
X0062639Y0134721D01*
X0062580Y0134734D01*
X0062521Y0134743D01*
X0062460Y0134748D01*
X0062400Y0134750D01*
X0061400Y0134750D01*
X0060900Y0134250D01*
X0051900Y0134250D01*
X0051400Y0134750D01*
X0050400Y0134750D01*
X0050340Y0134748D01*
X0050279Y0134743D01*
X0050220Y0134734D01*
X0050161Y0134721D01*
X0050102Y0134705D01*
X0050045Y0134685D01*
X0049990Y0134662D01*
X0049935Y0134635D01*
X0049883Y0134606D01*
X0049832Y0134573D01*
X0049783Y0134537D01*
X0049737Y0134499D01*
X0049693Y0134457D01*
X0049651Y0134413D01*
X0049613Y0134367D01*
X0049577Y0134318D01*
X0049544Y0134267D01*
X0049515Y0134215D01*
X0049488Y0134160D01*
X0049465Y0134105D01*
X0049445Y0134048D01*
X0049429Y0133989D01*
X0049416Y0133930D01*
X0049407Y0133871D01*
X0049402Y0133810D01*
X0049400Y0133750D01*
X0049400Y0128750D02*
X0049402Y0128690D01*
X0049407Y0128629D01*
X0049416Y0128570D01*
X0049429Y0128511D01*
X0049445Y0128452D01*
X0049465Y0128395D01*
X0049488Y0128340D01*
X0049515Y0128285D01*
X0049544Y0128233D01*
X0049577Y0128182D01*
X0049613Y0128133D01*
X0049651Y0128087D01*
X0049693Y0128043D01*
X0049737Y0128001D01*
X0049783Y0127963D01*
X0049832Y0127927D01*
X0049883Y0127894D01*
X0049935Y0127865D01*
X0049990Y0127838D01*
X0050045Y0127815D01*
X0050102Y0127795D01*
X0050161Y0127779D01*
X0050220Y0127766D01*
X0050279Y0127757D01*
X0050340Y0127752D01*
X0050400Y0127750D01*
X0049400Y0118750D02*
X0049402Y0118690D01*
X0049407Y0118629D01*
X0049416Y0118570D01*
X0049429Y0118511D01*
X0049445Y0118452D01*
X0049465Y0118395D01*
X0049488Y0118340D01*
X0049515Y0118285D01*
X0049544Y0118233D01*
X0049577Y0118182D01*
X0049613Y0118133D01*
X0049651Y0118087D01*
X0049693Y0118043D01*
X0049737Y0118001D01*
X0049783Y0117963D01*
X0049832Y0117927D01*
X0049883Y0117894D01*
X0049935Y0117865D01*
X0049990Y0117838D01*
X0050045Y0117815D01*
X0050102Y0117795D01*
X0050161Y0117779D01*
X0050220Y0117766D01*
X0050279Y0117757D01*
X0050340Y0117752D01*
X0050400Y0117750D01*
X0050400Y0137750D02*
X0051400Y0137750D01*
X0051900Y0138250D01*
X0060900Y0138250D01*
X0061400Y0137750D01*
X0062400Y0137750D01*
X0062460Y0137752D01*
X0062521Y0137757D01*
X0062580Y0137766D01*
X0062639Y0137779D01*
X0062698Y0137795D01*
X0062755Y0137815D01*
X0062810Y0137838D01*
X0062865Y0137865D01*
X0062917Y0137894D01*
X0062968Y0137927D01*
X0063017Y0137963D01*
X0063063Y0138001D01*
X0063107Y0138043D01*
X0063149Y0138087D01*
X0063187Y0138133D01*
X0063223Y0138182D01*
X0063256Y0138233D01*
X0063285Y0138285D01*
X0063312Y0138340D01*
X0063335Y0138395D01*
X0063355Y0138452D01*
X0063371Y0138511D01*
X0063384Y0138570D01*
X0063393Y0138629D01*
X0063398Y0138690D01*
X0063400Y0138750D01*
X0063400Y0143750D02*
X0063398Y0143810D01*
X0063393Y0143871D01*
X0063384Y0143930D01*
X0063371Y0143989D01*
X0063355Y0144048D01*
X0063335Y0144105D01*
X0063312Y0144160D01*
X0063285Y0144215D01*
X0063256Y0144267D01*
X0063223Y0144318D01*
X0063187Y0144367D01*
X0063149Y0144413D01*
X0063107Y0144457D01*
X0063063Y0144499D01*
X0063017Y0144537D01*
X0062968Y0144573D01*
X0062917Y0144606D01*
X0062865Y0144635D01*
X0062810Y0144662D01*
X0062755Y0144685D01*
X0062698Y0144705D01*
X0062639Y0144721D01*
X0062580Y0144734D01*
X0062521Y0144743D01*
X0062460Y0144748D01*
X0062400Y0144750D01*
X0061400Y0144750D01*
X0060900Y0144250D01*
X0051900Y0144250D01*
X0051400Y0144750D01*
X0050400Y0144750D01*
X0050340Y0144748D01*
X0050279Y0144743D01*
X0050220Y0144734D01*
X0050161Y0144721D01*
X0050102Y0144705D01*
X0050045Y0144685D01*
X0049990Y0144662D01*
X0049935Y0144635D01*
X0049883Y0144606D01*
X0049832Y0144573D01*
X0049783Y0144537D01*
X0049737Y0144499D01*
X0049693Y0144457D01*
X0049651Y0144413D01*
X0049613Y0144367D01*
X0049577Y0144318D01*
X0049544Y0144267D01*
X0049515Y0144215D01*
X0049488Y0144160D01*
X0049465Y0144105D01*
X0049445Y0144048D01*
X0049429Y0143989D01*
X0049416Y0143930D01*
X0049407Y0143871D01*
X0049402Y0143810D01*
X0049400Y0143750D01*
X0049400Y0138750D02*
X0049402Y0138690D01*
X0049407Y0138629D01*
X0049416Y0138570D01*
X0049429Y0138511D01*
X0049445Y0138452D01*
X0049465Y0138395D01*
X0049488Y0138340D01*
X0049515Y0138285D01*
X0049544Y0138233D01*
X0049577Y0138182D01*
X0049613Y0138133D01*
X0049651Y0138087D01*
X0049693Y0138043D01*
X0049737Y0138001D01*
X0049783Y0137963D01*
X0049832Y0137927D01*
X0049883Y0137894D01*
X0049935Y0137865D01*
X0049990Y0137838D01*
X0050045Y0137815D01*
X0050102Y0137795D01*
X0050161Y0137779D01*
X0050220Y0137766D01*
X0050279Y0137757D01*
X0050340Y0137752D01*
X0050400Y0137750D01*
X0051400Y0164750D02*
X0051400Y0172250D01*
X0051526Y0172252D01*
X0051651Y0172258D01*
X0051776Y0172268D01*
X0051901Y0172282D01*
X0052026Y0172299D01*
X0052150Y0172321D01*
X0052273Y0172346D01*
X0052395Y0172376D01*
X0052516Y0172409D01*
X0052636Y0172446D01*
X0052755Y0172486D01*
X0052872Y0172531D01*
X0052989Y0172579D01*
X0053103Y0172631D01*
X0053216Y0172686D01*
X0053327Y0172745D01*
X0053436Y0172807D01*
X0053543Y0172873D01*
X0053648Y0172942D01*
X0053751Y0173014D01*
X0053852Y0173089D01*
X0053950Y0173168D01*
X0054045Y0173250D01*
X0054138Y0173334D01*
X0054228Y0173422D01*
X0054316Y0173512D01*
X0054400Y0173605D01*
X0054482Y0173700D01*
X0054561Y0173798D01*
X0054636Y0173899D01*
X0054708Y0174002D01*
X0054777Y0174107D01*
X0054843Y0174214D01*
X0054905Y0174323D01*
X0054964Y0174434D01*
X0055019Y0174547D01*
X0055071Y0174661D01*
X0055119Y0174778D01*
X0055164Y0174895D01*
X0055204Y0175014D01*
X0055241Y0175134D01*
X0055274Y0175255D01*
X0055304Y0175377D01*
X0055329Y0175500D01*
X0055351Y0175624D01*
X0055368Y0175749D01*
X0055382Y0175874D01*
X0055392Y0175999D01*
X0055398Y0176124D01*
X0055400Y0176250D01*
X0055398Y0176376D01*
X0055392Y0176501D01*
X0055382Y0176626D01*
X0055368Y0176751D01*
X0055351Y0176876D01*
X0055329Y0177000D01*
X0055304Y0177123D01*
X0055274Y0177245D01*
X0055241Y0177366D01*
X0055204Y0177486D01*
X0055164Y0177605D01*
X0055119Y0177722D01*
X0055071Y0177839D01*
X0055019Y0177953D01*
X0054964Y0178066D01*
X0054905Y0178177D01*
X0054843Y0178286D01*
X0054777Y0178393D01*
X0054708Y0178498D01*
X0054636Y0178601D01*
X0054561Y0178702D01*
X0054482Y0178800D01*
X0054400Y0178895D01*
X0054316Y0178988D01*
X0054228Y0179078D01*
X0054138Y0179166D01*
X0054045Y0179250D01*
X0053950Y0179332D01*
X0053852Y0179411D01*
X0053751Y0179486D01*
X0053648Y0179558D01*
X0053543Y0179627D01*
X0053436Y0179693D01*
X0053327Y0179755D01*
X0053216Y0179814D01*
X0053103Y0179869D01*
X0052989Y0179921D01*
X0052872Y0179969D01*
X0052755Y0180014D01*
X0052636Y0180054D01*
X0052516Y0180091D01*
X0052395Y0180124D01*
X0052273Y0180154D01*
X0052150Y0180179D01*
X0052026Y0180201D01*
X0051901Y0180218D01*
X0051776Y0180232D01*
X0051651Y0180242D01*
X0051526Y0180248D01*
X0051400Y0180250D01*
X0051400Y0187750D01*
X0121400Y0187750D01*
X0121400Y0164750D01*
X0051400Y0164750D01*
X0050400Y0166750D02*
X0042400Y0166750D01*
X0042340Y0166752D01*
X0042279Y0166757D01*
X0042220Y0166766D01*
X0042161Y0166779D01*
X0042102Y0166795D01*
X0042045Y0166815D01*
X0041990Y0166838D01*
X0041935Y0166865D01*
X0041883Y0166894D01*
X0041832Y0166927D01*
X0041783Y0166963D01*
X0041737Y0167001D01*
X0041693Y0167043D01*
X0041651Y0167087D01*
X0041613Y0167133D01*
X0041577Y0167182D01*
X0041544Y0167233D01*
X0041515Y0167285D01*
X0041488Y0167340D01*
X0041465Y0167395D01*
X0041445Y0167452D01*
X0041429Y0167511D01*
X0041416Y0167570D01*
X0041407Y0167629D01*
X0041402Y0167690D01*
X0041400Y0167750D01*
X0041400Y0184750D01*
X0041402Y0184810D01*
X0041407Y0184871D01*
X0041416Y0184930D01*
X0041429Y0184989D01*
X0041445Y0185048D01*
X0041465Y0185105D01*
X0041488Y0185160D01*
X0041515Y0185215D01*
X0041544Y0185267D01*
X0041577Y0185318D01*
X0041613Y0185367D01*
X0041651Y0185413D01*
X0041693Y0185457D01*
X0041737Y0185499D01*
X0041783Y0185537D01*
X0041832Y0185573D01*
X0041883Y0185606D01*
X0041935Y0185635D01*
X0041990Y0185662D01*
X0042045Y0185685D01*
X0042102Y0185705D01*
X0042161Y0185721D01*
X0042220Y0185734D01*
X0042279Y0185743D01*
X0042340Y0185748D01*
X0042400Y0185750D01*
X0050400Y0185750D01*
X0050460Y0185748D01*
X0050521Y0185743D01*
X0050580Y0185734D01*
X0050639Y0185721D01*
X0050698Y0185705D01*
X0050755Y0185685D01*
X0050810Y0185662D01*
X0050865Y0185635D01*
X0050917Y0185606D01*
X0050968Y0185573D01*
X0051017Y0185537D01*
X0051063Y0185499D01*
X0051107Y0185457D01*
X0051149Y0185413D01*
X0051187Y0185367D01*
X0051223Y0185318D01*
X0051256Y0185267D01*
X0051285Y0185215D01*
X0051312Y0185160D01*
X0051335Y0185105D01*
X0051355Y0185048D01*
X0051371Y0184989D01*
X0051384Y0184930D01*
X0051393Y0184871D01*
X0051398Y0184810D01*
X0051400Y0184750D01*
X0051400Y0167750D01*
X0051398Y0167690D01*
X0051393Y0167629D01*
X0051384Y0167570D01*
X0051371Y0167511D01*
X0051355Y0167452D01*
X0051335Y0167395D01*
X0051312Y0167340D01*
X0051285Y0167285D01*
X0051256Y0167233D01*
X0051223Y0167182D01*
X0051187Y0167133D01*
X0051149Y0167087D01*
X0051107Y0167043D01*
X0051063Y0167001D01*
X0051017Y0166963D01*
X0050968Y0166927D01*
X0050917Y0166894D01*
X0050865Y0166865D01*
X0050810Y0166838D01*
X0050755Y0166815D01*
X0050698Y0166795D01*
X0050639Y0166779D01*
X0050580Y0166766D01*
X0050521Y0166757D01*
X0050460Y0166752D01*
X0050400Y0166750D01*
X0046400Y0174750D02*
X0046400Y0175250D01*
X0046400Y0177250D02*
X0046400Y0177750D01*
X0065400Y0207750D02*
X0066400Y0207750D01*
X0066900Y0208250D01*
X0075900Y0208250D01*
X0076400Y0207750D01*
X0077400Y0207750D01*
X0077460Y0207752D01*
X0077521Y0207757D01*
X0077580Y0207766D01*
X0077639Y0207779D01*
X0077698Y0207795D01*
X0077755Y0207815D01*
X0077810Y0207838D01*
X0077865Y0207865D01*
X0077917Y0207894D01*
X0077968Y0207927D01*
X0078017Y0207963D01*
X0078063Y0208001D01*
X0078107Y0208043D01*
X0078149Y0208087D01*
X0078187Y0208133D01*
X0078223Y0208182D01*
X0078256Y0208233D01*
X0078285Y0208285D01*
X0078312Y0208340D01*
X0078335Y0208395D01*
X0078355Y0208452D01*
X0078371Y0208511D01*
X0078384Y0208570D01*
X0078393Y0208629D01*
X0078398Y0208690D01*
X0078400Y0208750D01*
X0078400Y0213750D02*
X0078398Y0213810D01*
X0078393Y0213871D01*
X0078384Y0213930D01*
X0078371Y0213989D01*
X0078355Y0214048D01*
X0078335Y0214105D01*
X0078312Y0214160D01*
X0078285Y0214215D01*
X0078256Y0214267D01*
X0078223Y0214318D01*
X0078187Y0214367D01*
X0078149Y0214413D01*
X0078107Y0214457D01*
X0078063Y0214499D01*
X0078017Y0214537D01*
X0077968Y0214573D01*
X0077917Y0214606D01*
X0077865Y0214635D01*
X0077810Y0214662D01*
X0077755Y0214685D01*
X0077698Y0214705D01*
X0077639Y0214721D01*
X0077580Y0214734D01*
X0077521Y0214743D01*
X0077460Y0214748D01*
X0077400Y0214750D01*
X0076400Y0214750D01*
X0075900Y0214250D01*
X0066900Y0214250D01*
X0066400Y0214750D01*
X0065400Y0214750D01*
X0065340Y0214748D01*
X0065279Y0214743D01*
X0065220Y0214734D01*
X0065161Y0214721D01*
X0065102Y0214705D01*
X0065045Y0214685D01*
X0064990Y0214662D01*
X0064935Y0214635D01*
X0064883Y0214606D01*
X0064832Y0214573D01*
X0064783Y0214537D01*
X0064737Y0214499D01*
X0064693Y0214457D01*
X0064651Y0214413D01*
X0064613Y0214367D01*
X0064577Y0214318D01*
X0064544Y0214267D01*
X0064515Y0214215D01*
X0064488Y0214160D01*
X0064465Y0214105D01*
X0064445Y0214048D01*
X0064429Y0213989D01*
X0064416Y0213930D01*
X0064407Y0213871D01*
X0064402Y0213810D01*
X0064400Y0213750D01*
X0064400Y0208750D02*
X0064402Y0208690D01*
X0064407Y0208629D01*
X0064416Y0208570D01*
X0064429Y0208511D01*
X0064445Y0208452D01*
X0064465Y0208395D01*
X0064488Y0208340D01*
X0064515Y0208285D01*
X0064544Y0208233D01*
X0064577Y0208182D01*
X0064613Y0208133D01*
X0064651Y0208087D01*
X0064693Y0208043D01*
X0064737Y0208001D01*
X0064783Y0207963D01*
X0064832Y0207927D01*
X0064883Y0207894D01*
X0064935Y0207865D01*
X0064990Y0207838D01*
X0065045Y0207815D01*
X0065102Y0207795D01*
X0065161Y0207779D01*
X0065220Y0207766D01*
X0065279Y0207757D01*
X0065340Y0207752D01*
X0065400Y0207750D01*
X0051400Y0229750D02*
X0051400Y0237250D01*
X0051400Y0232750D02*
X0051400Y0249750D01*
X0051398Y0249810D01*
X0051393Y0249871D01*
X0051384Y0249930D01*
X0051371Y0249989D01*
X0051355Y0250048D01*
X0051335Y0250105D01*
X0051312Y0250160D01*
X0051285Y0250215D01*
X0051256Y0250267D01*
X0051223Y0250318D01*
X0051187Y0250367D01*
X0051149Y0250413D01*
X0051107Y0250457D01*
X0051063Y0250499D01*
X0051017Y0250537D01*
X0050968Y0250573D01*
X0050917Y0250606D01*
X0050865Y0250635D01*
X0050810Y0250662D01*
X0050755Y0250685D01*
X0050698Y0250705D01*
X0050639Y0250721D01*
X0050580Y0250734D01*
X0050521Y0250743D01*
X0050460Y0250748D01*
X0050400Y0250750D01*
X0042400Y0250750D01*
X0042340Y0250748D01*
X0042279Y0250743D01*
X0042220Y0250734D01*
X0042161Y0250721D01*
X0042102Y0250705D01*
X0042045Y0250685D01*
X0041990Y0250662D01*
X0041935Y0250635D01*
X0041883Y0250606D01*
X0041832Y0250573D01*
X0041783Y0250537D01*
X0041737Y0250499D01*
X0041693Y0250457D01*
X0041651Y0250413D01*
X0041613Y0250367D01*
X0041577Y0250318D01*
X0041544Y0250267D01*
X0041515Y0250215D01*
X0041488Y0250160D01*
X0041465Y0250105D01*
X0041445Y0250048D01*
X0041429Y0249989D01*
X0041416Y0249930D01*
X0041407Y0249871D01*
X0041402Y0249810D01*
X0041400Y0249750D01*
X0041400Y0232750D01*
X0041402Y0232690D01*
X0041407Y0232629D01*
X0041416Y0232570D01*
X0041429Y0232511D01*
X0041445Y0232452D01*
X0041465Y0232395D01*
X0041488Y0232340D01*
X0041515Y0232285D01*
X0041544Y0232233D01*
X0041577Y0232182D01*
X0041613Y0232133D01*
X0041651Y0232087D01*
X0041693Y0232043D01*
X0041737Y0232001D01*
X0041783Y0231963D01*
X0041832Y0231927D01*
X0041883Y0231894D01*
X0041935Y0231865D01*
X0041990Y0231838D01*
X0042045Y0231815D01*
X0042102Y0231795D01*
X0042161Y0231779D01*
X0042220Y0231766D01*
X0042279Y0231757D01*
X0042340Y0231752D01*
X0042400Y0231750D01*
X0050400Y0231750D01*
X0050460Y0231752D01*
X0050521Y0231757D01*
X0050580Y0231766D01*
X0050639Y0231779D01*
X0050698Y0231795D01*
X0050755Y0231815D01*
X0050810Y0231838D01*
X0050865Y0231865D01*
X0050917Y0231894D01*
X0050968Y0231927D01*
X0051017Y0231963D01*
X0051063Y0232001D01*
X0051107Y0232043D01*
X0051149Y0232087D01*
X0051187Y0232133D01*
X0051223Y0232182D01*
X0051256Y0232233D01*
X0051285Y0232285D01*
X0051312Y0232340D01*
X0051335Y0232395D01*
X0051355Y0232452D01*
X0051371Y0232511D01*
X0051384Y0232570D01*
X0051393Y0232629D01*
X0051398Y0232690D01*
X0051400Y0232750D01*
X0051400Y0229750D02*
X0091400Y0229750D01*
X0091400Y0252750D01*
X0051400Y0252750D01*
X0051400Y0245250D01*
X0051526Y0245248D01*
X0051651Y0245242D01*
X0051776Y0245232D01*
X0051901Y0245218D01*
X0052026Y0245201D01*
X0052150Y0245179D01*
X0052273Y0245154D01*
X0052395Y0245124D01*
X0052516Y0245091D01*
X0052636Y0245054D01*
X0052755Y0245014D01*
X0052872Y0244969D01*
X0052989Y0244921D01*
X0053103Y0244869D01*
X0053216Y0244814D01*
X0053327Y0244755D01*
X0053436Y0244693D01*
X0053543Y0244627D01*
X0053648Y0244558D01*
X0053751Y0244486D01*
X0053852Y0244411D01*
X0053950Y0244332D01*
X0054045Y0244250D01*
X0054138Y0244166D01*
X0054228Y0244078D01*
X0054316Y0243988D01*
X0054400Y0243895D01*
X0054482Y0243800D01*
X0054561Y0243702D01*
X0054636Y0243601D01*
X0054708Y0243498D01*
X0054777Y0243393D01*
X0054843Y0243286D01*
X0054905Y0243177D01*
X0054964Y0243066D01*
X0055019Y0242953D01*
X0055071Y0242839D01*
X0055119Y0242722D01*
X0055164Y0242605D01*
X0055204Y0242486D01*
X0055241Y0242366D01*
X0055274Y0242245D01*
X0055304Y0242123D01*
X0055329Y0242000D01*
X0055351Y0241876D01*
X0055368Y0241751D01*
X0055382Y0241626D01*
X0055392Y0241501D01*
X0055398Y0241376D01*
X0055400Y0241250D01*
X0055398Y0241124D01*
X0055392Y0240999D01*
X0055382Y0240874D01*
X0055368Y0240749D01*
X0055351Y0240624D01*
X0055329Y0240500D01*
X0055304Y0240377D01*
X0055274Y0240255D01*
X0055241Y0240134D01*
X0055204Y0240014D01*
X0055164Y0239895D01*
X0055119Y0239778D01*
X0055071Y0239661D01*
X0055019Y0239547D01*
X0054964Y0239434D01*
X0054905Y0239323D01*
X0054843Y0239214D01*
X0054777Y0239107D01*
X0054708Y0239002D01*
X0054636Y0238899D01*
X0054561Y0238798D01*
X0054482Y0238700D01*
X0054400Y0238605D01*
X0054316Y0238512D01*
X0054228Y0238422D01*
X0054138Y0238334D01*
X0054045Y0238250D01*
X0053950Y0238168D01*
X0053852Y0238089D01*
X0053751Y0238014D01*
X0053648Y0237942D01*
X0053543Y0237873D01*
X0053436Y0237807D01*
X0053327Y0237745D01*
X0053216Y0237686D01*
X0053103Y0237631D01*
X0052989Y0237579D01*
X0052872Y0237531D01*
X0052755Y0237486D01*
X0052636Y0237446D01*
X0052516Y0237409D01*
X0052395Y0237376D01*
X0052273Y0237346D01*
X0052150Y0237321D01*
X0052026Y0237299D01*
X0051901Y0237282D01*
X0051776Y0237268D01*
X0051651Y0237258D01*
X0051526Y0237252D01*
X0051400Y0237250D01*
X0046400Y0239750D02*
X0046400Y0240250D01*
X0046400Y0242250D02*
X0046400Y0242750D01*
X0092900Y0246250D02*
X0093400Y0245750D01*
X0093400Y0236750D01*
X0092900Y0236250D01*
X0092900Y0235250D01*
X0092902Y0235190D01*
X0092907Y0235129D01*
X0092916Y0235070D01*
X0092929Y0235011D01*
X0092945Y0234952D01*
X0092965Y0234895D01*
X0092988Y0234840D01*
X0093015Y0234785D01*
X0093044Y0234733D01*
X0093077Y0234682D01*
X0093113Y0234633D01*
X0093151Y0234587D01*
X0093193Y0234543D01*
X0093237Y0234501D01*
X0093283Y0234463D01*
X0093332Y0234427D01*
X0093383Y0234394D01*
X0093435Y0234365D01*
X0093490Y0234338D01*
X0093545Y0234315D01*
X0093602Y0234295D01*
X0093661Y0234279D01*
X0093720Y0234266D01*
X0093779Y0234257D01*
X0093840Y0234252D01*
X0093900Y0234250D01*
X0098900Y0234250D02*
X0098960Y0234252D01*
X0099021Y0234257D01*
X0099080Y0234266D01*
X0099139Y0234279D01*
X0099198Y0234295D01*
X0099255Y0234315D01*
X0099310Y0234338D01*
X0099365Y0234365D01*
X0099417Y0234394D01*
X0099468Y0234427D01*
X0099517Y0234463D01*
X0099563Y0234501D01*
X0099607Y0234543D01*
X0099649Y0234587D01*
X0099687Y0234633D01*
X0099723Y0234682D01*
X0099756Y0234733D01*
X0099785Y0234785D01*
X0099812Y0234840D01*
X0099835Y0234895D01*
X0099855Y0234952D01*
X0099871Y0235011D01*
X0099884Y0235070D01*
X0099893Y0235129D01*
X0099898Y0235190D01*
X0099900Y0235250D01*
X0099900Y0236250D01*
X0099400Y0236750D01*
X0099400Y0245750D01*
X0099900Y0246250D01*
X0099900Y0247250D01*
X0099898Y0247310D01*
X0099893Y0247371D01*
X0099884Y0247430D01*
X0099871Y0247489D01*
X0099855Y0247548D01*
X0099835Y0247605D01*
X0099812Y0247660D01*
X0099785Y0247715D01*
X0099756Y0247767D01*
X0099723Y0247818D01*
X0099687Y0247867D01*
X0099649Y0247913D01*
X0099607Y0247957D01*
X0099563Y0247999D01*
X0099517Y0248037D01*
X0099468Y0248073D01*
X0099417Y0248106D01*
X0099365Y0248135D01*
X0099310Y0248162D01*
X0099255Y0248185D01*
X0099198Y0248205D01*
X0099139Y0248221D01*
X0099080Y0248234D01*
X0099021Y0248243D01*
X0098960Y0248248D01*
X0098900Y0248250D01*
X0102900Y0247250D02*
X0102900Y0246250D01*
X0103400Y0245750D01*
X0103400Y0236750D01*
X0102900Y0236250D01*
X0102900Y0235250D01*
X0102902Y0235190D01*
X0102907Y0235129D01*
X0102916Y0235070D01*
X0102929Y0235011D01*
X0102945Y0234952D01*
X0102965Y0234895D01*
X0102988Y0234840D01*
X0103015Y0234785D01*
X0103044Y0234733D01*
X0103077Y0234682D01*
X0103113Y0234633D01*
X0103151Y0234587D01*
X0103193Y0234543D01*
X0103237Y0234501D01*
X0103283Y0234463D01*
X0103332Y0234427D01*
X0103383Y0234394D01*
X0103435Y0234365D01*
X0103490Y0234338D01*
X0103545Y0234315D01*
X0103602Y0234295D01*
X0103661Y0234279D01*
X0103720Y0234266D01*
X0103779Y0234257D01*
X0103840Y0234252D01*
X0103900Y0234250D01*
X0108900Y0234250D02*
X0108960Y0234252D01*
X0109021Y0234257D01*
X0109080Y0234266D01*
X0109139Y0234279D01*
X0109198Y0234295D01*
X0109255Y0234315D01*
X0109310Y0234338D01*
X0109365Y0234365D01*
X0109417Y0234394D01*
X0109468Y0234427D01*
X0109517Y0234463D01*
X0109563Y0234501D01*
X0109607Y0234543D01*
X0109649Y0234587D01*
X0109687Y0234633D01*
X0109723Y0234682D01*
X0109756Y0234733D01*
X0109785Y0234785D01*
X0109812Y0234840D01*
X0109835Y0234895D01*
X0109855Y0234952D01*
X0109871Y0235011D01*
X0109884Y0235070D01*
X0109893Y0235129D01*
X0109898Y0235190D01*
X0109900Y0235250D01*
X0109900Y0236250D01*
X0109400Y0236750D01*
X0109400Y0245750D01*
X0109900Y0246250D01*
X0109900Y0247250D01*
X0109898Y0247310D01*
X0109893Y0247371D01*
X0109884Y0247430D01*
X0109871Y0247489D01*
X0109855Y0247548D01*
X0109835Y0247605D01*
X0109812Y0247660D01*
X0109785Y0247715D01*
X0109756Y0247767D01*
X0109723Y0247818D01*
X0109687Y0247867D01*
X0109649Y0247913D01*
X0109607Y0247957D01*
X0109563Y0247999D01*
X0109517Y0248037D01*
X0109468Y0248073D01*
X0109417Y0248106D01*
X0109365Y0248135D01*
X0109310Y0248162D01*
X0109255Y0248185D01*
X0109198Y0248205D01*
X0109139Y0248221D01*
X0109080Y0248234D01*
X0109021Y0248243D01*
X0108960Y0248248D01*
X0108900Y0248250D01*
X0103900Y0248250D02*
X0103840Y0248248D01*
X0103779Y0248243D01*
X0103720Y0248234D01*
X0103661Y0248221D01*
X0103602Y0248205D01*
X0103545Y0248185D01*
X0103490Y0248162D01*
X0103435Y0248135D01*
X0103383Y0248106D01*
X0103332Y0248073D01*
X0103283Y0248037D01*
X0103237Y0247999D01*
X0103193Y0247957D01*
X0103151Y0247913D01*
X0103113Y0247867D01*
X0103077Y0247818D01*
X0103044Y0247767D01*
X0103015Y0247715D01*
X0102988Y0247660D01*
X0102965Y0247605D01*
X0102945Y0247548D01*
X0102929Y0247489D01*
X0102916Y0247430D01*
X0102907Y0247371D01*
X0102902Y0247310D01*
X0102900Y0247250D01*
X0093900Y0248250D02*
X0093840Y0248248D01*
X0093779Y0248243D01*
X0093720Y0248234D01*
X0093661Y0248221D01*
X0093602Y0248205D01*
X0093545Y0248185D01*
X0093490Y0248162D01*
X0093435Y0248135D01*
X0093383Y0248106D01*
X0093332Y0248073D01*
X0093283Y0248037D01*
X0093237Y0247999D01*
X0093193Y0247957D01*
X0093151Y0247913D01*
X0093113Y0247867D01*
X0093077Y0247818D01*
X0093044Y0247767D01*
X0093015Y0247715D01*
X0092988Y0247660D01*
X0092965Y0247605D01*
X0092945Y0247548D01*
X0092929Y0247489D01*
X0092916Y0247430D01*
X0092907Y0247371D01*
X0092902Y0247310D01*
X0092900Y0247250D01*
X0092900Y0246250D01*
X0081400Y0127750D02*
X0081400Y0120250D01*
X0081400Y0124750D02*
X0081400Y0107750D01*
X0081398Y0107690D01*
X0081393Y0107629D01*
X0081384Y0107570D01*
X0081371Y0107511D01*
X0081355Y0107452D01*
X0081335Y0107395D01*
X0081312Y0107340D01*
X0081285Y0107285D01*
X0081256Y0107233D01*
X0081223Y0107182D01*
X0081187Y0107133D01*
X0081149Y0107087D01*
X0081107Y0107043D01*
X0081063Y0107001D01*
X0081017Y0106963D01*
X0080968Y0106927D01*
X0080917Y0106894D01*
X0080865Y0106865D01*
X0080810Y0106838D01*
X0080755Y0106815D01*
X0080698Y0106795D01*
X0080639Y0106779D01*
X0080580Y0106766D01*
X0080521Y0106757D01*
X0080460Y0106752D01*
X0080400Y0106750D01*
X0072400Y0106750D01*
X0072340Y0106752D01*
X0072279Y0106757D01*
X0072220Y0106766D01*
X0072161Y0106779D01*
X0072102Y0106795D01*
X0072045Y0106815D01*
X0071990Y0106838D01*
X0071935Y0106865D01*
X0071883Y0106894D01*
X0071832Y0106927D01*
X0071783Y0106963D01*
X0071737Y0107001D01*
X0071693Y0107043D01*
X0071651Y0107087D01*
X0071613Y0107133D01*
X0071577Y0107182D01*
X0071544Y0107233D01*
X0071515Y0107285D01*
X0071488Y0107340D01*
X0071465Y0107395D01*
X0071445Y0107452D01*
X0071429Y0107511D01*
X0071416Y0107570D01*
X0071407Y0107629D01*
X0071402Y0107690D01*
X0071400Y0107750D01*
X0071400Y0124750D01*
X0071402Y0124810D01*
X0071407Y0124871D01*
X0071416Y0124930D01*
X0071429Y0124989D01*
X0071445Y0125048D01*
X0071465Y0125105D01*
X0071488Y0125160D01*
X0071515Y0125215D01*
X0071544Y0125267D01*
X0071577Y0125318D01*
X0071613Y0125367D01*
X0071651Y0125413D01*
X0071693Y0125457D01*
X0071737Y0125499D01*
X0071783Y0125537D01*
X0071832Y0125573D01*
X0071883Y0125606D01*
X0071935Y0125635D01*
X0071990Y0125662D01*
X0072045Y0125685D01*
X0072102Y0125705D01*
X0072161Y0125721D01*
X0072220Y0125734D01*
X0072279Y0125743D01*
X0072340Y0125748D01*
X0072400Y0125750D01*
X0080400Y0125750D01*
X0080460Y0125748D01*
X0080521Y0125743D01*
X0080580Y0125734D01*
X0080639Y0125721D01*
X0080698Y0125705D01*
X0080755Y0125685D01*
X0080810Y0125662D01*
X0080865Y0125635D01*
X0080917Y0125606D01*
X0080968Y0125573D01*
X0081017Y0125537D01*
X0081063Y0125499D01*
X0081107Y0125457D01*
X0081149Y0125413D01*
X0081187Y0125367D01*
X0081223Y0125318D01*
X0081256Y0125267D01*
X0081285Y0125215D01*
X0081312Y0125160D01*
X0081335Y0125105D01*
X0081355Y0125048D01*
X0081371Y0124989D01*
X0081384Y0124930D01*
X0081393Y0124871D01*
X0081398Y0124810D01*
X0081400Y0124750D01*
X0081400Y0127750D02*
X0121400Y0127750D01*
X0121400Y0104750D01*
X0081400Y0104750D01*
X0081400Y0112250D01*
X0081526Y0112252D01*
X0081651Y0112258D01*
X0081776Y0112268D01*
X0081901Y0112282D01*
X0082026Y0112299D01*
X0082150Y0112321D01*
X0082273Y0112346D01*
X0082395Y0112376D01*
X0082516Y0112409D01*
X0082636Y0112446D01*
X0082755Y0112486D01*
X0082872Y0112531D01*
X0082989Y0112579D01*
X0083103Y0112631D01*
X0083216Y0112686D01*
X0083327Y0112745D01*
X0083436Y0112807D01*
X0083543Y0112873D01*
X0083648Y0112942D01*
X0083751Y0113014D01*
X0083852Y0113089D01*
X0083950Y0113168D01*
X0084045Y0113250D01*
X0084138Y0113334D01*
X0084228Y0113422D01*
X0084316Y0113512D01*
X0084400Y0113605D01*
X0084482Y0113700D01*
X0084561Y0113798D01*
X0084636Y0113899D01*
X0084708Y0114002D01*
X0084777Y0114107D01*
X0084843Y0114214D01*
X0084905Y0114323D01*
X0084964Y0114434D01*
X0085019Y0114547D01*
X0085071Y0114661D01*
X0085119Y0114778D01*
X0085164Y0114895D01*
X0085204Y0115014D01*
X0085241Y0115134D01*
X0085274Y0115255D01*
X0085304Y0115377D01*
X0085329Y0115500D01*
X0085351Y0115624D01*
X0085368Y0115749D01*
X0085382Y0115874D01*
X0085392Y0115999D01*
X0085398Y0116124D01*
X0085400Y0116250D01*
X0085398Y0116376D01*
X0085392Y0116501D01*
X0085382Y0116626D01*
X0085368Y0116751D01*
X0085351Y0116876D01*
X0085329Y0117000D01*
X0085304Y0117123D01*
X0085274Y0117245D01*
X0085241Y0117366D01*
X0085204Y0117486D01*
X0085164Y0117605D01*
X0085119Y0117722D01*
X0085071Y0117839D01*
X0085019Y0117953D01*
X0084964Y0118066D01*
X0084905Y0118177D01*
X0084843Y0118286D01*
X0084777Y0118393D01*
X0084708Y0118498D01*
X0084636Y0118601D01*
X0084561Y0118702D01*
X0084482Y0118800D01*
X0084400Y0118895D01*
X0084316Y0118988D01*
X0084228Y0119078D01*
X0084138Y0119166D01*
X0084045Y0119250D01*
X0083950Y0119332D01*
X0083852Y0119411D01*
X0083751Y0119486D01*
X0083648Y0119558D01*
X0083543Y0119627D01*
X0083436Y0119693D01*
X0083327Y0119755D01*
X0083216Y0119814D01*
X0083103Y0119869D01*
X0082989Y0119921D01*
X0082872Y0119969D01*
X0082755Y0120014D01*
X0082636Y0120054D01*
X0082516Y0120091D01*
X0082395Y0120124D01*
X0082273Y0120154D01*
X0082150Y0120179D01*
X0082026Y0120201D01*
X0081901Y0120218D01*
X0081776Y0120232D01*
X0081651Y0120242D01*
X0081526Y0120248D01*
X0081400Y0120250D01*
X0076400Y0117750D02*
X0076400Y0117250D01*
X0076400Y0115250D02*
X0076400Y0114750D01*
D12*
X0076400Y0115250D02*
X0079400Y0115250D01*
X0079400Y0117250D02*
X0076400Y0117250D01*
X0073400Y0117250D01*
X0073400Y0115250D02*
X0076400Y0115250D01*
X0049400Y0067250D02*
X0046400Y0067250D01*
X0043400Y0067250D01*
X0043400Y0065250D02*
X0046400Y0065250D01*
X0049400Y0065250D01*
X0049400Y0042250D02*
X0046400Y0042250D01*
X0043400Y0042250D01*
X0043400Y0040250D02*
X0046400Y0040250D01*
X0049400Y0040250D01*
X0049400Y0175250D02*
X0046400Y0175250D01*
X0043400Y0175250D01*
X0043400Y0177250D02*
X0046400Y0177250D01*
X0049400Y0177250D01*
X0049400Y0240250D02*
X0046400Y0240250D01*
X0043400Y0240250D01*
X0043400Y0242250D02*
X0046400Y0242250D01*
X0049400Y0242250D01*
D13*
X0042898Y0225106D02*
X0042898Y0222104D01*
X0040646Y0224356D01*
X0045150Y0224356D01*
X0044399Y0220503D02*
X0045150Y0219752D01*
X0045150Y0218251D01*
X0044399Y0217500D01*
X0041397Y0217500D01*
X0040646Y0218251D01*
X0040646Y0219752D01*
X0041397Y0220503D01*
X0039399Y0175106D02*
X0037898Y0175106D01*
X0037147Y0174356D01*
X0037147Y0173605D01*
X0037898Y0172104D01*
X0035646Y0172104D01*
X0035646Y0175106D01*
X0036397Y0170503D02*
X0035646Y0169752D01*
X0035646Y0168251D01*
X0036397Y0167500D01*
X0039399Y0167500D01*
X0040150Y0168251D01*
X0040150Y0169752D01*
X0039399Y0170503D01*
X0039399Y0172104D02*
X0040150Y0172855D01*
X0040150Y0174356D01*
X0039399Y0175106D01*
X0015955Y0148420D02*
X0014687Y0148420D01*
X0014370Y0148103D01*
X0014370Y0147152D01*
X0016272Y0147152D01*
X0016272Y0148103D01*
X0015955Y0148420D01*
X0016272Y0146210D02*
X0016272Y0144942D01*
X0014370Y0144942D01*
X0014370Y0146210D01*
X0015321Y0145576D02*
X0015321Y0144942D01*
X0016272Y0144000D02*
X0016272Y0142732D01*
X0014370Y0142732D01*
X0014370Y0110269D02*
X0016272Y0109001D01*
X0016272Y0110269D02*
X0014370Y0109001D01*
X0014370Y0108059D02*
X0014370Y0106791D01*
X0014370Y0107425D02*
X0016272Y0107425D01*
X0016272Y0105952D02*
X0016272Y0105318D01*
X0016272Y0105635D02*
X0014370Y0105635D01*
X0014370Y0105318D02*
X0014370Y0105952D01*
X0014687Y0104376D02*
X0014370Y0104059D01*
X0014370Y0103108D01*
X0016272Y0103108D01*
X0016272Y0104059D01*
X0015955Y0104376D01*
X0014687Y0104376D01*
X0014370Y0102269D02*
X0014370Y0101635D01*
X0014370Y0101952D02*
X0016272Y0101952D01*
X0016272Y0101635D02*
X0016272Y0102269D01*
X0016272Y0100693D02*
X0014370Y0100693D01*
X0015004Y0100059D01*
X0014370Y0099425D01*
X0016272Y0099425D01*
X0036397Y0065106D02*
X0035646Y0064356D01*
X0035646Y0062855D01*
X0036397Y0062104D01*
X0036397Y0060503D02*
X0035646Y0059752D01*
X0035646Y0058251D01*
X0036397Y0057500D01*
X0039399Y0057500D01*
X0040150Y0058251D01*
X0040150Y0059752D01*
X0039399Y0060503D01*
X0039399Y0062104D02*
X0040150Y0062855D01*
X0040150Y0064356D01*
X0039399Y0065106D01*
X0038649Y0065106D01*
X0037898Y0064356D01*
X0037898Y0063605D01*
X0037898Y0064356D02*
X0037147Y0065106D01*
X0036397Y0065106D01*
X0040150Y0040106D02*
X0040150Y0037104D01*
X0040150Y0038605D02*
X0035646Y0038605D01*
X0037147Y0037104D01*
X0036397Y0035503D02*
X0035646Y0034752D01*
X0035646Y0033251D01*
X0036397Y0032500D01*
X0039399Y0032500D01*
X0040150Y0033251D01*
X0040150Y0034752D01*
X0039399Y0035503D01*
X0014024Y0040870D02*
X0012122Y0040870D01*
X0012122Y0041821D01*
X0012439Y0042138D01*
X0013073Y0042138D01*
X0013390Y0041821D01*
X0013390Y0040870D01*
X0014024Y0043080D02*
X0012122Y0043080D01*
X0012122Y0044348D02*
X0014024Y0044348D01*
X0013390Y0043714D01*
X0014024Y0043080D01*
X0014024Y0045290D02*
X0012122Y0045290D01*
X0012122Y0046241D01*
X0012439Y0046558D01*
X0013073Y0046558D01*
X0013390Y0046241D01*
X0013390Y0045290D01*
X0013390Y0045924D02*
X0014024Y0046558D01*
X0065646Y0060000D02*
X0065646Y0061501D01*
X0065646Y0060751D02*
X0070150Y0060751D01*
X0070150Y0061501D02*
X0070150Y0060000D01*
X0069399Y0063069D02*
X0070150Y0063820D01*
X0070150Y0065321D01*
X0069399Y0066072D01*
X0070150Y0067673D02*
X0067147Y0070676D01*
X0066397Y0070676D01*
X0065646Y0069925D01*
X0065646Y0068424D01*
X0066397Y0067673D01*
X0066397Y0066072D02*
X0065646Y0065321D01*
X0065646Y0063820D01*
X0066397Y0063069D01*
X0069399Y0063069D01*
X0070150Y0067673D02*
X0070150Y0070676D01*
X0071397Y0097500D02*
X0070646Y0098251D01*
X0070646Y0099752D01*
X0071397Y0100503D01*
X0071397Y0102104D02*
X0070646Y0102855D01*
X0070646Y0104356D01*
X0071397Y0105106D01*
X0072147Y0105106D01*
X0075150Y0102104D01*
X0075150Y0105106D01*
X0074399Y0100503D02*
X0075150Y0099752D01*
X0075150Y0098251D01*
X0074399Y0097500D01*
X0071397Y0097500D01*
X0095646Y0110751D02*
X0096397Y0110000D01*
X0099399Y0110000D01*
X0100150Y0110751D01*
X0100150Y0112252D01*
X0099399Y0113003D01*
X0096397Y0113003D01*
X0095646Y0112252D01*
X0095646Y0110751D01*
X0095646Y0114604D02*
X0100150Y0114604D01*
X0098649Y0114604D02*
X0095646Y0117606D01*
X0097147Y0119208D02*
X0095646Y0120709D01*
X0100150Y0120709D01*
X0100150Y0119208D02*
X0100150Y0122210D01*
X0100150Y0117606D02*
X0097898Y0115355D01*
X0084650Y0169500D02*
X0084650Y0171001D01*
X0084650Y0170251D02*
X0080146Y0170251D01*
X0080146Y0171001D02*
X0080146Y0169500D01*
X0080897Y0172569D02*
X0083899Y0172569D01*
X0084650Y0173320D01*
X0084650Y0174821D01*
X0083899Y0175572D01*
X0084650Y0177173D02*
X0084650Y0180176D01*
X0084650Y0178674D02*
X0080146Y0178674D01*
X0081647Y0177173D01*
X0080897Y0175572D02*
X0080146Y0174821D01*
X0080146Y0173320D01*
X0080897Y0172569D01*
X0075150Y0235000D02*
X0075150Y0236501D01*
X0075150Y0235751D02*
X0070646Y0235751D01*
X0070646Y0236501D02*
X0070646Y0235000D01*
X0071397Y0238069D02*
X0070646Y0238820D01*
X0070646Y0240321D01*
X0071397Y0241072D01*
X0071397Y0242673D02*
X0070646Y0243424D01*
X0070646Y0244925D01*
X0071397Y0245676D01*
X0072147Y0245676D01*
X0072898Y0244925D01*
X0073649Y0245676D01*
X0074399Y0245676D01*
X0075150Y0244925D01*
X0075150Y0243424D01*
X0074399Y0242673D01*
X0074399Y0241072D02*
X0075150Y0240321D01*
X0075150Y0238820D01*
X0074399Y0238069D01*
X0071397Y0238069D01*
X0072898Y0244174D02*
X0072898Y0244925D01*
X0127633Y0240715D02*
X0127633Y0239448D01*
X0127633Y0240081D02*
X0129534Y0240081D01*
X0129217Y0238505D02*
X0127633Y0238505D01*
X0127633Y0237238D02*
X0129217Y0237238D01*
X0129534Y0237555D01*
X0129534Y0238188D01*
X0129217Y0238505D01*
X0129217Y0236296D02*
X0127950Y0236296D01*
X0127633Y0235979D01*
X0127633Y0235345D01*
X0127950Y0235028D01*
X0129217Y0235028D01*
X0129534Y0235345D01*
X0129534Y0235979D01*
X0129217Y0236296D01*
X0129534Y0234188D02*
X0129534Y0233555D01*
X0129534Y0233871D02*
X0127633Y0233871D01*
X0127633Y0233555D02*
X0127633Y0234188D01*
X0127950Y0232612D02*
X0127633Y0232295D01*
X0127633Y0231345D01*
X0129534Y0231345D01*
X0129534Y0232295D01*
X0129217Y0232612D01*
X0127950Y0232612D01*
X0127633Y0230505D02*
X0127633Y0229871D01*
X0127633Y0230188D02*
X0129534Y0230188D01*
X0129534Y0229871D02*
X0129534Y0230505D01*
X0129534Y0228929D02*
X0127633Y0228929D01*
X0128267Y0228295D01*
X0127633Y0227662D01*
X0129534Y0227662D01*
X0129534Y0039928D02*
X0127633Y0039928D01*
X0127633Y0038660D02*
X0129534Y0039928D01*
X0129534Y0038660D02*
X0127633Y0038660D01*
X0127633Y0037821D02*
X0127633Y0037187D01*
X0127633Y0037504D02*
X0129534Y0037504D01*
X0129534Y0037187D02*
X0129534Y0037821D01*
X0129534Y0036348D02*
X0129534Y0035714D01*
X0129534Y0036031D02*
X0127633Y0036031D01*
X0127633Y0035714D02*
X0127633Y0036348D01*
X0127950Y0034772D02*
X0127633Y0034455D01*
X0127633Y0033504D01*
X0129534Y0033504D01*
X0129534Y0034455D01*
X0129217Y0034772D01*
X0127950Y0034772D01*
X0127633Y0032664D02*
X0127633Y0032031D01*
X0127633Y0032347D02*
X0129534Y0032347D01*
X0129534Y0032031D02*
X0129534Y0032664D01*
X0129534Y0031088D02*
X0127633Y0031088D01*
X0128267Y0030455D01*
X0127633Y0029821D01*
X0129534Y0029821D01*
X0088256Y0026000D02*
X0085254Y0026000D01*
X0083653Y0026751D02*
X0083653Y0029753D01*
X0082902Y0030504D01*
X0080650Y0030504D01*
X0080650Y0026000D01*
X0082902Y0026000D01*
X0083653Y0026751D01*
X0085254Y0029003D02*
X0086755Y0030504D01*
X0086755Y0026000D01*
X0014024Y0240594D02*
X0012122Y0240594D01*
X0012756Y0241228D01*
X0012122Y0241862D01*
X0014024Y0241862D01*
X0014024Y0242804D02*
X0014024Y0243438D01*
X0014024Y0243121D02*
X0012122Y0243121D01*
X0012122Y0242804D02*
X0012122Y0243438D01*
X0012122Y0244278D02*
X0012122Y0245228D01*
X0012439Y0245545D01*
X0013707Y0245545D01*
X0014024Y0245228D01*
X0014024Y0244278D01*
X0012122Y0244278D01*
X0012122Y0246487D02*
X0012122Y0247121D01*
X0012122Y0246804D02*
X0014024Y0246804D01*
X0014024Y0246487D02*
X0014024Y0247121D01*
X0014024Y0247961D02*
X0012122Y0247961D01*
X0012122Y0248912D01*
X0012439Y0249228D01*
X0013073Y0249228D01*
X0013390Y0248912D01*
X0013390Y0247961D01*
X0013390Y0248595D02*
X0014024Y0249228D01*
X0014024Y0250171D02*
X0012122Y0251438D01*
X0012122Y0250171D02*
X0014024Y0251438D01*
D14*
X0072650Y0036250D03*
D15*
X0067650Y0036250D03*
X0085150Y0036250D03*
D16*
X0093097Y0043550D02*
X0093097Y0045301D01*
X0093681Y0045885D01*
X0094849Y0045885D01*
X0095432Y0045301D01*
X0095432Y0043550D01*
X0095432Y0044718D02*
X0096600Y0045885D01*
X0096016Y0047141D02*
X0096600Y0047725D01*
X0096600Y0048893D01*
X0096016Y0049476D01*
X0095432Y0049476D01*
X0094849Y0048893D01*
X0094849Y0048309D01*
X0094849Y0048893D02*
X0094265Y0049476D01*
X0093681Y0049476D01*
X0093097Y0048893D01*
X0093097Y0047725D01*
X0093681Y0047141D01*
X0093097Y0043550D02*
X0096600Y0043550D01*
X0042660Y0102950D02*
X0041493Y0102950D01*
X0040909Y0103534D01*
X0040909Y0104701D02*
X0042077Y0105285D01*
X0042660Y0105285D01*
X0043244Y0104701D01*
X0043244Y0103534D01*
X0042660Y0102950D01*
X0040909Y0104701D02*
X0040909Y0106453D01*
X0043244Y0106453D01*
X0039653Y0105869D02*
X0039653Y0104701D01*
X0039069Y0104118D01*
X0037318Y0104118D01*
X0038486Y0104118D02*
X0039653Y0102950D01*
X0039653Y0105869D02*
X0039069Y0106453D01*
X0037318Y0106453D01*
X0037318Y0102950D01*
X0037318Y0112950D02*
X0037318Y0116453D01*
X0039069Y0116453D01*
X0039653Y0115869D01*
X0039653Y0114701D01*
X0039069Y0114118D01*
X0037318Y0114118D01*
X0038486Y0114118D02*
X0039653Y0112950D01*
X0040909Y0113534D02*
X0041493Y0112950D01*
X0042660Y0112950D01*
X0043244Y0113534D01*
X0043244Y0115869D01*
X0042660Y0116453D01*
X0041493Y0116453D01*
X0040909Y0115869D01*
X0040909Y0115285D01*
X0041493Y0114701D01*
X0043244Y0114701D01*
X0040909Y0122950D02*
X0040909Y0123534D01*
X0043244Y0125869D01*
X0043244Y0126453D01*
X0040909Y0126453D01*
X0039653Y0125869D02*
X0039653Y0124701D01*
X0039069Y0124118D01*
X0037318Y0124118D01*
X0038486Y0124118D02*
X0039653Y0122950D01*
X0037318Y0122950D02*
X0037318Y0126453D01*
X0039069Y0126453D01*
X0039653Y0125869D01*
X0039653Y0132950D02*
X0038486Y0134118D01*
X0039069Y0134118D02*
X0039653Y0134701D01*
X0039653Y0135869D01*
X0039069Y0136453D01*
X0037318Y0136453D01*
X0037318Y0132950D01*
X0037318Y0134118D02*
X0039069Y0134118D01*
X0040909Y0134701D02*
X0042660Y0134701D01*
X0043244Y0134118D01*
X0043244Y0133534D01*
X0042660Y0132950D01*
X0041493Y0132950D01*
X0040909Y0133534D01*
X0040909Y0134701D01*
X0042077Y0135869D01*
X0043244Y0136453D01*
X0042660Y0142950D02*
X0042660Y0146453D01*
X0040909Y0144701D01*
X0043244Y0144701D01*
X0039653Y0144701D02*
X0039069Y0144118D01*
X0037318Y0144118D01*
X0038486Y0144118D02*
X0039653Y0142950D01*
X0039653Y0144701D02*
X0039653Y0145869D01*
X0039069Y0146453D01*
X0037318Y0146453D01*
X0037318Y0142950D01*
X0048700Y0211050D02*
X0048700Y0214553D01*
X0050451Y0214553D01*
X0051035Y0213969D01*
X0051035Y0212801D01*
X0050451Y0212218D01*
X0048700Y0212218D01*
X0049868Y0212218D02*
X0051035Y0211050D01*
X0052291Y0211634D02*
X0052291Y0212218D01*
X0052875Y0212801D01*
X0054043Y0212801D01*
X0054626Y0212218D01*
X0054626Y0211634D01*
X0054043Y0211050D01*
X0052875Y0211050D01*
X0052291Y0211634D01*
X0052875Y0212801D02*
X0052291Y0213385D01*
X0052291Y0213969D01*
X0052875Y0214553D01*
X0054043Y0214553D01*
X0054626Y0213969D01*
X0054626Y0213385D01*
X0054043Y0212801D01*
X0093097Y0218550D02*
X0093097Y0220301D01*
X0093681Y0220885D01*
X0094849Y0220885D01*
X0095432Y0220301D01*
X0095432Y0218550D01*
X0095432Y0219718D02*
X0096600Y0220885D01*
X0096600Y0222141D02*
X0096600Y0224476D01*
X0096600Y0223309D02*
X0093097Y0223309D01*
X0094265Y0222141D01*
X0093097Y0218550D02*
X0096600Y0218550D01*
X0103097Y0218550D02*
X0103097Y0220301D01*
X0103681Y0220885D01*
X0104849Y0220885D01*
X0105432Y0220301D01*
X0105432Y0218550D01*
X0105432Y0219718D02*
X0106600Y0220885D01*
X0106600Y0222141D02*
X0104265Y0224476D01*
X0103681Y0224476D01*
X0103097Y0223893D01*
X0103097Y0222725D01*
X0103681Y0222141D01*
X0103097Y0218550D02*
X0106600Y0218550D01*
X0106600Y0222141D02*
X0106600Y0224476D01*
D17*
X0001400Y0052234D02*
X0001400Y0029006D01*
X0031321Y0029006D01*
X0031321Y0031565D01*
X0025022Y0031565D01*
X0025022Y0049675D02*
X0031321Y0049675D01*
X0031321Y0052234D01*
X0001400Y0052234D01*
X0001400Y0084124D02*
X0001400Y0115226D01*
X0031321Y0115226D01*
X0031321Y0112667D01*
X0025022Y0112667D01*
X0031321Y0123494D02*
X0031321Y0126053D01*
X0025022Y0126053D01*
X0031321Y0123494D02*
X0001400Y0123494D01*
X0001400Y0162470D01*
X0031321Y0162470D01*
X0031321Y0159911D01*
X0025022Y0159911D01*
X0025022Y0086683D02*
X0031321Y0086683D01*
X0031321Y0084124D01*
X0001400Y0084124D01*
X0001400Y0233730D02*
X0001400Y0256959D01*
X0031321Y0256959D01*
X0031321Y0254400D01*
X0025022Y0254400D01*
X0025022Y0236289D02*
X0031321Y0236289D01*
X0031321Y0233730D01*
X0001400Y0233730D01*
X0113211Y0228415D02*
X0113211Y0225856D01*
X0143132Y0225856D01*
X0143132Y0256959D01*
X0113211Y0256959D01*
X0113211Y0254400D01*
X0119510Y0254400D01*
X0119510Y0228415D02*
X0113211Y0228415D01*
X0113211Y0052234D02*
X0113211Y0049675D01*
X0119510Y0049675D01*
X0113211Y0052234D02*
X0143132Y0052234D01*
X0143132Y0029006D01*
X0113211Y0029006D01*
X0113211Y0031565D01*
X0119510Y0031565D01*
M02*
