G75*
%MOIN*%
%OFA0B0*%
%FSLAX25Y25*%
%IPPOS*%
%LPD*%
%AMOC8*
5,1,8,0,0,1.08239X$1,22.5*
%
%ADD10C,0.00000*%
D10*
X0001400Y0001250D02*
X0001400Y0284715D01*
X0143132Y0284715D01*
X0143132Y0001250D01*
X0001400Y0001250D01*
X0006912Y0013061D02*
X0006914Y0013219D01*
X0006920Y0013377D01*
X0006930Y0013535D01*
X0006944Y0013693D01*
X0006962Y0013850D01*
X0006983Y0014007D01*
X0007009Y0014163D01*
X0007039Y0014319D01*
X0007072Y0014474D01*
X0007110Y0014627D01*
X0007151Y0014780D01*
X0007196Y0014932D01*
X0007245Y0015083D01*
X0007298Y0015232D01*
X0007354Y0015380D01*
X0007414Y0015526D01*
X0007478Y0015671D01*
X0007546Y0015814D01*
X0007617Y0015956D01*
X0007691Y0016096D01*
X0007769Y0016233D01*
X0007851Y0016369D01*
X0007935Y0016503D01*
X0008024Y0016634D01*
X0008115Y0016763D01*
X0008210Y0016890D01*
X0008307Y0017015D01*
X0008408Y0017137D01*
X0008512Y0017256D01*
X0008619Y0017373D01*
X0008729Y0017487D01*
X0008842Y0017598D01*
X0008957Y0017707D01*
X0009075Y0017812D01*
X0009196Y0017914D01*
X0009319Y0018014D01*
X0009445Y0018110D01*
X0009573Y0018203D01*
X0009703Y0018293D01*
X0009836Y0018379D01*
X0009971Y0018463D01*
X0010107Y0018542D01*
X0010246Y0018619D01*
X0010387Y0018691D01*
X0010529Y0018761D01*
X0010673Y0018826D01*
X0010819Y0018888D01*
X0010966Y0018946D01*
X0011115Y0019001D01*
X0011265Y0019052D01*
X0011416Y0019099D01*
X0011568Y0019142D01*
X0011721Y0019181D01*
X0011876Y0019217D01*
X0012031Y0019248D01*
X0012187Y0019276D01*
X0012343Y0019300D01*
X0012500Y0019320D01*
X0012658Y0019336D01*
X0012815Y0019348D01*
X0012974Y0019356D01*
X0013132Y0019360D01*
X0013290Y0019360D01*
X0013448Y0019356D01*
X0013607Y0019348D01*
X0013764Y0019336D01*
X0013922Y0019320D01*
X0014079Y0019300D01*
X0014235Y0019276D01*
X0014391Y0019248D01*
X0014546Y0019217D01*
X0014701Y0019181D01*
X0014854Y0019142D01*
X0015006Y0019099D01*
X0015157Y0019052D01*
X0015307Y0019001D01*
X0015456Y0018946D01*
X0015603Y0018888D01*
X0015749Y0018826D01*
X0015893Y0018761D01*
X0016035Y0018691D01*
X0016176Y0018619D01*
X0016315Y0018542D01*
X0016451Y0018463D01*
X0016586Y0018379D01*
X0016719Y0018293D01*
X0016849Y0018203D01*
X0016977Y0018110D01*
X0017103Y0018014D01*
X0017226Y0017914D01*
X0017347Y0017812D01*
X0017465Y0017707D01*
X0017580Y0017598D01*
X0017693Y0017487D01*
X0017803Y0017373D01*
X0017910Y0017256D01*
X0018014Y0017137D01*
X0018115Y0017015D01*
X0018212Y0016890D01*
X0018307Y0016763D01*
X0018398Y0016634D01*
X0018487Y0016503D01*
X0018571Y0016369D01*
X0018653Y0016233D01*
X0018731Y0016096D01*
X0018805Y0015956D01*
X0018876Y0015814D01*
X0018944Y0015671D01*
X0019008Y0015526D01*
X0019068Y0015380D01*
X0019124Y0015232D01*
X0019177Y0015083D01*
X0019226Y0014932D01*
X0019271Y0014780D01*
X0019312Y0014627D01*
X0019350Y0014474D01*
X0019383Y0014319D01*
X0019413Y0014163D01*
X0019439Y0014007D01*
X0019460Y0013850D01*
X0019478Y0013693D01*
X0019492Y0013535D01*
X0019502Y0013377D01*
X0019508Y0013219D01*
X0019510Y0013061D01*
X0019508Y0012903D01*
X0019502Y0012745D01*
X0019492Y0012587D01*
X0019478Y0012429D01*
X0019460Y0012272D01*
X0019439Y0012115D01*
X0019413Y0011959D01*
X0019383Y0011803D01*
X0019350Y0011648D01*
X0019312Y0011495D01*
X0019271Y0011342D01*
X0019226Y0011190D01*
X0019177Y0011039D01*
X0019124Y0010890D01*
X0019068Y0010742D01*
X0019008Y0010596D01*
X0018944Y0010451D01*
X0018876Y0010308D01*
X0018805Y0010166D01*
X0018731Y0010026D01*
X0018653Y0009889D01*
X0018571Y0009753D01*
X0018487Y0009619D01*
X0018398Y0009488D01*
X0018307Y0009359D01*
X0018212Y0009232D01*
X0018115Y0009107D01*
X0018014Y0008985D01*
X0017910Y0008866D01*
X0017803Y0008749D01*
X0017693Y0008635D01*
X0017580Y0008524D01*
X0017465Y0008415D01*
X0017347Y0008310D01*
X0017226Y0008208D01*
X0017103Y0008108D01*
X0016977Y0008012D01*
X0016849Y0007919D01*
X0016719Y0007829D01*
X0016586Y0007743D01*
X0016451Y0007659D01*
X0016315Y0007580D01*
X0016176Y0007503D01*
X0016035Y0007431D01*
X0015893Y0007361D01*
X0015749Y0007296D01*
X0015603Y0007234D01*
X0015456Y0007176D01*
X0015307Y0007121D01*
X0015157Y0007070D01*
X0015006Y0007023D01*
X0014854Y0006980D01*
X0014701Y0006941D01*
X0014546Y0006905D01*
X0014391Y0006874D01*
X0014235Y0006846D01*
X0014079Y0006822D01*
X0013922Y0006802D01*
X0013764Y0006786D01*
X0013607Y0006774D01*
X0013448Y0006766D01*
X0013290Y0006762D01*
X0013132Y0006762D01*
X0012974Y0006766D01*
X0012815Y0006774D01*
X0012658Y0006786D01*
X0012500Y0006802D01*
X0012343Y0006822D01*
X0012187Y0006846D01*
X0012031Y0006874D01*
X0011876Y0006905D01*
X0011721Y0006941D01*
X0011568Y0006980D01*
X0011416Y0007023D01*
X0011265Y0007070D01*
X0011115Y0007121D01*
X0010966Y0007176D01*
X0010819Y0007234D01*
X0010673Y0007296D01*
X0010529Y0007361D01*
X0010387Y0007431D01*
X0010246Y0007503D01*
X0010107Y0007580D01*
X0009971Y0007659D01*
X0009836Y0007743D01*
X0009703Y0007829D01*
X0009573Y0007919D01*
X0009445Y0008012D01*
X0009319Y0008108D01*
X0009196Y0008208D01*
X0009075Y0008310D01*
X0008957Y0008415D01*
X0008842Y0008524D01*
X0008729Y0008635D01*
X0008619Y0008749D01*
X0008512Y0008866D01*
X0008408Y0008985D01*
X0008307Y0009107D01*
X0008210Y0009232D01*
X0008115Y0009359D01*
X0008024Y0009488D01*
X0007935Y0009619D01*
X0007851Y0009753D01*
X0007769Y0009889D01*
X0007691Y0010026D01*
X0007617Y0010166D01*
X0007546Y0010308D01*
X0007478Y0010451D01*
X0007414Y0010596D01*
X0007354Y0010742D01*
X0007298Y0010890D01*
X0007245Y0011039D01*
X0007196Y0011190D01*
X0007151Y0011342D01*
X0007110Y0011495D01*
X0007072Y0011648D01*
X0007039Y0011803D01*
X0007009Y0011959D01*
X0006983Y0012115D01*
X0006962Y0012272D01*
X0006944Y0012429D01*
X0006930Y0012587D01*
X0006920Y0012745D01*
X0006914Y0012903D01*
X0006912Y0013061D01*
X0125022Y0013061D02*
X0125024Y0013219D01*
X0125030Y0013377D01*
X0125040Y0013535D01*
X0125054Y0013693D01*
X0125072Y0013850D01*
X0125093Y0014007D01*
X0125119Y0014163D01*
X0125149Y0014319D01*
X0125182Y0014474D01*
X0125220Y0014627D01*
X0125261Y0014780D01*
X0125306Y0014932D01*
X0125355Y0015083D01*
X0125408Y0015232D01*
X0125464Y0015380D01*
X0125524Y0015526D01*
X0125588Y0015671D01*
X0125656Y0015814D01*
X0125727Y0015956D01*
X0125801Y0016096D01*
X0125879Y0016233D01*
X0125961Y0016369D01*
X0126045Y0016503D01*
X0126134Y0016634D01*
X0126225Y0016763D01*
X0126320Y0016890D01*
X0126417Y0017015D01*
X0126518Y0017137D01*
X0126622Y0017256D01*
X0126729Y0017373D01*
X0126839Y0017487D01*
X0126952Y0017598D01*
X0127067Y0017707D01*
X0127185Y0017812D01*
X0127306Y0017914D01*
X0127429Y0018014D01*
X0127555Y0018110D01*
X0127683Y0018203D01*
X0127813Y0018293D01*
X0127946Y0018379D01*
X0128081Y0018463D01*
X0128217Y0018542D01*
X0128356Y0018619D01*
X0128497Y0018691D01*
X0128639Y0018761D01*
X0128783Y0018826D01*
X0128929Y0018888D01*
X0129076Y0018946D01*
X0129225Y0019001D01*
X0129375Y0019052D01*
X0129526Y0019099D01*
X0129678Y0019142D01*
X0129831Y0019181D01*
X0129986Y0019217D01*
X0130141Y0019248D01*
X0130297Y0019276D01*
X0130453Y0019300D01*
X0130610Y0019320D01*
X0130768Y0019336D01*
X0130925Y0019348D01*
X0131084Y0019356D01*
X0131242Y0019360D01*
X0131400Y0019360D01*
X0131558Y0019356D01*
X0131717Y0019348D01*
X0131874Y0019336D01*
X0132032Y0019320D01*
X0132189Y0019300D01*
X0132345Y0019276D01*
X0132501Y0019248D01*
X0132656Y0019217D01*
X0132811Y0019181D01*
X0132964Y0019142D01*
X0133116Y0019099D01*
X0133267Y0019052D01*
X0133417Y0019001D01*
X0133566Y0018946D01*
X0133713Y0018888D01*
X0133859Y0018826D01*
X0134003Y0018761D01*
X0134145Y0018691D01*
X0134286Y0018619D01*
X0134425Y0018542D01*
X0134561Y0018463D01*
X0134696Y0018379D01*
X0134829Y0018293D01*
X0134959Y0018203D01*
X0135087Y0018110D01*
X0135213Y0018014D01*
X0135336Y0017914D01*
X0135457Y0017812D01*
X0135575Y0017707D01*
X0135690Y0017598D01*
X0135803Y0017487D01*
X0135913Y0017373D01*
X0136020Y0017256D01*
X0136124Y0017137D01*
X0136225Y0017015D01*
X0136322Y0016890D01*
X0136417Y0016763D01*
X0136508Y0016634D01*
X0136597Y0016503D01*
X0136681Y0016369D01*
X0136763Y0016233D01*
X0136841Y0016096D01*
X0136915Y0015956D01*
X0136986Y0015814D01*
X0137054Y0015671D01*
X0137118Y0015526D01*
X0137178Y0015380D01*
X0137234Y0015232D01*
X0137287Y0015083D01*
X0137336Y0014932D01*
X0137381Y0014780D01*
X0137422Y0014627D01*
X0137460Y0014474D01*
X0137493Y0014319D01*
X0137523Y0014163D01*
X0137549Y0014007D01*
X0137570Y0013850D01*
X0137588Y0013693D01*
X0137602Y0013535D01*
X0137612Y0013377D01*
X0137618Y0013219D01*
X0137620Y0013061D01*
X0137618Y0012903D01*
X0137612Y0012745D01*
X0137602Y0012587D01*
X0137588Y0012429D01*
X0137570Y0012272D01*
X0137549Y0012115D01*
X0137523Y0011959D01*
X0137493Y0011803D01*
X0137460Y0011648D01*
X0137422Y0011495D01*
X0137381Y0011342D01*
X0137336Y0011190D01*
X0137287Y0011039D01*
X0137234Y0010890D01*
X0137178Y0010742D01*
X0137118Y0010596D01*
X0137054Y0010451D01*
X0136986Y0010308D01*
X0136915Y0010166D01*
X0136841Y0010026D01*
X0136763Y0009889D01*
X0136681Y0009753D01*
X0136597Y0009619D01*
X0136508Y0009488D01*
X0136417Y0009359D01*
X0136322Y0009232D01*
X0136225Y0009107D01*
X0136124Y0008985D01*
X0136020Y0008866D01*
X0135913Y0008749D01*
X0135803Y0008635D01*
X0135690Y0008524D01*
X0135575Y0008415D01*
X0135457Y0008310D01*
X0135336Y0008208D01*
X0135213Y0008108D01*
X0135087Y0008012D01*
X0134959Y0007919D01*
X0134829Y0007829D01*
X0134696Y0007743D01*
X0134561Y0007659D01*
X0134425Y0007580D01*
X0134286Y0007503D01*
X0134145Y0007431D01*
X0134003Y0007361D01*
X0133859Y0007296D01*
X0133713Y0007234D01*
X0133566Y0007176D01*
X0133417Y0007121D01*
X0133267Y0007070D01*
X0133116Y0007023D01*
X0132964Y0006980D01*
X0132811Y0006941D01*
X0132656Y0006905D01*
X0132501Y0006874D01*
X0132345Y0006846D01*
X0132189Y0006822D01*
X0132032Y0006802D01*
X0131874Y0006786D01*
X0131717Y0006774D01*
X0131558Y0006766D01*
X0131400Y0006762D01*
X0131242Y0006762D01*
X0131084Y0006766D01*
X0130925Y0006774D01*
X0130768Y0006786D01*
X0130610Y0006802D01*
X0130453Y0006822D01*
X0130297Y0006846D01*
X0130141Y0006874D01*
X0129986Y0006905D01*
X0129831Y0006941D01*
X0129678Y0006980D01*
X0129526Y0007023D01*
X0129375Y0007070D01*
X0129225Y0007121D01*
X0129076Y0007176D01*
X0128929Y0007234D01*
X0128783Y0007296D01*
X0128639Y0007361D01*
X0128497Y0007431D01*
X0128356Y0007503D01*
X0128217Y0007580D01*
X0128081Y0007659D01*
X0127946Y0007743D01*
X0127813Y0007829D01*
X0127683Y0007919D01*
X0127555Y0008012D01*
X0127429Y0008108D01*
X0127306Y0008208D01*
X0127185Y0008310D01*
X0127067Y0008415D01*
X0126952Y0008524D01*
X0126839Y0008635D01*
X0126729Y0008749D01*
X0126622Y0008866D01*
X0126518Y0008985D01*
X0126417Y0009107D01*
X0126320Y0009232D01*
X0126225Y0009359D01*
X0126134Y0009488D01*
X0126045Y0009619D01*
X0125961Y0009753D01*
X0125879Y0009889D01*
X0125801Y0010026D01*
X0125727Y0010166D01*
X0125656Y0010308D01*
X0125588Y0010451D01*
X0125524Y0010596D01*
X0125464Y0010742D01*
X0125408Y0010890D01*
X0125355Y0011039D01*
X0125306Y0011190D01*
X0125261Y0011342D01*
X0125220Y0011495D01*
X0125182Y0011648D01*
X0125149Y0011803D01*
X0125119Y0011959D01*
X0125093Y0012115D01*
X0125072Y0012272D01*
X0125054Y0012429D01*
X0125040Y0012587D01*
X0125030Y0012745D01*
X0125024Y0012903D01*
X0125022Y0013061D01*
X0125022Y0272904D02*
X0125024Y0273062D01*
X0125030Y0273220D01*
X0125040Y0273378D01*
X0125054Y0273536D01*
X0125072Y0273693D01*
X0125093Y0273850D01*
X0125119Y0274006D01*
X0125149Y0274162D01*
X0125182Y0274317D01*
X0125220Y0274470D01*
X0125261Y0274623D01*
X0125306Y0274775D01*
X0125355Y0274926D01*
X0125408Y0275075D01*
X0125464Y0275223D01*
X0125524Y0275369D01*
X0125588Y0275514D01*
X0125656Y0275657D01*
X0125727Y0275799D01*
X0125801Y0275939D01*
X0125879Y0276076D01*
X0125961Y0276212D01*
X0126045Y0276346D01*
X0126134Y0276477D01*
X0126225Y0276606D01*
X0126320Y0276733D01*
X0126417Y0276858D01*
X0126518Y0276980D01*
X0126622Y0277099D01*
X0126729Y0277216D01*
X0126839Y0277330D01*
X0126952Y0277441D01*
X0127067Y0277550D01*
X0127185Y0277655D01*
X0127306Y0277757D01*
X0127429Y0277857D01*
X0127555Y0277953D01*
X0127683Y0278046D01*
X0127813Y0278136D01*
X0127946Y0278222D01*
X0128081Y0278306D01*
X0128217Y0278385D01*
X0128356Y0278462D01*
X0128497Y0278534D01*
X0128639Y0278604D01*
X0128783Y0278669D01*
X0128929Y0278731D01*
X0129076Y0278789D01*
X0129225Y0278844D01*
X0129375Y0278895D01*
X0129526Y0278942D01*
X0129678Y0278985D01*
X0129831Y0279024D01*
X0129986Y0279060D01*
X0130141Y0279091D01*
X0130297Y0279119D01*
X0130453Y0279143D01*
X0130610Y0279163D01*
X0130768Y0279179D01*
X0130925Y0279191D01*
X0131084Y0279199D01*
X0131242Y0279203D01*
X0131400Y0279203D01*
X0131558Y0279199D01*
X0131717Y0279191D01*
X0131874Y0279179D01*
X0132032Y0279163D01*
X0132189Y0279143D01*
X0132345Y0279119D01*
X0132501Y0279091D01*
X0132656Y0279060D01*
X0132811Y0279024D01*
X0132964Y0278985D01*
X0133116Y0278942D01*
X0133267Y0278895D01*
X0133417Y0278844D01*
X0133566Y0278789D01*
X0133713Y0278731D01*
X0133859Y0278669D01*
X0134003Y0278604D01*
X0134145Y0278534D01*
X0134286Y0278462D01*
X0134425Y0278385D01*
X0134561Y0278306D01*
X0134696Y0278222D01*
X0134829Y0278136D01*
X0134959Y0278046D01*
X0135087Y0277953D01*
X0135213Y0277857D01*
X0135336Y0277757D01*
X0135457Y0277655D01*
X0135575Y0277550D01*
X0135690Y0277441D01*
X0135803Y0277330D01*
X0135913Y0277216D01*
X0136020Y0277099D01*
X0136124Y0276980D01*
X0136225Y0276858D01*
X0136322Y0276733D01*
X0136417Y0276606D01*
X0136508Y0276477D01*
X0136597Y0276346D01*
X0136681Y0276212D01*
X0136763Y0276076D01*
X0136841Y0275939D01*
X0136915Y0275799D01*
X0136986Y0275657D01*
X0137054Y0275514D01*
X0137118Y0275369D01*
X0137178Y0275223D01*
X0137234Y0275075D01*
X0137287Y0274926D01*
X0137336Y0274775D01*
X0137381Y0274623D01*
X0137422Y0274470D01*
X0137460Y0274317D01*
X0137493Y0274162D01*
X0137523Y0274006D01*
X0137549Y0273850D01*
X0137570Y0273693D01*
X0137588Y0273536D01*
X0137602Y0273378D01*
X0137612Y0273220D01*
X0137618Y0273062D01*
X0137620Y0272904D01*
X0137618Y0272746D01*
X0137612Y0272588D01*
X0137602Y0272430D01*
X0137588Y0272272D01*
X0137570Y0272115D01*
X0137549Y0271958D01*
X0137523Y0271802D01*
X0137493Y0271646D01*
X0137460Y0271491D01*
X0137422Y0271338D01*
X0137381Y0271185D01*
X0137336Y0271033D01*
X0137287Y0270882D01*
X0137234Y0270733D01*
X0137178Y0270585D01*
X0137118Y0270439D01*
X0137054Y0270294D01*
X0136986Y0270151D01*
X0136915Y0270009D01*
X0136841Y0269869D01*
X0136763Y0269732D01*
X0136681Y0269596D01*
X0136597Y0269462D01*
X0136508Y0269331D01*
X0136417Y0269202D01*
X0136322Y0269075D01*
X0136225Y0268950D01*
X0136124Y0268828D01*
X0136020Y0268709D01*
X0135913Y0268592D01*
X0135803Y0268478D01*
X0135690Y0268367D01*
X0135575Y0268258D01*
X0135457Y0268153D01*
X0135336Y0268051D01*
X0135213Y0267951D01*
X0135087Y0267855D01*
X0134959Y0267762D01*
X0134829Y0267672D01*
X0134696Y0267586D01*
X0134561Y0267502D01*
X0134425Y0267423D01*
X0134286Y0267346D01*
X0134145Y0267274D01*
X0134003Y0267204D01*
X0133859Y0267139D01*
X0133713Y0267077D01*
X0133566Y0267019D01*
X0133417Y0266964D01*
X0133267Y0266913D01*
X0133116Y0266866D01*
X0132964Y0266823D01*
X0132811Y0266784D01*
X0132656Y0266748D01*
X0132501Y0266717D01*
X0132345Y0266689D01*
X0132189Y0266665D01*
X0132032Y0266645D01*
X0131874Y0266629D01*
X0131717Y0266617D01*
X0131558Y0266609D01*
X0131400Y0266605D01*
X0131242Y0266605D01*
X0131084Y0266609D01*
X0130925Y0266617D01*
X0130768Y0266629D01*
X0130610Y0266645D01*
X0130453Y0266665D01*
X0130297Y0266689D01*
X0130141Y0266717D01*
X0129986Y0266748D01*
X0129831Y0266784D01*
X0129678Y0266823D01*
X0129526Y0266866D01*
X0129375Y0266913D01*
X0129225Y0266964D01*
X0129076Y0267019D01*
X0128929Y0267077D01*
X0128783Y0267139D01*
X0128639Y0267204D01*
X0128497Y0267274D01*
X0128356Y0267346D01*
X0128217Y0267423D01*
X0128081Y0267502D01*
X0127946Y0267586D01*
X0127813Y0267672D01*
X0127683Y0267762D01*
X0127555Y0267855D01*
X0127429Y0267951D01*
X0127306Y0268051D01*
X0127185Y0268153D01*
X0127067Y0268258D01*
X0126952Y0268367D01*
X0126839Y0268478D01*
X0126729Y0268592D01*
X0126622Y0268709D01*
X0126518Y0268828D01*
X0126417Y0268950D01*
X0126320Y0269075D01*
X0126225Y0269202D01*
X0126134Y0269331D01*
X0126045Y0269462D01*
X0125961Y0269596D01*
X0125879Y0269732D01*
X0125801Y0269869D01*
X0125727Y0270009D01*
X0125656Y0270151D01*
X0125588Y0270294D01*
X0125524Y0270439D01*
X0125464Y0270585D01*
X0125408Y0270733D01*
X0125355Y0270882D01*
X0125306Y0271033D01*
X0125261Y0271185D01*
X0125220Y0271338D01*
X0125182Y0271491D01*
X0125149Y0271646D01*
X0125119Y0271802D01*
X0125093Y0271958D01*
X0125072Y0272115D01*
X0125054Y0272272D01*
X0125040Y0272430D01*
X0125030Y0272588D01*
X0125024Y0272746D01*
X0125022Y0272904D01*
X0006912Y0272904D02*
X0006914Y0273062D01*
X0006920Y0273220D01*
X0006930Y0273378D01*
X0006944Y0273536D01*
X0006962Y0273693D01*
X0006983Y0273850D01*
X0007009Y0274006D01*
X0007039Y0274162D01*
X0007072Y0274317D01*
X0007110Y0274470D01*
X0007151Y0274623D01*
X0007196Y0274775D01*
X0007245Y0274926D01*
X0007298Y0275075D01*
X0007354Y0275223D01*
X0007414Y0275369D01*
X0007478Y0275514D01*
X0007546Y0275657D01*
X0007617Y0275799D01*
X0007691Y0275939D01*
X0007769Y0276076D01*
X0007851Y0276212D01*
X0007935Y0276346D01*
X0008024Y0276477D01*
X0008115Y0276606D01*
X0008210Y0276733D01*
X0008307Y0276858D01*
X0008408Y0276980D01*
X0008512Y0277099D01*
X0008619Y0277216D01*
X0008729Y0277330D01*
X0008842Y0277441D01*
X0008957Y0277550D01*
X0009075Y0277655D01*
X0009196Y0277757D01*
X0009319Y0277857D01*
X0009445Y0277953D01*
X0009573Y0278046D01*
X0009703Y0278136D01*
X0009836Y0278222D01*
X0009971Y0278306D01*
X0010107Y0278385D01*
X0010246Y0278462D01*
X0010387Y0278534D01*
X0010529Y0278604D01*
X0010673Y0278669D01*
X0010819Y0278731D01*
X0010966Y0278789D01*
X0011115Y0278844D01*
X0011265Y0278895D01*
X0011416Y0278942D01*
X0011568Y0278985D01*
X0011721Y0279024D01*
X0011876Y0279060D01*
X0012031Y0279091D01*
X0012187Y0279119D01*
X0012343Y0279143D01*
X0012500Y0279163D01*
X0012658Y0279179D01*
X0012815Y0279191D01*
X0012974Y0279199D01*
X0013132Y0279203D01*
X0013290Y0279203D01*
X0013448Y0279199D01*
X0013607Y0279191D01*
X0013764Y0279179D01*
X0013922Y0279163D01*
X0014079Y0279143D01*
X0014235Y0279119D01*
X0014391Y0279091D01*
X0014546Y0279060D01*
X0014701Y0279024D01*
X0014854Y0278985D01*
X0015006Y0278942D01*
X0015157Y0278895D01*
X0015307Y0278844D01*
X0015456Y0278789D01*
X0015603Y0278731D01*
X0015749Y0278669D01*
X0015893Y0278604D01*
X0016035Y0278534D01*
X0016176Y0278462D01*
X0016315Y0278385D01*
X0016451Y0278306D01*
X0016586Y0278222D01*
X0016719Y0278136D01*
X0016849Y0278046D01*
X0016977Y0277953D01*
X0017103Y0277857D01*
X0017226Y0277757D01*
X0017347Y0277655D01*
X0017465Y0277550D01*
X0017580Y0277441D01*
X0017693Y0277330D01*
X0017803Y0277216D01*
X0017910Y0277099D01*
X0018014Y0276980D01*
X0018115Y0276858D01*
X0018212Y0276733D01*
X0018307Y0276606D01*
X0018398Y0276477D01*
X0018487Y0276346D01*
X0018571Y0276212D01*
X0018653Y0276076D01*
X0018731Y0275939D01*
X0018805Y0275799D01*
X0018876Y0275657D01*
X0018944Y0275514D01*
X0019008Y0275369D01*
X0019068Y0275223D01*
X0019124Y0275075D01*
X0019177Y0274926D01*
X0019226Y0274775D01*
X0019271Y0274623D01*
X0019312Y0274470D01*
X0019350Y0274317D01*
X0019383Y0274162D01*
X0019413Y0274006D01*
X0019439Y0273850D01*
X0019460Y0273693D01*
X0019478Y0273536D01*
X0019492Y0273378D01*
X0019502Y0273220D01*
X0019508Y0273062D01*
X0019510Y0272904D01*
X0019508Y0272746D01*
X0019502Y0272588D01*
X0019492Y0272430D01*
X0019478Y0272272D01*
X0019460Y0272115D01*
X0019439Y0271958D01*
X0019413Y0271802D01*
X0019383Y0271646D01*
X0019350Y0271491D01*
X0019312Y0271338D01*
X0019271Y0271185D01*
X0019226Y0271033D01*
X0019177Y0270882D01*
X0019124Y0270733D01*
X0019068Y0270585D01*
X0019008Y0270439D01*
X0018944Y0270294D01*
X0018876Y0270151D01*
X0018805Y0270009D01*
X0018731Y0269869D01*
X0018653Y0269732D01*
X0018571Y0269596D01*
X0018487Y0269462D01*
X0018398Y0269331D01*
X0018307Y0269202D01*
X0018212Y0269075D01*
X0018115Y0268950D01*
X0018014Y0268828D01*
X0017910Y0268709D01*
X0017803Y0268592D01*
X0017693Y0268478D01*
X0017580Y0268367D01*
X0017465Y0268258D01*
X0017347Y0268153D01*
X0017226Y0268051D01*
X0017103Y0267951D01*
X0016977Y0267855D01*
X0016849Y0267762D01*
X0016719Y0267672D01*
X0016586Y0267586D01*
X0016451Y0267502D01*
X0016315Y0267423D01*
X0016176Y0267346D01*
X0016035Y0267274D01*
X0015893Y0267204D01*
X0015749Y0267139D01*
X0015603Y0267077D01*
X0015456Y0267019D01*
X0015307Y0266964D01*
X0015157Y0266913D01*
X0015006Y0266866D01*
X0014854Y0266823D01*
X0014701Y0266784D01*
X0014546Y0266748D01*
X0014391Y0266717D01*
X0014235Y0266689D01*
X0014079Y0266665D01*
X0013922Y0266645D01*
X0013764Y0266629D01*
X0013607Y0266617D01*
X0013448Y0266609D01*
X0013290Y0266605D01*
X0013132Y0266605D01*
X0012974Y0266609D01*
X0012815Y0266617D01*
X0012658Y0266629D01*
X0012500Y0266645D01*
X0012343Y0266665D01*
X0012187Y0266689D01*
X0012031Y0266717D01*
X0011876Y0266748D01*
X0011721Y0266784D01*
X0011568Y0266823D01*
X0011416Y0266866D01*
X0011265Y0266913D01*
X0011115Y0266964D01*
X0010966Y0267019D01*
X0010819Y0267077D01*
X0010673Y0267139D01*
X0010529Y0267204D01*
X0010387Y0267274D01*
X0010246Y0267346D01*
X0010107Y0267423D01*
X0009971Y0267502D01*
X0009836Y0267586D01*
X0009703Y0267672D01*
X0009573Y0267762D01*
X0009445Y0267855D01*
X0009319Y0267951D01*
X0009196Y0268051D01*
X0009075Y0268153D01*
X0008957Y0268258D01*
X0008842Y0268367D01*
X0008729Y0268478D01*
X0008619Y0268592D01*
X0008512Y0268709D01*
X0008408Y0268828D01*
X0008307Y0268950D01*
X0008210Y0269075D01*
X0008115Y0269202D01*
X0008024Y0269331D01*
X0007935Y0269462D01*
X0007851Y0269596D01*
X0007769Y0269732D01*
X0007691Y0269869D01*
X0007617Y0270009D01*
X0007546Y0270151D01*
X0007478Y0270294D01*
X0007414Y0270439D01*
X0007354Y0270585D01*
X0007298Y0270733D01*
X0007245Y0270882D01*
X0007196Y0271033D01*
X0007151Y0271185D01*
X0007110Y0271338D01*
X0007072Y0271491D01*
X0007039Y0271646D01*
X0007009Y0271802D01*
X0006983Y0271958D01*
X0006962Y0272115D01*
X0006944Y0272272D01*
X0006930Y0272430D01*
X0006920Y0272588D01*
X0006914Y0272746D01*
X0006912Y0272904D01*
M02*
