G75*
%MOIN*%
%OFA0B0*%
%FSLAX25Y25*%
%IPPOS*%
%LPD*%
%AMOC8*
5,1,8,0,0,1.08239X$1,22.5*
%
%ADD10OC8,0.05200*%
%ADD11C,0.05200*%
%ADD12C,0.06299*%
%ADD13C,0.01000*%
%ADD14C,0.00500*%
D10*
X0046400Y0036250D03*
X0046400Y0046250D03*
X0046400Y0061250D03*
X0046400Y0071250D03*
X0046400Y0101250D03*
X0046400Y0111250D03*
X0046400Y0121250D03*
X0046400Y0131250D03*
X0046400Y0141250D03*
X0046400Y0171250D03*
X0046400Y0181250D03*
X0061400Y0211250D03*
X0046400Y0236250D03*
X0046400Y0246250D03*
X0081400Y0211250D03*
X0096400Y0231250D03*
X0106400Y0231250D03*
X0106400Y0251250D03*
X0096400Y0251250D03*
X0066400Y0141250D03*
X0066400Y0131250D03*
X0066400Y0121250D03*
X0066400Y0111250D03*
X0066400Y0101250D03*
X0076400Y0111250D03*
X0076400Y0121250D03*
X0096400Y0076250D03*
X0096400Y0056250D03*
D11*
X0086400Y0053850D02*
X0086400Y0048650D01*
X0088800Y0036250D02*
X0094000Y0036250D01*
X0076400Y0048650D02*
X0076400Y0053850D01*
X0066400Y0053850D02*
X0066400Y0048650D01*
X0064000Y0036250D02*
X0058800Y0036250D01*
X0056400Y0048650D02*
X0056400Y0053850D01*
X0056400Y0078650D02*
X0056400Y0083850D01*
X0066400Y0083850D02*
X0066400Y0078650D01*
X0076400Y0078650D02*
X0076400Y0083850D01*
X0086400Y0083850D02*
X0086400Y0078650D01*
X0086400Y0096050D02*
X0086400Y0101250D01*
X0096400Y0101250D02*
X0096400Y0096050D01*
X0106400Y0096050D02*
X0106400Y0101250D01*
X0116400Y0101250D02*
X0116400Y0096050D01*
X0116400Y0131250D02*
X0116400Y0136450D01*
X0106400Y0136450D02*
X0106400Y0131250D01*
X0096400Y0131250D02*
X0096400Y0136450D01*
X0086400Y0136450D02*
X0086400Y0131250D01*
X0086400Y0158650D02*
X0086400Y0163850D01*
X0076400Y0163850D02*
X0076400Y0158650D01*
X0066400Y0158650D02*
X0066400Y0163850D01*
X0056400Y0163850D02*
X0056400Y0158650D01*
X0056400Y0188650D02*
X0056400Y0193850D01*
X0066400Y0193850D02*
X0066400Y0188650D01*
X0076400Y0188650D02*
X0076400Y0193850D01*
X0086400Y0193850D02*
X0086400Y0188650D01*
X0096400Y0188650D02*
X0096400Y0193850D01*
X0106400Y0193850D02*
X0106400Y0188650D01*
X0116400Y0188650D02*
X0116400Y0193850D01*
X0116400Y0163850D02*
X0116400Y0158650D01*
X0106400Y0158650D02*
X0106400Y0163850D01*
X0096400Y0163850D02*
X0096400Y0158650D01*
X0086400Y0223650D02*
X0086400Y0228850D01*
X0076400Y0228850D02*
X0076400Y0223650D01*
X0066400Y0223650D02*
X0066400Y0228850D01*
X0056400Y0228850D02*
X0056400Y0223650D01*
X0056400Y0253650D02*
X0056400Y0258850D01*
X0066400Y0258850D02*
X0066400Y0253650D01*
X0076400Y0253650D02*
X0076400Y0258850D01*
X0086400Y0258850D02*
X0086400Y0253650D01*
D12*
X0119510Y0249281D03*
X0119510Y0241407D03*
X0119510Y0233533D03*
X0025022Y0241407D03*
X0025022Y0249281D03*
X0025022Y0154793D03*
X0025022Y0146919D03*
X0025022Y0139045D03*
X0025022Y0131171D03*
X0025022Y0107549D03*
X0025022Y0099675D03*
X0025022Y0091801D03*
X0025022Y0044557D03*
X0025022Y0036683D03*
X0119510Y0036683D03*
X0119510Y0044557D03*
D13*
X0119400Y0037250D02*
X0119510Y0036683D01*
X0119400Y0037250D02*
X0106400Y0050250D01*
X0106400Y0101250D01*
X0096400Y0101250D02*
X0096400Y0082250D01*
X0091400Y0077250D01*
X0091400Y0061250D01*
X0096400Y0056250D01*
X0079400Y0074250D02*
X0086400Y0081250D01*
X0079400Y0074250D02*
X0046400Y0074250D01*
X0046400Y0078250D01*
X0025400Y0099250D01*
X0025022Y0099675D01*
X0041400Y0100250D02*
X0041400Y0102250D01*
X0045400Y0106250D01*
X0047400Y0106250D01*
X0061400Y0120250D01*
X0065400Y0116250D01*
X0067400Y0116250D01*
X0072400Y0111250D01*
X0076400Y0111250D01*
X0066400Y0121250D02*
X0066400Y0125250D01*
X0091400Y0150250D01*
X0091400Y0166250D01*
X0116400Y0191250D01*
X0106400Y0191250D02*
X0076400Y0161250D01*
X0061400Y0176250D01*
X0061400Y0195250D01*
X0056400Y0200250D01*
X0056400Y0226250D01*
X0066400Y0226250D02*
X0046400Y0246250D01*
X0046400Y0236250D02*
X0046400Y0201250D01*
X0056400Y0191250D01*
X0056400Y0185250D01*
X0046400Y0175250D01*
X0046400Y0171250D01*
X0046400Y0141250D02*
X0035400Y0141250D01*
X0025400Y0131250D01*
X0025022Y0131171D01*
X0041400Y0100250D02*
X0056400Y0085250D01*
X0056400Y0081250D01*
X0046400Y0074250D02*
X0046400Y0071250D01*
X0046400Y0101250D02*
X0056400Y0101250D01*
X0076400Y0081250D01*
X0061400Y0120250D02*
X0051400Y0130250D01*
X0051400Y0136250D01*
X0046400Y0141250D01*
X0066400Y0191250D02*
X0073400Y0198250D01*
X0076400Y0198250D01*
X0076400Y0226250D01*
X0086400Y0226250D01*
X0096400Y0231250D02*
X0100400Y0231250D01*
X0119400Y0250250D01*
X0119510Y0249281D01*
X0096400Y0251250D02*
X0090400Y0251250D01*
X0088400Y0249250D01*
X0063400Y0249250D01*
X0056400Y0256250D01*
X0054400Y0263250D02*
X0069400Y0263250D01*
X0076400Y0256250D01*
X0054400Y0263250D02*
X0033400Y0242250D01*
X0025400Y0242250D01*
X0025022Y0241407D01*
X0076400Y0198250D02*
X0079400Y0198250D01*
X0086400Y0191250D01*
X0096400Y0161250D02*
X0096400Y0142250D01*
X0106400Y0132250D01*
X0106400Y0131250D01*
D14*
X0005650Y0020419D02*
X0005650Y0265546D01*
X0006734Y0264462D01*
X0009139Y0263073D01*
X0011822Y0262354D01*
X0014600Y0262354D01*
X0017283Y0263073D01*
X0019688Y0264462D01*
X0021652Y0266426D01*
X0023041Y0268832D01*
X0023760Y0271515D01*
X0023760Y0274292D01*
X0023041Y0276975D01*
X0021652Y0279381D01*
X0020569Y0280465D01*
X0123963Y0280465D01*
X0122880Y0279381D01*
X0121491Y0276975D01*
X0120772Y0274292D01*
X0120772Y0271515D01*
X0121491Y0268832D01*
X0122880Y0266426D01*
X0124844Y0264462D01*
X0127249Y0263073D01*
X0129932Y0262354D01*
X0132710Y0262354D01*
X0135393Y0263073D01*
X0137799Y0264462D01*
X0138882Y0265546D01*
X0138882Y0020419D01*
X0137799Y0021502D01*
X0135393Y0022891D01*
X0132710Y0023610D01*
X0129932Y0023610D01*
X0127249Y0022891D01*
X0124844Y0021502D01*
X0122880Y0019538D01*
X0121491Y0017133D01*
X0120772Y0014450D01*
X0120772Y0011672D01*
X0121491Y0008989D01*
X0122880Y0006584D01*
X0123963Y0005500D01*
X0020569Y0005500D01*
X0021652Y0006584D01*
X0023041Y0008989D01*
X0023760Y0011672D01*
X0023760Y0014450D01*
X0023041Y0017133D01*
X0021652Y0019538D01*
X0019688Y0021502D01*
X0017283Y0022891D01*
X0014600Y0023610D01*
X0011822Y0023610D01*
X0009139Y0022891D01*
X0006734Y0021502D01*
X0005650Y0020419D01*
X0005650Y0020692D02*
X0005923Y0020692D01*
X0005650Y0021190D02*
X0006422Y0021190D01*
X0007057Y0021689D02*
X0005650Y0021689D01*
X0005650Y0022187D02*
X0007920Y0022187D01*
X0008784Y0022686D02*
X0005650Y0022686D01*
X0005650Y0023184D02*
X0010233Y0023184D01*
X0005650Y0023683D02*
X0138882Y0023683D01*
X0138882Y0023184D02*
X0134299Y0023184D01*
X0135749Y0022686D02*
X0138882Y0022686D01*
X0138882Y0022187D02*
X0136612Y0022187D01*
X0137476Y0021689D02*
X0138882Y0021689D01*
X0138882Y0021190D02*
X0138111Y0021190D01*
X0138609Y0020692D02*
X0138882Y0020692D01*
X0138882Y0024182D02*
X0005650Y0024182D01*
X0005650Y0024680D02*
X0138882Y0024680D01*
X0138882Y0025179D02*
X0005650Y0025179D01*
X0005650Y0025677D02*
X0138882Y0025677D01*
X0138882Y0026176D02*
X0005650Y0026176D01*
X0005650Y0026674D02*
X0138882Y0026674D01*
X0138882Y0027173D02*
X0005650Y0027173D01*
X0005650Y0027671D02*
X0138882Y0027671D01*
X0138882Y0028170D02*
X0005650Y0028170D01*
X0005650Y0028668D02*
X0138882Y0028668D01*
X0138882Y0029167D02*
X0005650Y0029167D01*
X0005650Y0029665D02*
X0138882Y0029665D01*
X0138882Y0030164D02*
X0005650Y0030164D01*
X0005650Y0030662D02*
X0138882Y0030662D01*
X0138882Y0031161D02*
X0005650Y0031161D01*
X0005650Y0031659D02*
X0138882Y0031659D01*
X0138882Y0032158D02*
X0005650Y0032158D01*
X0005650Y0032656D02*
X0023247Y0032656D01*
X0022530Y0032953D02*
X0024147Y0032283D01*
X0025897Y0032283D01*
X0027514Y0032953D01*
X0028752Y0034191D01*
X0029422Y0035808D01*
X0029422Y0037558D01*
X0028752Y0039175D01*
X0027514Y0040413D01*
X0026999Y0040626D01*
X0027328Y0040794D01*
X0027888Y0041201D01*
X0028378Y0041691D01*
X0028785Y0042251D01*
X0029099Y0042868D01*
X0029313Y0043527D01*
X0029422Y0044211D01*
X0029422Y0044307D01*
X0025272Y0044307D01*
X0025272Y0044807D01*
X0029422Y0044807D01*
X0029422Y0044903D01*
X0029313Y0045587D01*
X0029099Y0046246D01*
X0028785Y0046863D01*
X0028378Y0047423D01*
X0027888Y0047913D01*
X0027328Y0048320D01*
X0026711Y0048634D01*
X0026052Y0048848D01*
X0025368Y0048957D01*
X0025272Y0048957D01*
X0025272Y0044807D01*
X0024772Y0044807D01*
X0024772Y0044307D01*
X0020622Y0044307D01*
X0020622Y0044211D01*
X0020731Y0043527D01*
X0020945Y0042868D01*
X0021259Y0042251D01*
X0021666Y0041691D01*
X0022156Y0041201D01*
X0022716Y0040794D01*
X0023045Y0040626D01*
X0022530Y0040413D01*
X0021292Y0039175D01*
X0020622Y0037558D01*
X0020622Y0035808D01*
X0021292Y0034191D01*
X0022530Y0032953D01*
X0022328Y0033155D02*
X0005650Y0033155D01*
X0005650Y0033653D02*
X0021830Y0033653D01*
X0021331Y0034152D02*
X0005650Y0034152D01*
X0005650Y0034650D02*
X0021102Y0034650D01*
X0020895Y0035149D02*
X0005650Y0035149D01*
X0005650Y0035647D02*
X0020689Y0035647D01*
X0020622Y0036146D02*
X0005650Y0036146D01*
X0005650Y0036644D02*
X0020622Y0036644D01*
X0020622Y0037143D02*
X0005650Y0037143D01*
X0005650Y0037641D02*
X0020657Y0037641D01*
X0020863Y0038140D02*
X0005650Y0038140D01*
X0005650Y0038638D02*
X0021070Y0038638D01*
X0021276Y0039137D02*
X0005650Y0039137D01*
X0005650Y0039635D02*
X0021752Y0039635D01*
X0022251Y0040134D02*
X0005650Y0040134D01*
X0005650Y0040632D02*
X0023034Y0040632D01*
X0022253Y0041131D02*
X0005650Y0041131D01*
X0005650Y0041629D02*
X0021728Y0041629D01*
X0021349Y0042128D02*
X0005650Y0042128D01*
X0005650Y0042626D02*
X0021068Y0042626D01*
X0020861Y0043125D02*
X0005650Y0043125D01*
X0005650Y0043623D02*
X0020715Y0043623D01*
X0020637Y0044122D02*
X0005650Y0044122D01*
X0005650Y0044620D02*
X0024772Y0044620D01*
X0024772Y0044807D02*
X0020622Y0044807D01*
X0020622Y0044903D01*
X0020731Y0045587D01*
X0020945Y0046246D01*
X0021259Y0046863D01*
X0021666Y0047423D01*
X0022156Y0047913D01*
X0022716Y0048320D01*
X0023333Y0048634D01*
X0023992Y0048848D01*
X0024676Y0048957D01*
X0024772Y0048957D01*
X0024772Y0044807D01*
X0024772Y0045119D02*
X0025272Y0045119D01*
X0025272Y0045618D02*
X0024772Y0045618D01*
X0024772Y0046116D02*
X0025272Y0046116D01*
X0025272Y0046615D02*
X0024772Y0046615D01*
X0024772Y0047113D02*
X0025272Y0047113D01*
X0025272Y0047612D02*
X0024772Y0047612D01*
X0024772Y0048110D02*
X0025272Y0048110D01*
X0025272Y0048609D02*
X0024772Y0048609D01*
X0023283Y0048609D02*
X0005650Y0048609D01*
X0005650Y0049107D02*
X0043812Y0049107D01*
X0043314Y0048609D02*
X0026761Y0048609D01*
X0027617Y0048110D02*
X0042815Y0048110D01*
X0042550Y0047845D02*
X0042550Y0046500D01*
X0046150Y0046500D01*
X0046150Y0050100D01*
X0044805Y0050100D01*
X0042550Y0047845D01*
X0042550Y0047612D02*
X0028190Y0047612D01*
X0028603Y0047113D02*
X0042550Y0047113D01*
X0042550Y0046615D02*
X0028912Y0046615D01*
X0029142Y0046116D02*
X0046150Y0046116D01*
X0046150Y0046000D02*
X0042550Y0046000D01*
X0042550Y0044655D01*
X0044805Y0042400D01*
X0046150Y0042400D01*
X0046150Y0046000D01*
X0046150Y0046500D01*
X0046650Y0046500D01*
X0046650Y0050100D01*
X0047995Y0050100D01*
X0050250Y0047845D01*
X0050250Y0046500D01*
X0046650Y0046500D01*
X0046650Y0046000D01*
X0050250Y0046000D01*
X0050250Y0044655D01*
X0047995Y0042400D01*
X0046650Y0042400D01*
X0046650Y0046000D01*
X0046150Y0046000D01*
X0046150Y0045618D02*
X0046650Y0045618D01*
X0046650Y0046116D02*
X0053489Y0046116D01*
X0053136Y0046469D02*
X0054219Y0045386D01*
X0055634Y0044800D01*
X0057166Y0044800D01*
X0058581Y0045386D01*
X0059664Y0046469D01*
X0060250Y0047884D01*
X0060250Y0054616D01*
X0059664Y0056031D01*
X0058581Y0057114D01*
X0057166Y0057700D01*
X0055634Y0057700D01*
X0054219Y0057114D01*
X0053136Y0056031D01*
X0052550Y0054616D01*
X0052550Y0047884D01*
X0053136Y0046469D01*
X0053076Y0046615D02*
X0050250Y0046615D01*
X0050250Y0047113D02*
X0052869Y0047113D01*
X0052663Y0047612D02*
X0050250Y0047612D01*
X0049985Y0048110D02*
X0052550Y0048110D01*
X0052550Y0048609D02*
X0049486Y0048609D01*
X0048988Y0049107D02*
X0052550Y0049107D01*
X0052550Y0049606D02*
X0048489Y0049606D01*
X0046650Y0049606D02*
X0046150Y0049606D01*
X0046150Y0049107D02*
X0046650Y0049107D01*
X0046650Y0048609D02*
X0046150Y0048609D01*
X0046150Y0048110D02*
X0046650Y0048110D01*
X0046650Y0047612D02*
X0046150Y0047612D01*
X0046150Y0047113D02*
X0046650Y0047113D01*
X0046650Y0046615D02*
X0046150Y0046615D01*
X0046150Y0045119D02*
X0046650Y0045119D01*
X0046650Y0044620D02*
X0046150Y0044620D01*
X0046150Y0044122D02*
X0046650Y0044122D01*
X0046650Y0043623D02*
X0046150Y0043623D01*
X0046150Y0043125D02*
X0046650Y0043125D01*
X0046650Y0042626D02*
X0046150Y0042626D01*
X0044579Y0042626D02*
X0028976Y0042626D01*
X0029183Y0043125D02*
X0044080Y0043125D01*
X0043582Y0043623D02*
X0029329Y0043623D01*
X0029408Y0044122D02*
X0043083Y0044122D01*
X0042585Y0044620D02*
X0025272Y0044620D01*
X0027010Y0040632D02*
X0113543Y0040632D01*
X0114041Y0040134D02*
X0027793Y0040134D01*
X0028292Y0039635D02*
X0044341Y0039635D01*
X0044805Y0040100D02*
X0042550Y0037845D01*
X0042550Y0034655D01*
X0044805Y0032400D01*
X0047995Y0032400D01*
X0050250Y0034655D01*
X0050250Y0037845D01*
X0047995Y0040100D01*
X0044805Y0040100D01*
X0043842Y0039137D02*
X0028768Y0039137D01*
X0028974Y0038638D02*
X0043344Y0038638D01*
X0042845Y0038140D02*
X0029181Y0038140D01*
X0029387Y0037641D02*
X0042550Y0037641D01*
X0042550Y0037143D02*
X0029422Y0037143D01*
X0029422Y0036644D02*
X0042550Y0036644D01*
X0042550Y0036146D02*
X0029422Y0036146D01*
X0029355Y0035647D02*
X0042550Y0035647D01*
X0042550Y0035149D02*
X0029149Y0035149D01*
X0028942Y0034650D02*
X0042555Y0034650D01*
X0043054Y0034152D02*
X0028713Y0034152D01*
X0028214Y0033653D02*
X0043552Y0033653D01*
X0044051Y0033155D02*
X0027716Y0033155D01*
X0026797Y0032656D02*
X0044549Y0032656D01*
X0048251Y0032656D02*
X0057416Y0032656D01*
X0058034Y0032400D02*
X0056619Y0032986D01*
X0055536Y0034069D01*
X0054950Y0035484D01*
X0054950Y0037016D01*
X0055536Y0038431D01*
X0056619Y0039514D01*
X0058034Y0040100D01*
X0064766Y0040100D01*
X0066181Y0039514D01*
X0067264Y0038431D01*
X0067850Y0037016D01*
X0067850Y0035484D01*
X0067264Y0034069D01*
X0066181Y0032986D01*
X0064766Y0032400D01*
X0058034Y0032400D01*
X0056451Y0033155D02*
X0048749Y0033155D01*
X0049248Y0033653D02*
X0055952Y0033653D01*
X0055502Y0034152D02*
X0049746Y0034152D01*
X0050245Y0034650D02*
X0055295Y0034650D01*
X0055089Y0035149D02*
X0050250Y0035149D01*
X0050250Y0035647D02*
X0054950Y0035647D01*
X0054950Y0036146D02*
X0050250Y0036146D01*
X0050250Y0036644D02*
X0054950Y0036644D01*
X0055003Y0037143D02*
X0050250Y0037143D01*
X0050250Y0037641D02*
X0055209Y0037641D01*
X0055416Y0038140D02*
X0049955Y0038140D01*
X0049456Y0038638D02*
X0055744Y0038638D01*
X0056242Y0039137D02*
X0048958Y0039137D01*
X0048459Y0039635D02*
X0056912Y0039635D01*
X0057936Y0045119D02*
X0064864Y0045119D01*
X0064219Y0045386D02*
X0065634Y0044800D01*
X0067166Y0044800D01*
X0068581Y0045386D01*
X0069664Y0046469D01*
X0070250Y0047884D01*
X0070250Y0054616D01*
X0069664Y0056031D01*
X0068581Y0057114D01*
X0067166Y0057700D01*
X0065634Y0057700D01*
X0064219Y0057114D01*
X0063136Y0056031D01*
X0062550Y0054616D01*
X0062550Y0047884D01*
X0063136Y0046469D01*
X0064219Y0045386D01*
X0063988Y0045618D02*
X0058812Y0045618D01*
X0059311Y0046116D02*
X0063489Y0046116D01*
X0063076Y0046615D02*
X0059724Y0046615D01*
X0059931Y0047113D02*
X0062869Y0047113D01*
X0062663Y0047612D02*
X0060137Y0047612D01*
X0060250Y0048110D02*
X0062550Y0048110D01*
X0062550Y0048609D02*
X0060250Y0048609D01*
X0060250Y0049107D02*
X0062550Y0049107D01*
X0062550Y0049606D02*
X0060250Y0049606D01*
X0060250Y0050104D02*
X0062550Y0050104D01*
X0062550Y0050603D02*
X0060250Y0050603D01*
X0060250Y0051101D02*
X0062550Y0051101D01*
X0062550Y0051600D02*
X0060250Y0051600D01*
X0060250Y0052098D02*
X0062550Y0052098D01*
X0062550Y0052597D02*
X0060250Y0052597D01*
X0060250Y0053095D02*
X0062550Y0053095D01*
X0062550Y0053594D02*
X0060250Y0053594D01*
X0060250Y0054092D02*
X0062550Y0054092D01*
X0062550Y0054591D02*
X0060250Y0054591D01*
X0060054Y0055089D02*
X0062746Y0055089D01*
X0062953Y0055588D02*
X0059847Y0055588D01*
X0059608Y0056086D02*
X0063192Y0056086D01*
X0063690Y0056585D02*
X0059110Y0056585D01*
X0058611Y0057083D02*
X0064189Y0057083D01*
X0065349Y0057582D02*
X0057451Y0057582D01*
X0055349Y0057582D02*
X0048176Y0057582D01*
X0047995Y0057400D02*
X0050250Y0059655D01*
X0050250Y0062845D01*
X0047995Y0065100D01*
X0044805Y0065100D01*
X0042550Y0062845D01*
X0042550Y0059655D01*
X0044805Y0057400D01*
X0047995Y0057400D01*
X0048675Y0058080D02*
X0092095Y0058080D01*
X0092550Y0057625D02*
X0089650Y0060525D01*
X0089650Y0076584D01*
X0089390Y0076196D01*
X0088854Y0075660D01*
X0088224Y0075238D01*
X0087523Y0074948D01*
X0086779Y0074800D01*
X0086650Y0074800D01*
X0086650Y0081000D01*
X0086650Y0081500D01*
X0086150Y0081500D01*
X0086150Y0087700D01*
X0086021Y0087700D01*
X0085277Y0087552D01*
X0084576Y0087262D01*
X0083946Y0086840D01*
X0083410Y0086304D01*
X0082988Y0085674D01*
X0082698Y0084973D01*
X0082550Y0084229D01*
X0082550Y0081500D01*
X0086150Y0081500D01*
X0086150Y0081000D01*
X0086650Y0081000D01*
X0090250Y0081000D01*
X0090250Y0078575D01*
X0090675Y0079000D01*
X0094650Y0082975D01*
X0094650Y0092608D01*
X0094219Y0092786D01*
X0093136Y0093869D01*
X0092550Y0095284D01*
X0092550Y0102016D01*
X0093136Y0103431D01*
X0094219Y0104514D01*
X0095634Y0105100D01*
X0097166Y0105100D01*
X0098581Y0104514D01*
X0099664Y0103431D01*
X0100250Y0102016D01*
X0100250Y0095284D01*
X0099664Y0093869D01*
X0098581Y0092786D01*
X0098150Y0092608D01*
X0098150Y0081525D01*
X0096725Y0080100D01*
X0097995Y0080100D01*
X0100250Y0077845D01*
X0100250Y0074655D01*
X0097995Y0072400D01*
X0094805Y0072400D01*
X0093150Y0074055D01*
X0093150Y0061975D01*
X0095025Y0060100D01*
X0097995Y0060100D01*
X0100250Y0057845D01*
X0100250Y0054655D01*
X0097995Y0052400D01*
X0094805Y0052400D01*
X0092550Y0054655D01*
X0092550Y0057625D01*
X0092550Y0057582D02*
X0087451Y0057582D01*
X0087166Y0057700D02*
X0085634Y0057700D01*
X0084219Y0057114D01*
X0083136Y0056031D01*
X0082550Y0054616D01*
X0082550Y0047884D01*
X0083136Y0046469D01*
X0084219Y0045386D01*
X0085634Y0044800D01*
X0087166Y0044800D01*
X0088581Y0045386D01*
X0089664Y0046469D01*
X0090250Y0047884D01*
X0090250Y0054616D01*
X0089664Y0056031D01*
X0088581Y0057114D01*
X0087166Y0057700D01*
X0088611Y0057083D02*
X0092550Y0057083D01*
X0092550Y0056585D02*
X0089110Y0056585D01*
X0089608Y0056086D02*
X0092550Y0056086D01*
X0092550Y0055588D02*
X0089847Y0055588D01*
X0090054Y0055089D02*
X0092550Y0055089D01*
X0092615Y0054591D02*
X0090250Y0054591D01*
X0090250Y0054092D02*
X0093113Y0054092D01*
X0093612Y0053594D02*
X0090250Y0053594D01*
X0090250Y0053095D02*
X0094110Y0053095D01*
X0094609Y0052597D02*
X0090250Y0052597D01*
X0090250Y0052098D02*
X0104650Y0052098D01*
X0104650Y0051600D02*
X0090250Y0051600D01*
X0090250Y0051101D02*
X0104650Y0051101D01*
X0104650Y0050603D02*
X0090250Y0050603D01*
X0090250Y0050104D02*
X0104650Y0050104D01*
X0104650Y0049606D02*
X0090250Y0049606D01*
X0090250Y0049107D02*
X0105068Y0049107D01*
X0104650Y0049525D02*
X0115552Y0038623D01*
X0115111Y0037558D01*
X0115111Y0035808D01*
X0115780Y0034191D01*
X0117018Y0032953D01*
X0118635Y0032283D01*
X0120385Y0032283D01*
X0122002Y0032953D01*
X0123240Y0034191D01*
X0123910Y0035808D01*
X0123910Y0037558D01*
X0123240Y0039175D01*
X0122002Y0040413D01*
X0121502Y0040620D01*
X0122002Y0040827D01*
X0123240Y0042065D01*
X0123910Y0043682D01*
X0123910Y0045432D01*
X0123240Y0047049D01*
X0122002Y0048287D01*
X0120385Y0048957D01*
X0118635Y0048957D01*
X0117018Y0048287D01*
X0115780Y0047049D01*
X0115111Y0045432D01*
X0115111Y0044014D01*
X0108150Y0050975D01*
X0108150Y0092608D01*
X0108581Y0092786D01*
X0109664Y0093869D01*
X0110250Y0095284D01*
X0110250Y0102016D01*
X0109664Y0103431D01*
X0108581Y0104514D01*
X0107166Y0105100D01*
X0105634Y0105100D01*
X0104219Y0104514D01*
X0103136Y0103431D01*
X0102550Y0102016D01*
X0102550Y0095284D01*
X0103136Y0093869D01*
X0104219Y0092786D01*
X0104650Y0092608D01*
X0104650Y0049525D01*
X0105567Y0048609D02*
X0090250Y0048609D01*
X0090250Y0048110D02*
X0106065Y0048110D01*
X0106564Y0047612D02*
X0090137Y0047612D01*
X0089931Y0047113D02*
X0107062Y0047113D01*
X0107561Y0046615D02*
X0089724Y0046615D01*
X0089311Y0046116D02*
X0108059Y0046116D01*
X0108558Y0045618D02*
X0088812Y0045618D01*
X0087936Y0045119D02*
X0109056Y0045119D01*
X0109555Y0044620D02*
X0050215Y0044620D01*
X0050250Y0045119D02*
X0054864Y0045119D01*
X0053988Y0045618D02*
X0050250Y0045618D01*
X0049717Y0044122D02*
X0110053Y0044122D01*
X0110552Y0043623D02*
X0049218Y0043623D01*
X0048720Y0043125D02*
X0111050Y0043125D01*
X0111549Y0042626D02*
X0048221Y0042626D01*
X0044311Y0049606D02*
X0005650Y0049606D01*
X0005650Y0050104D02*
X0052550Y0050104D01*
X0052550Y0050603D02*
X0005650Y0050603D01*
X0005650Y0051101D02*
X0052550Y0051101D01*
X0052550Y0051600D02*
X0005650Y0051600D01*
X0005650Y0052098D02*
X0052550Y0052098D01*
X0052550Y0052597D02*
X0005650Y0052597D01*
X0005650Y0053095D02*
X0052550Y0053095D01*
X0052550Y0053594D02*
X0005650Y0053594D01*
X0005650Y0054092D02*
X0052550Y0054092D01*
X0052550Y0054591D02*
X0005650Y0054591D01*
X0005650Y0055089D02*
X0052746Y0055089D01*
X0052953Y0055588D02*
X0005650Y0055588D01*
X0005650Y0056086D02*
X0053192Y0056086D01*
X0053690Y0056585D02*
X0005650Y0056585D01*
X0005650Y0057083D02*
X0054189Y0057083D01*
X0050171Y0059576D02*
X0090599Y0059576D01*
X0090101Y0060074D02*
X0050250Y0060074D01*
X0050250Y0060573D02*
X0089650Y0060573D01*
X0089650Y0061071D02*
X0050250Y0061071D01*
X0050250Y0061570D02*
X0089650Y0061570D01*
X0089650Y0062068D02*
X0050250Y0062068D01*
X0050250Y0062567D02*
X0089650Y0062567D01*
X0089650Y0063065D02*
X0050029Y0063065D01*
X0049531Y0063564D02*
X0089650Y0063564D01*
X0089650Y0064062D02*
X0049032Y0064062D01*
X0048534Y0064561D02*
X0089650Y0064561D01*
X0089650Y0065059D02*
X0048035Y0065059D01*
X0047995Y0067400D02*
X0046650Y0067400D01*
X0046650Y0071000D01*
X0046650Y0071500D01*
X0046150Y0071500D01*
X0046150Y0075100D01*
X0044805Y0075100D01*
X0042550Y0072845D01*
X0042550Y0071500D01*
X0046150Y0071500D01*
X0046150Y0071000D01*
X0042550Y0071000D01*
X0042550Y0069655D01*
X0044805Y0067400D01*
X0046150Y0067400D01*
X0046150Y0071000D01*
X0046650Y0071000D01*
X0050250Y0071000D01*
X0050250Y0069655D01*
X0047995Y0067400D01*
X0048147Y0067552D02*
X0089650Y0067552D01*
X0089650Y0068051D02*
X0048645Y0068051D01*
X0049144Y0068549D02*
X0089650Y0068549D01*
X0089650Y0069048D02*
X0049642Y0069048D01*
X0050141Y0069546D02*
X0089650Y0069546D01*
X0089650Y0070045D02*
X0050250Y0070045D01*
X0050250Y0070543D02*
X0089650Y0070543D01*
X0089650Y0071042D02*
X0046650Y0071042D01*
X0046650Y0071500D02*
X0050250Y0071500D01*
X0050250Y0072845D01*
X0047995Y0075100D01*
X0046650Y0075100D01*
X0046650Y0071500D01*
X0046650Y0071540D02*
X0046150Y0071540D01*
X0046150Y0071042D02*
X0005650Y0071042D01*
X0005650Y0071540D02*
X0042550Y0071540D01*
X0042550Y0072039D02*
X0005650Y0072039D01*
X0005650Y0072537D02*
X0042550Y0072537D01*
X0042741Y0073036D02*
X0005650Y0073036D01*
X0005650Y0073534D02*
X0043239Y0073534D01*
X0043738Y0074033D02*
X0005650Y0074033D01*
X0005650Y0074531D02*
X0044236Y0074531D01*
X0044735Y0075030D02*
X0005650Y0075030D01*
X0005650Y0075528D02*
X0054077Y0075528D01*
X0054219Y0075386D02*
X0055634Y0074800D01*
X0057166Y0074800D01*
X0058581Y0075386D01*
X0059664Y0076469D01*
X0060250Y0077884D01*
X0060250Y0084616D01*
X0059664Y0086031D01*
X0058581Y0087114D01*
X0057166Y0087700D01*
X0056425Y0087700D01*
X0046725Y0097400D01*
X0047995Y0097400D01*
X0050095Y0099500D01*
X0055675Y0099500D01*
X0067694Y0087481D01*
X0067166Y0087700D01*
X0065634Y0087700D01*
X0064219Y0087114D01*
X0063136Y0086031D01*
X0062550Y0084616D01*
X0062550Y0077884D01*
X0063136Y0076469D01*
X0064219Y0075386D01*
X0065634Y0074800D01*
X0067166Y0074800D01*
X0068581Y0075386D01*
X0069664Y0076469D01*
X0070250Y0077884D01*
X0070250Y0084616D01*
X0070031Y0085144D01*
X0072550Y0082625D01*
X0072550Y0077884D01*
X0073136Y0076469D01*
X0074219Y0075386D01*
X0075634Y0074800D01*
X0077166Y0074800D01*
X0078581Y0075386D01*
X0079664Y0076469D01*
X0080250Y0077884D01*
X0080250Y0084616D01*
X0079664Y0086031D01*
X0078581Y0087114D01*
X0077166Y0087700D01*
X0075634Y0087700D01*
X0074219Y0087114D01*
X0073615Y0086510D01*
X0058150Y0101975D01*
X0057125Y0103000D01*
X0050095Y0103000D01*
X0048360Y0104735D01*
X0061400Y0117775D01*
X0064440Y0114735D01*
X0062550Y0112845D01*
X0062550Y0111500D01*
X0066150Y0111500D01*
X0066150Y0111000D01*
X0066650Y0111000D01*
X0066650Y0107400D01*
X0067995Y0107400D01*
X0070250Y0109655D01*
X0070250Y0110925D01*
X0071675Y0109500D01*
X0072705Y0109500D01*
X0074805Y0107400D01*
X0077995Y0107400D01*
X0080250Y0109655D01*
X0080250Y0112845D01*
X0077995Y0115100D01*
X0074805Y0115100D01*
X0072915Y0113210D01*
X0069150Y0116975D01*
X0068360Y0117765D01*
X0070250Y0119655D01*
X0070250Y0122845D01*
X0068360Y0124735D01*
X0092125Y0148500D01*
X0093150Y0149525D01*
X0093150Y0156455D01*
X0094219Y0155386D01*
X0094650Y0155208D01*
X0094650Y0141525D01*
X0095875Y0140300D01*
X0095634Y0140300D01*
X0094219Y0139714D01*
X0093136Y0138631D01*
X0092550Y0137216D01*
X0092550Y0130484D01*
X0093136Y0129069D01*
X0094219Y0127986D01*
X0095634Y0127400D01*
X0097166Y0127400D01*
X0098581Y0127986D01*
X0099664Y0129069D01*
X0100250Y0130484D01*
X0100250Y0135925D01*
X0102550Y0133625D01*
X0102550Y0130484D01*
X0103136Y0129069D01*
X0104219Y0127986D01*
X0105634Y0127400D01*
X0107166Y0127400D01*
X0108581Y0127986D01*
X0109664Y0129069D01*
X0110250Y0130484D01*
X0110250Y0137216D01*
X0109664Y0138631D01*
X0108581Y0139714D01*
X0107166Y0140300D01*
X0105634Y0140300D01*
X0104219Y0139714D01*
X0103136Y0138631D01*
X0102948Y0138177D01*
X0098150Y0142975D01*
X0098150Y0155208D01*
X0098581Y0155386D01*
X0099664Y0156469D01*
X0100250Y0157884D01*
X0100250Y0164616D01*
X0099664Y0166031D01*
X0098581Y0167114D01*
X0097166Y0167700D01*
X0095634Y0167700D01*
X0095106Y0167481D01*
X0113615Y0185990D01*
X0114219Y0185386D01*
X0115634Y0184800D01*
X0117166Y0184800D01*
X0118581Y0185386D01*
X0119664Y0186469D01*
X0120250Y0187884D01*
X0120250Y0194616D01*
X0119664Y0196031D01*
X0118581Y0197114D01*
X0117166Y0197700D01*
X0115634Y0197700D01*
X0114219Y0197114D01*
X0113136Y0196031D01*
X0112550Y0194616D01*
X0112550Y0189875D01*
X0110031Y0187356D01*
X0110250Y0187884D01*
X0110250Y0194616D01*
X0109664Y0196031D01*
X0108581Y0197114D01*
X0107166Y0197700D01*
X0105634Y0197700D01*
X0104219Y0197114D01*
X0103136Y0196031D01*
X0102550Y0194616D01*
X0102550Y0189875D01*
X0100031Y0187356D01*
X0100250Y0187884D01*
X0100250Y0194616D01*
X0099664Y0196031D01*
X0098581Y0197114D01*
X0097166Y0197700D01*
X0095634Y0197700D01*
X0094219Y0197114D01*
X0093136Y0196031D01*
X0092550Y0194616D01*
X0092550Y0187884D01*
X0093136Y0186469D01*
X0094219Y0185386D01*
X0095634Y0184800D01*
X0097166Y0184800D01*
X0097694Y0185019D01*
X0079185Y0166510D01*
X0078581Y0167114D01*
X0077166Y0167700D01*
X0075634Y0167700D01*
X0074219Y0167114D01*
X0073615Y0166510D01*
X0063150Y0176975D01*
X0063150Y0186584D01*
X0063410Y0186196D01*
X0063946Y0185660D01*
X0064576Y0185238D01*
X0065277Y0184948D01*
X0066021Y0184800D01*
X0066150Y0184800D01*
X0066150Y0191000D01*
X0066650Y0191000D01*
X0066650Y0191500D01*
X0066150Y0191500D01*
X0066150Y0197700D01*
X0066021Y0197700D01*
X0065277Y0197552D01*
X0064576Y0197262D01*
X0063946Y0196840D01*
X0063410Y0196304D01*
X0063150Y0195916D01*
X0063150Y0195975D01*
X0062125Y0197000D01*
X0058150Y0200975D01*
X0058150Y0209055D01*
X0059805Y0207400D01*
X0062995Y0207400D01*
X0065250Y0209655D01*
X0065250Y0212845D01*
X0062995Y0215100D01*
X0059805Y0215100D01*
X0058150Y0213445D01*
X0058150Y0220208D01*
X0058581Y0220386D01*
X0059664Y0221469D01*
X0060250Y0222884D01*
X0060250Y0229616D01*
X0059664Y0231031D01*
X0058581Y0232114D01*
X0057166Y0232700D01*
X0055634Y0232700D01*
X0054219Y0232114D01*
X0053136Y0231031D01*
X0052550Y0229616D01*
X0052550Y0222884D01*
X0053136Y0221469D01*
X0054219Y0220386D01*
X0054650Y0220208D01*
X0054650Y0199525D01*
X0056475Y0197700D01*
X0055634Y0197700D01*
X0054219Y0197114D01*
X0053615Y0196510D01*
X0048150Y0201975D01*
X0048150Y0232555D01*
X0050250Y0234655D01*
X0050250Y0237845D01*
X0047995Y0240100D01*
X0044805Y0240100D01*
X0042550Y0237845D01*
X0042550Y0234655D01*
X0044650Y0232555D01*
X0044650Y0200525D01*
X0052550Y0192625D01*
X0052550Y0187884D01*
X0053136Y0186469D01*
X0054140Y0185465D01*
X0050250Y0181575D01*
X0050250Y0182845D01*
X0047995Y0185100D01*
X0046650Y0185100D01*
X0046650Y0181500D01*
X0046150Y0181500D01*
X0046150Y0185100D01*
X0044805Y0185100D01*
X0042550Y0182845D01*
X0042550Y0181500D01*
X0046150Y0181500D01*
X0046150Y0181000D01*
X0042550Y0181000D01*
X0042550Y0179655D01*
X0044805Y0177400D01*
X0046075Y0177400D01*
X0044650Y0175975D01*
X0044650Y0174945D01*
X0042550Y0172845D01*
X0042550Y0169655D01*
X0044805Y0167400D01*
X0047995Y0167400D01*
X0050250Y0169655D01*
X0050250Y0172845D01*
X0048360Y0174735D01*
X0057125Y0183500D01*
X0058150Y0184525D01*
X0058150Y0185208D01*
X0058581Y0185386D01*
X0059650Y0186455D01*
X0059650Y0175525D01*
X0067694Y0167481D01*
X0067166Y0167700D01*
X0065634Y0167700D01*
X0064219Y0167114D01*
X0063136Y0166031D01*
X0062550Y0164616D01*
X0062550Y0157884D01*
X0063136Y0156469D01*
X0064219Y0155386D01*
X0065634Y0154800D01*
X0067166Y0154800D01*
X0068581Y0155386D01*
X0069664Y0156469D01*
X0070250Y0157884D01*
X0070250Y0164616D01*
X0070031Y0165144D01*
X0072550Y0162625D01*
X0072550Y0157884D01*
X0073136Y0156469D01*
X0074219Y0155386D01*
X0075634Y0154800D01*
X0077166Y0154800D01*
X0078581Y0155386D01*
X0079664Y0156469D01*
X0080250Y0157884D01*
X0080250Y0162625D01*
X0082769Y0165144D01*
X0082550Y0164616D01*
X0082550Y0157884D01*
X0083136Y0156469D01*
X0084219Y0155386D01*
X0085634Y0154800D01*
X0087166Y0154800D01*
X0088581Y0155386D01*
X0089650Y0156455D01*
X0089650Y0150975D01*
X0070250Y0131575D01*
X0070250Y0132845D01*
X0067995Y0135100D01*
X0064805Y0135100D01*
X0062550Y0132845D01*
X0062550Y0129655D01*
X0064805Y0127400D01*
X0066075Y0127400D01*
X0064650Y0125975D01*
X0064650Y0124945D01*
X0062550Y0122845D01*
X0062550Y0121575D01*
X0062125Y0122000D01*
X0053150Y0130975D01*
X0053150Y0136975D01*
X0050250Y0139875D01*
X0050250Y0142845D01*
X0047995Y0145100D01*
X0044805Y0145100D01*
X0042705Y0143000D01*
X0034675Y0143000D01*
X0029122Y0137447D01*
X0029422Y0138170D01*
X0029422Y0139920D01*
X0028752Y0141537D01*
X0027514Y0142775D01*
X0027014Y0142982D01*
X0027514Y0143189D01*
X0028752Y0144427D01*
X0029422Y0146044D01*
X0029422Y0147794D01*
X0028752Y0149411D01*
X0027514Y0150649D01*
X0027014Y0150856D01*
X0027514Y0151063D01*
X0028752Y0152301D01*
X0029422Y0153918D01*
X0029422Y0155668D01*
X0028752Y0157285D01*
X0027514Y0158523D01*
X0025897Y0159193D01*
X0024147Y0159193D01*
X0022530Y0158523D01*
X0021292Y0157285D01*
X0020622Y0155668D01*
X0020622Y0153918D01*
X0021292Y0152301D01*
X0022530Y0151063D01*
X0023030Y0150856D01*
X0022530Y0150649D01*
X0021292Y0149411D01*
X0020622Y0147794D01*
X0020622Y0146044D01*
X0021292Y0144427D01*
X0022530Y0143189D01*
X0023030Y0142982D01*
X0022530Y0142775D01*
X0021292Y0141537D01*
X0020622Y0139920D01*
X0020622Y0138170D01*
X0021292Y0136553D01*
X0022530Y0135315D01*
X0023030Y0135108D01*
X0022530Y0134901D01*
X0021292Y0133663D01*
X0020622Y0132046D01*
X0020622Y0130296D01*
X0021292Y0128679D01*
X0022530Y0127441D01*
X0024147Y0126772D01*
X0025897Y0126772D01*
X0027514Y0127441D01*
X0028752Y0128679D01*
X0029422Y0130296D01*
X0029422Y0132046D01*
X0029202Y0132577D01*
X0036125Y0139500D01*
X0042705Y0139500D01*
X0044805Y0137400D01*
X0047775Y0137400D01*
X0049650Y0135525D01*
X0049650Y0133445D01*
X0047995Y0135100D01*
X0044805Y0135100D01*
X0042550Y0132845D01*
X0042550Y0129655D01*
X0044805Y0127400D01*
X0047995Y0127400D01*
X0049885Y0129290D01*
X0050675Y0128500D01*
X0058925Y0120250D01*
X0050250Y0111575D01*
X0050250Y0112845D01*
X0047995Y0115100D01*
X0044805Y0115100D01*
X0042550Y0112845D01*
X0042550Y0109655D01*
X0044440Y0107765D01*
X0043650Y0106975D01*
X0043650Y0106975D01*
X0039650Y0102975D01*
X0039650Y0099525D01*
X0053140Y0086035D01*
X0053136Y0086031D01*
X0052550Y0084616D01*
X0052550Y0077884D01*
X0053136Y0076469D01*
X0054219Y0075386D01*
X0053579Y0076027D02*
X0005650Y0076027D01*
X0005650Y0076525D02*
X0053113Y0076525D01*
X0052906Y0077024D02*
X0005650Y0077024D01*
X0005650Y0077522D02*
X0052700Y0077522D01*
X0052550Y0078021D02*
X0005650Y0078021D01*
X0005650Y0078519D02*
X0052550Y0078519D01*
X0052550Y0079018D02*
X0005650Y0079018D01*
X0005650Y0079516D02*
X0052550Y0079516D01*
X0052550Y0080015D02*
X0005650Y0080015D01*
X0005650Y0080513D02*
X0052550Y0080513D01*
X0052550Y0081012D02*
X0005650Y0081012D01*
X0005650Y0081510D02*
X0052550Y0081510D01*
X0052550Y0082009D02*
X0005650Y0082009D01*
X0005650Y0082507D02*
X0052550Y0082507D01*
X0052550Y0083006D02*
X0005650Y0083006D01*
X0005650Y0083504D02*
X0052550Y0083504D01*
X0052550Y0084003D02*
X0005650Y0084003D01*
X0005650Y0084501D02*
X0052550Y0084501D01*
X0052709Y0085000D02*
X0005650Y0085000D01*
X0005650Y0085498D02*
X0052916Y0085498D01*
X0053122Y0085997D02*
X0005650Y0085997D01*
X0005650Y0086495D02*
X0052680Y0086495D01*
X0052181Y0086994D02*
X0005650Y0086994D01*
X0005650Y0087492D02*
X0023927Y0087492D01*
X0024147Y0087402D02*
X0025897Y0087402D01*
X0027514Y0088071D01*
X0028752Y0089309D01*
X0029422Y0090926D01*
X0029422Y0092676D01*
X0028752Y0094293D01*
X0027514Y0095531D01*
X0026999Y0095745D01*
X0027328Y0095912D01*
X0027888Y0096319D01*
X0028378Y0096809D01*
X0028785Y0097369D01*
X0029099Y0097986D01*
X0029313Y0098645D01*
X0029422Y0099329D01*
X0029422Y0099425D01*
X0025272Y0099425D01*
X0025272Y0099925D01*
X0029422Y0099925D01*
X0029422Y0100021D01*
X0029313Y0100705D01*
X0029099Y0101364D01*
X0028785Y0101981D01*
X0028378Y0102541D01*
X0027888Y0103031D01*
X0027328Y0103438D01*
X0026999Y0103606D01*
X0027514Y0103819D01*
X0028752Y0105057D01*
X0029422Y0106674D01*
X0029422Y0108424D01*
X0028752Y0110041D01*
X0027514Y0111279D01*
X0025897Y0111949D01*
X0024147Y0111949D01*
X0022530Y0111279D01*
X0021292Y0110041D01*
X0020622Y0108424D01*
X0020622Y0106674D01*
X0021292Y0105057D01*
X0022530Y0103819D01*
X0023045Y0103606D01*
X0022716Y0103438D01*
X0022156Y0103031D01*
X0021666Y0102541D01*
X0021259Y0101981D01*
X0020945Y0101364D01*
X0020731Y0100705D01*
X0020622Y0100021D01*
X0020622Y0099925D01*
X0024772Y0099925D01*
X0024772Y0099425D01*
X0020622Y0099425D01*
X0020622Y0099329D01*
X0020731Y0098645D01*
X0020945Y0097986D01*
X0021259Y0097369D01*
X0021666Y0096809D01*
X0022156Y0096319D01*
X0022716Y0095912D01*
X0023045Y0095745D01*
X0022530Y0095531D01*
X0021292Y0094293D01*
X0020622Y0092676D01*
X0020622Y0090926D01*
X0021292Y0089309D01*
X0022530Y0088071D01*
X0024147Y0087402D01*
X0022724Y0087991D02*
X0005650Y0087991D01*
X0005650Y0088489D02*
X0022112Y0088489D01*
X0021613Y0088988D02*
X0005650Y0088988D01*
X0005650Y0089487D02*
X0021219Y0089487D01*
X0021012Y0089985D02*
X0005650Y0089985D01*
X0005650Y0090484D02*
X0020806Y0090484D01*
X0020622Y0090982D02*
X0005650Y0090982D01*
X0005650Y0091481D02*
X0020622Y0091481D01*
X0020622Y0091979D02*
X0005650Y0091979D01*
X0005650Y0092478D02*
X0020622Y0092478D01*
X0020747Y0092976D02*
X0005650Y0092976D01*
X0005650Y0093475D02*
X0020953Y0093475D01*
X0021160Y0093973D02*
X0005650Y0093973D01*
X0005650Y0094472D02*
X0021470Y0094472D01*
X0021969Y0094970D02*
X0005650Y0094970D01*
X0005650Y0095469D02*
X0022468Y0095469D01*
X0022641Y0095967D02*
X0005650Y0095967D01*
X0005650Y0096466D02*
X0022010Y0096466D01*
X0021553Y0096964D02*
X0005650Y0096964D01*
X0005650Y0097463D02*
X0021212Y0097463D01*
X0020958Y0097961D02*
X0005650Y0097961D01*
X0005650Y0098460D02*
X0020791Y0098460D01*
X0020681Y0098958D02*
X0005650Y0098958D01*
X0005650Y0099457D02*
X0024772Y0099457D01*
X0025272Y0099457D02*
X0039718Y0099457D01*
X0039650Y0099955D02*
X0029422Y0099955D01*
X0029353Y0100454D02*
X0039650Y0100454D01*
X0039650Y0100952D02*
X0029233Y0100952D01*
X0029055Y0101451D02*
X0039650Y0101451D01*
X0039650Y0101949D02*
X0028801Y0101949D01*
X0028446Y0102448D02*
X0039650Y0102448D01*
X0039650Y0102946D02*
X0027973Y0102946D01*
X0027315Y0103445D02*
X0040120Y0103445D01*
X0040618Y0103943D02*
X0027638Y0103943D01*
X0028137Y0104442D02*
X0041117Y0104442D01*
X0041616Y0104940D02*
X0028635Y0104940D01*
X0028910Y0105439D02*
X0042114Y0105439D01*
X0042613Y0105937D02*
X0029116Y0105937D01*
X0029323Y0106436D02*
X0043111Y0106436D01*
X0043610Y0106934D02*
X0029422Y0106934D01*
X0029422Y0107433D02*
X0044108Y0107433D01*
X0044274Y0107931D02*
X0029422Y0107931D01*
X0029419Y0108430D02*
X0043775Y0108430D01*
X0043277Y0108928D02*
X0029213Y0108928D01*
X0029006Y0109427D02*
X0042778Y0109427D01*
X0042550Y0109925D02*
X0028800Y0109925D01*
X0028369Y0110424D02*
X0042550Y0110424D01*
X0042550Y0110922D02*
X0027871Y0110922D01*
X0027171Y0111421D02*
X0042550Y0111421D01*
X0042550Y0111920D02*
X0025968Y0111920D01*
X0024076Y0111920D02*
X0005650Y0111920D01*
X0005650Y0112418D02*
X0042550Y0112418D01*
X0042622Y0112917D02*
X0005650Y0112917D01*
X0005650Y0113415D02*
X0043120Y0113415D01*
X0043619Y0113914D02*
X0005650Y0113914D01*
X0005650Y0114412D02*
X0044117Y0114412D01*
X0044616Y0114911D02*
X0005650Y0114911D01*
X0005650Y0115409D02*
X0054084Y0115409D01*
X0053586Y0114911D02*
X0048184Y0114911D01*
X0048683Y0114412D02*
X0053087Y0114412D01*
X0052589Y0113914D02*
X0049181Y0113914D01*
X0049680Y0113415D02*
X0052090Y0113415D01*
X0051592Y0112917D02*
X0050178Y0112917D01*
X0050250Y0112418D02*
X0051093Y0112418D01*
X0050595Y0111920D02*
X0050250Y0111920D01*
X0053052Y0109427D02*
X0062778Y0109427D01*
X0062550Y0109655D02*
X0064805Y0107400D01*
X0066150Y0107400D01*
X0066150Y0111000D01*
X0062550Y0111000D01*
X0062550Y0109655D01*
X0062550Y0109925D02*
X0053550Y0109925D01*
X0054049Y0110424D02*
X0062550Y0110424D01*
X0062550Y0110922D02*
X0054547Y0110922D01*
X0055046Y0111421D02*
X0066150Y0111421D01*
X0066150Y0110922D02*
X0066650Y0110922D01*
X0066650Y0110424D02*
X0066150Y0110424D01*
X0066150Y0109925D02*
X0066650Y0109925D01*
X0066650Y0109427D02*
X0066150Y0109427D01*
X0066150Y0108928D02*
X0066650Y0108928D01*
X0066650Y0108430D02*
X0066150Y0108430D01*
X0066150Y0107931D02*
X0066650Y0107931D01*
X0066650Y0107433D02*
X0066150Y0107433D01*
X0064772Y0107433D02*
X0051058Y0107433D01*
X0051556Y0107931D02*
X0064274Y0107931D01*
X0063775Y0108430D02*
X0052055Y0108430D01*
X0052553Y0108928D02*
X0063277Y0108928D01*
X0062550Y0111920D02*
X0055544Y0111920D01*
X0056043Y0112418D02*
X0062550Y0112418D01*
X0062622Y0112917D02*
X0056541Y0112917D01*
X0057040Y0113415D02*
X0063120Y0113415D01*
X0063619Y0113914D02*
X0057538Y0113914D01*
X0058037Y0114412D02*
X0064117Y0114412D01*
X0064265Y0114911D02*
X0058535Y0114911D01*
X0059034Y0115409D02*
X0063766Y0115409D01*
X0063268Y0115908D02*
X0059532Y0115908D01*
X0060031Y0116406D02*
X0062769Y0116406D01*
X0062270Y0116905D02*
X0060529Y0116905D01*
X0061028Y0117403D02*
X0061772Y0117403D01*
X0062235Y0121890D02*
X0062550Y0121890D01*
X0062550Y0122388D02*
X0061737Y0122388D01*
X0061238Y0122887D02*
X0062592Y0122887D01*
X0063091Y0123385D02*
X0060740Y0123385D01*
X0060241Y0123884D02*
X0063589Y0123884D01*
X0064088Y0124382D02*
X0059743Y0124382D01*
X0059244Y0124881D02*
X0064586Y0124881D01*
X0064650Y0125379D02*
X0058746Y0125379D01*
X0058247Y0125878D02*
X0064650Y0125878D01*
X0065051Y0126376D02*
X0057749Y0126376D01*
X0057250Y0126875D02*
X0065550Y0126875D01*
X0066049Y0127373D02*
X0056751Y0127373D01*
X0056253Y0127872D02*
X0064333Y0127872D01*
X0063835Y0128370D02*
X0055754Y0128370D01*
X0055256Y0128869D02*
X0063336Y0128869D01*
X0062838Y0129367D02*
X0054757Y0129367D01*
X0054259Y0129866D02*
X0062550Y0129866D01*
X0062550Y0130364D02*
X0053760Y0130364D01*
X0053262Y0130863D02*
X0062550Y0130863D01*
X0062550Y0131361D02*
X0053150Y0131361D01*
X0053150Y0131860D02*
X0062550Y0131860D01*
X0062550Y0132358D02*
X0053150Y0132358D01*
X0053150Y0132857D02*
X0062562Y0132857D01*
X0063061Y0133355D02*
X0053150Y0133355D01*
X0053150Y0133854D02*
X0063559Y0133854D01*
X0064058Y0134353D02*
X0053150Y0134353D01*
X0053150Y0134851D02*
X0064556Y0134851D01*
X0064805Y0137400D02*
X0062550Y0139655D01*
X0062550Y0142845D01*
X0064805Y0145100D01*
X0067995Y0145100D01*
X0070250Y0142845D01*
X0070250Y0139655D01*
X0067995Y0137400D01*
X0064805Y0137400D01*
X0064363Y0137842D02*
X0052283Y0137842D01*
X0052781Y0137344D02*
X0076019Y0137344D01*
X0076517Y0137842D02*
X0068437Y0137842D01*
X0068935Y0138341D02*
X0077016Y0138341D01*
X0077514Y0138839D02*
X0069434Y0138839D01*
X0069932Y0139338D02*
X0078013Y0139338D01*
X0078511Y0139836D02*
X0070250Y0139836D01*
X0070250Y0140335D02*
X0079010Y0140335D01*
X0079508Y0140833D02*
X0070250Y0140833D01*
X0070250Y0141332D02*
X0080007Y0141332D01*
X0080505Y0141830D02*
X0070250Y0141830D01*
X0070250Y0142329D02*
X0081004Y0142329D01*
X0081502Y0142827D02*
X0070250Y0142827D01*
X0069769Y0143326D02*
X0082001Y0143326D01*
X0082499Y0143824D02*
X0069270Y0143824D01*
X0068772Y0144323D02*
X0082998Y0144323D01*
X0083496Y0144821D02*
X0068273Y0144821D01*
X0064527Y0144821D02*
X0048273Y0144821D01*
X0048772Y0144323D02*
X0064028Y0144323D01*
X0063530Y0143824D02*
X0049270Y0143824D01*
X0049769Y0143326D02*
X0063031Y0143326D01*
X0062550Y0142827D02*
X0050250Y0142827D01*
X0050250Y0142329D02*
X0062550Y0142329D01*
X0062550Y0141830D02*
X0050250Y0141830D01*
X0050250Y0141332D02*
X0062550Y0141332D01*
X0062550Y0140833D02*
X0050250Y0140833D01*
X0050250Y0140335D02*
X0062550Y0140335D01*
X0062550Y0139836D02*
X0050289Y0139836D01*
X0050787Y0139338D02*
X0062868Y0139338D01*
X0063366Y0138839D02*
X0051286Y0138839D01*
X0051784Y0138341D02*
X0063865Y0138341D01*
X0068244Y0134851D02*
X0073526Y0134851D01*
X0073028Y0134353D02*
X0068742Y0134353D01*
X0069241Y0133854D02*
X0072529Y0133854D01*
X0072031Y0133355D02*
X0069739Y0133355D01*
X0070238Y0132857D02*
X0071532Y0132857D01*
X0071034Y0132358D02*
X0070250Y0132358D01*
X0070250Y0131860D02*
X0070535Y0131860D01*
X0072992Y0129367D02*
X0083013Y0129367D01*
X0083136Y0129069D02*
X0084219Y0127986D01*
X0085634Y0127400D01*
X0087166Y0127400D01*
X0088581Y0127986D01*
X0089664Y0129069D01*
X0090250Y0130484D01*
X0090250Y0137216D01*
X0089664Y0138631D01*
X0088581Y0139714D01*
X0087166Y0140300D01*
X0085634Y0140300D01*
X0084219Y0139714D01*
X0083136Y0138631D01*
X0082550Y0137216D01*
X0082550Y0130484D01*
X0083136Y0129069D01*
X0083336Y0128869D02*
X0072494Y0128869D01*
X0071995Y0128370D02*
X0083835Y0128370D01*
X0084495Y0127872D02*
X0071497Y0127872D01*
X0070998Y0127373D02*
X0138882Y0127373D01*
X0138882Y0126875D02*
X0070500Y0126875D01*
X0070001Y0126376D02*
X0138882Y0126376D01*
X0138882Y0125878D02*
X0069503Y0125878D01*
X0069004Y0125379D02*
X0138882Y0125379D01*
X0138882Y0124881D02*
X0078214Y0124881D01*
X0077995Y0125100D02*
X0080250Y0122845D01*
X0080250Y0121500D01*
X0076650Y0121500D01*
X0076150Y0121500D01*
X0076150Y0125100D01*
X0074805Y0125100D01*
X0072550Y0122845D01*
X0072550Y0121500D01*
X0076150Y0121500D01*
X0076150Y0121000D01*
X0072550Y0121000D01*
X0072550Y0119655D01*
X0074805Y0117400D01*
X0076150Y0117400D01*
X0076150Y0121000D01*
X0076650Y0121000D01*
X0076650Y0121500D01*
X0076650Y0125100D01*
X0077995Y0125100D01*
X0078712Y0124382D02*
X0138882Y0124382D01*
X0138882Y0123884D02*
X0079211Y0123884D01*
X0079709Y0123385D02*
X0138882Y0123385D01*
X0138882Y0122887D02*
X0080208Y0122887D01*
X0080250Y0122388D02*
X0138882Y0122388D01*
X0138882Y0121890D02*
X0080250Y0121890D01*
X0080250Y0121000D02*
X0076650Y0121000D01*
X0076650Y0117400D01*
X0077995Y0117400D01*
X0080250Y0119655D01*
X0080250Y0121000D01*
X0080250Y0120893D02*
X0138882Y0120893D01*
X0138882Y0121391D02*
X0076650Y0121391D01*
X0076650Y0120893D02*
X0076150Y0120893D01*
X0076150Y0121391D02*
X0070250Y0121391D01*
X0070250Y0120893D02*
X0072550Y0120893D01*
X0072550Y0120394D02*
X0070250Y0120394D01*
X0070250Y0119896D02*
X0072550Y0119896D01*
X0072808Y0119397D02*
X0069992Y0119397D01*
X0069493Y0118899D02*
X0073307Y0118899D01*
X0073805Y0118400D02*
X0068995Y0118400D01*
X0068496Y0117902D02*
X0074304Y0117902D01*
X0074802Y0117403D02*
X0068722Y0117403D01*
X0069220Y0116905D02*
X0138882Y0116905D01*
X0138882Y0117403D02*
X0077998Y0117403D01*
X0078496Y0117902D02*
X0138882Y0117902D01*
X0138882Y0118400D02*
X0078995Y0118400D01*
X0079493Y0118899D02*
X0138882Y0118899D01*
X0138882Y0119397D02*
X0079992Y0119397D01*
X0080250Y0119896D02*
X0138882Y0119896D01*
X0138882Y0120394D02*
X0080250Y0120394D01*
X0076650Y0120394D02*
X0076150Y0120394D01*
X0076150Y0119896D02*
X0076650Y0119896D01*
X0076650Y0119397D02*
X0076150Y0119397D01*
X0076150Y0118899D02*
X0076650Y0118899D01*
X0076650Y0118400D02*
X0076150Y0118400D01*
X0076150Y0117902D02*
X0076650Y0117902D01*
X0076650Y0117403D02*
X0076150Y0117403D01*
X0074616Y0114911D02*
X0071214Y0114911D01*
X0070716Y0115409D02*
X0138882Y0115409D01*
X0138882Y0114911D02*
X0078184Y0114911D01*
X0078683Y0114412D02*
X0138882Y0114412D01*
X0138882Y0113914D02*
X0079181Y0113914D01*
X0079680Y0113415D02*
X0138882Y0113415D01*
X0138882Y0112917D02*
X0080178Y0112917D01*
X0080250Y0112418D02*
X0138882Y0112418D01*
X0138882Y0111920D02*
X0080250Y0111920D01*
X0080250Y0111421D02*
X0138882Y0111421D01*
X0138882Y0110922D02*
X0080250Y0110922D01*
X0080250Y0110424D02*
X0138882Y0110424D01*
X0138882Y0109925D02*
X0080250Y0109925D01*
X0080022Y0109427D02*
X0138882Y0109427D01*
X0138882Y0108928D02*
X0079523Y0108928D01*
X0079025Y0108430D02*
X0138882Y0108430D01*
X0138882Y0107931D02*
X0078526Y0107931D01*
X0078028Y0107433D02*
X0138882Y0107433D01*
X0138882Y0106934D02*
X0050559Y0106934D01*
X0050061Y0106436D02*
X0138882Y0106436D01*
X0138882Y0105937D02*
X0049562Y0105937D01*
X0049064Y0105439D02*
X0138882Y0105439D01*
X0138882Y0104940D02*
X0117551Y0104940D01*
X0117166Y0105100D02*
X0115634Y0105100D01*
X0114219Y0104514D01*
X0113136Y0103431D01*
X0112550Y0102016D01*
X0112550Y0095284D01*
X0113136Y0093869D01*
X0114219Y0092786D01*
X0115634Y0092200D01*
X0117166Y0092200D01*
X0118581Y0092786D01*
X0119664Y0093869D01*
X0120250Y0095284D01*
X0120250Y0102016D01*
X0119664Y0103431D01*
X0118581Y0104514D01*
X0117166Y0105100D01*
X0118653Y0104442D02*
X0138882Y0104442D01*
X0138882Y0103943D02*
X0119151Y0103943D01*
X0119650Y0103445D02*
X0138882Y0103445D01*
X0138882Y0102946D02*
X0119865Y0102946D01*
X0120071Y0102448D02*
X0138882Y0102448D01*
X0138882Y0101949D02*
X0120250Y0101949D01*
X0120250Y0101451D02*
X0138882Y0101451D01*
X0138882Y0100952D02*
X0120250Y0100952D01*
X0120250Y0100454D02*
X0138882Y0100454D01*
X0138882Y0099955D02*
X0120250Y0099955D01*
X0120250Y0099457D02*
X0138882Y0099457D01*
X0138882Y0098958D02*
X0120250Y0098958D01*
X0120250Y0098460D02*
X0138882Y0098460D01*
X0138882Y0097961D02*
X0120250Y0097961D01*
X0120250Y0097463D02*
X0138882Y0097463D01*
X0138882Y0096964D02*
X0120250Y0096964D01*
X0120250Y0096466D02*
X0138882Y0096466D01*
X0138882Y0095967D02*
X0120250Y0095967D01*
X0120250Y0095469D02*
X0138882Y0095469D01*
X0138882Y0094970D02*
X0120120Y0094970D01*
X0119913Y0094472D02*
X0138882Y0094472D01*
X0138882Y0093973D02*
X0119707Y0093973D01*
X0119269Y0093475D02*
X0138882Y0093475D01*
X0138882Y0092976D02*
X0118771Y0092976D01*
X0117836Y0092478D02*
X0138882Y0092478D01*
X0138882Y0091979D02*
X0108150Y0091979D01*
X0108150Y0091481D02*
X0138882Y0091481D01*
X0138882Y0090982D02*
X0108150Y0090982D01*
X0108150Y0090484D02*
X0138882Y0090484D01*
X0138882Y0089985D02*
X0108150Y0089985D01*
X0108150Y0089487D02*
X0138882Y0089487D01*
X0138882Y0088988D02*
X0108150Y0088988D01*
X0108150Y0088489D02*
X0138882Y0088489D01*
X0138882Y0087991D02*
X0108150Y0087991D01*
X0108150Y0087492D02*
X0138882Y0087492D01*
X0138882Y0086994D02*
X0108150Y0086994D01*
X0108150Y0086495D02*
X0138882Y0086495D01*
X0138882Y0085997D02*
X0108150Y0085997D01*
X0108150Y0085498D02*
X0138882Y0085498D01*
X0138882Y0085000D02*
X0108150Y0085000D01*
X0108150Y0084501D02*
X0138882Y0084501D01*
X0138882Y0084003D02*
X0108150Y0084003D01*
X0108150Y0083504D02*
X0138882Y0083504D01*
X0138882Y0083006D02*
X0108150Y0083006D01*
X0108150Y0082507D02*
X0138882Y0082507D01*
X0138882Y0082009D02*
X0108150Y0082009D01*
X0108150Y0081510D02*
X0138882Y0081510D01*
X0138882Y0081012D02*
X0108150Y0081012D01*
X0108150Y0080513D02*
X0138882Y0080513D01*
X0138882Y0080015D02*
X0108150Y0080015D01*
X0108150Y0079516D02*
X0138882Y0079516D01*
X0138882Y0079018D02*
X0108150Y0079018D01*
X0108150Y0078519D02*
X0138882Y0078519D01*
X0138882Y0078021D02*
X0108150Y0078021D01*
X0108150Y0077522D02*
X0138882Y0077522D01*
X0138882Y0077024D02*
X0108150Y0077024D01*
X0108150Y0076525D02*
X0138882Y0076525D01*
X0138882Y0076027D02*
X0108150Y0076027D01*
X0108150Y0075528D02*
X0138882Y0075528D01*
X0138882Y0075030D02*
X0108150Y0075030D01*
X0108150Y0074531D02*
X0138882Y0074531D01*
X0138882Y0074033D02*
X0108150Y0074033D01*
X0108150Y0073534D02*
X0138882Y0073534D01*
X0138882Y0073036D02*
X0108150Y0073036D01*
X0108150Y0072537D02*
X0138882Y0072537D01*
X0138882Y0072039D02*
X0108150Y0072039D01*
X0108150Y0071540D02*
X0138882Y0071540D01*
X0138882Y0071042D02*
X0108150Y0071042D01*
X0108150Y0070543D02*
X0138882Y0070543D01*
X0138882Y0070045D02*
X0108150Y0070045D01*
X0108150Y0069546D02*
X0138882Y0069546D01*
X0138882Y0069048D02*
X0108150Y0069048D01*
X0108150Y0068549D02*
X0138882Y0068549D01*
X0138882Y0068051D02*
X0108150Y0068051D01*
X0108150Y0067552D02*
X0138882Y0067552D01*
X0138882Y0067053D02*
X0108150Y0067053D01*
X0108150Y0066555D02*
X0138882Y0066555D01*
X0138882Y0066056D02*
X0108150Y0066056D01*
X0108150Y0065558D02*
X0138882Y0065558D01*
X0138882Y0065059D02*
X0108150Y0065059D01*
X0108150Y0064561D02*
X0138882Y0064561D01*
X0138882Y0064062D02*
X0108150Y0064062D01*
X0108150Y0063564D02*
X0138882Y0063564D01*
X0138882Y0063065D02*
X0108150Y0063065D01*
X0108150Y0062567D02*
X0138882Y0062567D01*
X0138882Y0062068D02*
X0108150Y0062068D01*
X0108150Y0061570D02*
X0138882Y0061570D01*
X0138882Y0061071D02*
X0108150Y0061071D01*
X0108150Y0060573D02*
X0138882Y0060573D01*
X0138882Y0060074D02*
X0108150Y0060074D01*
X0108150Y0059576D02*
X0138882Y0059576D01*
X0138882Y0059077D02*
X0108150Y0059077D01*
X0108150Y0058579D02*
X0138882Y0058579D01*
X0138882Y0058080D02*
X0108150Y0058080D01*
X0108150Y0057582D02*
X0138882Y0057582D01*
X0138882Y0057083D02*
X0108150Y0057083D01*
X0108150Y0056585D02*
X0138882Y0056585D01*
X0138882Y0056086D02*
X0108150Y0056086D01*
X0108150Y0055588D02*
X0138882Y0055588D01*
X0138882Y0055089D02*
X0108150Y0055089D01*
X0108150Y0054591D02*
X0138882Y0054591D01*
X0138882Y0054092D02*
X0108150Y0054092D01*
X0108150Y0053594D02*
X0138882Y0053594D01*
X0138882Y0053095D02*
X0108150Y0053095D01*
X0108150Y0052597D02*
X0138882Y0052597D01*
X0138882Y0052098D02*
X0108150Y0052098D01*
X0108150Y0051600D02*
X0138882Y0051600D01*
X0138882Y0051101D02*
X0108150Y0051101D01*
X0108522Y0050603D02*
X0138882Y0050603D01*
X0138882Y0050104D02*
X0109021Y0050104D01*
X0109519Y0049606D02*
X0138882Y0049606D01*
X0138882Y0049107D02*
X0110018Y0049107D01*
X0110516Y0048609D02*
X0117795Y0048609D01*
X0116841Y0048110D02*
X0111015Y0048110D01*
X0111513Y0047612D02*
X0116343Y0047612D01*
X0115844Y0047113D02*
X0112012Y0047113D01*
X0112510Y0046615D02*
X0115600Y0046615D01*
X0115394Y0046116D02*
X0113009Y0046116D01*
X0113507Y0045618D02*
X0115187Y0045618D01*
X0115111Y0045119D02*
X0114006Y0045119D01*
X0114504Y0044620D02*
X0115111Y0044620D01*
X0115111Y0044122D02*
X0115003Y0044122D01*
X0113044Y0041131D02*
X0027791Y0041131D01*
X0028316Y0041629D02*
X0112546Y0041629D01*
X0112047Y0042128D02*
X0028695Y0042128D01*
X0029387Y0045119D02*
X0042550Y0045119D01*
X0042550Y0045618D02*
X0029304Y0045618D01*
X0022427Y0048110D02*
X0005650Y0048110D01*
X0005650Y0047612D02*
X0021855Y0047612D01*
X0021441Y0047113D02*
X0005650Y0047113D01*
X0005650Y0046615D02*
X0021133Y0046615D01*
X0020903Y0046116D02*
X0005650Y0046116D01*
X0005650Y0045618D02*
X0020741Y0045618D01*
X0020657Y0045119D02*
X0005650Y0045119D01*
X0005650Y0057582D02*
X0044623Y0057582D01*
X0044125Y0058080D02*
X0005650Y0058080D01*
X0005650Y0058579D02*
X0043626Y0058579D01*
X0043128Y0059077D02*
X0005650Y0059077D01*
X0005650Y0059576D02*
X0042629Y0059576D01*
X0042550Y0060074D02*
X0005650Y0060074D01*
X0005650Y0060573D02*
X0042550Y0060573D01*
X0042550Y0061071D02*
X0005650Y0061071D01*
X0005650Y0061570D02*
X0042550Y0061570D01*
X0042550Y0062068D02*
X0005650Y0062068D01*
X0005650Y0062567D02*
X0042550Y0062567D01*
X0042771Y0063065D02*
X0005650Y0063065D01*
X0005650Y0063564D02*
X0043269Y0063564D01*
X0043768Y0064062D02*
X0005650Y0064062D01*
X0005650Y0064561D02*
X0044266Y0064561D01*
X0044765Y0065059D02*
X0005650Y0065059D01*
X0005650Y0065558D02*
X0089650Y0065558D01*
X0089650Y0066056D02*
X0005650Y0066056D01*
X0005650Y0066555D02*
X0089650Y0066555D01*
X0089650Y0067053D02*
X0005650Y0067053D01*
X0005650Y0067552D02*
X0044653Y0067552D01*
X0044155Y0068051D02*
X0005650Y0068051D01*
X0005650Y0068549D02*
X0043656Y0068549D01*
X0043158Y0069048D02*
X0005650Y0069048D01*
X0005650Y0069546D02*
X0042659Y0069546D01*
X0042550Y0070045D02*
X0005650Y0070045D01*
X0005650Y0070543D02*
X0042550Y0070543D01*
X0046150Y0070543D02*
X0046650Y0070543D01*
X0046650Y0070045D02*
X0046150Y0070045D01*
X0046150Y0069546D02*
X0046650Y0069546D01*
X0046650Y0069048D02*
X0046150Y0069048D01*
X0046150Y0068549D02*
X0046650Y0068549D01*
X0046650Y0068051D02*
X0046150Y0068051D01*
X0046150Y0067552D02*
X0046650Y0067552D01*
X0046650Y0072039D02*
X0046150Y0072039D01*
X0046150Y0072537D02*
X0046650Y0072537D01*
X0046650Y0073036D02*
X0046150Y0073036D01*
X0046150Y0073534D02*
X0046650Y0073534D01*
X0046650Y0074033D02*
X0046150Y0074033D01*
X0046150Y0074531D02*
X0046650Y0074531D01*
X0046650Y0075030D02*
X0046150Y0075030D01*
X0048065Y0075030D02*
X0055080Y0075030D01*
X0057720Y0075030D02*
X0065080Y0075030D01*
X0064077Y0075528D02*
X0058723Y0075528D01*
X0059221Y0076027D02*
X0063579Y0076027D01*
X0063113Y0076525D02*
X0059687Y0076525D01*
X0059894Y0077024D02*
X0062906Y0077024D01*
X0062700Y0077522D02*
X0060100Y0077522D01*
X0060250Y0078021D02*
X0062550Y0078021D01*
X0062550Y0078519D02*
X0060250Y0078519D01*
X0060250Y0079018D02*
X0062550Y0079018D01*
X0062550Y0079516D02*
X0060250Y0079516D01*
X0060250Y0080015D02*
X0062550Y0080015D01*
X0062550Y0080513D02*
X0060250Y0080513D01*
X0060250Y0081012D02*
X0062550Y0081012D01*
X0062550Y0081510D02*
X0060250Y0081510D01*
X0060250Y0082009D02*
X0062550Y0082009D01*
X0062550Y0082507D02*
X0060250Y0082507D01*
X0060250Y0083006D02*
X0062550Y0083006D01*
X0062550Y0083504D02*
X0060250Y0083504D01*
X0060250Y0084003D02*
X0062550Y0084003D01*
X0062550Y0084501D02*
X0060250Y0084501D01*
X0060091Y0085000D02*
X0062709Y0085000D01*
X0062916Y0085498D02*
X0059884Y0085498D01*
X0059678Y0085997D02*
X0063122Y0085997D01*
X0063601Y0086495D02*
X0059199Y0086495D01*
X0058701Y0086994D02*
X0064099Y0086994D01*
X0065133Y0087492D02*
X0057667Y0087492D01*
X0056134Y0087991D02*
X0067184Y0087991D01*
X0067667Y0087492D02*
X0067683Y0087492D01*
X0066686Y0088489D02*
X0055635Y0088489D01*
X0055137Y0088988D02*
X0066187Y0088988D01*
X0065689Y0089487D02*
X0054638Y0089487D01*
X0054140Y0089985D02*
X0065190Y0089985D01*
X0064692Y0090484D02*
X0053641Y0090484D01*
X0053143Y0090982D02*
X0064193Y0090982D01*
X0063695Y0091481D02*
X0052644Y0091481D01*
X0052146Y0091979D02*
X0063196Y0091979D01*
X0062698Y0092478D02*
X0051647Y0092478D01*
X0051149Y0092976D02*
X0062199Y0092976D01*
X0061701Y0093475D02*
X0050650Y0093475D01*
X0050152Y0093973D02*
X0061202Y0093973D01*
X0060704Y0094472D02*
X0049653Y0094472D01*
X0049155Y0094970D02*
X0060205Y0094970D01*
X0059706Y0095469D02*
X0048656Y0095469D01*
X0048158Y0095967D02*
X0059208Y0095967D01*
X0058709Y0096466D02*
X0047659Y0096466D01*
X0047161Y0096964D02*
X0058211Y0096964D01*
X0057712Y0097463D02*
X0048057Y0097463D01*
X0048556Y0097961D02*
X0057214Y0097961D01*
X0056715Y0098460D02*
X0049054Y0098460D01*
X0049553Y0098958D02*
X0056217Y0098958D01*
X0055718Y0099457D02*
X0050051Y0099457D01*
X0049650Y0103445D02*
X0063150Y0103445D01*
X0063649Y0103943D02*
X0049151Y0103943D01*
X0048653Y0104442D02*
X0064147Y0104442D01*
X0064646Y0104940D02*
X0048565Y0104940D01*
X0043706Y0095469D02*
X0027577Y0095469D01*
X0027403Y0095967D02*
X0043208Y0095967D01*
X0042709Y0096466D02*
X0028034Y0096466D01*
X0028491Y0096964D02*
X0042211Y0096964D01*
X0041712Y0097463D02*
X0028832Y0097463D01*
X0029087Y0097961D02*
X0041214Y0097961D01*
X0040715Y0098460D02*
X0029253Y0098460D01*
X0029363Y0098958D02*
X0040217Y0098958D01*
X0044205Y0094970D02*
X0028075Y0094970D01*
X0028574Y0094472D02*
X0044704Y0094472D01*
X0045202Y0093973D02*
X0028884Y0093973D01*
X0029091Y0093475D02*
X0045701Y0093475D01*
X0046199Y0092976D02*
X0029297Y0092976D01*
X0029422Y0092478D02*
X0046698Y0092478D01*
X0047196Y0091979D02*
X0029422Y0091979D01*
X0029422Y0091481D02*
X0047695Y0091481D01*
X0048193Y0090982D02*
X0029422Y0090982D01*
X0029238Y0090484D02*
X0048692Y0090484D01*
X0049190Y0089985D02*
X0029032Y0089985D01*
X0028825Y0089487D02*
X0049689Y0089487D01*
X0050187Y0088988D02*
X0028431Y0088988D01*
X0027932Y0088489D02*
X0050686Y0088489D01*
X0051184Y0087991D02*
X0027320Y0087991D01*
X0026117Y0087492D02*
X0051683Y0087492D01*
X0048564Y0074531D02*
X0089650Y0074531D01*
X0089650Y0074033D02*
X0049062Y0074033D01*
X0049561Y0073534D02*
X0089650Y0073534D01*
X0089650Y0073036D02*
X0050059Y0073036D01*
X0050250Y0072537D02*
X0089650Y0072537D01*
X0089650Y0072039D02*
X0050250Y0072039D01*
X0050250Y0071540D02*
X0089650Y0071540D01*
X0089650Y0075030D02*
X0087720Y0075030D01*
X0088658Y0075528D02*
X0089650Y0075528D01*
X0089650Y0076027D02*
X0089221Y0076027D01*
X0089611Y0076525D02*
X0089650Y0076525D01*
X0090250Y0079018D02*
X0090693Y0079018D01*
X0090250Y0079516D02*
X0091191Y0079516D01*
X0091690Y0080015D02*
X0090250Y0080015D01*
X0090250Y0080513D02*
X0092188Y0080513D01*
X0092687Y0081012D02*
X0086650Y0081012D01*
X0086650Y0081500D02*
X0090250Y0081500D01*
X0090250Y0084229D01*
X0090102Y0084973D01*
X0089812Y0085674D01*
X0089390Y0086304D01*
X0088854Y0086840D01*
X0088224Y0087262D01*
X0087523Y0087552D01*
X0086779Y0087700D01*
X0086650Y0087700D01*
X0086650Y0081500D01*
X0086650Y0081510D02*
X0086150Y0081510D01*
X0086150Y0081012D02*
X0080250Y0081012D01*
X0080250Y0081510D02*
X0082550Y0081510D01*
X0082550Y0082009D02*
X0080250Y0082009D01*
X0080250Y0082507D02*
X0082550Y0082507D01*
X0082550Y0083006D02*
X0080250Y0083006D01*
X0080250Y0083504D02*
X0082550Y0083504D01*
X0082550Y0084003D02*
X0080250Y0084003D01*
X0080250Y0084501D02*
X0082604Y0084501D01*
X0082709Y0085000D02*
X0080091Y0085000D01*
X0079884Y0085498D02*
X0082916Y0085498D01*
X0083204Y0085997D02*
X0079678Y0085997D01*
X0079199Y0086495D02*
X0083601Y0086495D01*
X0084175Y0086994D02*
X0078701Y0086994D01*
X0077667Y0087492D02*
X0085133Y0087492D01*
X0086150Y0087492D02*
X0086650Y0087492D01*
X0086650Y0086994D02*
X0086150Y0086994D01*
X0086150Y0086495D02*
X0086650Y0086495D01*
X0086650Y0085997D02*
X0086150Y0085997D01*
X0086150Y0085498D02*
X0086650Y0085498D01*
X0086650Y0085000D02*
X0086150Y0085000D01*
X0086150Y0084501D02*
X0086650Y0084501D01*
X0086650Y0084003D02*
X0086150Y0084003D01*
X0086150Y0083504D02*
X0086650Y0083504D01*
X0086650Y0083006D02*
X0086150Y0083006D01*
X0086150Y0082507D02*
X0086650Y0082507D01*
X0086650Y0082009D02*
X0086150Y0082009D01*
X0086150Y0081000D02*
X0082550Y0081000D01*
X0082550Y0078271D01*
X0082698Y0077527D01*
X0082988Y0076826D01*
X0083410Y0076196D01*
X0083946Y0075660D01*
X0084576Y0075238D01*
X0085277Y0074948D01*
X0086021Y0074800D01*
X0086150Y0074800D01*
X0086150Y0081000D01*
X0086150Y0080513D02*
X0086650Y0080513D01*
X0086650Y0080015D02*
X0086150Y0080015D01*
X0086150Y0079516D02*
X0086650Y0079516D01*
X0086650Y0079018D02*
X0086150Y0079018D01*
X0086150Y0078519D02*
X0086650Y0078519D01*
X0086650Y0078021D02*
X0086150Y0078021D01*
X0086150Y0077522D02*
X0086650Y0077522D01*
X0086650Y0077024D02*
X0086150Y0077024D01*
X0086150Y0076525D02*
X0086650Y0076525D01*
X0086650Y0076027D02*
X0086150Y0076027D01*
X0086150Y0075528D02*
X0086650Y0075528D01*
X0086650Y0075030D02*
X0086150Y0075030D01*
X0085080Y0075030D02*
X0077720Y0075030D01*
X0078723Y0075528D02*
X0084142Y0075528D01*
X0083579Y0076027D02*
X0079221Y0076027D01*
X0079687Y0076525D02*
X0083189Y0076525D01*
X0082906Y0077024D02*
X0079894Y0077024D01*
X0080100Y0077522D02*
X0082700Y0077522D01*
X0082600Y0078021D02*
X0080250Y0078021D01*
X0080250Y0078519D02*
X0082550Y0078519D01*
X0082550Y0079018D02*
X0080250Y0079018D01*
X0080250Y0079516D02*
X0082550Y0079516D01*
X0082550Y0080015D02*
X0080250Y0080015D01*
X0080250Y0080513D02*
X0082550Y0080513D01*
X0087667Y0087492D02*
X0094650Y0087492D01*
X0094650Y0086994D02*
X0088625Y0086994D01*
X0089199Y0086495D02*
X0094650Y0086495D01*
X0094650Y0085997D02*
X0089596Y0085997D01*
X0089884Y0085498D02*
X0094650Y0085498D01*
X0094650Y0085000D02*
X0090091Y0085000D01*
X0090196Y0084501D02*
X0094650Y0084501D01*
X0094650Y0084003D02*
X0090250Y0084003D01*
X0090250Y0083504D02*
X0094650Y0083504D01*
X0094650Y0083006D02*
X0090250Y0083006D01*
X0090250Y0082507D02*
X0094182Y0082507D01*
X0093684Y0082009D02*
X0090250Y0082009D01*
X0090250Y0081510D02*
X0093185Y0081510D01*
X0094650Y0087991D02*
X0072134Y0087991D01*
X0072632Y0087492D02*
X0075133Y0087492D01*
X0074099Y0086994D02*
X0073131Y0086994D01*
X0071635Y0088489D02*
X0094650Y0088489D01*
X0094650Y0088988D02*
X0071137Y0088988D01*
X0070638Y0089487D02*
X0094650Y0089487D01*
X0094650Y0089985D02*
X0070140Y0089985D01*
X0069641Y0090484D02*
X0094650Y0090484D01*
X0094650Y0090982D02*
X0069143Y0090982D01*
X0068644Y0091481D02*
X0094650Y0091481D01*
X0094650Y0091979D02*
X0068146Y0091979D01*
X0067647Y0092478D02*
X0084964Y0092478D01*
X0085634Y0092200D02*
X0084219Y0092786D01*
X0083136Y0093869D01*
X0082550Y0095284D01*
X0082550Y0102016D01*
X0083136Y0103431D01*
X0084219Y0104514D01*
X0085634Y0105100D01*
X0087166Y0105100D01*
X0088581Y0104514D01*
X0089664Y0103431D01*
X0090250Y0102016D01*
X0090250Y0095284D01*
X0089664Y0093869D01*
X0088581Y0092786D01*
X0087166Y0092200D01*
X0085634Y0092200D01*
X0084029Y0092976D02*
X0067149Y0092976D01*
X0066650Y0093475D02*
X0083531Y0093475D01*
X0083093Y0093973D02*
X0066152Y0093973D01*
X0065653Y0094472D02*
X0082887Y0094472D01*
X0082680Y0094970D02*
X0065155Y0094970D01*
X0064656Y0095469D02*
X0082550Y0095469D01*
X0082550Y0095967D02*
X0064158Y0095967D01*
X0063659Y0096466D02*
X0082550Y0096466D01*
X0082550Y0096964D02*
X0063161Y0096964D01*
X0062662Y0097463D02*
X0064743Y0097463D01*
X0064805Y0097400D02*
X0067995Y0097400D01*
X0070250Y0099655D01*
X0070250Y0102845D01*
X0067995Y0105100D01*
X0064805Y0105100D01*
X0062550Y0102845D01*
X0062550Y0099655D01*
X0064805Y0097400D01*
X0064244Y0097961D02*
X0062164Y0097961D01*
X0061665Y0098460D02*
X0063746Y0098460D01*
X0063247Y0098958D02*
X0061167Y0098958D01*
X0060668Y0099457D02*
X0062749Y0099457D01*
X0062550Y0099955D02*
X0060170Y0099955D01*
X0059671Y0100454D02*
X0062550Y0100454D01*
X0062550Y0100952D02*
X0059173Y0100952D01*
X0058674Y0101451D02*
X0062550Y0101451D01*
X0062550Y0101949D02*
X0058176Y0101949D01*
X0057677Y0102448D02*
X0062550Y0102448D01*
X0062652Y0102946D02*
X0057179Y0102946D01*
X0054583Y0115908D02*
X0005650Y0115908D01*
X0005650Y0116406D02*
X0055081Y0116406D01*
X0055580Y0116905D02*
X0005650Y0116905D01*
X0005650Y0117403D02*
X0044802Y0117403D01*
X0044805Y0117400D02*
X0042550Y0119655D01*
X0042550Y0122845D01*
X0044805Y0125100D01*
X0047995Y0125100D01*
X0050250Y0122845D01*
X0050250Y0119655D01*
X0047995Y0117400D01*
X0044805Y0117400D01*
X0044304Y0117902D02*
X0005650Y0117902D01*
X0005650Y0118400D02*
X0043805Y0118400D01*
X0043307Y0118899D02*
X0005650Y0118899D01*
X0005650Y0119397D02*
X0042808Y0119397D01*
X0042550Y0119896D02*
X0005650Y0119896D01*
X0005650Y0120394D02*
X0042550Y0120394D01*
X0042550Y0120893D02*
X0005650Y0120893D01*
X0005650Y0121391D02*
X0042550Y0121391D01*
X0042550Y0121890D02*
X0005650Y0121890D01*
X0005650Y0122388D02*
X0042550Y0122388D01*
X0042592Y0122887D02*
X0005650Y0122887D01*
X0005650Y0123385D02*
X0043091Y0123385D01*
X0043589Y0123884D02*
X0005650Y0123884D01*
X0005650Y0124382D02*
X0044088Y0124382D01*
X0044586Y0124881D02*
X0005650Y0124881D01*
X0005650Y0125379D02*
X0053796Y0125379D01*
X0054294Y0124881D02*
X0048214Y0124881D01*
X0048712Y0124382D02*
X0054793Y0124382D01*
X0055291Y0123884D02*
X0049211Y0123884D01*
X0049709Y0123385D02*
X0055790Y0123385D01*
X0056288Y0122887D02*
X0050208Y0122887D01*
X0050250Y0122388D02*
X0056787Y0122388D01*
X0057285Y0121890D02*
X0050250Y0121890D01*
X0050250Y0121391D02*
X0057784Y0121391D01*
X0058282Y0120893D02*
X0050250Y0120893D01*
X0050250Y0120394D02*
X0058781Y0120394D01*
X0058571Y0119896D02*
X0050250Y0119896D01*
X0049992Y0119397D02*
X0058072Y0119397D01*
X0057574Y0118899D02*
X0049493Y0118899D01*
X0048995Y0118400D02*
X0057075Y0118400D01*
X0056577Y0117902D02*
X0048496Y0117902D01*
X0047998Y0117403D02*
X0056078Y0117403D01*
X0053297Y0125878D02*
X0005650Y0125878D01*
X0005650Y0126376D02*
X0052799Y0126376D01*
X0052300Y0126875D02*
X0026146Y0126875D01*
X0027350Y0127373D02*
X0051802Y0127373D01*
X0051303Y0127872D02*
X0048467Y0127872D01*
X0048965Y0128370D02*
X0050805Y0128370D01*
X0050306Y0128869D02*
X0049464Y0128869D01*
X0049650Y0133854D02*
X0049241Y0133854D01*
X0049650Y0134353D02*
X0048742Y0134353D01*
X0048244Y0134851D02*
X0049650Y0134851D01*
X0049650Y0135350D02*
X0031974Y0135350D01*
X0032473Y0135848D02*
X0049327Y0135848D01*
X0048829Y0136347D02*
X0032971Y0136347D01*
X0033470Y0136845D02*
X0048330Y0136845D01*
X0047832Y0137344D02*
X0033968Y0137344D01*
X0034467Y0137842D02*
X0044363Y0137842D01*
X0043865Y0138341D02*
X0034965Y0138341D01*
X0035464Y0138839D02*
X0043366Y0138839D01*
X0042868Y0139338D02*
X0035963Y0139338D01*
X0033505Y0141830D02*
X0028459Y0141830D01*
X0028837Y0141332D02*
X0033007Y0141332D01*
X0032508Y0140833D02*
X0029044Y0140833D01*
X0029250Y0140335D02*
X0032010Y0140335D01*
X0031511Y0139836D02*
X0029422Y0139836D01*
X0029422Y0139338D02*
X0031013Y0139338D01*
X0030514Y0138839D02*
X0029422Y0138839D01*
X0029422Y0138341D02*
X0030016Y0138341D01*
X0029517Y0137842D02*
X0029286Y0137842D01*
X0031476Y0134851D02*
X0044556Y0134851D01*
X0044058Y0134353D02*
X0030977Y0134353D01*
X0030479Y0133854D02*
X0043559Y0133854D01*
X0043061Y0133355D02*
X0029980Y0133355D01*
X0029482Y0132857D02*
X0042562Y0132857D01*
X0042550Y0132358D02*
X0029292Y0132358D01*
X0029422Y0131860D02*
X0042550Y0131860D01*
X0042550Y0131361D02*
X0029422Y0131361D01*
X0029422Y0130863D02*
X0042550Y0130863D01*
X0042550Y0130364D02*
X0029422Y0130364D01*
X0029243Y0129866D02*
X0042550Y0129866D01*
X0042838Y0129367D02*
X0029037Y0129367D01*
X0028830Y0128869D02*
X0043336Y0128869D01*
X0043835Y0128370D02*
X0028443Y0128370D01*
X0027945Y0127872D02*
X0044333Y0127872D01*
X0053150Y0135350D02*
X0074025Y0135350D01*
X0074523Y0135848D02*
X0053150Y0135848D01*
X0053150Y0136347D02*
X0075022Y0136347D01*
X0075520Y0136845D02*
X0053150Y0136845D01*
X0044527Y0144821D02*
X0028915Y0144821D01*
X0029122Y0145320D02*
X0083995Y0145320D01*
X0084493Y0145818D02*
X0029328Y0145818D01*
X0029422Y0146317D02*
X0084992Y0146317D01*
X0085490Y0146815D02*
X0029422Y0146815D01*
X0029422Y0147314D02*
X0085989Y0147314D01*
X0086487Y0147812D02*
X0029414Y0147812D01*
X0029208Y0148311D02*
X0086986Y0148311D01*
X0087484Y0148809D02*
X0029001Y0148809D01*
X0028795Y0149308D02*
X0087983Y0149308D01*
X0088482Y0149806D02*
X0028357Y0149806D01*
X0027858Y0150305D02*
X0088980Y0150305D01*
X0089479Y0150803D02*
X0027142Y0150803D01*
X0027753Y0151302D02*
X0089650Y0151302D01*
X0089650Y0151800D02*
X0028251Y0151800D01*
X0028750Y0152299D02*
X0089650Y0152299D01*
X0089650Y0152797D02*
X0028957Y0152797D01*
X0029164Y0153296D02*
X0089650Y0153296D01*
X0089650Y0153794D02*
X0029370Y0153794D01*
X0029422Y0154293D02*
X0089650Y0154293D01*
X0089650Y0154791D02*
X0029422Y0154791D01*
X0029422Y0155290D02*
X0054451Y0155290D01*
X0054219Y0155386D02*
X0055634Y0154800D01*
X0057166Y0154800D01*
X0058581Y0155386D01*
X0059664Y0156469D01*
X0060250Y0157884D01*
X0060250Y0164616D01*
X0059664Y0166031D01*
X0058581Y0167114D01*
X0057166Y0167700D01*
X0055634Y0167700D01*
X0054219Y0167114D01*
X0053136Y0166031D01*
X0052550Y0164616D01*
X0052550Y0157884D01*
X0053136Y0156469D01*
X0054219Y0155386D01*
X0053817Y0155789D02*
X0029372Y0155789D01*
X0029165Y0156287D02*
X0053318Y0156287D01*
X0053005Y0156786D02*
X0028959Y0156786D01*
X0028752Y0157284D02*
X0052799Y0157284D01*
X0052592Y0157783D02*
X0028255Y0157783D01*
X0027756Y0158281D02*
X0052550Y0158281D01*
X0052550Y0158780D02*
X0026895Y0158780D01*
X0023149Y0158780D02*
X0005650Y0158780D01*
X0005650Y0159278D02*
X0052550Y0159278D01*
X0052550Y0159777D02*
X0005650Y0159777D01*
X0005650Y0160275D02*
X0052550Y0160275D01*
X0052550Y0160774D02*
X0005650Y0160774D01*
X0005650Y0161272D02*
X0052550Y0161272D01*
X0052550Y0161771D02*
X0005650Y0161771D01*
X0005650Y0162269D02*
X0052550Y0162269D01*
X0052550Y0162768D02*
X0005650Y0162768D01*
X0005650Y0163266D02*
X0052550Y0163266D01*
X0052550Y0163765D02*
X0005650Y0163765D01*
X0005650Y0164263D02*
X0052550Y0164263D01*
X0052610Y0164762D02*
X0005650Y0164762D01*
X0005650Y0165260D02*
X0052817Y0165260D01*
X0053023Y0165759D02*
X0005650Y0165759D01*
X0005650Y0166257D02*
X0053363Y0166257D01*
X0053861Y0166756D02*
X0005650Y0166756D01*
X0005650Y0167254D02*
X0054558Y0167254D01*
X0058242Y0167254D02*
X0064558Y0167254D01*
X0063861Y0166756D02*
X0058939Y0166756D01*
X0059437Y0166257D02*
X0063363Y0166257D01*
X0063023Y0165759D02*
X0059777Y0165759D01*
X0059983Y0165260D02*
X0062817Y0165260D01*
X0062610Y0164762D02*
X0060190Y0164762D01*
X0060250Y0164263D02*
X0062550Y0164263D01*
X0062550Y0163765D02*
X0060250Y0163765D01*
X0060250Y0163266D02*
X0062550Y0163266D01*
X0062550Y0162768D02*
X0060250Y0162768D01*
X0060250Y0162269D02*
X0062550Y0162269D01*
X0062550Y0161771D02*
X0060250Y0161771D01*
X0060250Y0161272D02*
X0062550Y0161272D01*
X0062550Y0160774D02*
X0060250Y0160774D01*
X0060250Y0160275D02*
X0062550Y0160275D01*
X0062550Y0159777D02*
X0060250Y0159777D01*
X0060250Y0159278D02*
X0062550Y0159278D01*
X0062550Y0158780D02*
X0060250Y0158780D01*
X0060250Y0158281D02*
X0062550Y0158281D01*
X0062592Y0157783D02*
X0060208Y0157783D01*
X0060001Y0157284D02*
X0062799Y0157284D01*
X0063005Y0156786D02*
X0059795Y0156786D01*
X0059482Y0156287D02*
X0063318Y0156287D01*
X0063817Y0155789D02*
X0058983Y0155789D01*
X0058349Y0155290D02*
X0064451Y0155290D01*
X0068349Y0155290D02*
X0074451Y0155290D01*
X0073817Y0155789D02*
X0068983Y0155789D01*
X0069482Y0156287D02*
X0073318Y0156287D01*
X0073005Y0156786D02*
X0069795Y0156786D01*
X0070001Y0157284D02*
X0072799Y0157284D01*
X0072592Y0157783D02*
X0070208Y0157783D01*
X0070250Y0158281D02*
X0072550Y0158281D01*
X0072550Y0158780D02*
X0070250Y0158780D01*
X0070250Y0159278D02*
X0072550Y0159278D01*
X0072550Y0159777D02*
X0070250Y0159777D01*
X0070250Y0160275D02*
X0072550Y0160275D01*
X0072550Y0160774D02*
X0070250Y0160774D01*
X0070250Y0161272D02*
X0072550Y0161272D01*
X0072550Y0161771D02*
X0070250Y0161771D01*
X0070250Y0162269D02*
X0072550Y0162269D01*
X0072407Y0162768D02*
X0070250Y0162768D01*
X0070250Y0163266D02*
X0071909Y0163266D01*
X0071410Y0163765D02*
X0070250Y0163765D01*
X0070250Y0164263D02*
X0070912Y0164263D01*
X0070413Y0164762D02*
X0070190Y0164762D01*
X0071874Y0168251D02*
X0080926Y0168251D01*
X0080428Y0167753D02*
X0072372Y0167753D01*
X0072871Y0167254D02*
X0074558Y0167254D01*
X0073861Y0166756D02*
X0073369Y0166756D01*
X0071375Y0168750D02*
X0081425Y0168750D01*
X0081923Y0169248D02*
X0070877Y0169248D01*
X0070378Y0169747D02*
X0082422Y0169747D01*
X0082920Y0170245D02*
X0069880Y0170245D01*
X0069381Y0170744D02*
X0083419Y0170744D01*
X0083918Y0171242D02*
X0068882Y0171242D01*
X0068384Y0171741D02*
X0084416Y0171741D01*
X0084915Y0172239D02*
X0067885Y0172239D01*
X0067387Y0172738D02*
X0085413Y0172738D01*
X0085912Y0173236D02*
X0066888Y0173236D01*
X0066390Y0173735D02*
X0086410Y0173735D01*
X0086909Y0174233D02*
X0065891Y0174233D01*
X0065393Y0174732D02*
X0087407Y0174732D01*
X0087906Y0175230D02*
X0064894Y0175230D01*
X0064396Y0175729D02*
X0088404Y0175729D01*
X0088903Y0176227D02*
X0063897Y0176227D01*
X0063399Y0176726D02*
X0089401Y0176726D01*
X0089900Y0177224D02*
X0063150Y0177224D01*
X0063150Y0177723D02*
X0090398Y0177723D01*
X0090897Y0178222D02*
X0063150Y0178222D01*
X0063150Y0178720D02*
X0091395Y0178720D01*
X0091894Y0179219D02*
X0063150Y0179219D01*
X0063150Y0179717D02*
X0092392Y0179717D01*
X0092891Y0180216D02*
X0063150Y0180216D01*
X0063150Y0180714D02*
X0093389Y0180714D01*
X0093888Y0181213D02*
X0063150Y0181213D01*
X0063150Y0181711D02*
X0094386Y0181711D01*
X0094885Y0182210D02*
X0063150Y0182210D01*
X0063150Y0182708D02*
X0095383Y0182708D01*
X0095882Y0183207D02*
X0063150Y0183207D01*
X0063150Y0183705D02*
X0096380Y0183705D01*
X0096879Y0184204D02*
X0063150Y0184204D01*
X0063150Y0184702D02*
X0097377Y0184702D01*
X0094667Y0185201D02*
X0088133Y0185201D01*
X0088224Y0185238D02*
X0087523Y0184948D01*
X0086779Y0184800D01*
X0086650Y0184800D01*
X0086650Y0191000D01*
X0086650Y0191500D01*
X0090250Y0191500D01*
X0090250Y0194229D01*
X0090102Y0194973D01*
X0089812Y0195674D01*
X0089390Y0196304D01*
X0088854Y0196840D01*
X0088224Y0197262D01*
X0087523Y0197552D01*
X0086779Y0197700D01*
X0086650Y0197700D01*
X0086650Y0191500D01*
X0086150Y0191500D01*
X0086150Y0197700D01*
X0086021Y0197700D01*
X0085277Y0197552D01*
X0084576Y0197262D01*
X0083946Y0196840D01*
X0083410Y0196304D01*
X0082988Y0195674D01*
X0082698Y0194973D01*
X0082550Y0194229D01*
X0082550Y0191500D01*
X0086150Y0191500D01*
X0086150Y0191000D01*
X0086650Y0191000D01*
X0090250Y0191000D01*
X0090250Y0188271D01*
X0090102Y0187527D01*
X0089812Y0186826D01*
X0089390Y0186196D01*
X0088854Y0185660D01*
X0088224Y0185238D01*
X0088894Y0185699D02*
X0093906Y0185699D01*
X0093408Y0186198D02*
X0089392Y0186198D01*
X0089725Y0186696D02*
X0093042Y0186696D01*
X0092836Y0187195D02*
X0089964Y0187195D01*
X0090135Y0187693D02*
X0092629Y0187693D01*
X0092550Y0188192D02*
X0090234Y0188192D01*
X0090250Y0188690D02*
X0092550Y0188690D01*
X0092550Y0189189D02*
X0090250Y0189189D01*
X0090250Y0189687D02*
X0092550Y0189687D01*
X0092550Y0190186D02*
X0090250Y0190186D01*
X0090250Y0190684D02*
X0092550Y0190684D01*
X0092550Y0191183D02*
X0086650Y0191183D01*
X0086650Y0191681D02*
X0086150Y0191681D01*
X0086150Y0191183D02*
X0080250Y0191183D01*
X0080250Y0191681D02*
X0082550Y0191681D01*
X0082550Y0192180D02*
X0080250Y0192180D01*
X0080250Y0192678D02*
X0082550Y0192678D01*
X0082550Y0193177D02*
X0080250Y0193177D01*
X0080250Y0193675D02*
X0082550Y0193675D01*
X0082550Y0194174D02*
X0080250Y0194174D01*
X0080250Y0194616D02*
X0079664Y0196031D01*
X0078581Y0197114D01*
X0077166Y0197700D01*
X0075634Y0197700D01*
X0074219Y0197114D01*
X0073136Y0196031D01*
X0072550Y0194616D01*
X0072550Y0187884D01*
X0073136Y0186469D01*
X0074219Y0185386D01*
X0075634Y0184800D01*
X0077166Y0184800D01*
X0078581Y0185386D01*
X0079664Y0186469D01*
X0080250Y0187884D01*
X0080250Y0194616D01*
X0080227Y0194672D02*
X0082638Y0194672D01*
X0082780Y0195171D02*
X0080020Y0195171D01*
X0079814Y0195669D02*
X0082986Y0195669D01*
X0083318Y0196168D02*
X0079527Y0196168D01*
X0079028Y0196666D02*
X0083772Y0196666D01*
X0084431Y0197165D02*
X0078458Y0197165D01*
X0077254Y0197663D02*
X0085837Y0197663D01*
X0086150Y0197663D02*
X0086650Y0197663D01*
X0086963Y0197663D02*
X0095546Y0197663D01*
X0094342Y0197165D02*
X0088369Y0197165D01*
X0089028Y0196666D02*
X0093772Y0196666D01*
X0093273Y0196168D02*
X0089482Y0196168D01*
X0089814Y0195669D02*
X0092986Y0195669D01*
X0092780Y0195171D02*
X0090020Y0195171D01*
X0090162Y0194672D02*
X0092573Y0194672D01*
X0092550Y0194174D02*
X0090250Y0194174D01*
X0090250Y0193675D02*
X0092550Y0193675D01*
X0092550Y0193177D02*
X0090250Y0193177D01*
X0090250Y0192678D02*
X0092550Y0192678D01*
X0092550Y0192180D02*
X0090250Y0192180D01*
X0090250Y0191681D02*
X0092550Y0191681D01*
X0097254Y0197663D02*
X0105546Y0197663D01*
X0104342Y0197165D02*
X0098458Y0197165D01*
X0099028Y0196666D02*
X0103772Y0196666D01*
X0103273Y0196168D02*
X0099527Y0196168D01*
X0099814Y0195669D02*
X0102986Y0195669D01*
X0102780Y0195171D02*
X0100020Y0195171D01*
X0100227Y0194672D02*
X0102573Y0194672D01*
X0102550Y0194174D02*
X0100250Y0194174D01*
X0100250Y0193675D02*
X0102550Y0193675D01*
X0102550Y0193177D02*
X0100250Y0193177D01*
X0100250Y0192678D02*
X0102550Y0192678D01*
X0102550Y0192180D02*
X0100250Y0192180D01*
X0100250Y0191681D02*
X0102550Y0191681D01*
X0102550Y0191183D02*
X0100250Y0191183D01*
X0100250Y0190684D02*
X0102550Y0190684D01*
X0102550Y0190186D02*
X0100250Y0190186D01*
X0100250Y0189687D02*
X0102362Y0189687D01*
X0101864Y0189189D02*
X0100250Y0189189D01*
X0100250Y0188690D02*
X0101365Y0188690D01*
X0100867Y0188192D02*
X0100250Y0188192D01*
X0100171Y0187693D02*
X0100368Y0187693D01*
X0105348Y0177723D02*
X0138882Y0177723D01*
X0138882Y0177224D02*
X0104849Y0177224D01*
X0104351Y0176726D02*
X0138882Y0176726D01*
X0138882Y0176227D02*
X0103852Y0176227D01*
X0103354Y0175729D02*
X0138882Y0175729D01*
X0138882Y0175230D02*
X0102855Y0175230D01*
X0102357Y0174732D02*
X0138882Y0174732D01*
X0138882Y0174233D02*
X0101858Y0174233D01*
X0101360Y0173735D02*
X0138882Y0173735D01*
X0138882Y0173236D02*
X0100861Y0173236D01*
X0100363Y0172738D02*
X0138882Y0172738D01*
X0138882Y0172239D02*
X0099864Y0172239D01*
X0099366Y0171741D02*
X0138882Y0171741D01*
X0138882Y0171242D02*
X0098867Y0171242D01*
X0098369Y0170744D02*
X0138882Y0170744D01*
X0138882Y0170245D02*
X0097870Y0170245D01*
X0097372Y0169747D02*
X0138882Y0169747D01*
X0138882Y0169248D02*
X0096873Y0169248D01*
X0096375Y0168750D02*
X0138882Y0168750D01*
X0138882Y0168251D02*
X0095876Y0168251D01*
X0095378Y0167753D02*
X0138882Y0167753D01*
X0138882Y0167254D02*
X0118235Y0167254D01*
X0118224Y0167262D02*
X0117523Y0167552D01*
X0116779Y0167700D01*
X0116650Y0167700D01*
X0116650Y0161500D01*
X0120250Y0161500D01*
X0120250Y0164229D01*
X0120102Y0164973D01*
X0119812Y0165674D01*
X0119390Y0166304D01*
X0118854Y0166840D01*
X0118224Y0167262D01*
X0118939Y0166756D02*
X0138882Y0166756D01*
X0138882Y0166257D02*
X0119422Y0166257D01*
X0119755Y0165759D02*
X0138882Y0165759D01*
X0138882Y0165260D02*
X0119983Y0165260D01*
X0120144Y0164762D02*
X0138882Y0164762D01*
X0138882Y0164263D02*
X0120243Y0164263D01*
X0120250Y0163765D02*
X0138882Y0163765D01*
X0138882Y0163266D02*
X0120250Y0163266D01*
X0120250Y0162768D02*
X0138882Y0162768D01*
X0138882Y0162269D02*
X0120250Y0162269D01*
X0120250Y0161771D02*
X0138882Y0161771D01*
X0138882Y0161272D02*
X0116650Y0161272D01*
X0116650Y0161500D02*
X0116650Y0161000D01*
X0120250Y0161000D01*
X0120250Y0158271D01*
X0120102Y0157527D01*
X0119812Y0156826D01*
X0119390Y0156196D01*
X0118854Y0155660D01*
X0118224Y0155238D01*
X0117523Y0154948D01*
X0116779Y0154800D01*
X0116650Y0154800D01*
X0116650Y0161000D01*
X0116150Y0161000D01*
X0116150Y0154800D01*
X0116021Y0154800D01*
X0115277Y0154948D01*
X0114576Y0155238D01*
X0113946Y0155660D01*
X0113410Y0156196D01*
X0112988Y0156826D01*
X0112698Y0157527D01*
X0112550Y0158271D01*
X0112550Y0161000D01*
X0116150Y0161000D01*
X0116150Y0161500D01*
X0116150Y0167700D01*
X0116021Y0167700D01*
X0115277Y0167552D01*
X0114576Y0167262D01*
X0113946Y0166840D01*
X0113410Y0166304D01*
X0112988Y0165674D01*
X0112698Y0164973D01*
X0112550Y0164229D01*
X0112550Y0161500D01*
X0116150Y0161500D01*
X0116650Y0161500D01*
X0116650Y0161771D02*
X0116150Y0161771D01*
X0116150Y0162269D02*
X0116650Y0162269D01*
X0116650Y0162768D02*
X0116150Y0162768D01*
X0116150Y0163266D02*
X0116650Y0163266D01*
X0116650Y0163765D02*
X0116150Y0163765D01*
X0116150Y0164263D02*
X0116650Y0164263D01*
X0116650Y0164762D02*
X0116150Y0164762D01*
X0116150Y0165260D02*
X0116650Y0165260D01*
X0116650Y0165759D02*
X0116150Y0165759D01*
X0116150Y0166257D02*
X0116650Y0166257D01*
X0116650Y0166756D02*
X0116150Y0166756D01*
X0116150Y0167254D02*
X0116650Y0167254D01*
X0114565Y0167254D02*
X0108242Y0167254D01*
X0108581Y0167114D02*
X0107166Y0167700D01*
X0105634Y0167700D01*
X0104219Y0167114D01*
X0103136Y0166031D01*
X0102550Y0164616D01*
X0102550Y0157884D01*
X0103136Y0156469D01*
X0104219Y0155386D01*
X0105634Y0154800D01*
X0107166Y0154800D01*
X0108581Y0155386D01*
X0109664Y0156469D01*
X0110250Y0157884D01*
X0110250Y0164616D01*
X0109664Y0166031D01*
X0108581Y0167114D01*
X0108939Y0166756D02*
X0113861Y0166756D01*
X0113378Y0166257D02*
X0109437Y0166257D01*
X0109777Y0165759D02*
X0113045Y0165759D01*
X0112817Y0165260D02*
X0109983Y0165260D01*
X0110190Y0164762D02*
X0112656Y0164762D01*
X0112557Y0164263D02*
X0110250Y0164263D01*
X0110250Y0163765D02*
X0112550Y0163765D01*
X0112550Y0163266D02*
X0110250Y0163266D01*
X0110250Y0162768D02*
X0112550Y0162768D01*
X0112550Y0162269D02*
X0110250Y0162269D01*
X0110250Y0161771D02*
X0112550Y0161771D01*
X0112550Y0160774D02*
X0110250Y0160774D01*
X0110250Y0161272D02*
X0116150Y0161272D01*
X0116150Y0160774D02*
X0116650Y0160774D01*
X0116650Y0160275D02*
X0116150Y0160275D01*
X0116150Y0159777D02*
X0116650Y0159777D01*
X0116650Y0159278D02*
X0116150Y0159278D01*
X0116150Y0158780D02*
X0116650Y0158780D01*
X0116650Y0158281D02*
X0116150Y0158281D01*
X0116150Y0157783D02*
X0116650Y0157783D01*
X0116650Y0157284D02*
X0116150Y0157284D01*
X0116150Y0156786D02*
X0116650Y0156786D01*
X0116650Y0156287D02*
X0116150Y0156287D01*
X0116150Y0155789D02*
X0116650Y0155789D01*
X0116650Y0155290D02*
X0116150Y0155290D01*
X0114499Y0155290D02*
X0108349Y0155290D01*
X0108983Y0155789D02*
X0113817Y0155789D01*
X0113349Y0156287D02*
X0109482Y0156287D01*
X0109795Y0156786D02*
X0113015Y0156786D01*
X0112799Y0157284D02*
X0110001Y0157284D01*
X0110208Y0157783D02*
X0112647Y0157783D01*
X0112550Y0158281D02*
X0110250Y0158281D01*
X0110250Y0158780D02*
X0112550Y0158780D01*
X0112550Y0159278D02*
X0110250Y0159278D01*
X0110250Y0159777D02*
X0112550Y0159777D01*
X0112550Y0160275D02*
X0110250Y0160275D01*
X0104451Y0155290D02*
X0098349Y0155290D01*
X0098150Y0154791D02*
X0138882Y0154791D01*
X0138882Y0154293D02*
X0098150Y0154293D01*
X0098150Y0153794D02*
X0138882Y0153794D01*
X0138882Y0153296D02*
X0098150Y0153296D01*
X0098150Y0152797D02*
X0138882Y0152797D01*
X0138882Y0152299D02*
X0098150Y0152299D01*
X0098150Y0151800D02*
X0138882Y0151800D01*
X0138882Y0151302D02*
X0098150Y0151302D01*
X0098150Y0150803D02*
X0138882Y0150803D01*
X0138882Y0150305D02*
X0098150Y0150305D01*
X0098150Y0149806D02*
X0138882Y0149806D01*
X0138882Y0149308D02*
X0098150Y0149308D01*
X0098150Y0148809D02*
X0138882Y0148809D01*
X0138882Y0148311D02*
X0098150Y0148311D01*
X0098150Y0147812D02*
X0138882Y0147812D01*
X0138882Y0147314D02*
X0098150Y0147314D01*
X0098150Y0146815D02*
X0138882Y0146815D01*
X0138882Y0146317D02*
X0098150Y0146317D01*
X0098150Y0145818D02*
X0138882Y0145818D01*
X0138882Y0145320D02*
X0098150Y0145320D01*
X0098150Y0144821D02*
X0138882Y0144821D01*
X0138882Y0144323D02*
X0098150Y0144323D01*
X0098150Y0143824D02*
X0138882Y0143824D01*
X0138882Y0143326D02*
X0098150Y0143326D01*
X0098298Y0142827D02*
X0138882Y0142827D01*
X0138882Y0142329D02*
X0098796Y0142329D01*
X0099295Y0141830D02*
X0138882Y0141830D01*
X0138882Y0141332D02*
X0099793Y0141332D01*
X0100292Y0140833D02*
X0138882Y0140833D01*
X0138882Y0140335D02*
X0100790Y0140335D01*
X0101289Y0139836D02*
X0104514Y0139836D01*
X0103843Y0139338D02*
X0101787Y0139338D01*
X0102286Y0138839D02*
X0103344Y0138839D01*
X0103016Y0138341D02*
X0102784Y0138341D01*
X0101324Y0134851D02*
X0100250Y0134851D01*
X0100250Y0134353D02*
X0101823Y0134353D01*
X0102321Y0133854D02*
X0100250Y0133854D01*
X0100250Y0133355D02*
X0102550Y0133355D01*
X0102550Y0132857D02*
X0100250Y0132857D01*
X0100250Y0132358D02*
X0102550Y0132358D01*
X0102550Y0131860D02*
X0100250Y0131860D01*
X0100250Y0131361D02*
X0102550Y0131361D01*
X0102550Y0130863D02*
X0100250Y0130863D01*
X0100200Y0130364D02*
X0102600Y0130364D01*
X0102806Y0129866D02*
X0099994Y0129866D01*
X0099787Y0129367D02*
X0103013Y0129367D01*
X0103336Y0128869D02*
X0099464Y0128869D01*
X0098965Y0128370D02*
X0103835Y0128370D01*
X0104495Y0127872D02*
X0098305Y0127872D01*
X0094495Y0127872D02*
X0088305Y0127872D01*
X0088965Y0128370D02*
X0093835Y0128370D01*
X0093336Y0128869D02*
X0089464Y0128869D01*
X0089787Y0129367D02*
X0093013Y0129367D01*
X0092806Y0129866D02*
X0089994Y0129866D01*
X0090200Y0130364D02*
X0092600Y0130364D01*
X0092550Y0130863D02*
X0090250Y0130863D01*
X0090250Y0131361D02*
X0092550Y0131361D01*
X0092550Y0131860D02*
X0090250Y0131860D01*
X0090250Y0132358D02*
X0092550Y0132358D01*
X0092550Y0132857D02*
X0090250Y0132857D01*
X0090250Y0133355D02*
X0092550Y0133355D01*
X0092550Y0133854D02*
X0090250Y0133854D01*
X0090250Y0134353D02*
X0092550Y0134353D01*
X0092550Y0134851D02*
X0090250Y0134851D01*
X0090250Y0135350D02*
X0092550Y0135350D01*
X0092550Y0135848D02*
X0090250Y0135848D01*
X0090250Y0136347D02*
X0092550Y0136347D01*
X0092550Y0136845D02*
X0090250Y0136845D01*
X0090197Y0137344D02*
X0092603Y0137344D01*
X0092809Y0137842D02*
X0089991Y0137842D01*
X0089784Y0138341D02*
X0093016Y0138341D01*
X0093344Y0138839D02*
X0089456Y0138839D01*
X0088957Y0139338D02*
X0093843Y0139338D01*
X0094514Y0139836D02*
X0088286Y0139836D01*
X0085954Y0142329D02*
X0094650Y0142329D01*
X0094650Y0142827D02*
X0086452Y0142827D01*
X0086951Y0143326D02*
X0094650Y0143326D01*
X0094650Y0143824D02*
X0087449Y0143824D01*
X0087948Y0144323D02*
X0094650Y0144323D01*
X0094650Y0144821D02*
X0088446Y0144821D01*
X0088945Y0145320D02*
X0094650Y0145320D01*
X0094650Y0145818D02*
X0089443Y0145818D01*
X0089942Y0146317D02*
X0094650Y0146317D01*
X0094650Y0146815D02*
X0090440Y0146815D01*
X0090939Y0147314D02*
X0094650Y0147314D01*
X0094650Y0147812D02*
X0091437Y0147812D01*
X0091936Y0148311D02*
X0094650Y0148311D01*
X0094650Y0148809D02*
X0092434Y0148809D01*
X0092933Y0149308D02*
X0094650Y0149308D01*
X0094650Y0149806D02*
X0093150Y0149806D01*
X0093150Y0150305D02*
X0094650Y0150305D01*
X0094650Y0150803D02*
X0093150Y0150803D01*
X0093150Y0151302D02*
X0094650Y0151302D01*
X0094650Y0151800D02*
X0093150Y0151800D01*
X0093150Y0152299D02*
X0094650Y0152299D01*
X0094650Y0152797D02*
X0093150Y0152797D01*
X0093150Y0153296D02*
X0094650Y0153296D01*
X0094650Y0153794D02*
X0093150Y0153794D01*
X0093150Y0154293D02*
X0094650Y0154293D01*
X0094650Y0154791D02*
X0093150Y0154791D01*
X0093150Y0155290D02*
X0094451Y0155290D01*
X0093817Y0155789D02*
X0093150Y0155789D01*
X0093150Y0156287D02*
X0093318Y0156287D01*
X0089650Y0156287D02*
X0089482Y0156287D01*
X0089650Y0155789D02*
X0088983Y0155789D01*
X0088349Y0155290D02*
X0089650Y0155290D01*
X0084451Y0155290D02*
X0078349Y0155290D01*
X0078983Y0155789D02*
X0083817Y0155789D01*
X0083318Y0156287D02*
X0079482Y0156287D01*
X0079795Y0156786D02*
X0083005Y0156786D01*
X0082799Y0157284D02*
X0080001Y0157284D01*
X0080208Y0157783D02*
X0082592Y0157783D01*
X0082550Y0158281D02*
X0080250Y0158281D01*
X0080250Y0158780D02*
X0082550Y0158780D01*
X0082550Y0159278D02*
X0080250Y0159278D01*
X0080250Y0159777D02*
X0082550Y0159777D01*
X0082550Y0160275D02*
X0080250Y0160275D01*
X0080250Y0160774D02*
X0082550Y0160774D01*
X0082550Y0161272D02*
X0080250Y0161272D01*
X0080250Y0161771D02*
X0082550Y0161771D01*
X0082550Y0162269D02*
X0080250Y0162269D01*
X0080393Y0162768D02*
X0082550Y0162768D01*
X0082550Y0163266D02*
X0080891Y0163266D01*
X0081390Y0163765D02*
X0082550Y0163765D01*
X0082550Y0164263D02*
X0081888Y0164263D01*
X0082387Y0164762D02*
X0082610Y0164762D01*
X0079929Y0167254D02*
X0078242Y0167254D01*
X0078939Y0166756D02*
X0079431Y0166756D01*
X0078133Y0185201D02*
X0084667Y0185201D01*
X0084576Y0185238D02*
X0085277Y0184948D01*
X0086021Y0184800D01*
X0086150Y0184800D01*
X0086150Y0191000D01*
X0082550Y0191000D01*
X0082550Y0188271D01*
X0082698Y0187527D01*
X0082988Y0186826D01*
X0083410Y0186196D01*
X0083946Y0185660D01*
X0084576Y0185238D01*
X0083906Y0185699D02*
X0078894Y0185699D01*
X0079392Y0186198D02*
X0083408Y0186198D01*
X0083075Y0186696D02*
X0079758Y0186696D01*
X0079964Y0187195D02*
X0082836Y0187195D01*
X0082665Y0187693D02*
X0080171Y0187693D01*
X0080250Y0188192D02*
X0082566Y0188192D01*
X0082550Y0188690D02*
X0080250Y0188690D01*
X0080250Y0189189D02*
X0082550Y0189189D01*
X0082550Y0189687D02*
X0080250Y0189687D01*
X0080250Y0190186D02*
X0082550Y0190186D01*
X0082550Y0190684D02*
X0080250Y0190684D01*
X0075546Y0197663D02*
X0066963Y0197663D01*
X0066779Y0197700D02*
X0066650Y0197700D01*
X0066650Y0191500D01*
X0070250Y0191500D01*
X0070250Y0194229D01*
X0070102Y0194973D01*
X0069812Y0195674D01*
X0069390Y0196304D01*
X0068854Y0196840D01*
X0068224Y0197262D01*
X0067523Y0197552D01*
X0066779Y0197700D01*
X0066650Y0197663D02*
X0066150Y0197663D01*
X0065837Y0197663D02*
X0061461Y0197663D01*
X0061960Y0197165D02*
X0064431Y0197165D01*
X0063772Y0196666D02*
X0062458Y0196666D01*
X0062957Y0196168D02*
X0063318Y0196168D01*
X0060963Y0198162D02*
X0138882Y0198162D01*
X0138882Y0198660D02*
X0060464Y0198660D01*
X0059966Y0199159D02*
X0138882Y0199159D01*
X0138882Y0199658D02*
X0059467Y0199658D01*
X0058969Y0200156D02*
X0138882Y0200156D01*
X0138882Y0200655D02*
X0058470Y0200655D01*
X0058150Y0201153D02*
X0138882Y0201153D01*
X0138882Y0201652D02*
X0058150Y0201652D01*
X0058150Y0202150D02*
X0138882Y0202150D01*
X0138882Y0202649D02*
X0058150Y0202649D01*
X0058150Y0203147D02*
X0138882Y0203147D01*
X0138882Y0203646D02*
X0058150Y0203646D01*
X0058150Y0204144D02*
X0138882Y0204144D01*
X0138882Y0204643D02*
X0058150Y0204643D01*
X0058150Y0205141D02*
X0138882Y0205141D01*
X0138882Y0205640D02*
X0058150Y0205640D01*
X0058150Y0206138D02*
X0138882Y0206138D01*
X0138882Y0206637D02*
X0058150Y0206637D01*
X0058150Y0207135D02*
X0138882Y0207135D01*
X0138882Y0207634D02*
X0083228Y0207634D01*
X0082995Y0207400D02*
X0085250Y0209655D01*
X0085250Y0212845D01*
X0082995Y0215100D01*
X0079805Y0215100D01*
X0077550Y0212845D01*
X0077550Y0209655D01*
X0079805Y0207400D01*
X0082995Y0207400D01*
X0083727Y0208132D02*
X0138882Y0208132D01*
X0138882Y0208631D02*
X0084225Y0208631D01*
X0084724Y0209129D02*
X0138882Y0209129D01*
X0138882Y0209628D02*
X0085222Y0209628D01*
X0085250Y0210126D02*
X0138882Y0210126D01*
X0138882Y0210625D02*
X0085250Y0210625D01*
X0085250Y0211123D02*
X0138882Y0211123D01*
X0138882Y0211622D02*
X0085250Y0211622D01*
X0085250Y0212120D02*
X0138882Y0212120D01*
X0138882Y0212619D02*
X0085250Y0212619D01*
X0084977Y0213117D02*
X0138882Y0213117D01*
X0138882Y0213616D02*
X0084479Y0213616D01*
X0083980Y0214114D02*
X0138882Y0214114D01*
X0138882Y0214613D02*
X0083482Y0214613D01*
X0084918Y0220096D02*
X0077882Y0220096D01*
X0078224Y0220238D02*
X0077523Y0219948D01*
X0076779Y0219800D01*
X0076650Y0219800D01*
X0076650Y0226000D01*
X0076650Y0226500D01*
X0080250Y0226500D01*
X0080250Y0229229D01*
X0080102Y0229973D01*
X0079812Y0230674D01*
X0079390Y0231304D01*
X0078854Y0231840D01*
X0078224Y0232262D01*
X0077523Y0232552D01*
X0076779Y0232700D01*
X0076650Y0232700D01*
X0076650Y0226500D01*
X0076150Y0226500D01*
X0076150Y0232700D01*
X0076021Y0232700D01*
X0075277Y0232552D01*
X0074576Y0232262D01*
X0073946Y0231840D01*
X0073410Y0231304D01*
X0072988Y0230674D01*
X0072698Y0229973D01*
X0072550Y0229229D01*
X0072550Y0226500D01*
X0076150Y0226500D01*
X0076150Y0226000D01*
X0076650Y0226000D01*
X0080250Y0226000D01*
X0080250Y0223271D01*
X0080102Y0222527D01*
X0079812Y0221826D01*
X0079390Y0221196D01*
X0078854Y0220660D01*
X0078224Y0220238D01*
X0078758Y0220595D02*
X0084042Y0220595D01*
X0083946Y0220660D02*
X0084576Y0220238D01*
X0085277Y0219948D01*
X0086021Y0219800D01*
X0086150Y0219800D01*
X0086150Y0226000D01*
X0086650Y0226000D01*
X0086650Y0226500D01*
X0090250Y0226500D01*
X0090250Y0229229D01*
X0090102Y0229973D01*
X0089812Y0230674D01*
X0089390Y0231304D01*
X0088854Y0231840D01*
X0088224Y0232262D01*
X0087523Y0232552D01*
X0086779Y0232700D01*
X0086650Y0232700D01*
X0086650Y0226500D01*
X0086150Y0226500D01*
X0086150Y0232700D01*
X0086021Y0232700D01*
X0085277Y0232552D01*
X0084576Y0232262D01*
X0083946Y0231840D01*
X0083410Y0231304D01*
X0082988Y0230674D01*
X0082698Y0229973D01*
X0082550Y0229229D01*
X0082550Y0226500D01*
X0086150Y0226500D01*
X0086150Y0226000D01*
X0082550Y0226000D01*
X0082550Y0223271D01*
X0082698Y0222527D01*
X0082988Y0221826D01*
X0083410Y0221196D01*
X0083946Y0220660D01*
X0083512Y0221093D02*
X0079288Y0221093D01*
X0079655Y0221592D02*
X0083145Y0221592D01*
X0082879Y0222091D02*
X0079921Y0222091D01*
X0080114Y0222589D02*
X0082686Y0222589D01*
X0082586Y0223088D02*
X0080214Y0223088D01*
X0080250Y0223586D02*
X0082550Y0223586D01*
X0082550Y0224085D02*
X0080250Y0224085D01*
X0080250Y0224583D02*
X0082550Y0224583D01*
X0082550Y0225082D02*
X0080250Y0225082D01*
X0080250Y0225580D02*
X0082550Y0225580D01*
X0082550Y0226577D02*
X0080250Y0226577D01*
X0080250Y0227076D02*
X0082550Y0227076D01*
X0082550Y0227574D02*
X0080250Y0227574D01*
X0080250Y0228073D02*
X0082550Y0228073D01*
X0082550Y0228571D02*
X0080250Y0228571D01*
X0080250Y0229070D02*
X0082550Y0229070D01*
X0082617Y0229568D02*
X0080183Y0229568D01*
X0080063Y0230067D02*
X0082737Y0230067D01*
X0082943Y0230565D02*
X0079857Y0230565D01*
X0079551Y0231064D02*
X0083249Y0231064D01*
X0083668Y0231562D02*
X0079132Y0231562D01*
X0078525Y0232061D02*
X0084275Y0232061D01*
X0085313Y0232559D02*
X0077487Y0232559D01*
X0076650Y0232559D02*
X0076150Y0232559D01*
X0076150Y0232061D02*
X0076650Y0232061D01*
X0076650Y0231562D02*
X0076150Y0231562D01*
X0076150Y0231064D02*
X0076650Y0231064D01*
X0076650Y0230565D02*
X0076150Y0230565D01*
X0076150Y0230067D02*
X0076650Y0230067D01*
X0076650Y0229568D02*
X0076150Y0229568D01*
X0076150Y0229070D02*
X0076650Y0229070D01*
X0076650Y0228571D02*
X0076150Y0228571D01*
X0076150Y0228073D02*
X0076650Y0228073D01*
X0076650Y0227574D02*
X0076150Y0227574D01*
X0076150Y0227076D02*
X0076650Y0227076D01*
X0076650Y0226577D02*
X0076150Y0226577D01*
X0076150Y0226079D02*
X0066650Y0226079D01*
X0066650Y0226000D02*
X0066650Y0226500D01*
X0070250Y0226500D01*
X0070250Y0229229D01*
X0070102Y0229973D01*
X0069812Y0230674D01*
X0069390Y0231304D01*
X0068854Y0231840D01*
X0068224Y0232262D01*
X0067523Y0232552D01*
X0066779Y0232700D01*
X0066650Y0232700D01*
X0066650Y0226500D01*
X0066150Y0226500D01*
X0066150Y0232700D01*
X0066021Y0232700D01*
X0065277Y0232552D01*
X0064576Y0232262D01*
X0063946Y0231840D01*
X0063410Y0231304D01*
X0062988Y0230674D01*
X0062698Y0229973D01*
X0062550Y0229229D01*
X0062550Y0226500D01*
X0066150Y0226500D01*
X0066150Y0226000D01*
X0066650Y0226000D01*
X0070250Y0226000D01*
X0070250Y0223271D01*
X0070102Y0222527D01*
X0069812Y0221826D01*
X0069390Y0221196D01*
X0068854Y0220660D01*
X0068224Y0220238D01*
X0067523Y0219948D01*
X0066779Y0219800D01*
X0066650Y0219800D01*
X0066650Y0226000D01*
X0066650Y0225580D02*
X0066150Y0225580D01*
X0066150Y0226000D02*
X0066150Y0219800D01*
X0066021Y0219800D01*
X0065277Y0219948D01*
X0064576Y0220238D01*
X0063946Y0220660D01*
X0063410Y0221196D01*
X0062988Y0221826D01*
X0062698Y0222527D01*
X0062550Y0223271D01*
X0062550Y0226000D01*
X0066150Y0226000D01*
X0066150Y0226079D02*
X0060250Y0226079D01*
X0060250Y0226577D02*
X0062550Y0226577D01*
X0062550Y0227076D02*
X0060250Y0227076D01*
X0060250Y0227574D02*
X0062550Y0227574D01*
X0062550Y0228073D02*
X0060250Y0228073D01*
X0060250Y0228571D02*
X0062550Y0228571D01*
X0062550Y0229070D02*
X0060250Y0229070D01*
X0060250Y0229568D02*
X0062617Y0229568D01*
X0062737Y0230067D02*
X0060063Y0230067D01*
X0059857Y0230565D02*
X0062943Y0230565D01*
X0063249Y0231064D02*
X0059631Y0231064D01*
X0059132Y0231562D02*
X0063668Y0231562D01*
X0064275Y0232061D02*
X0058634Y0232061D01*
X0057506Y0232559D02*
X0065313Y0232559D01*
X0066150Y0232559D02*
X0066650Y0232559D01*
X0066650Y0232061D02*
X0066150Y0232061D01*
X0066150Y0231562D02*
X0066650Y0231562D01*
X0066650Y0231064D02*
X0066150Y0231064D01*
X0066150Y0230565D02*
X0066650Y0230565D01*
X0066650Y0230067D02*
X0066150Y0230067D01*
X0066150Y0229568D02*
X0066650Y0229568D01*
X0066650Y0229070D02*
X0066150Y0229070D01*
X0066150Y0228571D02*
X0066650Y0228571D01*
X0066650Y0228073D02*
X0066150Y0228073D01*
X0066150Y0227574D02*
X0066650Y0227574D01*
X0066650Y0227076D02*
X0066150Y0227076D01*
X0066150Y0226577D02*
X0066650Y0226577D01*
X0066650Y0225082D02*
X0066150Y0225082D01*
X0066150Y0224583D02*
X0066650Y0224583D01*
X0066650Y0224085D02*
X0066150Y0224085D01*
X0066150Y0223586D02*
X0066650Y0223586D01*
X0066650Y0223088D02*
X0066150Y0223088D01*
X0066150Y0222589D02*
X0066650Y0222589D01*
X0066650Y0222091D02*
X0066150Y0222091D01*
X0066150Y0221592D02*
X0066650Y0221592D01*
X0066650Y0221093D02*
X0066150Y0221093D01*
X0066150Y0220595D02*
X0066650Y0220595D01*
X0066650Y0220096D02*
X0066150Y0220096D01*
X0064918Y0220096D02*
X0058150Y0220096D01*
X0058150Y0219598D02*
X0138882Y0219598D01*
X0138882Y0220096D02*
X0087882Y0220096D01*
X0088224Y0220238D02*
X0087523Y0219948D01*
X0086779Y0219800D01*
X0086650Y0219800D01*
X0086650Y0226000D01*
X0090250Y0226000D01*
X0090250Y0223271D01*
X0090102Y0222527D01*
X0089812Y0221826D01*
X0089390Y0221196D01*
X0088854Y0220660D01*
X0088224Y0220238D01*
X0088758Y0220595D02*
X0138882Y0220595D01*
X0138882Y0221093D02*
X0089288Y0221093D01*
X0089655Y0221592D02*
X0138882Y0221592D01*
X0138882Y0222091D02*
X0089921Y0222091D01*
X0090114Y0222589D02*
X0138882Y0222589D01*
X0138882Y0223088D02*
X0090214Y0223088D01*
X0090250Y0223586D02*
X0138882Y0223586D01*
X0138882Y0224085D02*
X0090250Y0224085D01*
X0090250Y0224583D02*
X0138882Y0224583D01*
X0138882Y0225082D02*
X0090250Y0225082D01*
X0090250Y0225580D02*
X0138882Y0225580D01*
X0138882Y0226079D02*
X0086650Y0226079D01*
X0086650Y0226577D02*
X0086150Y0226577D01*
X0086150Y0226079D02*
X0076650Y0226079D01*
X0076650Y0225580D02*
X0076150Y0225580D01*
X0076150Y0226000D02*
X0076150Y0219800D01*
X0076021Y0219800D01*
X0075277Y0219948D01*
X0074576Y0220238D01*
X0073946Y0220660D01*
X0073410Y0221196D01*
X0072988Y0221826D01*
X0072698Y0222527D01*
X0072550Y0223271D01*
X0072550Y0226000D01*
X0076150Y0226000D01*
X0076150Y0225082D02*
X0076650Y0225082D01*
X0076650Y0224583D02*
X0076150Y0224583D01*
X0076150Y0224085D02*
X0076650Y0224085D01*
X0076650Y0223586D02*
X0076150Y0223586D01*
X0076150Y0223088D02*
X0076650Y0223088D01*
X0076650Y0222589D02*
X0076150Y0222589D01*
X0076150Y0222091D02*
X0076650Y0222091D01*
X0076650Y0221592D02*
X0076150Y0221592D01*
X0076150Y0221093D02*
X0076650Y0221093D01*
X0076650Y0220595D02*
X0076150Y0220595D01*
X0076150Y0220096D02*
X0076650Y0220096D01*
X0079318Y0214613D02*
X0063482Y0214613D01*
X0063980Y0214114D02*
X0078820Y0214114D01*
X0078321Y0213616D02*
X0064479Y0213616D01*
X0064977Y0213117D02*
X0077823Y0213117D01*
X0077550Y0212619D02*
X0065250Y0212619D01*
X0065250Y0212120D02*
X0077550Y0212120D01*
X0077550Y0211622D02*
X0065250Y0211622D01*
X0065250Y0211123D02*
X0077550Y0211123D01*
X0077550Y0210625D02*
X0065250Y0210625D01*
X0065250Y0210126D02*
X0077550Y0210126D01*
X0077578Y0209628D02*
X0065222Y0209628D01*
X0064724Y0209129D02*
X0078076Y0209129D01*
X0078575Y0208631D02*
X0064225Y0208631D01*
X0063727Y0208132D02*
X0079073Y0208132D01*
X0079572Y0207634D02*
X0063228Y0207634D01*
X0059572Y0207634D02*
X0058150Y0207634D01*
X0058150Y0208132D02*
X0059073Y0208132D01*
X0058575Y0208631D02*
X0058150Y0208631D01*
X0058150Y0213616D02*
X0058321Y0213616D01*
X0058150Y0214114D02*
X0058820Y0214114D01*
X0059318Y0214613D02*
X0058150Y0214613D01*
X0058150Y0215111D02*
X0138882Y0215111D01*
X0138882Y0215610D02*
X0058150Y0215610D01*
X0058150Y0216108D02*
X0138882Y0216108D01*
X0138882Y0216607D02*
X0058150Y0216607D01*
X0058150Y0217105D02*
X0138882Y0217105D01*
X0138882Y0217604D02*
X0058150Y0217604D01*
X0058150Y0218102D02*
X0138882Y0218102D01*
X0138882Y0218601D02*
X0058150Y0218601D01*
X0058150Y0219099D02*
X0138882Y0219099D01*
X0138882Y0226577D02*
X0090250Y0226577D01*
X0090250Y0227076D02*
X0138882Y0227076D01*
X0138882Y0227574D02*
X0108169Y0227574D01*
X0107995Y0227400D02*
X0110250Y0229655D01*
X0110250Y0232845D01*
X0107995Y0235100D01*
X0106725Y0235100D01*
X0117130Y0245505D01*
X0117534Y0245338D01*
X0117204Y0245170D01*
X0116644Y0244763D01*
X0116154Y0244274D01*
X0115747Y0243713D01*
X0115433Y0243096D01*
X0115219Y0242438D01*
X0115111Y0241754D01*
X0115111Y0241657D01*
X0119260Y0241657D01*
X0119260Y0241157D01*
X0115111Y0241157D01*
X0115111Y0241061D01*
X0115219Y0240377D01*
X0115433Y0239719D01*
X0115747Y0239102D01*
X0116154Y0238541D01*
X0116644Y0238052D01*
X0117204Y0237645D01*
X0117534Y0237477D01*
X0117018Y0237263D01*
X0115780Y0236026D01*
X0115111Y0234409D01*
X0115111Y0232658D01*
X0115780Y0231041D01*
X0117018Y0229804D01*
X0118635Y0229134D01*
X0120385Y0229134D01*
X0122002Y0229804D01*
X0123240Y0231041D01*
X0123910Y0232658D01*
X0123910Y0234409D01*
X0123240Y0236026D01*
X0122002Y0237263D01*
X0121487Y0237477D01*
X0121816Y0237645D01*
X0122376Y0238052D01*
X0122866Y0238541D01*
X0123273Y0239102D01*
X0123587Y0239719D01*
X0123802Y0240377D01*
X0123910Y0241061D01*
X0123910Y0241157D01*
X0119760Y0241157D01*
X0119760Y0241657D01*
X0123910Y0241657D01*
X0123910Y0241754D01*
X0123802Y0242438D01*
X0123587Y0243096D01*
X0123273Y0243713D01*
X0122866Y0244274D01*
X0122376Y0244763D01*
X0121816Y0245170D01*
X0121487Y0245338D01*
X0122002Y0245552D01*
X0123240Y0246789D01*
X0123910Y0248406D01*
X0123910Y0250157D01*
X0123240Y0251774D01*
X0122002Y0253011D01*
X0120385Y0253681D01*
X0118635Y0253681D01*
X0117018Y0253011D01*
X0115780Y0251774D01*
X0115111Y0250157D01*
X0115111Y0248435D01*
X0099885Y0233210D01*
X0097995Y0235100D01*
X0094805Y0235100D01*
X0092550Y0232845D01*
X0092550Y0229655D01*
X0094805Y0227400D01*
X0097995Y0227400D01*
X0100095Y0229500D01*
X0101125Y0229500D01*
X0102550Y0230925D01*
X0102550Y0229655D01*
X0104805Y0227400D01*
X0107995Y0227400D01*
X0108667Y0228073D02*
X0138882Y0228073D01*
X0138882Y0228571D02*
X0109166Y0228571D01*
X0109664Y0229070D02*
X0138882Y0229070D01*
X0138882Y0229568D02*
X0121434Y0229568D01*
X0122265Y0230067D02*
X0138882Y0230067D01*
X0138882Y0230565D02*
X0122764Y0230565D01*
X0123249Y0231064D02*
X0138882Y0231064D01*
X0138882Y0231562D02*
X0123456Y0231562D01*
X0123662Y0232061D02*
X0138882Y0232061D01*
X0138882Y0232559D02*
X0123869Y0232559D01*
X0123910Y0233058D02*
X0138882Y0233058D01*
X0138882Y0233556D02*
X0123910Y0233556D01*
X0123910Y0234055D02*
X0138882Y0234055D01*
X0138882Y0234553D02*
X0123850Y0234553D01*
X0123643Y0235052D02*
X0138882Y0235052D01*
X0138882Y0235550D02*
X0123437Y0235550D01*
X0123217Y0236049D02*
X0138882Y0236049D01*
X0138882Y0236547D02*
X0122718Y0236547D01*
X0122220Y0237046D02*
X0138882Y0237046D01*
X0138882Y0237544D02*
X0121619Y0237544D01*
X0122364Y0238043D02*
X0138882Y0238043D01*
X0138882Y0238541D02*
X0122866Y0238541D01*
X0123228Y0239040D02*
X0138882Y0239040D01*
X0138882Y0239538D02*
X0123496Y0239538D01*
X0123691Y0240037D02*
X0138882Y0240037D01*
X0138882Y0240535D02*
X0123827Y0240535D01*
X0123906Y0241034D02*
X0138882Y0241034D01*
X0138882Y0241532D02*
X0119760Y0241532D01*
X0119260Y0241532D02*
X0113157Y0241532D01*
X0112659Y0241034D02*
X0115115Y0241034D01*
X0115194Y0240535D02*
X0112160Y0240535D01*
X0111662Y0240037D02*
X0115330Y0240037D01*
X0115525Y0239538D02*
X0111163Y0239538D01*
X0110665Y0239040D02*
X0115792Y0239040D01*
X0116154Y0238541D02*
X0110166Y0238541D01*
X0109668Y0238043D02*
X0116656Y0238043D01*
X0117401Y0237544D02*
X0109169Y0237544D01*
X0108671Y0237046D02*
X0116801Y0237046D01*
X0116302Y0236547D02*
X0108172Y0236547D01*
X0107674Y0236049D02*
X0115804Y0236049D01*
X0115584Y0235550D02*
X0107175Y0235550D01*
X0108043Y0235052D02*
X0115377Y0235052D01*
X0115171Y0234553D02*
X0108541Y0234553D01*
X0109040Y0234055D02*
X0115111Y0234055D01*
X0115111Y0233556D02*
X0109538Y0233556D01*
X0110037Y0233058D02*
X0115111Y0233058D01*
X0115152Y0232559D02*
X0110250Y0232559D01*
X0110250Y0232061D02*
X0115358Y0232061D01*
X0115565Y0231562D02*
X0110250Y0231562D01*
X0110250Y0231064D02*
X0115771Y0231064D01*
X0116256Y0230565D02*
X0110250Y0230565D01*
X0110250Y0230067D02*
X0116755Y0230067D01*
X0117587Y0229568D02*
X0110163Y0229568D01*
X0105715Y0239040D02*
X0049055Y0239040D01*
X0049553Y0238541D02*
X0105217Y0238541D01*
X0104718Y0238043D02*
X0050052Y0238043D01*
X0050250Y0237544D02*
X0104220Y0237544D01*
X0103721Y0237046D02*
X0050250Y0237046D01*
X0050250Y0236547D02*
X0103222Y0236547D01*
X0102724Y0236049D02*
X0050250Y0236049D01*
X0050250Y0235550D02*
X0102225Y0235550D01*
X0101727Y0235052D02*
X0098043Y0235052D01*
X0098541Y0234553D02*
X0101228Y0234553D01*
X0100730Y0234055D02*
X0099040Y0234055D01*
X0099538Y0233556D02*
X0100231Y0233556D01*
X0102190Y0230565D02*
X0102550Y0230565D01*
X0102550Y0230067D02*
X0101692Y0230067D01*
X0101193Y0229568D02*
X0102637Y0229568D01*
X0103136Y0229070D02*
X0099664Y0229070D01*
X0099166Y0228571D02*
X0103634Y0228571D01*
X0104133Y0228073D02*
X0098667Y0228073D01*
X0098169Y0227574D02*
X0104631Y0227574D01*
X0106214Y0239538D02*
X0048556Y0239538D01*
X0048058Y0240037D02*
X0106712Y0240037D01*
X0107211Y0240535D02*
X0034160Y0240535D01*
X0034125Y0240500D02*
X0052550Y0258925D01*
X0052550Y0252884D01*
X0053136Y0251469D01*
X0054219Y0250386D01*
X0055634Y0249800D01*
X0057166Y0249800D01*
X0058581Y0250386D01*
X0059185Y0250990D01*
X0062675Y0247500D01*
X0089125Y0247500D01*
X0090150Y0248525D01*
X0091125Y0249500D01*
X0092705Y0249500D01*
X0094805Y0247400D01*
X0097995Y0247400D01*
X0100250Y0249655D01*
X0100250Y0252845D01*
X0097995Y0255100D01*
X0094805Y0255100D01*
X0092705Y0253000D01*
X0090196Y0253000D01*
X0090250Y0253271D01*
X0090250Y0256000D01*
X0086650Y0256000D01*
X0086650Y0256500D01*
X0086150Y0256500D01*
X0086150Y0262700D01*
X0086021Y0262700D01*
X0085277Y0262552D01*
X0084576Y0262262D01*
X0083946Y0261840D01*
X0083410Y0261304D01*
X0082988Y0260674D01*
X0082698Y0259973D01*
X0082550Y0259229D01*
X0082550Y0256500D01*
X0086150Y0256500D01*
X0086150Y0256000D01*
X0082550Y0256000D01*
X0082550Y0253271D01*
X0082698Y0252527D01*
X0082988Y0251826D01*
X0083410Y0251196D01*
X0083605Y0251000D01*
X0079195Y0251000D01*
X0079664Y0251469D01*
X0080250Y0252884D01*
X0080250Y0259616D01*
X0079664Y0261031D01*
X0078581Y0262114D01*
X0077166Y0262700D01*
X0075634Y0262700D01*
X0074219Y0262114D01*
X0073615Y0261510D01*
X0070125Y0265000D01*
X0053675Y0265000D01*
X0052650Y0263975D01*
X0032675Y0244000D01*
X0028652Y0244000D01*
X0027514Y0245137D01*
X0027014Y0245344D01*
X0027514Y0245552D01*
X0028752Y0246789D01*
X0029422Y0248406D01*
X0029422Y0250157D01*
X0028752Y0251774D01*
X0027514Y0253011D01*
X0025897Y0253681D01*
X0024147Y0253681D01*
X0022530Y0253011D01*
X0021292Y0251774D01*
X0020622Y0250157D01*
X0020622Y0248406D01*
X0021292Y0246789D01*
X0022530Y0245552D01*
X0023030Y0245344D01*
X0022530Y0245137D01*
X0021292Y0243900D01*
X0020622Y0242283D01*
X0020622Y0240532D01*
X0021292Y0238915D01*
X0022530Y0237678D01*
X0024147Y0237008D01*
X0025897Y0237008D01*
X0027514Y0237678D01*
X0028752Y0238915D01*
X0029408Y0240500D01*
X0034125Y0240500D01*
X0034659Y0241034D02*
X0107709Y0241034D01*
X0108208Y0241532D02*
X0035157Y0241532D01*
X0035656Y0242031D02*
X0108706Y0242031D01*
X0109205Y0242529D02*
X0048124Y0242529D01*
X0047995Y0242400D02*
X0050250Y0244655D01*
X0050250Y0246000D01*
X0046650Y0246000D01*
X0046650Y0246500D01*
X0046150Y0246500D01*
X0046150Y0250100D01*
X0044805Y0250100D01*
X0042550Y0247845D01*
X0042550Y0246500D01*
X0046150Y0246500D01*
X0046150Y0246000D01*
X0042550Y0246000D01*
X0042550Y0244655D01*
X0044805Y0242400D01*
X0046150Y0242400D01*
X0046150Y0246000D01*
X0046650Y0246000D01*
X0046650Y0242400D01*
X0047995Y0242400D01*
X0048623Y0243028D02*
X0109703Y0243028D01*
X0110202Y0243527D02*
X0049121Y0243527D01*
X0049620Y0244025D02*
X0110700Y0244025D01*
X0111199Y0244524D02*
X0050118Y0244524D01*
X0050250Y0245022D02*
X0111697Y0245022D01*
X0112196Y0245521D02*
X0050250Y0245521D01*
X0050250Y0246500D02*
X0050250Y0247845D01*
X0047995Y0250100D01*
X0046650Y0250100D01*
X0046650Y0246500D01*
X0050250Y0246500D01*
X0050250Y0246518D02*
X0113193Y0246518D01*
X0113691Y0247016D02*
X0050250Y0247016D01*
X0050250Y0247515D02*
X0062661Y0247515D01*
X0062162Y0248013D02*
X0050082Y0248013D01*
X0049583Y0248512D02*
X0061664Y0248512D01*
X0061165Y0249010D02*
X0049085Y0249010D01*
X0048586Y0249509D02*
X0060666Y0249509D01*
X0060168Y0250007D02*
X0057666Y0250007D01*
X0058700Y0250506D02*
X0059669Y0250506D01*
X0055134Y0250007D02*
X0048088Y0250007D01*
X0046650Y0250007D02*
X0046150Y0250007D01*
X0046150Y0249509D02*
X0046650Y0249509D01*
X0046650Y0249010D02*
X0046150Y0249010D01*
X0046150Y0248512D02*
X0046650Y0248512D01*
X0046650Y0248013D02*
X0046150Y0248013D01*
X0046150Y0247515D02*
X0046650Y0247515D01*
X0046650Y0247016D02*
X0046150Y0247016D01*
X0046150Y0246518D02*
X0046650Y0246518D01*
X0046650Y0246019D02*
X0112694Y0246019D01*
X0115111Y0249509D02*
X0110103Y0249509D01*
X0110250Y0249655D02*
X0107995Y0247400D01*
X0104805Y0247400D01*
X0102550Y0249655D01*
X0102550Y0252845D01*
X0104805Y0255100D01*
X0107995Y0255100D01*
X0110250Y0252845D01*
X0110250Y0249655D01*
X0110250Y0250007D02*
X0115111Y0250007D01*
X0115255Y0250506D02*
X0110250Y0250506D01*
X0110250Y0251004D02*
X0115462Y0251004D01*
X0115668Y0251503D02*
X0110250Y0251503D01*
X0110250Y0252001D02*
X0116008Y0252001D01*
X0116506Y0252500D02*
X0110250Y0252500D01*
X0110096Y0252998D02*
X0117005Y0252998D01*
X0118190Y0253497D02*
X0109598Y0253497D01*
X0109099Y0253995D02*
X0138882Y0253995D01*
X0138882Y0253497D02*
X0120830Y0253497D01*
X0122015Y0252998D02*
X0138882Y0252998D01*
X0138882Y0252500D02*
X0122514Y0252500D01*
X0123013Y0252001D02*
X0138882Y0252001D01*
X0138882Y0251503D02*
X0123352Y0251503D01*
X0123559Y0251004D02*
X0138882Y0251004D01*
X0138882Y0250506D02*
X0123765Y0250506D01*
X0123910Y0250007D02*
X0138882Y0250007D01*
X0138882Y0249509D02*
X0123910Y0249509D01*
X0123910Y0249010D02*
X0138882Y0249010D01*
X0138882Y0248512D02*
X0123910Y0248512D01*
X0123747Y0248013D02*
X0138882Y0248013D01*
X0138882Y0247515D02*
X0123540Y0247515D01*
X0123334Y0247016D02*
X0138882Y0247016D01*
X0138882Y0246518D02*
X0122968Y0246518D01*
X0122470Y0246019D02*
X0138882Y0246019D01*
X0138882Y0245521D02*
X0121927Y0245521D01*
X0122020Y0245022D02*
X0138882Y0245022D01*
X0138882Y0244524D02*
X0122616Y0244524D01*
X0123047Y0244025D02*
X0138882Y0244025D01*
X0138882Y0243527D02*
X0123368Y0243527D01*
X0123610Y0243028D02*
X0138882Y0243028D01*
X0138882Y0242529D02*
X0123772Y0242529D01*
X0123866Y0242031D02*
X0138882Y0242031D01*
X0138882Y0254494D02*
X0108601Y0254494D01*
X0108102Y0254992D02*
X0138882Y0254992D01*
X0138882Y0255491D02*
X0090250Y0255491D01*
X0090250Y0255989D02*
X0138882Y0255989D01*
X0138882Y0256488D02*
X0086650Y0256488D01*
X0086650Y0256500D02*
X0090250Y0256500D01*
X0090250Y0259229D01*
X0090102Y0259973D01*
X0089812Y0260674D01*
X0089390Y0261304D01*
X0088854Y0261840D01*
X0088224Y0262262D01*
X0087523Y0262552D01*
X0086779Y0262700D01*
X0086650Y0262700D01*
X0086650Y0256500D01*
X0086650Y0256986D02*
X0086150Y0256986D01*
X0086150Y0256488D02*
X0080250Y0256488D01*
X0080250Y0256986D02*
X0082550Y0256986D01*
X0082550Y0257485D02*
X0080250Y0257485D01*
X0080250Y0257983D02*
X0082550Y0257983D01*
X0082550Y0258482D02*
X0080250Y0258482D01*
X0080250Y0258980D02*
X0082550Y0258980D01*
X0082600Y0259479D02*
X0080250Y0259479D01*
X0080100Y0259977D02*
X0082700Y0259977D01*
X0082906Y0260476D02*
X0079894Y0260476D01*
X0079687Y0260974D02*
X0083189Y0260974D01*
X0083578Y0261473D02*
X0079222Y0261473D01*
X0078723Y0261971D02*
X0084142Y0261971D01*
X0085079Y0262470D02*
X0077721Y0262470D01*
X0075079Y0262470D02*
X0072655Y0262470D01*
X0073153Y0261971D02*
X0074077Y0261971D01*
X0072156Y0262968D02*
X0127641Y0262968D01*
X0126567Y0263467D02*
X0071658Y0263467D01*
X0071159Y0263965D02*
X0125704Y0263965D01*
X0124842Y0264464D02*
X0070661Y0264464D01*
X0070162Y0264962D02*
X0124343Y0264962D01*
X0123845Y0265461D02*
X0020687Y0265461D01*
X0020189Y0264962D02*
X0053638Y0264962D01*
X0053139Y0264464D02*
X0019690Y0264464D01*
X0018828Y0263965D02*
X0052641Y0263965D01*
X0052142Y0263467D02*
X0017965Y0263467D01*
X0016892Y0262968D02*
X0051644Y0262968D01*
X0051145Y0262470D02*
X0015031Y0262470D01*
X0011391Y0262470D02*
X0005650Y0262470D01*
X0005650Y0262968D02*
X0009530Y0262968D01*
X0008457Y0263467D02*
X0005650Y0263467D01*
X0005650Y0263965D02*
X0007594Y0263965D01*
X0006732Y0264464D02*
X0005650Y0264464D01*
X0005650Y0264962D02*
X0006233Y0264962D01*
X0005735Y0265461D02*
X0005650Y0265461D01*
X0005650Y0261971D02*
X0050647Y0261971D01*
X0050148Y0261473D02*
X0005650Y0261473D01*
X0005650Y0260974D02*
X0049650Y0260974D01*
X0049151Y0260476D02*
X0005650Y0260476D01*
X0005650Y0259977D02*
X0048653Y0259977D01*
X0048154Y0259479D02*
X0005650Y0259479D01*
X0005650Y0258980D02*
X0047655Y0258980D01*
X0047157Y0258482D02*
X0005650Y0258482D01*
X0005650Y0257983D02*
X0046658Y0257983D01*
X0046160Y0257485D02*
X0005650Y0257485D01*
X0005650Y0256986D02*
X0045661Y0256986D01*
X0045163Y0256488D02*
X0005650Y0256488D01*
X0005650Y0255989D02*
X0044664Y0255989D01*
X0044166Y0255491D02*
X0005650Y0255491D01*
X0005650Y0254992D02*
X0043667Y0254992D01*
X0043169Y0254494D02*
X0005650Y0254494D01*
X0005650Y0253995D02*
X0042670Y0253995D01*
X0042172Y0253497D02*
X0026342Y0253497D01*
X0027527Y0252998D02*
X0041673Y0252998D01*
X0041175Y0252500D02*
X0028026Y0252500D01*
X0028524Y0252001D02*
X0040676Y0252001D01*
X0040178Y0251503D02*
X0028864Y0251503D01*
X0029071Y0251004D02*
X0039679Y0251004D01*
X0039181Y0250506D02*
X0029277Y0250506D01*
X0029422Y0250007D02*
X0038682Y0250007D01*
X0038184Y0249509D02*
X0029422Y0249509D01*
X0029422Y0249010D02*
X0037685Y0249010D01*
X0037187Y0248512D02*
X0029422Y0248512D01*
X0029259Y0248013D02*
X0036688Y0248013D01*
X0036190Y0247515D02*
X0029052Y0247515D01*
X0028846Y0247016D02*
X0035691Y0247016D01*
X0035193Y0246518D02*
X0028480Y0246518D01*
X0027982Y0246019D02*
X0034694Y0246019D01*
X0034196Y0245521D02*
X0027439Y0245521D01*
X0027629Y0245022D02*
X0033697Y0245022D01*
X0033199Y0244524D02*
X0028128Y0244524D01*
X0028626Y0244025D02*
X0032700Y0244025D01*
X0029216Y0240037D02*
X0044742Y0240037D01*
X0044244Y0239538D02*
X0029010Y0239538D01*
X0028803Y0239040D02*
X0043745Y0239040D01*
X0043247Y0238541D02*
X0028378Y0238541D01*
X0027879Y0238043D02*
X0042748Y0238043D01*
X0042550Y0237544D02*
X0027192Y0237544D01*
X0025989Y0237046D02*
X0042550Y0237046D01*
X0042550Y0236547D02*
X0005650Y0236547D01*
X0005650Y0236049D02*
X0042550Y0236049D01*
X0042550Y0235550D02*
X0005650Y0235550D01*
X0005650Y0235052D02*
X0042550Y0235052D01*
X0042652Y0234553D02*
X0005650Y0234553D01*
X0005650Y0234055D02*
X0043150Y0234055D01*
X0043649Y0233556D02*
X0005650Y0233556D01*
X0005650Y0233058D02*
X0044148Y0233058D01*
X0044646Y0232559D02*
X0005650Y0232559D01*
X0005650Y0232061D02*
X0044650Y0232061D01*
X0044650Y0231562D02*
X0005650Y0231562D01*
X0005650Y0231064D02*
X0044650Y0231064D01*
X0044650Y0230565D02*
X0005650Y0230565D01*
X0005650Y0230067D02*
X0044650Y0230067D01*
X0044650Y0229568D02*
X0005650Y0229568D01*
X0005650Y0229070D02*
X0044650Y0229070D01*
X0044650Y0228571D02*
X0005650Y0228571D01*
X0005650Y0228073D02*
X0044650Y0228073D01*
X0044650Y0227574D02*
X0005650Y0227574D01*
X0005650Y0227076D02*
X0044650Y0227076D01*
X0044650Y0226577D02*
X0005650Y0226577D01*
X0005650Y0226079D02*
X0044650Y0226079D01*
X0044650Y0225580D02*
X0005650Y0225580D01*
X0005650Y0225082D02*
X0044650Y0225082D01*
X0044650Y0224583D02*
X0005650Y0224583D01*
X0005650Y0224085D02*
X0044650Y0224085D01*
X0044650Y0223586D02*
X0005650Y0223586D01*
X0005650Y0223088D02*
X0044650Y0223088D01*
X0044650Y0222589D02*
X0005650Y0222589D01*
X0005650Y0222091D02*
X0044650Y0222091D01*
X0044650Y0221592D02*
X0005650Y0221592D01*
X0005650Y0221093D02*
X0044650Y0221093D01*
X0044650Y0220595D02*
X0005650Y0220595D01*
X0005650Y0220096D02*
X0044650Y0220096D01*
X0044650Y0219598D02*
X0005650Y0219598D01*
X0005650Y0219099D02*
X0044650Y0219099D01*
X0044650Y0218601D02*
X0005650Y0218601D01*
X0005650Y0218102D02*
X0044650Y0218102D01*
X0044650Y0217604D02*
X0005650Y0217604D01*
X0005650Y0217105D02*
X0044650Y0217105D01*
X0044650Y0216607D02*
X0005650Y0216607D01*
X0005650Y0216108D02*
X0044650Y0216108D01*
X0044650Y0215610D02*
X0005650Y0215610D01*
X0005650Y0215111D02*
X0044650Y0215111D01*
X0044650Y0214613D02*
X0005650Y0214613D01*
X0005650Y0214114D02*
X0044650Y0214114D01*
X0044650Y0213616D02*
X0005650Y0213616D01*
X0005650Y0213117D02*
X0044650Y0213117D01*
X0044650Y0212619D02*
X0005650Y0212619D01*
X0005650Y0212120D02*
X0044650Y0212120D01*
X0044650Y0211622D02*
X0005650Y0211622D01*
X0005650Y0211123D02*
X0044650Y0211123D01*
X0044650Y0210625D02*
X0005650Y0210625D01*
X0005650Y0210126D02*
X0044650Y0210126D01*
X0044650Y0209628D02*
X0005650Y0209628D01*
X0005650Y0209129D02*
X0044650Y0209129D01*
X0044650Y0208631D02*
X0005650Y0208631D01*
X0005650Y0208132D02*
X0044650Y0208132D01*
X0044650Y0207634D02*
X0005650Y0207634D01*
X0005650Y0207135D02*
X0044650Y0207135D01*
X0044650Y0206637D02*
X0005650Y0206637D01*
X0005650Y0206138D02*
X0044650Y0206138D01*
X0044650Y0205640D02*
X0005650Y0205640D01*
X0005650Y0205141D02*
X0044650Y0205141D01*
X0044650Y0204643D02*
X0005650Y0204643D01*
X0005650Y0204144D02*
X0044650Y0204144D01*
X0044650Y0203646D02*
X0005650Y0203646D01*
X0005650Y0203147D02*
X0044650Y0203147D01*
X0044650Y0202649D02*
X0005650Y0202649D01*
X0005650Y0202150D02*
X0044650Y0202150D01*
X0044650Y0201652D02*
X0005650Y0201652D01*
X0005650Y0201153D02*
X0044650Y0201153D01*
X0044650Y0200655D02*
X0005650Y0200655D01*
X0005650Y0200156D02*
X0045019Y0200156D01*
X0045518Y0199658D02*
X0005650Y0199658D01*
X0005650Y0199159D02*
X0046016Y0199159D01*
X0046515Y0198660D02*
X0005650Y0198660D01*
X0005650Y0198162D02*
X0047013Y0198162D01*
X0047512Y0197663D02*
X0005650Y0197663D01*
X0005650Y0197165D02*
X0048010Y0197165D01*
X0048509Y0196666D02*
X0005650Y0196666D01*
X0005650Y0196168D02*
X0049007Y0196168D01*
X0049506Y0195669D02*
X0005650Y0195669D01*
X0005650Y0195171D02*
X0050004Y0195171D01*
X0050503Y0194672D02*
X0005650Y0194672D01*
X0005650Y0194174D02*
X0051001Y0194174D01*
X0051500Y0193675D02*
X0005650Y0193675D01*
X0005650Y0193177D02*
X0051998Y0193177D01*
X0052497Y0192678D02*
X0005650Y0192678D01*
X0005650Y0192180D02*
X0052550Y0192180D01*
X0052550Y0191681D02*
X0005650Y0191681D01*
X0005650Y0191183D02*
X0052550Y0191183D01*
X0052550Y0190684D02*
X0005650Y0190684D01*
X0005650Y0190186D02*
X0052550Y0190186D01*
X0052550Y0189687D02*
X0005650Y0189687D01*
X0005650Y0189189D02*
X0052550Y0189189D01*
X0052550Y0188690D02*
X0005650Y0188690D01*
X0005650Y0188192D02*
X0052550Y0188192D01*
X0052629Y0187693D02*
X0005650Y0187693D01*
X0005650Y0187195D02*
X0052836Y0187195D01*
X0053042Y0186696D02*
X0005650Y0186696D01*
X0005650Y0186198D02*
X0053408Y0186198D01*
X0053906Y0185699D02*
X0005650Y0185699D01*
X0005650Y0185201D02*
X0053876Y0185201D01*
X0053377Y0184702D02*
X0048393Y0184702D01*
X0048891Y0184204D02*
X0052879Y0184204D01*
X0052380Y0183705D02*
X0049390Y0183705D01*
X0049888Y0183207D02*
X0051882Y0183207D01*
X0051383Y0182708D02*
X0050250Y0182708D01*
X0050250Y0182210D02*
X0050885Y0182210D01*
X0050386Y0181711D02*
X0050250Y0181711D01*
X0051846Y0178222D02*
X0059650Y0178222D01*
X0059650Y0178720D02*
X0052345Y0178720D01*
X0052843Y0179219D02*
X0059650Y0179219D01*
X0059650Y0179717D02*
X0053342Y0179717D01*
X0053840Y0180216D02*
X0059650Y0180216D01*
X0059650Y0180714D02*
X0054339Y0180714D01*
X0054837Y0181213D02*
X0059650Y0181213D01*
X0059650Y0181711D02*
X0055336Y0181711D01*
X0055834Y0182210D02*
X0059650Y0182210D01*
X0059650Y0182708D02*
X0056333Y0182708D01*
X0056831Y0183207D02*
X0059650Y0183207D01*
X0059650Y0183705D02*
X0057330Y0183705D01*
X0057829Y0184204D02*
X0059650Y0184204D01*
X0059650Y0184702D02*
X0058150Y0184702D01*
X0058150Y0185201D02*
X0059650Y0185201D01*
X0059650Y0185699D02*
X0058894Y0185699D01*
X0059392Y0186198D02*
X0059650Y0186198D01*
X0063150Y0186198D02*
X0063408Y0186198D01*
X0063150Y0185699D02*
X0063906Y0185699D01*
X0063150Y0185201D02*
X0064667Y0185201D01*
X0066150Y0185201D02*
X0066650Y0185201D01*
X0066650Y0184800D02*
X0066779Y0184800D01*
X0067523Y0184948D01*
X0068224Y0185238D01*
X0068854Y0185660D01*
X0069390Y0186196D01*
X0069812Y0186826D01*
X0070102Y0187527D01*
X0070250Y0188271D01*
X0070250Y0191000D01*
X0066650Y0191000D01*
X0066650Y0184800D01*
X0066650Y0185699D02*
X0066150Y0185699D01*
X0066150Y0186198D02*
X0066650Y0186198D01*
X0066650Y0186696D02*
X0066150Y0186696D01*
X0066150Y0187195D02*
X0066650Y0187195D01*
X0066650Y0187693D02*
X0066150Y0187693D01*
X0066150Y0188192D02*
X0066650Y0188192D01*
X0066650Y0188690D02*
X0066150Y0188690D01*
X0066150Y0189189D02*
X0066650Y0189189D01*
X0066650Y0189687D02*
X0066150Y0189687D01*
X0066150Y0190186D02*
X0066650Y0190186D01*
X0066650Y0190684D02*
X0066150Y0190684D01*
X0066650Y0191183D02*
X0072550Y0191183D01*
X0072550Y0191681D02*
X0070250Y0191681D01*
X0070250Y0192180D02*
X0072550Y0192180D01*
X0072550Y0192678D02*
X0070250Y0192678D01*
X0070250Y0193177D02*
X0072550Y0193177D01*
X0072550Y0193675D02*
X0070250Y0193675D01*
X0070250Y0194174D02*
X0072550Y0194174D01*
X0072573Y0194672D02*
X0070162Y0194672D01*
X0070020Y0195171D02*
X0072780Y0195171D01*
X0072986Y0195669D02*
X0069814Y0195669D01*
X0069482Y0196168D02*
X0073273Y0196168D01*
X0073772Y0196666D02*
X0069028Y0196666D01*
X0068369Y0197165D02*
X0074342Y0197165D01*
X0072550Y0190684D02*
X0070250Y0190684D01*
X0070250Y0190186D02*
X0072550Y0190186D01*
X0072550Y0189687D02*
X0070250Y0189687D01*
X0070250Y0189189D02*
X0072550Y0189189D01*
X0072550Y0188690D02*
X0070250Y0188690D01*
X0070234Y0188192D02*
X0072550Y0188192D01*
X0072629Y0187693D02*
X0070135Y0187693D01*
X0069964Y0187195D02*
X0072836Y0187195D01*
X0073042Y0186696D02*
X0069725Y0186696D01*
X0069392Y0186198D02*
X0073408Y0186198D01*
X0073906Y0185699D02*
X0068894Y0185699D01*
X0068133Y0185201D02*
X0074667Y0185201D01*
X0066650Y0191681D02*
X0066150Y0191681D01*
X0066150Y0192180D02*
X0066650Y0192180D01*
X0066650Y0192678D02*
X0066150Y0192678D01*
X0066150Y0193177D02*
X0066650Y0193177D01*
X0066650Y0193675D02*
X0066150Y0193675D01*
X0066150Y0194174D02*
X0066650Y0194174D01*
X0066650Y0194672D02*
X0066150Y0194672D01*
X0066150Y0195171D02*
X0066650Y0195171D01*
X0066650Y0195669D02*
X0066150Y0195669D01*
X0066150Y0196168D02*
X0066650Y0196168D01*
X0066650Y0196666D02*
X0066150Y0196666D01*
X0066150Y0197165D02*
X0066650Y0197165D01*
X0059650Y0177723D02*
X0051348Y0177723D01*
X0050849Y0177224D02*
X0059650Y0177224D01*
X0059650Y0176726D02*
X0050351Y0176726D01*
X0049852Y0176227D02*
X0059650Y0176227D01*
X0059650Y0175729D02*
X0049354Y0175729D01*
X0048855Y0175230D02*
X0059945Y0175230D01*
X0060443Y0174732D02*
X0048363Y0174732D01*
X0048861Y0174233D02*
X0060942Y0174233D01*
X0061440Y0173735D02*
X0049360Y0173735D01*
X0049858Y0173236D02*
X0061939Y0173236D01*
X0062437Y0172738D02*
X0050250Y0172738D01*
X0050250Y0172239D02*
X0062936Y0172239D01*
X0063434Y0171741D02*
X0050250Y0171741D01*
X0050250Y0171242D02*
X0063933Y0171242D01*
X0064431Y0170744D02*
X0050250Y0170744D01*
X0050250Y0170245D02*
X0064930Y0170245D01*
X0065428Y0169747D02*
X0050250Y0169747D01*
X0049843Y0169248D02*
X0065927Y0169248D01*
X0066425Y0168750D02*
X0049345Y0168750D01*
X0048846Y0168251D02*
X0066924Y0168251D01*
X0067422Y0167753D02*
X0048347Y0167753D01*
X0044452Y0167753D02*
X0005650Y0167753D01*
X0005650Y0168251D02*
X0043954Y0168251D01*
X0043455Y0168750D02*
X0005650Y0168750D01*
X0005650Y0169248D02*
X0042957Y0169248D01*
X0042550Y0169747D02*
X0005650Y0169747D01*
X0005650Y0170245D02*
X0042550Y0170245D01*
X0042550Y0170744D02*
X0005650Y0170744D01*
X0005650Y0171242D02*
X0042550Y0171242D01*
X0042550Y0171741D02*
X0005650Y0171741D01*
X0005650Y0172239D02*
X0042550Y0172239D01*
X0042550Y0172738D02*
X0005650Y0172738D01*
X0005650Y0173236D02*
X0042942Y0173236D01*
X0043440Y0173735D02*
X0005650Y0173735D01*
X0005650Y0174233D02*
X0043939Y0174233D01*
X0044437Y0174732D02*
X0005650Y0174732D01*
X0005650Y0175230D02*
X0044650Y0175230D01*
X0044650Y0175729D02*
X0005650Y0175729D01*
X0005650Y0176227D02*
X0044903Y0176227D01*
X0045401Y0176726D02*
X0005650Y0176726D01*
X0005650Y0177224D02*
X0045900Y0177224D01*
X0044482Y0177723D02*
X0005650Y0177723D01*
X0005650Y0178222D02*
X0043984Y0178222D01*
X0043485Y0178720D02*
X0005650Y0178720D01*
X0005650Y0179219D02*
X0042987Y0179219D01*
X0042550Y0179717D02*
X0005650Y0179717D01*
X0005650Y0180216D02*
X0042550Y0180216D01*
X0042550Y0180714D02*
X0005650Y0180714D01*
X0005650Y0181213D02*
X0046150Y0181213D01*
X0046150Y0181711D02*
X0046650Y0181711D01*
X0046650Y0182210D02*
X0046150Y0182210D01*
X0046150Y0182708D02*
X0046650Y0182708D01*
X0046650Y0183207D02*
X0046150Y0183207D01*
X0046150Y0183705D02*
X0046650Y0183705D01*
X0046650Y0184204D02*
X0046150Y0184204D01*
X0046150Y0184702D02*
X0046650Y0184702D01*
X0044407Y0184702D02*
X0005650Y0184702D01*
X0005650Y0184204D02*
X0043909Y0184204D01*
X0043410Y0183705D02*
X0005650Y0183705D01*
X0005650Y0183207D02*
X0042912Y0183207D01*
X0042550Y0182708D02*
X0005650Y0182708D01*
X0005650Y0182210D02*
X0042550Y0182210D01*
X0042550Y0181711D02*
X0005650Y0181711D01*
X0005650Y0158281D02*
X0022288Y0158281D01*
X0021789Y0157783D02*
X0005650Y0157783D01*
X0005650Y0157284D02*
X0021292Y0157284D01*
X0021085Y0156786D02*
X0005650Y0156786D01*
X0005650Y0156287D02*
X0020879Y0156287D01*
X0020672Y0155789D02*
X0005650Y0155789D01*
X0005650Y0155290D02*
X0020622Y0155290D01*
X0020622Y0154791D02*
X0005650Y0154791D01*
X0005650Y0154293D02*
X0020622Y0154293D01*
X0020674Y0153794D02*
X0005650Y0153794D01*
X0005650Y0153296D02*
X0020880Y0153296D01*
X0021087Y0152797D02*
X0005650Y0152797D01*
X0005650Y0152299D02*
X0021294Y0152299D01*
X0021793Y0151800D02*
X0005650Y0151800D01*
X0005650Y0151302D02*
X0022291Y0151302D01*
X0022902Y0150803D02*
X0005650Y0150803D01*
X0005650Y0150305D02*
X0022186Y0150305D01*
X0021687Y0149806D02*
X0005650Y0149806D01*
X0005650Y0149308D02*
X0021249Y0149308D01*
X0021043Y0148809D02*
X0005650Y0148809D01*
X0005650Y0148311D02*
X0020836Y0148311D01*
X0020630Y0147812D02*
X0005650Y0147812D01*
X0005650Y0147314D02*
X0020622Y0147314D01*
X0020622Y0146815D02*
X0005650Y0146815D01*
X0005650Y0146317D02*
X0020622Y0146317D01*
X0020716Y0145818D02*
X0005650Y0145818D01*
X0005650Y0145320D02*
X0020922Y0145320D01*
X0021129Y0144821D02*
X0005650Y0144821D01*
X0005650Y0144323D02*
X0021397Y0144323D01*
X0021895Y0143824D02*
X0005650Y0143824D01*
X0005650Y0143326D02*
X0022394Y0143326D01*
X0022656Y0142827D02*
X0005650Y0142827D01*
X0005650Y0142329D02*
X0022083Y0142329D01*
X0021585Y0141830D02*
X0005650Y0141830D01*
X0005650Y0141332D02*
X0021207Y0141332D01*
X0021001Y0140833D02*
X0005650Y0140833D01*
X0005650Y0140335D02*
X0020794Y0140335D01*
X0020622Y0139836D02*
X0005650Y0139836D01*
X0005650Y0139338D02*
X0020622Y0139338D01*
X0020622Y0138839D02*
X0005650Y0138839D01*
X0005650Y0138341D02*
X0020622Y0138341D01*
X0020758Y0137842D02*
X0005650Y0137842D01*
X0005650Y0137344D02*
X0020965Y0137344D01*
X0021171Y0136845D02*
X0005650Y0136845D01*
X0005650Y0136347D02*
X0021499Y0136347D01*
X0021997Y0135848D02*
X0005650Y0135848D01*
X0005650Y0135350D02*
X0022496Y0135350D01*
X0022480Y0134851D02*
X0005650Y0134851D01*
X0005650Y0134353D02*
X0021981Y0134353D01*
X0021483Y0133854D02*
X0005650Y0133854D01*
X0005650Y0133355D02*
X0021165Y0133355D01*
X0020958Y0132857D02*
X0005650Y0132857D01*
X0005650Y0132358D02*
X0020752Y0132358D01*
X0020622Y0131860D02*
X0005650Y0131860D01*
X0005650Y0131361D02*
X0020622Y0131361D01*
X0020622Y0130863D02*
X0005650Y0130863D01*
X0005650Y0130364D02*
X0020622Y0130364D01*
X0020801Y0129866D02*
X0005650Y0129866D01*
X0005650Y0129367D02*
X0021007Y0129367D01*
X0021214Y0128869D02*
X0005650Y0128869D01*
X0005650Y0128370D02*
X0021601Y0128370D01*
X0022099Y0127872D02*
X0005650Y0127872D01*
X0005650Y0127373D02*
X0022694Y0127373D01*
X0023898Y0126875D02*
X0005650Y0126875D01*
X0005650Y0111421D02*
X0022873Y0111421D01*
X0022173Y0110922D02*
X0005650Y0110922D01*
X0005650Y0110424D02*
X0021675Y0110424D01*
X0021244Y0109925D02*
X0005650Y0109925D01*
X0005650Y0109427D02*
X0021038Y0109427D01*
X0020831Y0108928D02*
X0005650Y0108928D01*
X0005650Y0108430D02*
X0020625Y0108430D01*
X0020622Y0107931D02*
X0005650Y0107931D01*
X0005650Y0107433D02*
X0020622Y0107433D01*
X0020622Y0106934D02*
X0005650Y0106934D01*
X0005650Y0106436D02*
X0020721Y0106436D01*
X0020928Y0105937D02*
X0005650Y0105937D01*
X0005650Y0105439D02*
X0021134Y0105439D01*
X0021409Y0104940D02*
X0005650Y0104940D01*
X0005650Y0104442D02*
X0021907Y0104442D01*
X0022406Y0103943D02*
X0005650Y0103943D01*
X0005650Y0103445D02*
X0022729Y0103445D01*
X0022071Y0102946D02*
X0005650Y0102946D01*
X0005650Y0102448D02*
X0021598Y0102448D01*
X0021243Y0101949D02*
X0005650Y0101949D01*
X0005650Y0101451D02*
X0020989Y0101451D01*
X0020811Y0100952D02*
X0005650Y0100952D01*
X0005650Y0100454D02*
X0020691Y0100454D01*
X0020622Y0099955D02*
X0005650Y0099955D01*
X0027388Y0142827D02*
X0034502Y0142827D01*
X0034004Y0142329D02*
X0027961Y0142329D01*
X0027650Y0143326D02*
X0043031Y0143326D01*
X0043530Y0143824D02*
X0028149Y0143824D01*
X0028647Y0144323D02*
X0044028Y0144323D01*
X0068506Y0124881D02*
X0074586Y0124881D01*
X0074088Y0124382D02*
X0068712Y0124382D01*
X0069211Y0123884D02*
X0073589Y0123884D01*
X0073091Y0123385D02*
X0069709Y0123385D01*
X0070208Y0122887D02*
X0072592Y0122887D01*
X0072550Y0122388D02*
X0070250Y0122388D01*
X0070250Y0121890D02*
X0072550Y0121890D01*
X0076150Y0121890D02*
X0076650Y0121890D01*
X0076650Y0122388D02*
X0076150Y0122388D01*
X0076150Y0122887D02*
X0076650Y0122887D01*
X0076650Y0123385D02*
X0076150Y0123385D01*
X0076150Y0123884D02*
X0076650Y0123884D01*
X0076650Y0124382D02*
X0076150Y0124382D01*
X0076150Y0124881D02*
X0076650Y0124881D01*
X0073989Y0130364D02*
X0082600Y0130364D01*
X0082550Y0130863D02*
X0074488Y0130863D01*
X0074986Y0131361D02*
X0082550Y0131361D01*
X0082550Y0131860D02*
X0075485Y0131860D01*
X0075983Y0132358D02*
X0082550Y0132358D01*
X0082550Y0132857D02*
X0076482Y0132857D01*
X0076980Y0133355D02*
X0082550Y0133355D01*
X0082550Y0133854D02*
X0077479Y0133854D01*
X0077977Y0134353D02*
X0082550Y0134353D01*
X0082550Y0134851D02*
X0078476Y0134851D01*
X0078974Y0135350D02*
X0082550Y0135350D01*
X0082550Y0135848D02*
X0079473Y0135848D01*
X0079971Y0136347D02*
X0082550Y0136347D01*
X0082550Y0136845D02*
X0080470Y0136845D01*
X0080968Y0137344D02*
X0082603Y0137344D01*
X0082809Y0137842D02*
X0081467Y0137842D01*
X0081965Y0138341D02*
X0083016Y0138341D01*
X0083344Y0138839D02*
X0082464Y0138839D01*
X0082962Y0139338D02*
X0083843Y0139338D01*
X0083461Y0139836D02*
X0084514Y0139836D01*
X0083960Y0140335D02*
X0095840Y0140335D01*
X0095342Y0140833D02*
X0084458Y0140833D01*
X0084957Y0141332D02*
X0094843Y0141332D01*
X0094650Y0141830D02*
X0085455Y0141830D01*
X0082806Y0129866D02*
X0073491Y0129866D01*
X0069719Y0116406D02*
X0138882Y0116406D01*
X0138882Y0115908D02*
X0070217Y0115908D01*
X0071713Y0114412D02*
X0074117Y0114412D01*
X0073619Y0113914D02*
X0072211Y0113914D01*
X0072710Y0113415D02*
X0073120Y0113415D01*
X0071250Y0109925D02*
X0070250Y0109925D01*
X0070250Y0110424D02*
X0070751Y0110424D01*
X0070253Y0110922D02*
X0070250Y0110922D01*
X0070022Y0109427D02*
X0072778Y0109427D01*
X0073277Y0108928D02*
X0069523Y0108928D01*
X0069025Y0108430D02*
X0073775Y0108430D01*
X0074274Y0107931D02*
X0068526Y0107931D01*
X0068028Y0107433D02*
X0074772Y0107433D01*
X0070148Y0102946D02*
X0082935Y0102946D01*
X0082729Y0102448D02*
X0070250Y0102448D01*
X0070250Y0101949D02*
X0082550Y0101949D01*
X0082550Y0101451D02*
X0070250Y0101451D01*
X0070250Y0100952D02*
X0082550Y0100952D01*
X0082550Y0100454D02*
X0070250Y0100454D01*
X0070250Y0099955D02*
X0082550Y0099955D01*
X0082550Y0099457D02*
X0070051Y0099457D01*
X0069553Y0098958D02*
X0082550Y0098958D01*
X0082550Y0098460D02*
X0069054Y0098460D01*
X0068556Y0097961D02*
X0082550Y0097961D01*
X0082550Y0097463D02*
X0068057Y0097463D01*
X0069650Y0103445D02*
X0083150Y0103445D01*
X0083649Y0103943D02*
X0069151Y0103943D01*
X0068653Y0104442D02*
X0084147Y0104442D01*
X0085249Y0104940D02*
X0068154Y0104940D01*
X0070091Y0085000D02*
X0070175Y0085000D01*
X0070250Y0084501D02*
X0070674Y0084501D01*
X0070250Y0084003D02*
X0071172Y0084003D01*
X0071671Y0083504D02*
X0070250Y0083504D01*
X0070250Y0083006D02*
X0072169Y0083006D01*
X0072550Y0082507D02*
X0070250Y0082507D01*
X0070250Y0082009D02*
X0072550Y0082009D01*
X0072550Y0081510D02*
X0070250Y0081510D01*
X0070250Y0081012D02*
X0072550Y0081012D01*
X0072550Y0080513D02*
X0070250Y0080513D01*
X0070250Y0080015D02*
X0072550Y0080015D01*
X0072550Y0079516D02*
X0070250Y0079516D01*
X0070250Y0079018D02*
X0072550Y0079018D01*
X0072550Y0078519D02*
X0070250Y0078519D01*
X0070250Y0078021D02*
X0072550Y0078021D01*
X0072700Y0077522D02*
X0070100Y0077522D01*
X0069894Y0077024D02*
X0072906Y0077024D01*
X0073113Y0076525D02*
X0069687Y0076525D01*
X0069221Y0076027D02*
X0073579Y0076027D01*
X0074077Y0075528D02*
X0068723Y0075528D01*
X0067720Y0075030D02*
X0075080Y0075030D01*
X0075634Y0057700D02*
X0074219Y0057114D01*
X0073136Y0056031D01*
X0072550Y0054616D01*
X0072550Y0047884D01*
X0073136Y0046469D01*
X0074219Y0045386D01*
X0075634Y0044800D01*
X0077166Y0044800D01*
X0078581Y0045386D01*
X0079664Y0046469D01*
X0080250Y0047884D01*
X0080250Y0054616D01*
X0079664Y0056031D01*
X0078581Y0057114D01*
X0077166Y0057700D01*
X0075634Y0057700D01*
X0075349Y0057582D02*
X0067451Y0057582D01*
X0068611Y0057083D02*
X0074189Y0057083D01*
X0073690Y0056585D02*
X0069110Y0056585D01*
X0069608Y0056086D02*
X0073192Y0056086D01*
X0072953Y0055588D02*
X0069847Y0055588D01*
X0070054Y0055089D02*
X0072746Y0055089D01*
X0072550Y0054591D02*
X0070250Y0054591D01*
X0070250Y0054092D02*
X0072550Y0054092D01*
X0072550Y0053594D02*
X0070250Y0053594D01*
X0070250Y0053095D02*
X0072550Y0053095D01*
X0072550Y0052597D02*
X0070250Y0052597D01*
X0070250Y0052098D02*
X0072550Y0052098D01*
X0072550Y0051600D02*
X0070250Y0051600D01*
X0070250Y0051101D02*
X0072550Y0051101D01*
X0072550Y0050603D02*
X0070250Y0050603D01*
X0070250Y0050104D02*
X0072550Y0050104D01*
X0072550Y0049606D02*
X0070250Y0049606D01*
X0070250Y0049107D02*
X0072550Y0049107D01*
X0072550Y0048609D02*
X0070250Y0048609D01*
X0070250Y0048110D02*
X0072550Y0048110D01*
X0072663Y0047612D02*
X0070137Y0047612D01*
X0069931Y0047113D02*
X0072869Y0047113D01*
X0073076Y0046615D02*
X0069724Y0046615D01*
X0069311Y0046116D02*
X0073489Y0046116D01*
X0073988Y0045618D02*
X0068812Y0045618D01*
X0067936Y0045119D02*
X0074864Y0045119D01*
X0077936Y0045119D02*
X0084864Y0045119D01*
X0083988Y0045618D02*
X0078812Y0045618D01*
X0079311Y0046116D02*
X0083489Y0046116D01*
X0083076Y0046615D02*
X0079724Y0046615D01*
X0079931Y0047113D02*
X0082869Y0047113D01*
X0082663Y0047612D02*
X0080137Y0047612D01*
X0080250Y0048110D02*
X0082550Y0048110D01*
X0082550Y0048609D02*
X0080250Y0048609D01*
X0080250Y0049107D02*
X0082550Y0049107D01*
X0082550Y0049606D02*
X0080250Y0049606D01*
X0080250Y0050104D02*
X0082550Y0050104D01*
X0082550Y0050603D02*
X0080250Y0050603D01*
X0080250Y0051101D02*
X0082550Y0051101D01*
X0082550Y0051600D02*
X0080250Y0051600D01*
X0080250Y0052098D02*
X0082550Y0052098D01*
X0082550Y0052597D02*
X0080250Y0052597D01*
X0080250Y0053095D02*
X0082550Y0053095D01*
X0082550Y0053594D02*
X0080250Y0053594D01*
X0080250Y0054092D02*
X0082550Y0054092D01*
X0082550Y0054591D02*
X0080250Y0054591D01*
X0080054Y0055089D02*
X0082746Y0055089D01*
X0082953Y0055588D02*
X0079847Y0055588D01*
X0079608Y0056086D02*
X0083192Y0056086D01*
X0083690Y0056585D02*
X0079110Y0056585D01*
X0078611Y0057083D02*
X0084189Y0057083D01*
X0085349Y0057582D02*
X0077451Y0057582D01*
X0086619Y0039514D02*
X0085536Y0038431D01*
X0084950Y0037016D01*
X0084950Y0035484D01*
X0085536Y0034069D01*
X0086619Y0032986D01*
X0088034Y0032400D01*
X0094766Y0032400D01*
X0096181Y0032986D01*
X0097264Y0034069D01*
X0097850Y0035484D01*
X0097850Y0037016D01*
X0097264Y0038431D01*
X0096181Y0039514D01*
X0094766Y0040100D01*
X0088034Y0040100D01*
X0086619Y0039514D01*
X0086912Y0039635D02*
X0065888Y0039635D01*
X0066558Y0039137D02*
X0086242Y0039137D01*
X0085744Y0038638D02*
X0067056Y0038638D01*
X0067384Y0038140D02*
X0085416Y0038140D01*
X0085209Y0037641D02*
X0067591Y0037641D01*
X0067797Y0037143D02*
X0085003Y0037143D01*
X0084950Y0036644D02*
X0067850Y0036644D01*
X0067850Y0036146D02*
X0084950Y0036146D01*
X0084950Y0035647D02*
X0067850Y0035647D01*
X0067711Y0035149D02*
X0085089Y0035149D01*
X0085295Y0034650D02*
X0067505Y0034650D01*
X0067298Y0034152D02*
X0085502Y0034152D01*
X0085952Y0033653D02*
X0066848Y0033653D01*
X0066349Y0033155D02*
X0086451Y0033155D01*
X0087416Y0032656D02*
X0065384Y0032656D01*
X0049174Y0058579D02*
X0091596Y0058579D01*
X0091098Y0059077D02*
X0049672Y0059077D01*
X0023156Y0016704D02*
X0121376Y0016704D01*
X0121242Y0016205D02*
X0023290Y0016205D01*
X0023423Y0015707D02*
X0121109Y0015707D01*
X0120975Y0015208D02*
X0023557Y0015208D01*
X0023691Y0014710D02*
X0120842Y0014710D01*
X0120772Y0014211D02*
X0023760Y0014211D01*
X0023760Y0013713D02*
X0120772Y0013713D01*
X0120772Y0013214D02*
X0023760Y0013214D01*
X0023760Y0012716D02*
X0120772Y0012716D01*
X0120772Y0012217D02*
X0023760Y0012217D01*
X0023760Y0011719D02*
X0120772Y0011719D01*
X0120893Y0011220D02*
X0023639Y0011220D01*
X0023506Y0010722D02*
X0121027Y0010722D01*
X0121160Y0010223D02*
X0023372Y0010223D01*
X0023238Y0009725D02*
X0121294Y0009725D01*
X0121427Y0009226D02*
X0023105Y0009226D01*
X0022890Y0008728D02*
X0121642Y0008728D01*
X0121930Y0008229D02*
X0022603Y0008229D01*
X0022315Y0007731D02*
X0122218Y0007731D01*
X0122505Y0007232D02*
X0022027Y0007232D01*
X0021739Y0006734D02*
X0122793Y0006734D01*
X0123228Y0006235D02*
X0021304Y0006235D01*
X0020805Y0005737D02*
X0123727Y0005737D01*
X0121531Y0017202D02*
X0023001Y0017202D01*
X0022713Y0017701D02*
X0121819Y0017701D01*
X0122107Y0018199D02*
X0022426Y0018199D01*
X0022138Y0018698D02*
X0122395Y0018698D01*
X0122682Y0019196D02*
X0021850Y0019196D01*
X0021496Y0019695D02*
X0123036Y0019695D01*
X0123535Y0020193D02*
X0020997Y0020193D01*
X0020499Y0020692D02*
X0124033Y0020692D01*
X0124532Y0021190D02*
X0020000Y0021190D01*
X0019365Y0021689D02*
X0125167Y0021689D01*
X0126030Y0022187D02*
X0018502Y0022187D01*
X0017639Y0022686D02*
X0126894Y0022686D01*
X0128344Y0023184D02*
X0016189Y0023184D01*
X0087836Y0092478D02*
X0094650Y0092478D01*
X0094029Y0092976D02*
X0088771Y0092976D01*
X0089269Y0093475D02*
X0093531Y0093475D01*
X0093093Y0093973D02*
X0089707Y0093973D01*
X0089913Y0094472D02*
X0092887Y0094472D01*
X0092680Y0094970D02*
X0090120Y0094970D01*
X0090250Y0095469D02*
X0092550Y0095469D01*
X0092550Y0095967D02*
X0090250Y0095967D01*
X0090250Y0096466D02*
X0092550Y0096466D01*
X0092550Y0096964D02*
X0090250Y0096964D01*
X0090250Y0097463D02*
X0092550Y0097463D01*
X0092550Y0097961D02*
X0090250Y0097961D01*
X0090250Y0098460D02*
X0092550Y0098460D01*
X0092550Y0098958D02*
X0090250Y0098958D01*
X0090250Y0099457D02*
X0092550Y0099457D01*
X0092550Y0099955D02*
X0090250Y0099955D01*
X0090250Y0100454D02*
X0092550Y0100454D01*
X0092550Y0100952D02*
X0090250Y0100952D01*
X0090250Y0101451D02*
X0092550Y0101451D01*
X0092550Y0101949D02*
X0090250Y0101949D01*
X0090071Y0102448D02*
X0092729Y0102448D01*
X0092935Y0102946D02*
X0089865Y0102946D01*
X0089650Y0103445D02*
X0093150Y0103445D01*
X0093649Y0103943D02*
X0089151Y0103943D01*
X0088653Y0104442D02*
X0094147Y0104442D01*
X0095249Y0104940D02*
X0087551Y0104940D01*
X0097551Y0104940D02*
X0105249Y0104940D01*
X0104147Y0104442D02*
X0098653Y0104442D01*
X0099151Y0103943D02*
X0103649Y0103943D01*
X0103150Y0103445D02*
X0099650Y0103445D01*
X0099865Y0102946D02*
X0102935Y0102946D01*
X0102729Y0102448D02*
X0100071Y0102448D01*
X0100250Y0101949D02*
X0102550Y0101949D01*
X0102550Y0101451D02*
X0100250Y0101451D01*
X0100250Y0100952D02*
X0102550Y0100952D01*
X0102550Y0100454D02*
X0100250Y0100454D01*
X0100250Y0099955D02*
X0102550Y0099955D01*
X0102550Y0099457D02*
X0100250Y0099457D01*
X0100250Y0098958D02*
X0102550Y0098958D01*
X0102550Y0098460D02*
X0100250Y0098460D01*
X0100250Y0097961D02*
X0102550Y0097961D01*
X0102550Y0097463D02*
X0100250Y0097463D01*
X0100250Y0096964D02*
X0102550Y0096964D01*
X0102550Y0096466D02*
X0100250Y0096466D01*
X0100250Y0095967D02*
X0102550Y0095967D01*
X0102550Y0095469D02*
X0100250Y0095469D01*
X0100120Y0094970D02*
X0102680Y0094970D01*
X0102887Y0094472D02*
X0099913Y0094472D01*
X0099707Y0093973D02*
X0103093Y0093973D01*
X0103531Y0093475D02*
X0099269Y0093475D01*
X0098771Y0092976D02*
X0104029Y0092976D01*
X0104650Y0092478D02*
X0098150Y0092478D01*
X0098150Y0091979D02*
X0104650Y0091979D01*
X0104650Y0091481D02*
X0098150Y0091481D01*
X0098150Y0090982D02*
X0104650Y0090982D01*
X0104650Y0090484D02*
X0098150Y0090484D01*
X0098150Y0089985D02*
X0104650Y0089985D01*
X0104650Y0089487D02*
X0098150Y0089487D01*
X0098150Y0088988D02*
X0104650Y0088988D01*
X0104650Y0088489D02*
X0098150Y0088489D01*
X0098150Y0087991D02*
X0104650Y0087991D01*
X0104650Y0087492D02*
X0098150Y0087492D01*
X0098150Y0086994D02*
X0104650Y0086994D01*
X0104650Y0086495D02*
X0098150Y0086495D01*
X0098150Y0085997D02*
X0104650Y0085997D01*
X0104650Y0085498D02*
X0098150Y0085498D01*
X0098150Y0085000D02*
X0104650Y0085000D01*
X0104650Y0084501D02*
X0098150Y0084501D01*
X0098150Y0084003D02*
X0104650Y0084003D01*
X0104650Y0083504D02*
X0098150Y0083504D01*
X0098150Y0083006D02*
X0104650Y0083006D01*
X0104650Y0082507D02*
X0098150Y0082507D01*
X0098150Y0082009D02*
X0104650Y0082009D01*
X0104650Y0081510D02*
X0098135Y0081510D01*
X0097637Y0081012D02*
X0104650Y0081012D01*
X0104650Y0080513D02*
X0097138Y0080513D01*
X0098080Y0080015D02*
X0104650Y0080015D01*
X0104650Y0079516D02*
X0098578Y0079516D01*
X0099077Y0079018D02*
X0104650Y0079018D01*
X0104650Y0078519D02*
X0099575Y0078519D01*
X0100074Y0078021D02*
X0104650Y0078021D01*
X0104650Y0077522D02*
X0100250Y0077522D01*
X0100250Y0077024D02*
X0104650Y0077024D01*
X0104650Y0076525D02*
X0100250Y0076525D01*
X0100250Y0076027D02*
X0104650Y0076027D01*
X0104650Y0075528D02*
X0100250Y0075528D01*
X0100250Y0075030D02*
X0104650Y0075030D01*
X0104650Y0074531D02*
X0100126Y0074531D01*
X0099627Y0074033D02*
X0104650Y0074033D01*
X0104650Y0073534D02*
X0099129Y0073534D01*
X0098630Y0073036D02*
X0104650Y0073036D01*
X0104650Y0072537D02*
X0098132Y0072537D01*
X0094668Y0072537D02*
X0093150Y0072537D01*
X0093150Y0072039D02*
X0104650Y0072039D01*
X0104650Y0071540D02*
X0093150Y0071540D01*
X0093150Y0071042D02*
X0104650Y0071042D01*
X0104650Y0070543D02*
X0093150Y0070543D01*
X0093150Y0070045D02*
X0104650Y0070045D01*
X0104650Y0069546D02*
X0093150Y0069546D01*
X0093150Y0069048D02*
X0104650Y0069048D01*
X0104650Y0068549D02*
X0093150Y0068549D01*
X0093150Y0068051D02*
X0104650Y0068051D01*
X0104650Y0067552D02*
X0093150Y0067552D01*
X0093150Y0067053D02*
X0104650Y0067053D01*
X0104650Y0066555D02*
X0093150Y0066555D01*
X0093150Y0066056D02*
X0104650Y0066056D01*
X0104650Y0065558D02*
X0093150Y0065558D01*
X0093150Y0065059D02*
X0104650Y0065059D01*
X0104650Y0064561D02*
X0093150Y0064561D01*
X0093150Y0064062D02*
X0104650Y0064062D01*
X0104650Y0063564D02*
X0093150Y0063564D01*
X0093150Y0063065D02*
X0104650Y0063065D01*
X0104650Y0062567D02*
X0093150Y0062567D01*
X0093150Y0062068D02*
X0104650Y0062068D01*
X0104650Y0061570D02*
X0093555Y0061570D01*
X0094053Y0061071D02*
X0104650Y0061071D01*
X0104650Y0060573D02*
X0094552Y0060573D01*
X0098020Y0060074D02*
X0104650Y0060074D01*
X0104650Y0059576D02*
X0098519Y0059576D01*
X0099017Y0059077D02*
X0104650Y0059077D01*
X0104650Y0058579D02*
X0099516Y0058579D01*
X0100014Y0058080D02*
X0104650Y0058080D01*
X0104650Y0057582D02*
X0100250Y0057582D01*
X0100250Y0057083D02*
X0104650Y0057083D01*
X0104650Y0056585D02*
X0100250Y0056585D01*
X0100250Y0056086D02*
X0104650Y0056086D01*
X0104650Y0055588D02*
X0100250Y0055588D01*
X0100250Y0055089D02*
X0104650Y0055089D01*
X0104650Y0054591D02*
X0100185Y0054591D01*
X0099687Y0054092D02*
X0104650Y0054092D01*
X0104650Y0053594D02*
X0099188Y0053594D01*
X0098690Y0053095D02*
X0104650Y0053095D01*
X0104650Y0052597D02*
X0098191Y0052597D01*
X0095888Y0039635D02*
X0114540Y0039635D01*
X0115038Y0039137D02*
X0096558Y0039137D01*
X0097056Y0038638D02*
X0115537Y0038638D01*
X0115352Y0038140D02*
X0097384Y0038140D01*
X0097591Y0037641D02*
X0115145Y0037641D01*
X0115111Y0037143D02*
X0097797Y0037143D01*
X0097850Y0036644D02*
X0115111Y0036644D01*
X0115111Y0036146D02*
X0097850Y0036146D01*
X0097850Y0035647D02*
X0115177Y0035647D01*
X0115384Y0035149D02*
X0097711Y0035149D01*
X0097505Y0034650D02*
X0115590Y0034650D01*
X0115820Y0034152D02*
X0097298Y0034152D01*
X0096848Y0033653D02*
X0116318Y0033653D01*
X0116817Y0033155D02*
X0096349Y0033155D01*
X0095384Y0032656D02*
X0117735Y0032656D01*
X0121285Y0032656D02*
X0138882Y0032656D01*
X0138882Y0033155D02*
X0122204Y0033155D01*
X0122702Y0033653D02*
X0138882Y0033653D01*
X0138882Y0034152D02*
X0123201Y0034152D01*
X0123430Y0034650D02*
X0138882Y0034650D01*
X0138882Y0035149D02*
X0123637Y0035149D01*
X0123843Y0035647D02*
X0138882Y0035647D01*
X0138882Y0036146D02*
X0123910Y0036146D01*
X0123910Y0036644D02*
X0138882Y0036644D01*
X0138882Y0037143D02*
X0123910Y0037143D01*
X0123875Y0037641D02*
X0138882Y0037641D01*
X0138882Y0038140D02*
X0123669Y0038140D01*
X0123462Y0038638D02*
X0138882Y0038638D01*
X0138882Y0039137D02*
X0123256Y0039137D01*
X0122780Y0039635D02*
X0138882Y0039635D01*
X0138882Y0040134D02*
X0122281Y0040134D01*
X0121532Y0040632D02*
X0138882Y0040632D01*
X0138882Y0041131D02*
X0122306Y0041131D01*
X0122805Y0041629D02*
X0138882Y0041629D01*
X0138882Y0042128D02*
X0123266Y0042128D01*
X0123473Y0042626D02*
X0138882Y0042626D01*
X0138882Y0043125D02*
X0123679Y0043125D01*
X0123886Y0043623D02*
X0138882Y0043623D01*
X0138882Y0044122D02*
X0123910Y0044122D01*
X0123910Y0044620D02*
X0138882Y0044620D01*
X0138882Y0045119D02*
X0123910Y0045119D01*
X0123833Y0045618D02*
X0138882Y0045618D01*
X0138882Y0046116D02*
X0123627Y0046116D01*
X0123420Y0046615D02*
X0138882Y0046615D01*
X0138882Y0047113D02*
X0123176Y0047113D01*
X0122678Y0047612D02*
X0138882Y0047612D01*
X0138882Y0048110D02*
X0122179Y0048110D01*
X0121226Y0048609D02*
X0138882Y0048609D01*
X0114964Y0092478D02*
X0108150Y0092478D01*
X0108771Y0092976D02*
X0114029Y0092976D01*
X0113531Y0093475D02*
X0109269Y0093475D01*
X0109707Y0093973D02*
X0113093Y0093973D01*
X0112887Y0094472D02*
X0109913Y0094472D01*
X0110120Y0094970D02*
X0112680Y0094970D01*
X0112550Y0095469D02*
X0110250Y0095469D01*
X0110250Y0095967D02*
X0112550Y0095967D01*
X0112550Y0096466D02*
X0110250Y0096466D01*
X0110250Y0096964D02*
X0112550Y0096964D01*
X0112550Y0097463D02*
X0110250Y0097463D01*
X0110250Y0097961D02*
X0112550Y0097961D01*
X0112550Y0098460D02*
X0110250Y0098460D01*
X0110250Y0098958D02*
X0112550Y0098958D01*
X0112550Y0099457D02*
X0110250Y0099457D01*
X0110250Y0099955D02*
X0112550Y0099955D01*
X0112550Y0100454D02*
X0110250Y0100454D01*
X0110250Y0100952D02*
X0112550Y0100952D01*
X0112550Y0101451D02*
X0110250Y0101451D01*
X0110250Y0101949D02*
X0112550Y0101949D01*
X0112729Y0102448D02*
X0110071Y0102448D01*
X0109865Y0102946D02*
X0112935Y0102946D01*
X0113150Y0103445D02*
X0109650Y0103445D01*
X0109151Y0103943D02*
X0113649Y0103943D01*
X0114147Y0104442D02*
X0108653Y0104442D01*
X0107551Y0104940D02*
X0115249Y0104940D01*
X0115634Y0127400D02*
X0114219Y0127986D01*
X0113136Y0129069D01*
X0112550Y0130484D01*
X0112550Y0137216D01*
X0113136Y0138631D01*
X0114219Y0139714D01*
X0115634Y0140300D01*
X0117166Y0140300D01*
X0118581Y0139714D01*
X0119664Y0138631D01*
X0120250Y0137216D01*
X0120250Y0130484D01*
X0119664Y0129069D01*
X0118581Y0127986D01*
X0117166Y0127400D01*
X0115634Y0127400D01*
X0114495Y0127872D02*
X0108305Y0127872D01*
X0108965Y0128370D02*
X0113835Y0128370D01*
X0113336Y0128869D02*
X0109464Y0128869D01*
X0109787Y0129367D02*
X0113013Y0129367D01*
X0112806Y0129866D02*
X0109994Y0129866D01*
X0110200Y0130364D02*
X0112600Y0130364D01*
X0112550Y0130863D02*
X0110250Y0130863D01*
X0110250Y0131361D02*
X0112550Y0131361D01*
X0112550Y0131860D02*
X0110250Y0131860D01*
X0110250Y0132358D02*
X0112550Y0132358D01*
X0112550Y0132857D02*
X0110250Y0132857D01*
X0110250Y0133355D02*
X0112550Y0133355D01*
X0112550Y0133854D02*
X0110250Y0133854D01*
X0110250Y0134353D02*
X0112550Y0134353D01*
X0112550Y0134851D02*
X0110250Y0134851D01*
X0110250Y0135350D02*
X0112550Y0135350D01*
X0112550Y0135848D02*
X0110250Y0135848D01*
X0110250Y0136347D02*
X0112550Y0136347D01*
X0112550Y0136845D02*
X0110250Y0136845D01*
X0110197Y0137344D02*
X0112603Y0137344D01*
X0112809Y0137842D02*
X0109991Y0137842D01*
X0109784Y0138341D02*
X0113016Y0138341D01*
X0113344Y0138839D02*
X0109456Y0138839D01*
X0108957Y0139338D02*
X0113843Y0139338D01*
X0114514Y0139836D02*
X0108286Y0139836D01*
X0100826Y0135350D02*
X0100250Y0135350D01*
X0100250Y0135848D02*
X0100327Y0135848D01*
X0098983Y0155789D02*
X0103817Y0155789D01*
X0103318Y0156287D02*
X0099482Y0156287D01*
X0099795Y0156786D02*
X0103005Y0156786D01*
X0102799Y0157284D02*
X0100001Y0157284D01*
X0100208Y0157783D02*
X0102592Y0157783D01*
X0102550Y0158281D02*
X0100250Y0158281D01*
X0100250Y0158780D02*
X0102550Y0158780D01*
X0102550Y0159278D02*
X0100250Y0159278D01*
X0100250Y0159777D02*
X0102550Y0159777D01*
X0102550Y0160275D02*
X0100250Y0160275D01*
X0100250Y0160774D02*
X0102550Y0160774D01*
X0102550Y0161272D02*
X0100250Y0161272D01*
X0100250Y0161771D02*
X0102550Y0161771D01*
X0102550Y0162269D02*
X0100250Y0162269D01*
X0100250Y0162768D02*
X0102550Y0162768D01*
X0102550Y0163266D02*
X0100250Y0163266D01*
X0100250Y0163765D02*
X0102550Y0163765D01*
X0102550Y0164263D02*
X0100250Y0164263D01*
X0100190Y0164762D02*
X0102610Y0164762D01*
X0102817Y0165260D02*
X0099983Y0165260D01*
X0099777Y0165759D02*
X0103023Y0165759D01*
X0103363Y0166257D02*
X0099437Y0166257D01*
X0098939Y0166756D02*
X0103861Y0166756D01*
X0104558Y0167254D02*
X0098242Y0167254D01*
X0105846Y0178222D02*
X0138882Y0178222D01*
X0138882Y0178720D02*
X0106345Y0178720D01*
X0106843Y0179219D02*
X0138882Y0179219D01*
X0138882Y0179717D02*
X0107342Y0179717D01*
X0107840Y0180216D02*
X0138882Y0180216D01*
X0138882Y0180714D02*
X0108339Y0180714D01*
X0108837Y0181213D02*
X0138882Y0181213D01*
X0138882Y0181711D02*
X0109336Y0181711D01*
X0109834Y0182210D02*
X0138882Y0182210D01*
X0138882Y0182708D02*
X0110333Y0182708D01*
X0110831Y0183207D02*
X0138882Y0183207D01*
X0138882Y0183705D02*
X0111330Y0183705D01*
X0111829Y0184204D02*
X0138882Y0184204D01*
X0138882Y0184702D02*
X0112327Y0184702D01*
X0112826Y0185201D02*
X0114667Y0185201D01*
X0113906Y0185699D02*
X0113324Y0185699D01*
X0111365Y0188690D02*
X0110250Y0188690D01*
X0110250Y0188192D02*
X0110867Y0188192D01*
X0110368Y0187693D02*
X0110171Y0187693D01*
X0110250Y0189189D02*
X0111864Y0189189D01*
X0112362Y0189687D02*
X0110250Y0189687D01*
X0110250Y0190186D02*
X0112550Y0190186D01*
X0112550Y0190684D02*
X0110250Y0190684D01*
X0110250Y0191183D02*
X0112550Y0191183D01*
X0112550Y0191681D02*
X0110250Y0191681D01*
X0110250Y0192180D02*
X0112550Y0192180D01*
X0112550Y0192678D02*
X0110250Y0192678D01*
X0110250Y0193177D02*
X0112550Y0193177D01*
X0112550Y0193675D02*
X0110250Y0193675D01*
X0110250Y0194174D02*
X0112550Y0194174D01*
X0112573Y0194672D02*
X0110227Y0194672D01*
X0110020Y0195171D02*
X0112780Y0195171D01*
X0112986Y0195669D02*
X0109814Y0195669D01*
X0109527Y0196168D02*
X0113273Y0196168D01*
X0113772Y0196666D02*
X0109028Y0196666D01*
X0108458Y0197165D02*
X0114342Y0197165D01*
X0115546Y0197663D02*
X0107254Y0197663D01*
X0117254Y0197663D02*
X0138882Y0197663D01*
X0138882Y0197165D02*
X0118458Y0197165D01*
X0119028Y0196666D02*
X0138882Y0196666D01*
X0138882Y0196168D02*
X0119527Y0196168D01*
X0119814Y0195669D02*
X0138882Y0195669D01*
X0138882Y0195171D02*
X0120020Y0195171D01*
X0120227Y0194672D02*
X0138882Y0194672D01*
X0138882Y0194174D02*
X0120250Y0194174D01*
X0120250Y0193675D02*
X0138882Y0193675D01*
X0138882Y0193177D02*
X0120250Y0193177D01*
X0120250Y0192678D02*
X0138882Y0192678D01*
X0138882Y0192180D02*
X0120250Y0192180D01*
X0120250Y0191681D02*
X0138882Y0191681D01*
X0138882Y0191183D02*
X0120250Y0191183D01*
X0120250Y0190684D02*
X0138882Y0190684D01*
X0138882Y0190186D02*
X0120250Y0190186D01*
X0120250Y0189687D02*
X0138882Y0189687D01*
X0138882Y0189189D02*
X0120250Y0189189D01*
X0120250Y0188690D02*
X0138882Y0188690D01*
X0138882Y0188192D02*
X0120250Y0188192D01*
X0120171Y0187693D02*
X0138882Y0187693D01*
X0138882Y0187195D02*
X0119964Y0187195D01*
X0119758Y0186696D02*
X0138882Y0186696D01*
X0138882Y0186198D02*
X0119392Y0186198D01*
X0118894Y0185699D02*
X0138882Y0185699D01*
X0138882Y0185201D02*
X0118133Y0185201D01*
X0120250Y0160774D02*
X0138882Y0160774D01*
X0138882Y0160275D02*
X0120250Y0160275D01*
X0120250Y0159777D02*
X0138882Y0159777D01*
X0138882Y0159278D02*
X0120250Y0159278D01*
X0120250Y0158780D02*
X0138882Y0158780D01*
X0138882Y0158281D02*
X0120250Y0158281D01*
X0120153Y0157783D02*
X0138882Y0157783D01*
X0138882Y0157284D02*
X0120001Y0157284D01*
X0119785Y0156786D02*
X0138882Y0156786D01*
X0138882Y0156287D02*
X0119451Y0156287D01*
X0118983Y0155789D02*
X0138882Y0155789D01*
X0138882Y0155290D02*
X0118301Y0155290D01*
X0118286Y0139836D02*
X0138882Y0139836D01*
X0138882Y0139338D02*
X0118957Y0139338D01*
X0119456Y0138839D02*
X0138882Y0138839D01*
X0138882Y0138341D02*
X0119784Y0138341D01*
X0119991Y0137842D02*
X0138882Y0137842D01*
X0138882Y0137344D02*
X0120197Y0137344D01*
X0120250Y0136845D02*
X0138882Y0136845D01*
X0138882Y0136347D02*
X0120250Y0136347D01*
X0120250Y0135848D02*
X0138882Y0135848D01*
X0138882Y0135350D02*
X0120250Y0135350D01*
X0120250Y0134851D02*
X0138882Y0134851D01*
X0138882Y0134353D02*
X0120250Y0134353D01*
X0120250Y0133854D02*
X0138882Y0133854D01*
X0138882Y0133355D02*
X0120250Y0133355D01*
X0120250Y0132857D02*
X0138882Y0132857D01*
X0138882Y0132358D02*
X0120250Y0132358D01*
X0120250Y0131860D02*
X0138882Y0131860D01*
X0138882Y0131361D02*
X0120250Y0131361D01*
X0120250Y0130863D02*
X0138882Y0130863D01*
X0138882Y0130364D02*
X0120200Y0130364D01*
X0119994Y0129866D02*
X0138882Y0129866D01*
X0138882Y0129367D02*
X0119787Y0129367D01*
X0119464Y0128869D02*
X0138882Y0128869D01*
X0138882Y0128370D02*
X0118965Y0128370D01*
X0118305Y0127872D02*
X0138882Y0127872D01*
X0094170Y0073036D02*
X0093150Y0073036D01*
X0093150Y0073534D02*
X0093671Y0073534D01*
X0093173Y0074033D02*
X0093150Y0074033D01*
X0086650Y0185201D02*
X0086150Y0185201D01*
X0086150Y0185699D02*
X0086650Y0185699D01*
X0086650Y0186198D02*
X0086150Y0186198D01*
X0086150Y0186696D02*
X0086650Y0186696D01*
X0086650Y0187195D02*
X0086150Y0187195D01*
X0086150Y0187693D02*
X0086650Y0187693D01*
X0086650Y0188192D02*
X0086150Y0188192D01*
X0086150Y0188690D02*
X0086650Y0188690D01*
X0086650Y0189189D02*
X0086150Y0189189D01*
X0086150Y0189687D02*
X0086650Y0189687D01*
X0086650Y0190186D02*
X0086150Y0190186D01*
X0086150Y0190684D02*
X0086650Y0190684D01*
X0086650Y0192180D02*
X0086150Y0192180D01*
X0086150Y0192678D02*
X0086650Y0192678D01*
X0086650Y0193177D02*
X0086150Y0193177D01*
X0086150Y0193675D02*
X0086650Y0193675D01*
X0086650Y0194174D02*
X0086150Y0194174D01*
X0086150Y0194672D02*
X0086650Y0194672D01*
X0086650Y0195171D02*
X0086150Y0195171D01*
X0086150Y0195669D02*
X0086650Y0195669D01*
X0086650Y0196168D02*
X0086150Y0196168D01*
X0086150Y0196666D02*
X0086650Y0196666D01*
X0086650Y0197165D02*
X0086150Y0197165D01*
X0086150Y0220096D02*
X0086650Y0220096D01*
X0086650Y0220595D02*
X0086150Y0220595D01*
X0086150Y0221093D02*
X0086650Y0221093D01*
X0086650Y0221592D02*
X0086150Y0221592D01*
X0086150Y0222091D02*
X0086650Y0222091D01*
X0086650Y0222589D02*
X0086150Y0222589D01*
X0086150Y0223088D02*
X0086650Y0223088D01*
X0086650Y0223586D02*
X0086150Y0223586D01*
X0086150Y0224085D02*
X0086650Y0224085D01*
X0086650Y0224583D02*
X0086150Y0224583D01*
X0086150Y0225082D02*
X0086650Y0225082D01*
X0086650Y0225580D02*
X0086150Y0225580D01*
X0086150Y0227076D02*
X0086650Y0227076D01*
X0086650Y0227574D02*
X0086150Y0227574D01*
X0086150Y0228073D02*
X0086650Y0228073D01*
X0086650Y0228571D02*
X0086150Y0228571D01*
X0086150Y0229070D02*
X0086650Y0229070D01*
X0086650Y0229568D02*
X0086150Y0229568D01*
X0086150Y0230067D02*
X0086650Y0230067D01*
X0086650Y0230565D02*
X0086150Y0230565D01*
X0086150Y0231064D02*
X0086650Y0231064D01*
X0086650Y0231562D02*
X0086150Y0231562D01*
X0086150Y0232061D02*
X0086650Y0232061D01*
X0086650Y0232559D02*
X0086150Y0232559D01*
X0087487Y0232559D02*
X0092550Y0232559D01*
X0092550Y0232061D02*
X0088525Y0232061D01*
X0089132Y0231562D02*
X0092550Y0231562D01*
X0092550Y0231064D02*
X0089551Y0231064D01*
X0089857Y0230565D02*
X0092550Y0230565D01*
X0092550Y0230067D02*
X0090063Y0230067D01*
X0090183Y0229568D02*
X0092637Y0229568D01*
X0093136Y0229070D02*
X0090250Y0229070D01*
X0090250Y0228571D02*
X0093634Y0228571D01*
X0094133Y0228073D02*
X0090250Y0228073D01*
X0090250Y0227574D02*
X0094631Y0227574D01*
X0092763Y0233058D02*
X0048652Y0233058D01*
X0048154Y0232559D02*
X0055294Y0232559D01*
X0054166Y0232061D02*
X0048150Y0232061D01*
X0048150Y0231562D02*
X0053668Y0231562D01*
X0053169Y0231064D02*
X0048150Y0231064D01*
X0048150Y0230565D02*
X0052943Y0230565D01*
X0052737Y0230067D02*
X0048150Y0230067D01*
X0048150Y0229568D02*
X0052550Y0229568D01*
X0052550Y0229070D02*
X0048150Y0229070D01*
X0048150Y0228571D02*
X0052550Y0228571D01*
X0052550Y0228073D02*
X0048150Y0228073D01*
X0048150Y0227574D02*
X0052550Y0227574D01*
X0052550Y0227076D02*
X0048150Y0227076D01*
X0048150Y0226577D02*
X0052550Y0226577D01*
X0052550Y0226079D02*
X0048150Y0226079D01*
X0048150Y0225580D02*
X0052550Y0225580D01*
X0052550Y0225082D02*
X0048150Y0225082D01*
X0048150Y0224583D02*
X0052550Y0224583D01*
X0052550Y0224085D02*
X0048150Y0224085D01*
X0048150Y0223586D02*
X0052550Y0223586D01*
X0052550Y0223088D02*
X0048150Y0223088D01*
X0048150Y0222589D02*
X0052672Y0222589D01*
X0052879Y0222091D02*
X0048150Y0222091D01*
X0048150Y0221592D02*
X0053085Y0221592D01*
X0053512Y0221093D02*
X0048150Y0221093D01*
X0048150Y0220595D02*
X0054010Y0220595D01*
X0054650Y0220096D02*
X0048150Y0220096D01*
X0048150Y0219598D02*
X0054650Y0219598D01*
X0054650Y0219099D02*
X0048150Y0219099D01*
X0048150Y0218601D02*
X0054650Y0218601D01*
X0054650Y0218102D02*
X0048150Y0218102D01*
X0048150Y0217604D02*
X0054650Y0217604D01*
X0054650Y0217105D02*
X0048150Y0217105D01*
X0048150Y0216607D02*
X0054650Y0216607D01*
X0054650Y0216108D02*
X0048150Y0216108D01*
X0048150Y0215610D02*
X0054650Y0215610D01*
X0054650Y0215111D02*
X0048150Y0215111D01*
X0048150Y0214613D02*
X0054650Y0214613D01*
X0054650Y0214114D02*
X0048150Y0214114D01*
X0048150Y0213616D02*
X0054650Y0213616D01*
X0054650Y0213117D02*
X0048150Y0213117D01*
X0048150Y0212619D02*
X0054650Y0212619D01*
X0054650Y0212120D02*
X0048150Y0212120D01*
X0048150Y0211622D02*
X0054650Y0211622D01*
X0054650Y0211123D02*
X0048150Y0211123D01*
X0048150Y0210625D02*
X0054650Y0210625D01*
X0054650Y0210126D02*
X0048150Y0210126D01*
X0048150Y0209628D02*
X0054650Y0209628D01*
X0054650Y0209129D02*
X0048150Y0209129D01*
X0048150Y0208631D02*
X0054650Y0208631D01*
X0054650Y0208132D02*
X0048150Y0208132D01*
X0048150Y0207634D02*
X0054650Y0207634D01*
X0054650Y0207135D02*
X0048150Y0207135D01*
X0048150Y0206637D02*
X0054650Y0206637D01*
X0054650Y0206138D02*
X0048150Y0206138D01*
X0048150Y0205640D02*
X0054650Y0205640D01*
X0054650Y0205141D02*
X0048150Y0205141D01*
X0048150Y0204643D02*
X0054650Y0204643D01*
X0054650Y0204144D02*
X0048150Y0204144D01*
X0048150Y0203646D02*
X0054650Y0203646D01*
X0054650Y0203147D02*
X0048150Y0203147D01*
X0048150Y0202649D02*
X0054650Y0202649D01*
X0054650Y0202150D02*
X0048150Y0202150D01*
X0048473Y0201652D02*
X0054650Y0201652D01*
X0054650Y0201153D02*
X0048972Y0201153D01*
X0049470Y0200655D02*
X0054650Y0200655D01*
X0054650Y0200156D02*
X0049969Y0200156D01*
X0050467Y0199658D02*
X0054650Y0199658D01*
X0055016Y0199159D02*
X0050966Y0199159D01*
X0051464Y0198660D02*
X0055515Y0198660D01*
X0056013Y0198162D02*
X0051963Y0198162D01*
X0052461Y0197663D02*
X0055546Y0197663D01*
X0054342Y0197165D02*
X0052960Y0197165D01*
X0053458Y0196666D02*
X0053772Y0196666D01*
X0058790Y0220595D02*
X0064042Y0220595D01*
X0063512Y0221093D02*
X0059288Y0221093D01*
X0059715Y0221592D02*
X0063145Y0221592D01*
X0062879Y0222091D02*
X0059921Y0222091D01*
X0060128Y0222589D02*
X0062686Y0222589D01*
X0062586Y0223088D02*
X0060250Y0223088D01*
X0060250Y0223586D02*
X0062550Y0223586D01*
X0062550Y0224085D02*
X0060250Y0224085D01*
X0060250Y0224583D02*
X0062550Y0224583D01*
X0062550Y0225082D02*
X0060250Y0225082D01*
X0060250Y0225580D02*
X0062550Y0225580D01*
X0067882Y0220096D02*
X0074918Y0220096D01*
X0074042Y0220595D02*
X0068758Y0220595D01*
X0069288Y0221093D02*
X0073512Y0221093D01*
X0073145Y0221592D02*
X0069655Y0221592D01*
X0069921Y0222091D02*
X0072879Y0222091D01*
X0072686Y0222589D02*
X0070114Y0222589D01*
X0070214Y0223088D02*
X0072586Y0223088D01*
X0072550Y0223586D02*
X0070250Y0223586D01*
X0070250Y0224085D02*
X0072550Y0224085D01*
X0072550Y0224583D02*
X0070250Y0224583D01*
X0070250Y0225082D02*
X0072550Y0225082D01*
X0072550Y0225580D02*
X0070250Y0225580D01*
X0070250Y0226577D02*
X0072550Y0226577D01*
X0072550Y0227076D02*
X0070250Y0227076D01*
X0070250Y0227574D02*
X0072550Y0227574D01*
X0072550Y0228073D02*
X0070250Y0228073D01*
X0070250Y0228571D02*
X0072550Y0228571D01*
X0072550Y0229070D02*
X0070250Y0229070D01*
X0070183Y0229568D02*
X0072617Y0229568D01*
X0072737Y0230067D02*
X0070063Y0230067D01*
X0069857Y0230565D02*
X0072943Y0230565D01*
X0073249Y0231064D02*
X0069551Y0231064D01*
X0069132Y0231562D02*
X0073668Y0231562D01*
X0074275Y0232061D02*
X0068525Y0232061D01*
X0067487Y0232559D02*
X0075313Y0232559D01*
X0079199Y0251004D02*
X0083601Y0251004D01*
X0083204Y0251503D02*
X0079678Y0251503D01*
X0079884Y0252001D02*
X0082916Y0252001D01*
X0082709Y0252500D02*
X0080091Y0252500D01*
X0080250Y0252998D02*
X0082604Y0252998D01*
X0082550Y0253497D02*
X0080250Y0253497D01*
X0080250Y0253995D02*
X0082550Y0253995D01*
X0082550Y0254494D02*
X0080250Y0254494D01*
X0080250Y0254992D02*
X0082550Y0254992D01*
X0082550Y0255491D02*
X0080250Y0255491D01*
X0080250Y0255989D02*
X0082550Y0255989D01*
X0086150Y0257485D02*
X0086650Y0257485D01*
X0086650Y0257983D02*
X0086150Y0257983D01*
X0086150Y0258482D02*
X0086650Y0258482D01*
X0086650Y0258980D02*
X0086150Y0258980D01*
X0086150Y0259479D02*
X0086650Y0259479D01*
X0086650Y0259977D02*
X0086150Y0259977D01*
X0086150Y0260476D02*
X0086650Y0260476D01*
X0086650Y0260974D02*
X0086150Y0260974D01*
X0086150Y0261473D02*
X0086650Y0261473D01*
X0086650Y0261971D02*
X0086150Y0261971D01*
X0086150Y0262470D02*
X0086650Y0262470D01*
X0087721Y0262470D02*
X0129501Y0262470D01*
X0133142Y0262470D02*
X0138882Y0262470D01*
X0138882Y0262968D02*
X0135002Y0262968D01*
X0136075Y0263467D02*
X0138882Y0263467D01*
X0138882Y0263965D02*
X0136938Y0263965D01*
X0137801Y0264464D02*
X0138882Y0264464D01*
X0138882Y0264962D02*
X0138299Y0264962D01*
X0138798Y0265461D02*
X0138882Y0265461D01*
X0138882Y0261971D02*
X0088658Y0261971D01*
X0089222Y0261473D02*
X0138882Y0261473D01*
X0138882Y0260974D02*
X0089611Y0260974D01*
X0089894Y0260476D02*
X0138882Y0260476D01*
X0138882Y0259977D02*
X0090100Y0259977D01*
X0090200Y0259479D02*
X0138882Y0259479D01*
X0138882Y0258980D02*
X0090250Y0258980D01*
X0090250Y0258482D02*
X0138882Y0258482D01*
X0138882Y0257983D02*
X0090250Y0257983D01*
X0090250Y0257485D02*
X0138882Y0257485D01*
X0138882Y0256986D02*
X0090250Y0256986D01*
X0090250Y0254992D02*
X0094698Y0254992D01*
X0094199Y0254494D02*
X0090250Y0254494D01*
X0090250Y0253995D02*
X0093701Y0253995D01*
X0093202Y0253497D02*
X0090250Y0253497D01*
X0090635Y0249010D02*
X0093195Y0249010D01*
X0093694Y0248512D02*
X0090136Y0248512D01*
X0089638Y0248013D02*
X0094192Y0248013D01*
X0094691Y0247515D02*
X0089139Y0247515D01*
X0094757Y0235052D02*
X0050250Y0235052D01*
X0050148Y0234553D02*
X0094259Y0234553D01*
X0093760Y0234055D02*
X0049649Y0234055D01*
X0049151Y0233556D02*
X0093262Y0233556D01*
X0098109Y0247515D02*
X0104691Y0247515D01*
X0104192Y0248013D02*
X0098608Y0248013D01*
X0099106Y0248512D02*
X0103694Y0248512D01*
X0103195Y0249010D02*
X0099605Y0249010D01*
X0100103Y0249509D02*
X0102697Y0249509D01*
X0102550Y0250007D02*
X0100250Y0250007D01*
X0100250Y0250506D02*
X0102550Y0250506D01*
X0102550Y0251004D02*
X0100250Y0251004D01*
X0100250Y0251503D02*
X0102550Y0251503D01*
X0102550Y0252001D02*
X0100250Y0252001D01*
X0100250Y0252500D02*
X0102550Y0252500D01*
X0102704Y0252998D02*
X0100096Y0252998D01*
X0099598Y0253497D02*
X0103202Y0253497D01*
X0103701Y0253995D02*
X0099099Y0253995D01*
X0098601Y0254494D02*
X0104199Y0254494D01*
X0104698Y0254992D02*
X0098102Y0254992D01*
X0108109Y0247515D02*
X0114190Y0247515D01*
X0114688Y0248013D02*
X0108608Y0248013D01*
X0109106Y0248512D02*
X0115111Y0248512D01*
X0115111Y0249010D02*
X0109605Y0249010D01*
X0114154Y0242529D02*
X0115249Y0242529D01*
X0115155Y0242031D02*
X0113656Y0242031D01*
X0114653Y0243028D02*
X0115411Y0243028D01*
X0115652Y0243527D02*
X0115151Y0243527D01*
X0115650Y0244025D02*
X0115974Y0244025D01*
X0116148Y0244524D02*
X0116404Y0244524D01*
X0116647Y0245022D02*
X0117000Y0245022D01*
X0123346Y0265960D02*
X0021186Y0265960D01*
X0021671Y0266458D02*
X0122861Y0266458D01*
X0122574Y0266957D02*
X0021959Y0266957D01*
X0022247Y0267455D02*
X0122286Y0267455D01*
X0121998Y0267954D02*
X0022534Y0267954D01*
X0022822Y0268452D02*
X0121710Y0268452D01*
X0121459Y0268951D02*
X0023073Y0268951D01*
X0023207Y0269449D02*
X0121326Y0269449D01*
X0121192Y0269948D02*
X0023340Y0269948D01*
X0023474Y0270446D02*
X0121058Y0270446D01*
X0120925Y0270945D02*
X0023607Y0270945D01*
X0023741Y0271443D02*
X0120791Y0271443D01*
X0120772Y0271942D02*
X0023760Y0271942D01*
X0023760Y0272440D02*
X0120772Y0272440D01*
X0120772Y0272939D02*
X0023760Y0272939D01*
X0023760Y0273437D02*
X0120772Y0273437D01*
X0120772Y0273936D02*
X0023760Y0273936D01*
X0023722Y0274434D02*
X0120810Y0274434D01*
X0120944Y0274933D02*
X0023589Y0274933D01*
X0023455Y0275431D02*
X0121077Y0275431D01*
X0121211Y0275930D02*
X0023321Y0275930D01*
X0023188Y0276428D02*
X0121344Y0276428D01*
X0121478Y0276927D02*
X0023054Y0276927D01*
X0022782Y0277425D02*
X0121751Y0277425D01*
X0122039Y0277924D02*
X0022494Y0277924D01*
X0022206Y0278422D02*
X0122326Y0278422D01*
X0122614Y0278921D02*
X0021918Y0278921D01*
X0021614Y0279419D02*
X0122918Y0279419D01*
X0123417Y0279918D02*
X0021116Y0279918D01*
X0020617Y0280416D02*
X0123915Y0280416D01*
X0054100Y0250506D02*
X0044131Y0250506D01*
X0044629Y0251004D02*
X0053601Y0251004D01*
X0053122Y0251503D02*
X0045128Y0251503D01*
X0045626Y0252001D02*
X0052916Y0252001D01*
X0052709Y0252500D02*
X0046125Y0252500D01*
X0046623Y0252998D02*
X0052550Y0252998D01*
X0052550Y0253497D02*
X0047122Y0253497D01*
X0047620Y0253995D02*
X0052550Y0253995D01*
X0052550Y0254494D02*
X0048119Y0254494D01*
X0048617Y0254992D02*
X0052550Y0254992D01*
X0052550Y0255491D02*
X0049116Y0255491D01*
X0049614Y0255989D02*
X0052550Y0255989D01*
X0052550Y0256488D02*
X0050113Y0256488D01*
X0050611Y0256986D02*
X0052550Y0256986D01*
X0052550Y0257485D02*
X0051110Y0257485D01*
X0051608Y0257983D02*
X0052550Y0257983D01*
X0052550Y0258482D02*
X0052107Y0258482D01*
X0046150Y0246019D02*
X0039644Y0246019D01*
X0040142Y0246518D02*
X0042550Y0246518D01*
X0042550Y0247016D02*
X0040641Y0247016D01*
X0041139Y0247515D02*
X0042550Y0247515D01*
X0042718Y0248013D02*
X0041638Y0248013D01*
X0042136Y0248512D02*
X0043217Y0248512D01*
X0043715Y0249010D02*
X0042635Y0249010D01*
X0043133Y0249509D02*
X0044214Y0249509D01*
X0044712Y0250007D02*
X0043632Y0250007D01*
X0042550Y0245521D02*
X0039145Y0245521D01*
X0038647Y0245022D02*
X0042550Y0245022D01*
X0042682Y0244524D02*
X0038148Y0244524D01*
X0037650Y0244025D02*
X0043180Y0244025D01*
X0043679Y0243527D02*
X0037151Y0243527D01*
X0036653Y0243028D02*
X0044177Y0243028D01*
X0044676Y0242529D02*
X0036154Y0242529D01*
X0046150Y0242529D02*
X0046650Y0242529D01*
X0046650Y0243028D02*
X0046150Y0243028D01*
X0046150Y0243527D02*
X0046650Y0243527D01*
X0046650Y0244025D02*
X0046150Y0244025D01*
X0046150Y0244524D02*
X0046650Y0244524D01*
X0046650Y0245022D02*
X0046150Y0245022D01*
X0046150Y0245521D02*
X0046650Y0245521D01*
X0024055Y0237046D02*
X0005650Y0237046D01*
X0005650Y0237544D02*
X0022852Y0237544D01*
X0022165Y0238043D02*
X0005650Y0238043D01*
X0005650Y0238541D02*
X0021666Y0238541D01*
X0021241Y0239040D02*
X0005650Y0239040D01*
X0005650Y0239538D02*
X0021034Y0239538D01*
X0020828Y0240037D02*
X0005650Y0240037D01*
X0005650Y0240535D02*
X0020622Y0240535D01*
X0020622Y0241034D02*
X0005650Y0241034D01*
X0005650Y0241532D02*
X0020622Y0241532D01*
X0020622Y0242031D02*
X0005650Y0242031D01*
X0005650Y0242529D02*
X0020725Y0242529D01*
X0020931Y0243028D02*
X0005650Y0243028D01*
X0005650Y0243527D02*
X0021138Y0243527D01*
X0021418Y0244025D02*
X0005650Y0244025D01*
X0005650Y0244524D02*
X0021916Y0244524D01*
X0022415Y0245022D02*
X0005650Y0245022D01*
X0005650Y0245521D02*
X0022605Y0245521D01*
X0022062Y0246019D02*
X0005650Y0246019D01*
X0005650Y0246518D02*
X0021564Y0246518D01*
X0021198Y0247016D02*
X0005650Y0247016D01*
X0005650Y0247515D02*
X0020992Y0247515D01*
X0020785Y0248013D02*
X0005650Y0248013D01*
X0005650Y0248512D02*
X0020622Y0248512D01*
X0020622Y0249010D02*
X0005650Y0249010D01*
X0005650Y0249509D02*
X0020622Y0249509D01*
X0020622Y0250007D02*
X0005650Y0250007D01*
X0005650Y0250506D02*
X0020767Y0250506D01*
X0020974Y0251004D02*
X0005650Y0251004D01*
X0005650Y0251503D02*
X0021180Y0251503D01*
X0021520Y0252001D02*
X0005650Y0252001D01*
X0005650Y0252500D02*
X0022018Y0252500D01*
X0022517Y0252998D02*
X0005650Y0252998D01*
X0005650Y0253497D02*
X0023702Y0253497D01*
M02*
